G04 start of page 5 for group 3 idx 3 *
G04 Title: (unknown), notes *
G04 Creator: pcb 1.99z *
G04 CreationDate: Tue Apr 19 20:08:46 2016 UTC *
G04 For: matt *
G04 Format: Gerber/RS-274X *
G04 PCB-Dimensions (mil): 2500.00 3000.00 *
G04 PCB-Coordinate-Origin: lower left *
%MOIN*%
%FSLAX25Y25*%
%LNGROUP3*%
%ADD63C,0.0354*%
%ADD62C,0.1378*%
%ADD61C,0.1181*%
%ADD60C,0.0394*%
%ADD59C,0.0118*%
%ADD58C,0.0118*%
%ADD57C,0.1221*%
%ADD56C,0.0236*%
%ADD55C,0.0236*%
%ADD54C,0.1260*%
%ADD53C,0.0001*%
%ADD52C,0.0394*%
%ADD51C,0.2008*%
%ADD50C,0.1811*%
%ADD49C,0.0630*%
%ADD48C,0.0055*%
%ADD47C,0.0059*%
G54D47*X76378Y241929D02*X78937Y247047D01*
X77362Y242126D02*X91535Y247047D01*
X80315Y241732D02*X106102Y249606D01*
X87402Y241535D02*X120866Y250591D01*
G54D48*X114312Y198365D02*X115300D01*
X113780Y198897D02*X114312Y198365D01*
X113780Y200873D02*Y198897D01*
Y200873D02*X114312Y201405D01*
X115300D01*
X116212Y201025D02*X116592Y201405D01*
X117732D01*
X118112Y201025D01*
Y200265D01*
X116212Y198365D02*X118112Y200265D01*
X116212Y198365D02*X118112D01*
X75122Y200716D02*Y198056D01*
X75502Y197676D01*
X76262D01*
X76642Y198056D01*
Y200716D02*Y198056D01*
X77554Y200108D02*X78162Y200716D01*
Y197676D01*
X77554D02*X78694D01*
X49002Y206130D02*Y203090D01*
X49990Y206130D02*X50522Y205598D01*
Y203622D01*
X49990Y203090D02*X50522Y203622D01*
X48622Y203090D02*X49990D01*
X48622Y206130D02*X49990D01*
X51434Y205522D02*X52042Y206130D01*
Y203090D01*
X51434D02*X52574D01*
X70669Y151012D02*Y147972D01*
X72189D01*
X73101Y150632D02*X73481Y151012D01*
X74621D01*
X75001Y150632D01*
Y149872D01*
X73101Y147972D02*X75001Y149872D01*
X73101Y147972D02*X75001D01*
X71260Y144909D02*Y141869D01*
X72780D01*
X73692Y144301D02*X74300Y144909D01*
Y141869D01*
X73692D02*X74832D01*
X71201Y136161D02*X72189D01*
X70669Y136693D02*X71201Y136161D01*
X70669Y138669D02*Y136693D01*
Y138669D02*X71201Y139201D01*
X72189D01*
X73101Y136541D02*X73481Y136161D01*
X73101Y137149D02*Y136541D01*
Y137149D02*X73633Y137681D01*
X74089D01*
X74621Y137149D01*
Y136541D01*
X74241Y136161D02*X74621Y136541D01*
X73481Y136161D02*X74241D01*
X73101Y138213D02*X73633Y137681D01*
X73101Y138821D02*Y138213D01*
Y138821D02*X73481Y139201D01*
X74241D01*
X74621Y138821D01*
Y138213D01*
X74089Y137681D02*X74621Y138213D01*
X84252Y114004D02*Y111344D01*
X84632Y110964D01*
X85392D01*
X85772Y111344D01*
Y114004D02*Y111344D01*
X86684Y114004D02*X88204D01*
X86684D02*Y112484D01*
X87064Y112864D01*
X87824D01*
X88204Y112484D01*
Y111344D01*
X87824Y110964D02*X88204Y111344D01*
X87064Y110964D02*X87824D01*
X86684Y111344D02*X87064Y110964D01*
X69036Y92066D02*X70024D01*
X68504Y92598D02*X69036Y92066D01*
X68504Y94574D02*Y92598D01*
Y94574D02*X69036Y95106D01*
X70024D01*
X70936D02*X72456D01*
X70936D02*Y93586D01*
X71316Y93966D01*
X72076D01*
X72456Y93586D01*
Y92446D01*
X72076Y92066D02*X72456Y92446D01*
X71316Y92066D02*X72076D01*
X70936Y92446D02*X71316Y92066D01*
X62343Y74350D02*X63331D01*
X61811Y74882D02*X62343Y74350D01*
X61811Y76858D02*Y74882D01*
Y76858D02*X62343Y77390D01*
X63331D01*
X64243Y76782D02*X64851Y77390D01*
Y74350D01*
X64243D02*X65383D01*
X66295Y74730D02*X66675Y74350D01*
X66295Y77010D02*Y74730D01*
Y77010D02*X66675Y77390D01*
X67435D01*
X67815Y77010D01*
Y74730D01*
X67435Y74350D02*X67815Y74730D01*
X66675Y74350D02*X67435D01*
X66295Y75110D02*X67815Y76630D01*
X74803Y76012D02*Y73352D01*
X75183Y72972D01*
X75943D01*
X76323Y73352D01*
Y76012D02*Y73352D01*
X77235Y74112D02*X78755Y76012D01*
X77235Y74112D02*X79135D01*
X78755Y76012D02*Y72972D01*
X113327Y92854D02*X114315D01*
X112795Y93386D02*X113327Y92854D01*
X112795Y95362D02*Y93386D01*
Y95362D02*X113327Y95894D01*
X114315D01*
X116367D02*X116747Y95514D01*
X115607Y95894D02*X116367D01*
X115227Y95514D02*X115607Y95894D01*
X115227Y95514D02*Y93234D01*
X115607Y92854D01*
X116367Y94526D02*X116747Y94146D01*
X115227Y94526D02*X116367D01*
X115607Y92854D02*X116367D01*
X116747Y93234D01*
Y94146D02*Y93234D01*
X117067Y126515D02*X118055D01*
X116535Y127047D02*X117067Y126515D01*
X116535Y129023D02*Y127047D01*
Y129023D02*X117067Y129555D01*
X118055D01*
X119347Y126515D02*X120487Y128035D01*
Y129175D02*Y128035D01*
X120107Y129555D02*X120487Y129175D01*
X119347Y129555D02*X120107D01*
X118967Y129175D02*X119347Y129555D01*
X118967Y129175D02*Y128415D01*
X119347Y128035D01*
X120487D01*
X103091Y135176D02*X104079D01*
X102559Y135708D02*X103091Y135176D01*
X102559Y137684D02*Y135708D01*
Y137684D02*X103091Y138216D01*
X104079D01*
X105371Y135176D02*X106891Y138216D01*
X104991D02*X106891D01*
X176378Y225431D02*Y222431D01*
Y225431D02*X177878D01*
X176378Y224081D02*X177503D01*
X178778Y224831D02*X179378Y225431D01*
Y222431D01*
X178778D02*X179903D01*
X163386Y224662D02*Y222412D01*
Y224662D02*X163761Y225037D01*
X164511D01*
X164886Y224662D01*
Y222787D01*
X164136Y222037D02*X164886Y222787D01*
X163761Y222037D02*X164136D01*
X163386Y222412D02*X163761Y222037D01*
X164136Y223162D02*X164886Y222037D01*
X165786Y224437D02*X166386Y225037D01*
Y222037D01*
X165786D02*X166911D01*
X151561Y225815D02*Y222775D01*
X152549Y225815D02*X153081Y225283D01*
Y223307D01*
X152549Y222775D02*X153081Y223307D01*
X151181Y222775D02*X152549D01*
X151181Y225815D02*X152549D01*
X155133D02*X155513Y225435D01*
X154373Y225815D02*X155133D01*
X153993Y225435D02*X154373Y225815D01*
X153993Y225435D02*Y223155D01*
X154373Y222775D01*
X155133Y224447D02*X155513Y224067D01*
X153993Y224447D02*X155133D01*
X154373Y222775D02*X155133D01*
X155513Y223155D01*
Y224067D02*Y223155D01*
X134449Y225815D02*Y223155D01*
X134829Y222775D01*
X135589D01*
X135969Y223155D01*
Y225815D02*Y223155D01*
X136881Y225435D02*X137261Y225815D01*
X138021D01*
X138401Y225435D01*
X138021Y222775D02*X138401Y223155D01*
X137261Y222775D02*X138021D01*
X136881Y223155D02*X137261Y222775D01*
Y224447D02*X138021D01*
X138401Y225435D02*Y224827D01*
Y224067D02*Y223155D01*
Y224067D02*X138021Y224447D01*
X138401Y224827D02*X138021Y224447D01*
X138976Y212035D02*X140496D01*
X140876Y211655D01*
Y210895D01*
X140496Y210515D02*X140876Y210895D01*
X139356Y210515D02*X140496D01*
X139356Y212035D02*Y208995D01*
X139964Y210515D02*X140876Y208995D01*
X141788Y211655D02*X142168Y212035D01*
X143308D01*
X143688Y211655D01*
Y210895D01*
X141788Y208995D02*X143688Y210895D01*
X141788Y208995D02*X143688D01*
X89155Y275825D02*Y272825D01*
X90130Y275825D02*X90655Y275300D01*
Y273350D01*
X90130Y272825D02*X90655Y273350D01*
X88780Y272825D02*X90130D01*
X88780Y275825D02*X90130D01*
X91555D02*Y272825D01*
Y275825D02*X93430Y272825D01*
Y275825D02*Y272825D01*
X94705Y275825D02*Y272825D01*
X94330Y275825D02*X95830D01*
X96205Y275450D01*
Y274700D01*
X95830Y274325D02*X96205Y274700D01*
X94705Y274325D02*X95830D01*
X70866Y239292D02*Y235632D01*
Y239292D02*X71720Y240512D01*
X73062D01*
X73916Y239292D01*
Y235632D01*
X70866Y238072D02*X73916D01*
X75380Y240512D02*Y235632D01*
Y240512D02*X78430Y235632D01*
Y240512D02*Y235632D01*
X79894Y239902D02*Y236242D01*
Y239902D02*X80504Y240512D01*
X81724D01*
X82334Y239902D01*
Y236242D01*
X81724Y235632D02*X82334Y236242D01*
X80504Y235632D02*X81724D01*
X79894Y236242D02*X80504Y235632D01*
X84408Y240512D02*Y235632D01*
X85994Y240512D02*X86848Y239658D01*
Y236486D01*
X85994Y235632D02*X86848Y236486D01*
X83798Y235632D02*X85994D01*
X83798Y240512D02*X85994D01*
X88312Y238316D02*X90142D01*
X88312Y235632D02*X90752D01*
X88312Y240512D02*Y235632D01*
Y240512D02*X90752D01*
X94656D02*X95266Y239902D01*
X92826Y240512D02*X94656D01*
X92216Y239902D02*X92826Y240512D01*
X92216Y239902D02*Y238682D01*
X92826Y238072D01*
X94656D01*
X95266Y237462D01*
Y236242D01*
X94656Y235632D02*X95266Y236242D01*
X92826Y235632D02*X94656D01*
X92216Y236242D02*X92826Y235632D01*
X77939Y256523D02*Y253483D01*
X78927Y256523D02*X79459Y255991D01*
Y254015D01*
X78927Y253483D02*X79459Y254015D01*
X77559Y253483D02*X78927D01*
X77559Y256523D02*X78927D01*
X80371Y256143D02*X80751Y256523D01*
X81891D01*
X82271Y256143D01*
Y255383D01*
X80371Y253483D02*X82271Y255383D01*
X80371Y253483D02*X82271D01*
X92900Y256327D02*Y253287D01*
X93888Y256327D02*X94420Y255795D01*
Y253819D01*
X93888Y253287D02*X94420Y253819D01*
X92520Y253287D02*X93888D01*
X92520Y256327D02*X93888D01*
X95332Y254427D02*X96852Y256327D01*
X95332Y254427D02*X97232D01*
X96852Y256327D02*Y253287D01*
X99016Y241366D02*X100536D01*
X100916Y240986D01*
Y240226D01*
X100536Y239846D02*X100916Y240226D01*
X99396Y239846D02*X100536D01*
X99396Y241366D02*Y238326D01*
X100004Y239846D02*X100916Y238326D01*
X102208Y241366D02*Y238326D01*
X101828Y241366D02*X103348D01*
X103728Y240986D01*
Y240226D01*
X103348Y239846D02*X103728Y240226D01*
X102208Y239846D02*X103348D01*
X104640Y240758D02*X105248Y241366D01*
Y238326D01*
X104640D02*X105780D01*
X128740Y211838D02*X130260D01*
X130640Y211458D01*
Y210698D01*
X130260Y210318D02*X130640Y210698D01*
X129120Y210318D02*X130260D01*
X129120Y211838D02*Y208798D01*
X129728Y210318D02*X130640Y208798D01*
X131552Y211458D02*X131932Y211838D01*
X132692D01*
X133072Y211458D01*
X132692Y208798D02*X133072Y209178D01*
X131932Y208798D02*X132692D01*
X131552Y209178D02*X131932Y208798D01*
Y210470D02*X132692D01*
X133072Y211458D02*Y210850D01*
Y210090D02*Y209178D01*
Y210090D02*X132692Y210470D01*
X133072Y210850D02*X132692Y210470D01*
X123215Y256327D02*Y253287D01*
X124203Y256327D02*X124735Y255795D01*
Y253819D01*
X124203Y253287D02*X124735Y253819D01*
X122835Y253287D02*X124203D01*
X122835Y256327D02*X124203D01*
X125647D02*X127167D01*
X125647D02*Y254807D01*
X126027Y255187D01*
X126787D01*
X127167Y254807D01*
Y253667D01*
X126787Y253287D02*X127167Y253667D01*
X126027Y253287D02*X126787D01*
X125647Y253667D02*X126027Y253287D01*
X111359Y217066D02*X112347D01*
X110827Y217598D02*X111359Y217066D01*
X110827Y219574D02*Y217598D01*
Y219574D02*X111359Y220106D01*
X112347D01*
X113259Y219726D02*X113639Y220106D01*
X114399D01*
X114779Y219726D01*
X114399Y217066D02*X114779Y217446D01*
X113639Y217066D02*X114399D01*
X113259Y217446D02*X113639Y217066D01*
Y218738D02*X114399D01*
X114779Y219726D02*Y219118D01*
Y218358D02*Y217446D01*
Y218358D02*X114399Y218738D01*
X114779Y219118D02*X114399Y218738D01*
X108603Y175728D02*X109591D01*
X108071Y176260D02*X108603Y175728D01*
X108071Y178236D02*Y176260D01*
Y178236D02*X108603Y178768D01*
X109591D01*
X110503Y178160D02*X111111Y178768D01*
Y175728D01*
X110503D02*X111643D01*
X108057Y256720D02*Y253680D01*
X109045Y256720D02*X109577Y256188D01*
Y254212D01*
X109045Y253680D02*X109577Y254212D01*
X107677Y253680D02*X109045D01*
X107677Y256720D02*X109045D01*
X110489Y256340D02*X110869Y256720D01*
X111629D01*
X112009Y256340D01*
X111629Y253680D02*X112009Y254060D01*
X110869Y253680D02*X111629D01*
X110489Y254060D02*X110869Y253680D01*
Y255352D02*X111629D01*
X112009Y256340D02*Y255732D01*
Y254972D02*Y254060D01*
Y254972D02*X111629Y255352D01*
X112009Y255732D02*X111629Y255352D01*
X121063Y200027D02*Y197367D01*
X121443Y196987D01*
X122203D01*
X122583Y197367D01*
Y200027D02*Y197367D01*
X123495Y199647D02*X123875Y200027D01*
X125015D01*
X125395Y199647D01*
Y198887D01*
X123495Y196987D02*X125395Y198887D01*
X123495Y196987D02*X125395D01*
X130060D02*X131048D01*
X129528Y197519D02*X130060Y196987D01*
X129528Y199495D02*Y197519D01*
Y199495D02*X130060Y200027D01*
X131048D01*
X131960Y198127D02*X133480Y200027D01*
X131960Y198127D02*X133860D01*
X133480Y200027D02*Y196987D01*
G54D49*X30000Y80000D03*
Y70000D03*
Y60000D03*
Y50000D03*
Y40000D03*
Y30000D03*
Y170000D03*
G54D50*X31709Y248492D03*
X51000Y260500D03*
G54D51*Y236878D03*
G54D49*X30000Y160000D03*
Y150000D03*
Y140000D03*
Y130000D03*
Y120000D03*
Y110000D03*
Y100000D03*
X140000Y30000D03*
Y20000D03*
X130000Y30000D03*
Y20000D03*
X120000D03*
Y30000D03*
X179740Y39886D03*
X220000Y30000D03*
Y40000D03*
Y50000D03*
Y60000D03*
Y70000D03*
Y80000D03*
Y90000D03*
G54D52*X151339Y259311D03*
X168661D03*
G54D53*G36*
X122638Y275984D02*Y269685D01*
X128937D01*
Y275984D01*
X122638D01*
G37*
G54D49*X115787Y271835D03*
X105787Y272835D03*
X95787Y271835D03*
X85787Y272835D03*
X75787Y271835D03*
X220000Y100000D03*
Y116000D03*
Y126000D03*
Y136000D03*
Y146000D03*
Y156000D03*
Y166000D03*
Y176000D03*
Y186000D03*
Y196000D03*
Y206000D03*
G54D54*X160000Y20000D03*
X50000D03*
G54D55*X92717Y136614D03*
X118504Y134843D03*
X121654D03*
X83071Y133858D03*
X66535Y155315D03*
Y143504D03*
G54D56*X166929Y176575D03*
X134843Y173819D03*
Y170866D03*
G54D55*X64567Y125394D03*
X71740Y127886D03*
X83858Y146654D03*
X173622Y141732D03*
X170669Y139173D03*
X92717Y139567D03*
G54D56*X102362Y142913D03*
G54D55*X80315Y150591D03*
X49213Y71457D03*
Y63583D03*
X200591Y102559D03*
X144488Y107087D03*
X85827Y91339D03*
X86220Y61614D03*
X108465Y81299D03*
X111417D03*
X112992Y83858D03*
X85630Y80906D03*
X98406Y106594D03*
X92500Y104626D03*
X111614Y104134D03*
X108858Y99803D03*
X90531Y114469D03*
X94469Y110531D03*
X100374Y112500D03*
X88563Y108563D03*
X141732Y108268D03*
X137205Y109449D03*
X139961Y110630D03*
G54D56*X69882Y117520D03*
G54D55*X60236Y121654D03*
G54D56*X76575Y96654D03*
X70079Y101772D03*
G54D55*X86594Y118406D03*
X84626Y112500D03*
X96437Y116437D03*
X92500Y120374D03*
G54D54*X220000Y220000D03*
G54D55*X193898Y272835D03*
G54D56*X177362Y258661D03*
G54D55*X158661D03*
X163189D03*
G54D56*X142717D03*
G54D55*X144094Y226969D03*
X139764Y231496D03*
X148622Y234449D03*
G54D54*X30000Y225000D03*
G54D55*X35630Y181693D03*
G54D56*Y178740D03*
X74606Y217854D03*
X66732D03*
X78543D03*
Y221791D03*
X82480Y217854D03*
Y221791D03*
X86417Y217854D03*
X66732Y221791D03*
X70669D03*
X74606D03*
X86417D03*
G54D55*X113583Y220472D03*
X117913Y209980D03*
Y213917D03*
Y217854D03*
X121850D03*
X125787D03*
X129724D03*
X133661D03*
Y213917D03*
Y209980D03*
Y206043D03*
X117913D03*
X121850D03*
X129724D03*
X125787D03*
X116142Y227756D03*
G54D56*X74606Y206043D03*
Y209980D03*
Y213917D03*
X86417Y206043D03*
Y202106D03*
X82480Y206043D03*
Y202106D03*
X78543Y206043D03*
X66732D03*
X70669Y202106D03*
X66732D03*
X78543D03*
X74606D03*
X66732Y209980D03*
Y213917D03*
X90354Y217854D03*
Y221791D03*
X94291D03*
X98228D03*
Y217854D03*
X94291Y202106D03*
X90354D03*
Y213917D03*
X98228D03*
X90354Y209980D03*
Y206043D03*
X98228Y209980D03*
Y206043D03*
Y202106D03*
X74803Y176713D03*
Y179665D03*
Y173760D03*
X71850Y176713D03*
Y179665D03*
Y173760D03*
G54D55*X99606Y182480D03*
G54D57*G54D58*G54D59*G54D58*G54D59*G54D58*G54D59*G54D58*G54D59*G54D58*G54D59*G54D58*G54D59*G54D58*G54D59*G54D57*G54D58*G54D59*G54D57*G54D59*G54D58*G54D59*G54D58*G54D59*G54D60*G54D61*G54D62*G54D60*G54D63*G54D60*M02*
