G04 start of page 10 for group -4015 idx -4015 *
G04 Title: (unknown), toppaste *
G04 Creator: pcb 1.99z *
G04 CreationDate: Fri May 13 00:02:03 2016 UTC *
G04 For: matt *
G04 Format: Gerber/RS-274X *
G04 PCB-Dimensions (mil): 2500.00 3000.00 *
G04 PCB-Coordinate-Origin: lower left *
%MOIN*%
%FSLAX25Y25*%
%LNTOPPASTE*%
%ADD72C,0.0159*%
%ADD71C,0.0001*%
G54D71*G36*
X75000Y80315D02*X71457D01*
Y76378D01*
X75000D01*
Y80315D01*
G37*
G36*
X83268D02*X79724D01*
Y76378D01*
X83268D01*
Y80315D01*
G37*
G36*
X75000Y72835D02*X71457D01*
Y68898D01*
X75000D01*
Y72835D01*
G37*
G36*
X83268D02*X79724D01*
Y68898D01*
X83268D01*
Y72835D01*
G37*
G36*
X124409Y131121D02*X119291D01*
Y125217D01*
X124409D01*
Y131121D01*
G37*
G36*
X117323D02*X112205D01*
Y125217D01*
X117323D01*
Y131121D01*
G37*
G36*
X216929Y275197D02*X212992D01*
Y262992D01*
X216929D01*
Y275197D01*
G37*
G36*
X201181D02*X197244D01*
Y262992D01*
X201181D01*
Y275197D01*
G37*
G36*
X216929Y240157D02*X212992D01*
Y227953D01*
X216929D01*
Y240157D01*
G37*
G36*
X201181D02*X197244D01*
Y227953D01*
X201181D01*
Y240157D01*
G37*
G36*
X72441Y24606D02*X68504D01*
Y12402D01*
X72441D01*
Y24606D01*
G37*
G36*
X88189D02*X84252D01*
Y12402D01*
X88189D01*
Y24606D01*
G37*
G36*
X72441Y59646D02*X68504D01*
Y47441D01*
X72441D01*
Y59646D01*
G37*
G36*
X88189D02*X84252D01*
Y47441D01*
X88189D01*
Y59646D01*
G37*
G36*
X98563Y238425D02*X96988D01*
Y234882D01*
X98563D01*
Y238425D01*
G37*
G36*
X101713D02*X100138D01*
Y234882D01*
X101713D01*
Y238425D01*
G37*
G36*
X104862D02*X103287D01*
Y234882D01*
X104862D01*
Y238425D01*
G37*
G36*
X108012D02*X106437D01*
Y234882D01*
X108012D01*
Y238425D01*
G37*
G36*
Y245118D02*X106437D01*
Y241575D01*
X108012D01*
Y245118D01*
G37*
G36*
X104862D02*X103287D01*
Y241575D01*
X104862D01*
Y245118D01*
G37*
G36*
X101713D02*X100138D01*
Y241575D01*
X101713D01*
Y245118D01*
G37*
G36*
X98563D02*X96988D01*
Y241575D01*
X98563D01*
Y245118D01*
G37*
G36*
X52323Y199744D02*X49567D01*
Y195020D01*
X52323D01*
Y199744D01*
G37*
G36*
Y214311D02*X49567D01*
Y209587D01*
X52323D01*
Y214311D01*
G37*
G36*
X101379Y198957D02*Y193839D01*
X107283D01*
Y198957D01*
X101379D01*
G37*
G36*
Y206043D02*Y200925D01*
X107283D01*
Y206043D01*
X101379D01*
G37*
G36*
X82284Y180453D02*X77166D01*
Y172973D01*
X82284D01*
Y180453D01*
G37*
G36*
X94094D02*X88976D01*
Y172973D01*
X94094D01*
Y180453D01*
G37*
G36*
X76063Y215689D02*Y208209D01*
X88898D01*
Y215689D01*
X76063D01*
G37*
G36*
X75315Y191673D02*X71535D01*
Y184193D01*
X75315D01*
Y191673D01*
G37*
G36*
X84370D02*X80591D01*
Y184193D01*
X84370D01*
Y191673D01*
G37*
G36*
X93425D02*X89646D01*
Y184193D01*
X93425D01*
Y191673D01*
G37*
G36*
X119370Y215689D02*Y208209D01*
X132205D01*
Y215689D01*
X119370D01*
G37*
G36*
X118622Y191673D02*X114843D01*
Y184193D01*
X118622D01*
Y191673D01*
G37*
G36*
X127677D02*X123898D01*
Y184193D01*
X127677D01*
Y191673D01*
G37*
G36*
X136732D02*X132953D01*
Y184193D01*
X136732D01*
Y191673D01*
G37*
G36*
X180512Y190689D02*Y185571D01*
X187992D01*
Y190689D01*
X180512D01*
G37*
G36*
Y202499D02*Y197381D01*
X187992D01*
Y202499D01*
X180512D01*
G37*
G36*
X160795Y205472D02*Y203072D01*
X164795D01*
Y205472D01*
X160795D01*
G37*
G36*
Y197672D02*Y195272D01*
X164795D01*
Y197672D01*
X160795D01*
G37*
G36*
X168995D02*Y195272D01*
X172995D01*
Y197672D01*
X168995D01*
G37*
G36*
Y201572D02*Y199172D01*
X172995D01*
Y201572D01*
X168995D01*
G37*
G36*
Y205472D02*Y203072D01*
X172995D01*
Y205472D01*
X168995D01*
G37*
G36*
X172529Y191046D02*X169129D01*
Y187046D01*
X172529D01*
Y191046D01*
G37*
G36*
X164729D02*X161329D01*
Y187046D01*
X164729D01*
Y191046D01*
G37*
G36*
X168629Y182846D02*X165229D01*
Y178846D01*
X168629D01*
Y182846D01*
G37*
G36*
X155315Y195610D02*X152559D01*
Y190886D01*
X155315D01*
Y195610D01*
G37*
G36*
Y210177D02*X152559D01*
Y205453D01*
X155315D01*
Y210177D01*
G37*
G36*
X77638Y261496D02*Y256772D01*
X82362D01*
Y261496D01*
X77638D01*
G37*
G36*
Y253228D02*Y248504D01*
X82362D01*
Y253228D01*
X77638D01*
G37*
G36*
X92638Y261496D02*Y256772D01*
X97362D01*
Y261496D01*
X92638D01*
G37*
G36*
Y253228D02*Y248504D01*
X97362D01*
Y253228D01*
X92638D01*
G37*
G36*
X107638Y261496D02*Y256772D01*
X112362D01*
Y261496D01*
X107638D01*
G37*
G36*
Y253228D02*Y248504D01*
X112362D01*
Y253228D01*
X107638D01*
G37*
G36*
X122638Y261496D02*Y256772D01*
X127362D01*
Y261496D01*
X122638D01*
G37*
G36*
Y253228D02*Y248504D01*
X127362D01*
Y253228D01*
X122638D01*
G37*
G36*
X77628Y157018D02*X74537D01*
Y153612D01*
X77628D01*
Y157018D01*
G37*
G36*
X71526D02*X68435D01*
Y153612D01*
X71526D01*
Y157018D01*
G37*
G36*
X164242Y218041D02*X161152D01*
Y214636D01*
X164242D01*
Y218041D01*
G37*
G36*
X158140D02*X155049D01*
Y214636D01*
X158140D01*
Y218041D01*
G37*
G36*
X176053D02*X172963D01*
Y214636D01*
X176053D01*
Y218041D01*
G37*
G36*
X169951D02*X166860D01*
Y214636D01*
X169951D01*
Y218041D01*
G37*
G36*
X71526Y151112D02*X68435D01*
Y147707D01*
X71526D01*
Y151112D01*
G37*
G36*
X77628D02*X74537D01*
Y147707D01*
X77628D01*
Y151112D01*
G37*
G36*
X71526Y145207D02*X68435D01*
Y141801D01*
X71526D01*
Y145207D01*
G37*
G36*
X77628D02*X74537D01*
Y141801D01*
X77628D01*
Y145207D01*
G37*
G36*
Y139301D02*X74537D01*
Y135896D01*
X77628D01*
Y139301D01*
G37*
G36*
X71526D02*X68435D01*
Y135896D01*
X71526D01*
Y139301D01*
G37*
G36*
X109518Y138514D02*X106427D01*
Y135108D01*
X109518D01*
Y138514D01*
G37*
G36*
X103415D02*X100325D01*
Y135108D01*
X103415D01*
Y138514D01*
G37*
G36*
X68967Y95404D02*X65876D01*
Y91998D01*
X68967D01*
Y95404D01*
G37*
G36*
X75069D02*X71978D01*
Y91998D01*
X75069D01*
Y95404D01*
G37*
G36*
X119360Y96191D02*X116270D01*
Y92785D01*
X119360D01*
Y96191D01*
G37*
G36*
X113258D02*X110167D01*
Y92785D01*
X113258D01*
Y96191D01*
G37*
G36*
X63061Y73100D02*Y70010D01*
X66467D01*
Y73100D01*
X63061D01*
G37*
G36*
Y79203D02*Y76112D01*
X66467D01*
Y79203D01*
X63061D01*
G37*
G36*
X124281Y179852D02*X121191D01*
Y176447D01*
X124281D01*
Y179852D01*
G37*
G36*
X118179D02*X115089D01*
Y176447D01*
X118179D01*
Y179852D01*
G37*
G36*
X130384D02*X127293D01*
Y176447D01*
X130384D01*
Y179852D01*
G37*
G36*
X136486D02*X133396D01*
Y176447D01*
X136486D01*
Y179852D01*
G37*
G36*
X161280Y266437D02*X159350D01*
Y261004D01*
X161280D01*
Y266437D01*
G37*
G36*
X163839D02*X161909D01*
Y261004D01*
X163839D01*
Y266437D01*
G37*
G36*
X166398D02*X164469D01*
Y261004D01*
X166398D01*
Y266437D01*
G37*
G36*
X158720D02*X156791D01*
Y261004D01*
X158720D01*
Y266437D01*
G37*
G36*
X156161D02*X154232D01*
Y261004D01*
X156161D01*
Y266437D01*
G37*
G36*
X172913Y269272D02*X167106D01*
Y261004D01*
X172913D01*
Y269272D01*
G37*
G36*
X167106Y277933D02*Y270453D01*
X176457D01*
Y277933D01*
X167106D01*
G37*
G36*
X165925D02*X161299D01*
Y270453D01*
X165925D01*
Y277933D01*
G37*
G36*
X159331D02*X154705D01*
Y270453D01*
X159331D01*
Y277933D01*
G37*
G36*
X144173D02*Y270453D01*
X153524D01*
Y277933D01*
X144173D01*
G37*
G36*
X153524Y269272D02*X147717D01*
Y261004D01*
X153524D01*
Y269272D01*
G37*
G36*
X170541Y246919D02*Y243829D01*
X173947D01*
Y246919D01*
X170541D01*
G37*
G36*
Y253022D02*Y249931D01*
X173947D01*
Y253022D01*
X170541D01*
G37*
G54D72*X110000Y65000D02*Y55000D01*
G54D71*G36*
X76752Y112918D02*X76334Y112500D01*
X92500Y96334D01*
X92918Y96752D01*
X76752Y112918D01*
G37*
G36*
X92082Y96752D02*X92500Y96334D01*
X108666Y112500D01*
X108248Y112918D01*
X92082Y96752D01*
G37*
G36*
X92500Y128666D02*X92082Y128248D01*
X108248Y112082D01*
X108666Y112500D01*
X92500Y128666D01*
G37*
G36*
X76334Y112500D02*X76752Y112082D01*
X92918Y128248D01*
X92500Y128666D01*
X76334Y112500D01*
G37*
G36*
X76374D02*X80689Y108185D01*
X96815Y124311D01*
X92500Y128626D01*
X76374Y112500D01*
G37*
G36*
X80311Y108563D02*X84626Y104248D01*
X100752Y120374D01*
X96437Y124689D01*
X80311Y108563D01*
G37*
G36*
X84248Y104626D02*X88563Y100311D01*
X104689Y116437D01*
X100374Y120752D01*
X84248Y104626D01*
G37*
G36*
X88185Y100689D02*X92500Y96374D01*
X108626Y112500D01*
X104311Y116815D01*
X88185Y100689D01*
G37*
G36*
X102940Y103035D02*X101965Y102060D01*
X104331Y99694D01*
X105306Y100669D01*
X102940Y103035D01*
G37*
G36*
X101130Y101225D02*X100156Y100251D01*
X102522Y97885D01*
X103496Y98859D01*
X101130Y101225D01*
G37*
G36*
X99321Y99416D02*X98346Y98441D01*
X100712Y96075D01*
X101687Y97049D01*
X99321Y99416D01*
G37*
G36*
X97512Y97606D02*X96537Y96632D01*
X98903Y94266D01*
X99877Y95240D01*
X97512Y97606D01*
G37*
G36*
X95702Y95797D02*X94728Y94823D01*
X97093Y92456D01*
X98068Y93431D01*
X95702Y95797D01*
G37*
G36*
X93892Y93987D02*X92918Y93013D01*
X95284Y90647D01*
X96258Y91621D01*
X93892Y93987D01*
G37*
G36*
X104749Y104844D02*X103775Y103870D01*
X106141Y101504D01*
X107115Y102478D01*
X104749Y104844D01*
G37*
G36*
X106559Y106654D02*X105584Y105679D01*
X107951Y103313D01*
X108925Y104288D01*
X106559Y106654D01*
G37*
G36*
X108368Y108463D02*X107394Y107488D01*
X109760Y105123D01*
X110734Y106097D01*
X108368Y108463D01*
G37*
G36*
X110177Y110272D02*X109203Y109298D01*
X111569Y106932D01*
X112544Y107907D01*
X110177Y110272D01*
G37*
G36*
X111987Y112082D02*X111013Y111108D01*
X113379Y108742D01*
X114353Y109716D01*
X111987Y112082D01*
G37*
G36*
X80669Y125306D02*X79694Y124331D01*
X82060Y121965D01*
X83035Y122940D01*
X80669Y125306D01*
G37*
G36*
X78859Y123496D02*X77885Y122522D01*
X80251Y120156D01*
X81225Y121130D01*
X78859Y123496D01*
G37*
G36*
X77049Y121687D02*X76075Y120712D01*
X78441Y118346D01*
X79416Y119321D01*
X77049Y121687D01*
G37*
G36*
X75240Y119877D02*X74266Y118903D01*
X76632Y116537D01*
X77606Y117512D01*
X75240Y119877D01*
G37*
G36*
X73431Y118068D02*X72456Y117093D01*
X74823Y114728D01*
X75797Y115702D01*
X73431Y118068D01*
G37*
G36*
X71621Y116258D02*X70647Y115284D01*
X73013Y112918D01*
X73987Y113892D01*
X71621Y116258D01*
G37*
G36*
X82478Y127115D02*X81504Y126141D01*
X83870Y123775D01*
X84844Y124749D01*
X82478Y127115D01*
G37*
G36*
X84288Y128925D02*X83313Y127951D01*
X85679Y125584D01*
X86654Y126559D01*
X84288Y128925D01*
G37*
G36*
X86097Y130734D02*X85123Y129760D01*
X87488Y127394D01*
X88463Y128368D01*
X86097Y130734D01*
G37*
G36*
X87907Y132544D02*X86932Y131569D01*
X89298Y129203D01*
X90272Y130177D01*
X87907Y132544D01*
G37*
G36*
X89716Y134353D02*X88742Y133379D01*
X91108Y131013D01*
X92082Y131987D01*
X89716Y134353D01*
G37*
G36*
X101965Y122940D02*X102940Y121965D01*
X105306Y124331D01*
X104331Y125306D01*
X101965Y122940D01*
G37*
G36*
X103775Y121130D02*X104749Y120156D01*
X107115Y122522D01*
X106141Y123496D01*
X103775Y121130D01*
G37*
G36*
X105584Y119321D02*X106559Y118346D01*
X108925Y120712D01*
X107951Y121687D01*
X105584Y119321D01*
G37*
G36*
X107394Y117512D02*X108368Y116537D01*
X110734Y118903D01*
X109760Y119877D01*
X107394Y117512D01*
G37*
G36*
X109203Y115702D02*X110177Y114728D01*
X112544Y117093D01*
X111569Y118068D01*
X109203Y115702D01*
G37*
G36*
X111013Y113892D02*X111987Y112918D01*
X114353Y115284D01*
X113379Y116258D01*
X111013Y113892D01*
G37*
G36*
X100156Y124749D02*X101130Y123775D01*
X103496Y126141D01*
X102522Y127115D01*
X100156Y124749D01*
G37*
G36*
X98346Y126559D02*X99321Y125584D01*
X101687Y127951D01*
X100712Y128925D01*
X98346Y126559D01*
G37*
G36*
X96537Y128368D02*X97512Y127394D01*
X99877Y129760D01*
X98903Y130734D01*
X96537Y128368D01*
G37*
G36*
X94728Y130177D02*X95702Y129203D01*
X98068Y131569D01*
X97093Y132544D01*
X94728Y130177D01*
G37*
G36*
X92918Y131987D02*X93892Y131013D01*
X96258Y133379D01*
X95284Y134353D01*
X92918Y131987D01*
G37*
G36*
X79694Y100669D02*X80669Y99694D01*
X83035Y102060D01*
X82060Y103035D01*
X79694Y100669D01*
G37*
G36*
X81504Y98859D02*X82478Y97885D01*
X84844Y100251D01*
X83870Y101225D01*
X81504Y98859D01*
G37*
G36*
X83313Y97049D02*X84288Y96075D01*
X86654Y98441D01*
X85679Y99416D01*
X83313Y97049D01*
G37*
G36*
X85123Y95240D02*X86097Y94266D01*
X88463Y96632D01*
X87488Y97606D01*
X85123Y95240D01*
G37*
G36*
X86932Y93431D02*X87907Y92456D01*
X90272Y94823D01*
X89298Y95797D01*
X86932Y93431D01*
G37*
G36*
X88742Y91621D02*X89716Y90647D01*
X92082Y93013D01*
X91108Y93987D01*
X88742Y91621D01*
G37*
G36*
X77885Y102478D02*X78859Y101504D01*
X81225Y103870D01*
X80251Y104844D01*
X77885Y102478D01*
G37*
G36*
X76075Y104288D02*X77049Y103313D01*
X79416Y105679D01*
X78441Y106654D01*
X76075Y104288D01*
G37*
G36*
X74266Y106097D02*X75240Y105123D01*
X77606Y107488D01*
X76632Y108463D01*
X74266Y106097D01*
G37*
G36*
X72456Y107907D02*X73431Y106932D01*
X75797Y109298D01*
X74823Y110272D01*
X72456Y107907D01*
G37*
G36*
X70647Y109716D02*X71621Y108742D01*
X73987Y111108D01*
X73013Y112082D01*
X70647Y109716D01*
G37*
G36*
X121132Y58730D02*Y55640D01*
X124537D01*
Y58730D01*
X121132D01*
G37*
G36*
Y52628D02*Y49537D01*
X124537D01*
Y52628D01*
X121132D01*
G37*
G36*
Y64439D02*Y61348D01*
X124537D01*
Y64439D01*
X121132D01*
G37*
G36*
Y70541D02*Y67451D01*
X124537D01*
Y70541D01*
X121132D01*
G37*
M02*
