G04 start of page 3 for group 1 idx 1 *
G04 Title: (unknown), bottom *
G04 Creator: pcb 1.99z *
G04 CreationDate: Tue Apr 19 20:08:46 2016 UTC *
G04 For: matt *
G04 Format: Gerber/RS-274X *
G04 PCB-Dimensions (mil): 2500.00 3000.00 *
G04 PCB-Coordinate-Origin: lower left *
%MOIN*%
%FSLAX25Y25*%
%LNBOTTOM*%
%ADD45C,0.0354*%
%ADD44C,0.1378*%
%ADD43C,0.1181*%
%ADD42C,0.0394*%
%ADD41C,0.0118*%
%ADD40C,0.1221*%
%ADD39C,0.0236*%
%ADD38C,0.1260*%
%ADD37C,0.0394*%
%ADD36C,0.2008*%
%ADD35C,0.1811*%
%ADD34C,0.0630*%
%ADD33C,0.0118*%
%ADD32C,0.0236*%
%ADD31C,0.0059*%
%ADD30C,0.0001*%
G54D30*G36*
X187500Y275885D02*Y242500D01*
X168658D01*
Y257333D01*
X168661Y257333D01*
X168970Y257357D01*
X169272Y257430D01*
X169559Y257549D01*
X169823Y257711D01*
X170059Y257912D01*
X170261Y258148D01*
X170423Y258413D01*
X170542Y258700D01*
X170614Y259002D01*
X170633Y259311D01*
X170614Y259620D01*
X170542Y259922D01*
X170423Y260209D01*
X170261Y260474D01*
X170059Y260710D01*
X169823Y260911D01*
X169559Y261074D01*
X169272Y261192D01*
X168970Y261265D01*
X168661Y261289D01*
X168658Y261289D01*
Y275885D01*
X187500D01*
G37*
G36*
X168658Y242500D02*X164075D01*
Y257126D01*
X164234Y257223D01*
X164446Y257405D01*
X164627Y257617D01*
X164773Y257854D01*
X164879Y258112D01*
X164945Y258383D01*
X164961Y258661D01*
X164945Y258939D01*
X164879Y259211D01*
X164773Y259468D01*
X164627Y259706D01*
X164446Y259918D01*
X164234Y260099D01*
X163996Y260245D01*
X163738Y260352D01*
X163467Y260417D01*
X163189Y260439D01*
X162911Y260417D01*
X162640Y260352D01*
X162382Y260245D01*
X162144Y260099D01*
X161932Y259918D01*
X161751Y259706D01*
X161605Y259468D01*
X161499Y259211D01*
X161433Y258939D01*
X161412Y258661D01*
X161433Y258383D01*
X161499Y258112D01*
X161605Y257854D01*
X161751Y257617D01*
X161932Y257405D01*
X162144Y257223D01*
X162302Y257126D01*
Y256274D01*
X160374Y258203D01*
X160417Y258383D01*
X160433Y258661D01*
X160417Y258939D01*
X160352Y259211D01*
X160245Y259468D01*
X160099Y259706D01*
X159918Y259918D01*
X159706Y260099D01*
X159468Y260245D01*
X159211Y260352D01*
X158939Y260417D01*
X158661Y260439D01*
X158383Y260417D01*
X158112Y260352D01*
X157854Y260245D01*
X157617Y260099D01*
X157405Y259918D01*
X157223Y259706D01*
X157078Y259468D01*
X156971Y259211D01*
X156906Y258939D01*
X156884Y258661D01*
X156906Y258383D01*
X156971Y258112D01*
X157078Y257854D01*
X157223Y257617D01*
X157405Y257405D01*
X157617Y257223D01*
X157854Y257078D01*
X158112Y256971D01*
X158383Y256906D01*
X158661Y256884D01*
X158939Y256906D01*
X159120Y256949D01*
X161121Y254948D01*
Y242500D01*
X151336D01*
Y257333D01*
X151339Y257333D01*
X151648Y257357D01*
X151950Y257430D01*
X152237Y257549D01*
X152501Y257711D01*
X152737Y257912D01*
X152939Y258148D01*
X153101Y258413D01*
X153220Y258700D01*
X153292Y259002D01*
X153311Y259311D01*
X153292Y259620D01*
X153220Y259922D01*
X153101Y260209D01*
X152939Y260474D01*
X152737Y260710D01*
X152501Y260911D01*
X152237Y261074D01*
X151950Y261192D01*
X151648Y261265D01*
X151339Y261289D01*
X151336Y261289D01*
Y275885D01*
X168658D01*
Y261289D01*
X168351Y261265D01*
X168049Y261192D01*
X167763Y261074D01*
X167498Y260911D01*
X167262Y260710D01*
X167060Y260474D01*
X166898Y260209D01*
X166779Y259922D01*
X166707Y259620D01*
X166683Y259311D01*
X166707Y259002D01*
X166779Y258700D01*
X166898Y258413D01*
X167060Y258148D01*
X167262Y257912D01*
X167498Y257711D01*
X167763Y257549D01*
X168049Y257430D01*
X168351Y257357D01*
X168658Y257333D01*
Y242500D01*
G37*
G36*
X151336D02*X132500D01*
Y275885D01*
X151336D01*
Y261289D01*
X151029Y261265D01*
X150727Y261192D01*
X150441Y261074D01*
X150176Y260911D01*
X149940Y260710D01*
X149738Y260474D01*
X149576Y260209D01*
X149457Y259922D01*
X149385Y259620D01*
X149360Y259311D01*
X149385Y259002D01*
X149457Y258700D01*
X149576Y258413D01*
X149738Y258148D01*
X149940Y257912D01*
X150176Y257711D01*
X150441Y257549D01*
X150727Y257430D01*
X151029Y257357D01*
X151336Y257333D01*
Y242500D01*
G37*
G36*
X62500Y225000D02*X102500D01*
Y200000D01*
X62500D01*
Y225000D01*
G37*
G36*
X79319Y149123D02*X79428Y149056D01*
Y135505D01*
X79319Y135396D01*
Y149123D01*
G37*
G36*
X81204Y132972D02*X81536D01*
X81598Y132870D01*
X81633Y132814D01*
X81814Y132601D01*
X82026Y132420D01*
X82264Y132275D01*
X82522Y132168D01*
X82793Y132103D01*
X83071Y132081D01*
X83349Y132103D01*
X83620Y132168D01*
X83878Y132275D01*
X84116Y132420D01*
X84328Y132601D01*
X84509Y132814D01*
X84655Y133051D01*
X84761Y133309D01*
X84826Y133580D01*
X84843Y133858D01*
X84826Y134136D01*
X84761Y134408D01*
X84655Y134665D01*
X84509Y134903D01*
X84328Y135115D01*
X84116Y135296D01*
X83878Y135442D01*
X83620Y135549D01*
X83349Y135614D01*
X83071Y135636D01*
X82793Y135614D01*
X82522Y135549D01*
X82264Y135442D01*
X82026Y135296D01*
X81814Y135115D01*
X81633Y134903D01*
X81538Y134748D01*
X81536Y134745D01*
X81112D01*
X81161Y134863D01*
X81193Y134999D01*
X81204Y135138D01*
X81201Y135173D01*
Y149056D01*
X81360Y149153D01*
X81572Y149334D01*
X81753Y149546D01*
X81899Y149784D01*
X82005Y150041D01*
X82071Y150312D01*
X82087Y150591D01*
X82071Y150869D01*
X82005Y151140D01*
X81899Y151398D01*
X81753Y151635D01*
X81572Y151847D01*
X81360Y152029D01*
X81122Y152174D01*
X80864Y152281D01*
X80593Y152346D01*
X80315Y152368D01*
X80037Y152346D01*
X79766Y152281D01*
X79508Y152174D01*
X79319Y152059D01*
Y153247D01*
X81719D01*
X82972Y151995D01*
Y148189D01*
X82814Y148092D01*
X82601Y147910D01*
X82420Y147698D01*
X82275Y147460D01*
X82168Y147203D01*
X82103Y146932D01*
X82081Y146654D01*
X82103Y146375D01*
X82168Y146104D01*
X82275Y145847D01*
X82420Y145609D01*
X82601Y145397D01*
X82814Y145216D01*
X83051Y145070D01*
X83309Y144963D01*
X83580Y144898D01*
X83858Y144876D01*
X84136Y144898D01*
X84408Y144963D01*
X84665Y145070D01*
X84903Y145216D01*
X85115Y145397D01*
X85296Y145609D01*
X85442Y145847D01*
X85549Y146104D01*
X85614Y146375D01*
X85630Y146654D01*
X85614Y146932D01*
X85549Y147203D01*
X85442Y147460D01*
X85296Y147698D01*
X85115Y147910D01*
X84903Y148092D01*
X84745Y148189D01*
Y152327D01*
X84748Y152362D01*
X84737Y152501D01*
X84737Y152501D01*
X84704Y152637D01*
X84651Y152766D01*
X84578Y152885D01*
X84487Y152991D01*
X84461Y153014D01*
X82738Y154736D01*
X82715Y154763D01*
X82609Y154853D01*
X82490Y154926D01*
X82361Y154980D01*
X82226Y155012D01*
X82226Y155012D01*
X82087Y155023D01*
X82052Y155020D01*
X79319D01*
Y168701D01*
X88833D01*
X100591Y156943D01*
Y144685D01*
X90227D01*
X90157Y144691D01*
X89879Y144669D01*
X89608Y144604D01*
X89351Y144497D01*
X89113Y144351D01*
X89113Y144351D01*
X89113Y144351D01*
X88901Y144170D01*
X88856Y144117D01*
X85607Y140869D01*
X85554Y140824D01*
X85373Y140611D01*
X85228Y140374D01*
X85121Y140116D01*
X85056Y139845D01*
X85034Y139567D01*
X85039Y139497D01*
Y127506D01*
X79319Y121785D01*
Y131215D01*
X81076Y132972D01*
X81204D01*
G37*
G36*
X182870Y40217D02*X182878Y40162D01*
X182890Y39886D01*
X182878Y39610D01*
X182870Y39554D01*
Y40217D01*
G37*
G36*
X219994Y66249D02*X220000Y66248D01*
X220587Y66294D01*
X220889Y66367D01*
X221159Y66432D01*
X221703Y66657D01*
X222205Y66965D01*
X222653Y67347D01*
X223035Y67795D01*
X223343Y68297D01*
X223568Y68841D01*
X223706Y69413D01*
X223740Y70000D01*
X223706Y70587D01*
X223568Y71159D01*
X223343Y71703D01*
X223035Y72205D01*
X222653Y72653D01*
X222205Y73035D01*
X221703Y73343D01*
X221159Y73568D01*
X220889Y73633D01*
X220587Y73706D01*
X220000Y73752D01*
X219994Y73751D01*
Y76249D01*
X220000Y76248D01*
X220587Y76294D01*
X220889Y76367D01*
X221159Y76432D01*
X221703Y76657D01*
X222205Y76965D01*
X222653Y77347D01*
X223035Y77795D01*
X223343Y78297D01*
X223568Y78841D01*
X223706Y79413D01*
X223740Y80000D01*
X223706Y80587D01*
X223568Y81159D01*
X223343Y81703D01*
X223035Y82205D01*
X222653Y82653D01*
X222205Y83035D01*
X221703Y83343D01*
X221159Y83568D01*
X220889Y83633D01*
X220587Y83706D01*
X220000Y83752D01*
X219994Y83751D01*
Y86249D01*
X220000Y86248D01*
X220587Y86294D01*
X220889Y86367D01*
X221159Y86432D01*
X221703Y86657D01*
X222205Y86965D01*
X222653Y87347D01*
X223035Y87795D01*
X223343Y88297D01*
X223568Y88841D01*
X223706Y89413D01*
X223740Y90000D01*
X223706Y90587D01*
X223568Y91159D01*
X223343Y91703D01*
X223035Y92205D01*
X222653Y92653D01*
X222205Y93035D01*
X221703Y93343D01*
X221159Y93568D01*
X220889Y93633D01*
X220587Y93706D01*
X220000Y93752D01*
X219994Y93751D01*
Y96249D01*
X220000Y96248D01*
X220587Y96294D01*
X220889Y96367D01*
X221159Y96432D01*
X221703Y96657D01*
X222205Y96965D01*
X222653Y97347D01*
X223035Y97795D01*
X223343Y98297D01*
X223568Y98841D01*
X223706Y99413D01*
X223740Y100000D01*
X223706Y100587D01*
X223568Y101159D01*
X223343Y101703D01*
X223035Y102205D01*
X222653Y102653D01*
X222651Y102654D01*
X222205Y103035D01*
X221703Y103343D01*
X221159Y103568D01*
X220889Y103633D01*
X220587Y103706D01*
X220000Y103752D01*
X219994Y103751D01*
Y107295D01*
X224114Y103176D01*
Y65367D01*
X221942Y63196D01*
X221703Y63343D01*
X221159Y63568D01*
X220889Y63633D01*
X220587Y63706D01*
X220000Y63752D01*
X219994Y63751D01*
Y66249D01*
G37*
G36*
X223130Y176331D02*X223137Y176276D01*
X223150Y176000D01*
X223137Y175724D01*
X223130Y175669D01*
Y176331D01*
G37*
G36*
Y277500D02*X225000D01*
X227500Y275000D01*
Y25000D01*
X225000Y22500D01*
X223130D01*
Y27950D01*
X223343Y28297D01*
X223568Y28841D01*
X223706Y29413D01*
X223740Y30000D01*
X223706Y30587D01*
X223568Y31159D01*
X223343Y31703D01*
X223130Y32050D01*
Y37950D01*
X223343Y38297D01*
X223568Y38841D01*
X223706Y39413D01*
X223740Y40000D01*
X223706Y40587D01*
X223568Y41159D01*
X223343Y41703D01*
X223130Y42050D01*
Y47950D01*
X223343Y48297D01*
X223568Y48841D01*
X223706Y49413D01*
X223740Y50000D01*
X223706Y50587D01*
X223568Y51159D01*
X223343Y51703D01*
X223130Y52050D01*
Y57950D01*
X223343Y58297D01*
X223568Y58841D01*
X223706Y59413D01*
X223740Y60000D01*
X223706Y60587D01*
X223568Y61159D01*
X223343Y61703D01*
X223196Y61942D01*
X225602Y64349D01*
X225629Y64371D01*
X225719Y64477D01*
X225792Y64596D01*
X225846Y64725D01*
X225878Y64861D01*
X225889Y65000D01*
X225886Y65035D01*
Y103509D01*
X225889Y103543D01*
X225878Y103682D01*
X225878Y103682D01*
X225846Y103818D01*
X225792Y103947D01*
X225719Y104066D01*
X225629Y104172D01*
X225602Y104195D01*
X223130Y106667D01*
Y113950D01*
X223343Y114297D01*
X223568Y114841D01*
X223706Y115413D01*
X223740Y116000D01*
X223706Y116587D01*
X223568Y117159D01*
X223343Y117703D01*
X223130Y118050D01*
Y123950D01*
X223343Y124297D01*
X223568Y124841D01*
X223706Y125413D01*
X223740Y126000D01*
X223706Y126587D01*
X223568Y127159D01*
X223343Y127703D01*
X223130Y128050D01*
Y133950D01*
X223343Y134297D01*
X223568Y134841D01*
X223706Y135413D01*
X223740Y136000D01*
X223706Y136587D01*
X223568Y137159D01*
X223343Y137703D01*
X223130Y138050D01*
Y143950D01*
X223343Y144297D01*
X223568Y144841D01*
X223706Y145413D01*
X223740Y146000D01*
X223706Y146587D01*
X223568Y147159D01*
X223343Y147703D01*
X223130Y148050D01*
Y153950D01*
X223343Y154297D01*
X223568Y154841D01*
X223706Y155413D01*
X223740Y156000D01*
X223706Y156587D01*
X223568Y157159D01*
X223343Y157703D01*
X223130Y158050D01*
Y163950D01*
X223343Y164297D01*
X223568Y164841D01*
X223706Y165413D01*
X223740Y166000D01*
X223706Y166587D01*
X223568Y167159D01*
X223343Y167703D01*
X223130Y168050D01*
Y173956D01*
X223237Y174120D01*
X223389Y174410D01*
X223516Y174713D01*
X223615Y175026D01*
X223686Y175347D01*
X223729Y175672D01*
X223744Y176000D01*
X223729Y176328D01*
X223686Y176653D01*
X223615Y176974D01*
X223516Y177287D01*
X223389Y177590D01*
X223237Y177880D01*
X223130Y178047D01*
Y183950D01*
X223343Y184297D01*
X223568Y184841D01*
X223706Y185413D01*
X223740Y186000D01*
X223706Y186587D01*
X223568Y187159D01*
X223343Y187703D01*
X223130Y188050D01*
Y193950D01*
X223343Y194297D01*
X223568Y194841D01*
X223706Y195413D01*
X223740Y196000D01*
X223706Y196587D01*
X223568Y197159D01*
X223343Y197703D01*
X223130Y198050D01*
Y203950D01*
X223343Y204297D01*
X223568Y204841D01*
X223706Y205413D01*
X223740Y206000D01*
X223706Y206587D01*
X223568Y207159D01*
X223343Y207703D01*
X223130Y208050D01*
Y213880D01*
X224041Y214438D01*
X224861Y215139D01*
X225562Y215959D01*
X226126Y216879D01*
X226538Y217876D01*
X226790Y218925D01*
X226854Y220000D01*
X226790Y221075D01*
X226538Y222124D01*
X226126Y223121D01*
X225562Y224041D01*
X224861Y224861D01*
X224041Y225562D01*
X223130Y226120D01*
Y277500D01*
G37*
G36*
Y208050D02*X223035Y208205D01*
X222653Y208653D01*
X222205Y209035D01*
X221703Y209343D01*
X221159Y209568D01*
X220587Y209706D01*
X220000Y209752D01*
X219994Y209751D01*
Y213126D01*
X220000Y213125D01*
X221075Y213210D01*
X222124Y213462D01*
X223121Y213874D01*
X223130Y213880D01*
Y208050D01*
G37*
G36*
Y198050D02*X223035Y198205D01*
X222740Y198551D01*
Y198551D01*
X222653Y198653D01*
X222205Y199035D01*
X221703Y199343D01*
X221159Y199568D01*
X220587Y199706D01*
X220000Y199752D01*
X219994Y199751D01*
Y202249D01*
X220000Y202248D01*
X220587Y202294D01*
X221159Y202432D01*
X221703Y202657D01*
X222205Y202965D01*
X222653Y203347D01*
X223035Y203795D01*
X223130Y203950D01*
Y198050D01*
G37*
G36*
Y188050D02*X223035Y188205D01*
X222653Y188653D01*
X222205Y189035D01*
X221703Y189343D01*
X221159Y189568D01*
X220587Y189706D01*
X220000Y189752D01*
X219994Y189751D01*
Y192249D01*
X220000Y192248D01*
X220587Y192294D01*
X221159Y192432D01*
X221703Y192657D01*
X222205Y192965D01*
X222653Y193347D01*
X223035Y193795D01*
X223130Y193950D01*
Y188050D01*
G37*
G36*
Y168050D02*X223035Y168205D01*
X222653Y168653D01*
X222205Y169035D01*
X221703Y169343D01*
X221159Y169568D01*
X220587Y169706D01*
X220000Y169752D01*
X219994Y169751D01*
Y172256D01*
X220000Y172256D01*
X220328Y172271D01*
X220653Y172314D01*
X220771Y172340D01*
X220974Y172385D01*
X221287Y172484D01*
X221590Y172611D01*
X221880Y172763D01*
X222157Y172940D01*
X222193Y172970D01*
X222224Y173005D01*
X222249Y173045D01*
X222268Y173088D01*
X222279Y173133D01*
X222284Y173180D01*
X222281Y173227D01*
X222271Y173273D01*
X222253Y173316D01*
X222229Y173357D01*
X222199Y173393D01*
X222164Y173424D01*
X222124Y173449D01*
X222081Y173467D01*
X222036Y173479D01*
X221989Y173483D01*
X221942Y173480D01*
X221896Y173470D01*
X221853Y173453D01*
X221813Y173428D01*
X221582Y173277D01*
X221337Y173148D01*
X221082Y173042D01*
X220819Y172959D01*
X220771Y172948D01*
X220550Y172899D01*
X220276Y172863D01*
X220000Y172850D01*
X219994Y172851D01*
Y179149D01*
X220000Y179150D01*
X220276Y179138D01*
X220550Y179101D01*
X220771Y179052D01*
X220819Y179041D01*
X221082Y178958D01*
X221337Y178852D01*
X221582Y178723D01*
X221815Y178574D01*
X221854Y178550D01*
X221897Y178533D01*
X221943Y178523D01*
X221989Y178520D01*
X222035Y178524D01*
X222080Y178535D01*
X222123Y178554D01*
X222162Y178579D01*
X222197Y178609D01*
X222227Y178645D01*
X222250Y178685D01*
X222268Y178728D01*
X222278Y178774D01*
X222281Y178820D01*
X222276Y178866D01*
X222265Y178911D01*
X222247Y178954D01*
X222222Y178993D01*
X222191Y179028D01*
X222155Y179057D01*
X221880Y179237D01*
X221590Y179389D01*
X221287Y179516D01*
X220974Y179615D01*
X220771Y179660D01*
X220653Y179686D01*
X220328Y179729D01*
X220000Y179744D01*
X219994Y179744D01*
Y182249D01*
X220000Y182248D01*
X220587Y182294D01*
X221159Y182432D01*
X221703Y182657D01*
X222205Y182965D01*
X222653Y183347D01*
X223035Y183795D01*
X223130Y183950D01*
Y178047D01*
X223060Y178157D01*
X223030Y178193D01*
X222995Y178224D01*
X222955Y178249D01*
X222912Y178268D01*
X222867Y178279D01*
X222820Y178284D01*
X222773Y178281D01*
X222727Y178271D01*
X222684Y178253D01*
X222643Y178229D01*
X222607Y178199D01*
X222576Y178164D01*
X222551Y178124D01*
X222533Y178081D01*
X222521Y178036D01*
X222517Y177989D01*
X222520Y177942D01*
X222530Y177896D01*
X222547Y177853D01*
X222572Y177813D01*
X222723Y177582D01*
X222852Y177337D01*
X222958Y177082D01*
X223041Y176819D01*
X223101Y176550D01*
X223130Y176331D01*
Y175669D01*
X223101Y175450D01*
X223041Y175181D01*
X222958Y174918D01*
X222852Y174663D01*
X222723Y174418D01*
X222574Y174185D01*
X222550Y174146D01*
X222533Y174103D01*
X222523Y174057D01*
X222520Y174011D01*
X222524Y173965D01*
X222535Y173920D01*
X222554Y173877D01*
X222579Y173838D01*
X222609Y173803D01*
X222645Y173773D01*
X222685Y173750D01*
X222728Y173732D01*
X222774Y173722D01*
X222820Y173719D01*
X222866Y173724D01*
X222911Y173735D01*
X222954Y173753D01*
X222993Y173778D01*
X223028Y173809D01*
X223057Y173845D01*
X223130Y173956D01*
Y168050D01*
G37*
G36*
Y158050D02*X223035Y158205D01*
X222653Y158653D01*
X222205Y159035D01*
X221703Y159343D01*
X221159Y159568D01*
X220587Y159706D01*
X220000Y159752D01*
X219994Y159751D01*
Y162249D01*
X220000Y162248D01*
X220587Y162294D01*
X221159Y162432D01*
X221703Y162657D01*
X222205Y162965D01*
X222653Y163347D01*
X223035Y163795D01*
X223130Y163950D01*
Y158050D01*
G37*
G36*
Y148050D02*X223035Y148205D01*
X222653Y148653D01*
X222205Y149035D01*
X221703Y149343D01*
X221159Y149568D01*
X220587Y149706D01*
X220000Y149752D01*
X219994Y149751D01*
Y152249D01*
X220000Y152248D01*
X220587Y152294D01*
X221159Y152432D01*
X221703Y152657D01*
X222205Y152965D01*
X222653Y153347D01*
X223035Y153795D01*
X223130Y153950D01*
Y148050D01*
G37*
G36*
Y138050D02*X223035Y138205D01*
X222653Y138653D01*
X222205Y139035D01*
X221703Y139343D01*
X221159Y139568D01*
X220587Y139706D01*
X220000Y139752D01*
X219994Y139751D01*
Y142249D01*
X220000Y142248D01*
X220587Y142294D01*
X221159Y142432D01*
X221703Y142657D01*
X222205Y142965D01*
X222653Y143347D01*
X223035Y143795D01*
X223130Y143950D01*
Y138050D01*
G37*
G36*
Y128050D02*X223035Y128205D01*
X222653Y128653D01*
X222205Y129035D01*
X221703Y129343D01*
X221159Y129568D01*
X220587Y129706D01*
X220000Y129752D01*
X219994Y129751D01*
Y132249D01*
X220000Y132248D01*
X220587Y132294D01*
X221159Y132432D01*
X221703Y132657D01*
X222205Y132965D01*
X222653Y133347D01*
X223035Y133795D01*
X223130Y133950D01*
Y128050D01*
G37*
G36*
Y118050D02*X223035Y118205D01*
X222653Y118653D01*
X222205Y119035D01*
X221703Y119343D01*
X221159Y119568D01*
X220889Y119633D01*
X220587Y119706D01*
X220000Y119752D01*
X219994Y119751D01*
Y122249D01*
X220000Y122248D01*
X220587Y122294D01*
X220889Y122367D01*
X221159Y122432D01*
X221703Y122657D01*
X222205Y122965D01*
X222653Y123347D01*
X223035Y123795D01*
X223130Y123950D01*
Y118050D01*
G37*
G36*
Y106667D02*X219994Y109803D01*
Y112249D01*
X220000Y112248D01*
X220587Y112294D01*
X220889Y112367D01*
X221159Y112432D01*
X221703Y112657D01*
X222205Y112965D01*
X222653Y113347D01*
X223035Y113795D01*
X223130Y113950D01*
Y106667D01*
G37*
G36*
Y52050D02*X223035Y52205D01*
X222653Y52653D01*
X222205Y53035D01*
X221703Y53343D01*
X221159Y53568D01*
X220889Y53633D01*
X220587Y53706D01*
X220000Y53752D01*
X219994Y53751D01*
Y56249D01*
X220000Y56248D01*
X220587Y56294D01*
X220889Y56367D01*
X221159Y56432D01*
X221703Y56657D01*
X222205Y56965D01*
X222653Y57347D01*
X223035Y57795D01*
X223130Y57950D01*
Y52050D01*
G37*
G36*
Y42050D02*X223035Y42205D01*
X222653Y42653D01*
X222205Y43035D01*
X221703Y43343D01*
X221159Y43568D01*
X220889Y43633D01*
X220587Y43706D01*
X220000Y43752D01*
X219994Y43751D01*
Y46249D01*
X220000Y46248D01*
X220587Y46294D01*
X220889Y46367D01*
X221159Y46432D01*
X221703Y46657D01*
X222205Y46965D01*
X222653Y47347D01*
X223035Y47795D01*
X223130Y47950D01*
Y42050D01*
G37*
G36*
Y32050D02*X223035Y32205D01*
X222653Y32653D01*
X222205Y33035D01*
X221703Y33343D01*
X221159Y33568D01*
X220889Y33633D01*
X220587Y33706D01*
X220000Y33752D01*
X219994Y33751D01*
Y36249D01*
X220000Y36248D01*
X220587Y36294D01*
X220889Y36367D01*
X221159Y36432D01*
X221703Y36657D01*
X222205Y36965D01*
X222653Y37347D01*
X223035Y37795D01*
X223130Y37950D01*
Y32050D01*
G37*
G36*
Y22500D02*X219994D01*
Y26249D01*
X220000Y26248D01*
X220587Y26294D01*
X221159Y26432D01*
X221703Y26657D01*
X222205Y26965D01*
X222653Y27347D01*
X223035Y27795D01*
X223130Y27950D01*
Y22500D01*
G37*
G36*
X219994Y277500D02*X223130D01*
Y226120D01*
X223121Y226126D01*
X222124Y226538D01*
X221075Y226790D01*
X220000Y226875D01*
X219994Y226874D01*
Y277500D01*
G37*
G36*
Y199751D02*X219413Y199706D01*
X218841Y199568D01*
X218297Y199343D01*
X217795Y199035D01*
X217347Y198653D01*
X216965Y198205D01*
X216657Y197703D01*
X216432Y197159D01*
X216294Y196587D01*
X216248Y196000D01*
X216294Y195413D01*
X216432Y194841D01*
X216657Y194297D01*
X216804Y194058D01*
X211516Y188770D01*
Y196263D01*
X218058Y202804D01*
X218297Y202657D01*
X218841Y202432D01*
X219413Y202294D01*
X219994Y202249D01*
Y199751D01*
G37*
G36*
X216870Y183950D02*X216965Y183795D01*
X217347Y183347D01*
X217795Y182965D01*
X218297Y182657D01*
X218841Y182432D01*
X219413Y182294D01*
X219994Y182249D01*
Y179744D01*
X219672Y179729D01*
X219347Y179686D01*
X219026Y179615D01*
X218713Y179516D01*
X218410Y179389D01*
X218120Y179237D01*
X217843Y179060D01*
X217807Y179030D01*
X217776Y178995D01*
X217751Y178955D01*
X217732Y178912D01*
X217721Y178867D01*
X217716Y178820D01*
X217719Y178773D01*
X217729Y178727D01*
X217747Y178684D01*
X217771Y178643D01*
X217801Y178607D01*
X217836Y178576D01*
X217876Y178551D01*
X217919Y178533D01*
X217964Y178521D01*
X218011Y178517D01*
X218058Y178520D01*
X218104Y178530D01*
X218147Y178547D01*
X218187Y178572D01*
X218418Y178723D01*
X218663Y178852D01*
X218918Y178958D01*
X219181Y179041D01*
X219450Y179101D01*
X219724Y179138D01*
X219994Y179149D01*
Y172851D01*
X219724Y172863D01*
X219450Y172899D01*
X219181Y172959D01*
X218918Y173042D01*
X218663Y173148D01*
X218418Y173277D01*
X218185Y173426D01*
X218146Y173450D01*
X218103Y173467D01*
X218057Y173477D01*
X218011Y173480D01*
X217965Y173476D01*
X217920Y173465D01*
X217877Y173446D01*
X217838Y173421D01*
X217803Y173391D01*
X217773Y173355D01*
X217750Y173315D01*
X217732Y173272D01*
X217722Y173226D01*
X217719Y173180D01*
X217724Y173134D01*
X217735Y173089D01*
X217753Y173046D01*
X217778Y173007D01*
X217809Y172972D01*
X217845Y172943D01*
X218120Y172763D01*
X218410Y172611D01*
X218713Y172484D01*
X219026Y172385D01*
X219347Y172314D01*
X219672Y172271D01*
X219994Y172256D01*
Y169751D01*
X219413Y169706D01*
X218841Y169568D01*
X218297Y169343D01*
X217795Y169035D01*
X217347Y168653D01*
X216965Y168205D01*
X216870Y168050D01*
Y173953D01*
X216940Y173843D01*
X216970Y173807D01*
X217005Y173776D01*
X217045Y173751D01*
X217088Y173732D01*
X217133Y173721D01*
X217180Y173716D01*
X217227Y173719D01*
X217273Y173729D01*
X217316Y173747D01*
X217357Y173771D01*
X217393Y173801D01*
X217424Y173836D01*
X217449Y173876D01*
X217467Y173919D01*
X217479Y173964D01*
X217483Y174011D01*
X217480Y174058D01*
X217470Y174104D01*
X217453Y174147D01*
X217428Y174187D01*
X217277Y174418D01*
X217148Y174663D01*
X217042Y174918D01*
X216959Y175181D01*
X216899Y175450D01*
X216870Y175669D01*
Y176331D01*
X216899Y176550D01*
X216959Y176819D01*
X217042Y177082D01*
X217148Y177337D01*
X217277Y177582D01*
X217426Y177815D01*
X217450Y177854D01*
X217467Y177897D01*
X217477Y177943D01*
X217480Y177989D01*
X217476Y178035D01*
X217465Y178080D01*
X217446Y178123D01*
X217421Y178162D01*
X217391Y178197D01*
X217355Y178227D01*
X217315Y178250D01*
X217272Y178268D01*
X217226Y178278D01*
X217180Y178281D01*
X217134Y178276D01*
X217089Y178265D01*
X217046Y178247D01*
X217007Y178222D01*
X216972Y178191D01*
X216943Y178155D01*
X216870Y178044D01*
Y183950D01*
G37*
G36*
Y191616D02*X218058Y192804D01*
X218297Y192657D01*
X218841Y192432D01*
X219413Y192294D01*
X219994Y192249D01*
Y189751D01*
X219413Y189706D01*
X218841Y189568D01*
X218297Y189343D01*
X217795Y189035D01*
X217347Y188653D01*
X216965Y188205D01*
X216870Y188050D01*
Y191616D01*
G37*
G36*
X219994Y159751D02*X219413Y159706D01*
X218841Y159568D01*
X218297Y159343D01*
X217795Y159035D01*
X217699Y158953D01*
X217347Y158653D01*
X216965Y158205D01*
X216870Y158050D01*
Y163950D01*
X216965Y163795D01*
X217347Y163347D01*
X217795Y162965D01*
X218297Y162657D01*
X218841Y162432D01*
X219413Y162294D01*
X219994Y162249D01*
Y159751D01*
G37*
G36*
X216870Y175669D02*X216862Y175724D01*
X216850Y176000D01*
X216862Y176276D01*
X216870Y176331D01*
Y175669D01*
G37*
G36*
Y158050D02*X216657Y157703D01*
X216432Y157159D01*
X216294Y156587D01*
X216248Y156000D01*
X216294Y155413D01*
X216308Y155357D01*
X211277Y150326D01*
Y161795D01*
X212413Y162931D01*
X212440Y162954D01*
X212530Y163060D01*
X212603Y163179D01*
X212657Y163308D01*
X212689Y163444D01*
X212700Y163583D01*
X212698Y163617D01*
Y187444D01*
X216870Y191616D01*
Y188050D01*
X216657Y187703D01*
X216432Y187159D01*
X216294Y186587D01*
X216248Y186000D01*
X216294Y185413D01*
X216432Y184841D01*
X216657Y184297D01*
X216870Y183950D01*
Y178044D01*
X216763Y177880D01*
X216611Y177590D01*
X216484Y177287D01*
X216385Y176974D01*
X216314Y176653D01*
X216271Y176328D01*
X216256Y176000D01*
X216271Y175672D01*
X216314Y175347D01*
X216385Y175026D01*
X216484Y174713D01*
X216611Y174410D01*
X216763Y174120D01*
X216870Y173953D01*
Y168050D01*
X216657Y167703D01*
X216432Y167159D01*
X216294Y166587D01*
X216248Y166000D01*
X216294Y165413D01*
X216432Y164841D01*
X216657Y164297D01*
X216870Y163950D01*
Y158050D01*
G37*
G36*
X219994Y139751D02*X219413Y139706D01*
X218841Y139568D01*
X218297Y139343D01*
X217795Y139035D01*
X217347Y138653D01*
X216965Y138205D01*
X216657Y137703D01*
X216432Y137159D01*
X216366Y136886D01*
X211277D01*
Y147818D01*
X217098Y153639D01*
X217347Y153347D01*
X217795Y152965D01*
X218297Y152657D01*
X218841Y152432D01*
X219413Y152294D01*
X219994Y152249D01*
Y149751D01*
X219413Y149706D01*
X218841Y149568D01*
X218297Y149343D01*
X217795Y149035D01*
X217347Y148653D01*
X216965Y148205D01*
X216657Y147703D01*
X216432Y147159D01*
X216294Y146587D01*
X216248Y146000D01*
X216294Y145413D01*
X216432Y144841D01*
X216657Y144297D01*
X216965Y143795D01*
X217347Y143347D01*
X217795Y142965D01*
X218297Y142657D01*
X218841Y142432D01*
X219413Y142294D01*
X219994Y142249D01*
Y139751D01*
G37*
G36*
Y129751D02*X219413Y129706D01*
X218841Y129568D01*
X218297Y129343D01*
X217795Y129035D01*
X217347Y128653D01*
X216965Y128205D01*
X216657Y127703D01*
X216432Y127159D01*
X216367Y126889D01*
X216294Y126587D01*
X216248Y126000D01*
X216294Y125413D01*
X216432Y124841D01*
X216657Y124297D01*
X216804Y124058D01*
X211277Y118530D01*
Y135114D01*
X216366D01*
X216432Y134841D01*
X216657Y134297D01*
X216965Y133795D01*
X217347Y133347D01*
X217795Y132965D01*
X218297Y132657D01*
X218841Y132432D01*
X219413Y132294D01*
X219994Y132249D01*
Y129751D01*
G37*
G36*
Y119751D02*X219413Y119706D01*
X218841Y119568D01*
X218297Y119343D01*
X217795Y119035D01*
X217347Y118653D01*
X216965Y118205D01*
X216657Y117703D01*
X216432Y117159D01*
X216367Y116889D01*
X216294Y116587D01*
X216252Y116044D01*
X211298D01*
X218058Y122804D01*
X218297Y122657D01*
X218841Y122432D01*
X219413Y122294D01*
X219994Y122249D01*
Y119751D01*
G37*
G36*
Y109803D02*X215526Y114271D01*
X216673D01*
X216965Y113795D01*
X217347Y113347D01*
X217795Y112965D01*
X218297Y112657D01*
X218841Y112432D01*
X219413Y112294D01*
X219994Y112249D01*
Y109803D01*
G37*
G36*
Y103751D02*X219413Y103706D01*
X218841Y103568D01*
X218297Y103343D01*
X218058Y103196D01*
X211277Y109977D01*
Y113090D01*
X214200D01*
X219994Y107295D01*
Y103751D01*
G37*
G36*
Y93751D02*X219413Y93706D01*
X218841Y93568D01*
X218297Y93343D01*
X218058Y93196D01*
X215060Y96194D01*
Y103687D01*
X216804Y101942D01*
X216657Y101703D01*
X216432Y101159D01*
X216294Y100587D01*
X216248Y100000D01*
X216294Y99413D01*
X216432Y98841D01*
X216657Y98297D01*
X216965Y97795D01*
X217347Y97347D01*
X217795Y96965D01*
X218297Y96657D01*
X218841Y96432D01*
X219413Y96294D01*
X219994Y96249D01*
Y93751D01*
G37*
G36*
Y73751D02*X219413Y73706D01*
X218841Y73568D01*
X218297Y73343D01*
X218058Y73196D01*
X213879Y77375D01*
Y94868D01*
X216804Y91942D01*
X216657Y91703D01*
X216432Y91159D01*
X216294Y90587D01*
X216248Y90000D01*
X216294Y89413D01*
X216432Y88841D01*
X216657Y88297D01*
X216965Y87795D01*
X217347Y87347D01*
X217795Y86965D01*
X218297Y86657D01*
X218841Y86432D01*
X219413Y86294D01*
X219994Y86249D01*
Y83751D01*
X219413Y83706D01*
X218841Y83568D01*
X218297Y83343D01*
X217795Y83035D01*
X217347Y82653D01*
X216965Y82205D01*
X216657Y81703D01*
X216432Y81159D01*
X216294Y80587D01*
X216248Y80000D01*
X216294Y79413D01*
X216432Y78841D01*
X216657Y78297D01*
X216965Y77795D01*
X217347Y77347D01*
X217795Y76965D01*
X218297Y76657D01*
X218841Y76432D01*
X219413Y76294D01*
X219994Y76249D01*
Y73751D01*
G37*
G36*
Y53751D02*X219413Y53706D01*
X218841Y53568D01*
X218297Y53343D01*
X218058Y53196D01*
X211277Y59977D01*
Y104005D01*
X212106Y103176D01*
Y77762D01*
X212076Y77727D01*
X212003Y77608D01*
X211950Y77480D01*
X211917Y77344D01*
X211906Y77205D01*
X211917Y77066D01*
X211950Y76930D01*
X212003Y76801D01*
X212076Y76682D01*
X212168Y76578D01*
X212341Y76406D01*
X212363Y76379D01*
X212390Y76356D01*
X216804Y71942D01*
X216657Y71703D01*
X216432Y71159D01*
X216294Y70587D01*
X216248Y70000D01*
X216294Y69413D01*
X216432Y68841D01*
X216657Y68297D01*
X216965Y67795D01*
X217347Y67347D01*
X217795Y66965D01*
X218297Y66657D01*
X218841Y66432D01*
X219413Y66294D01*
X219994Y66249D01*
Y63751D01*
X219413Y63706D01*
X218841Y63568D01*
X218297Y63343D01*
X217795Y63035D01*
X217347Y62653D01*
X216965Y62205D01*
X216657Y61703D01*
X216432Y61159D01*
X216294Y60587D01*
X216248Y60000D01*
X216294Y59413D01*
X216432Y58841D01*
X216657Y58297D01*
X216965Y57795D01*
X217347Y57347D01*
X217795Y56965D01*
X218297Y56657D01*
X218841Y56432D01*
X219413Y56294D01*
X219994Y56249D01*
Y53751D01*
G37*
G36*
Y43751D02*X219413Y43706D01*
X218841Y43568D01*
X218297Y43343D01*
X217795Y43035D01*
X217347Y42653D01*
X216965Y42205D01*
X216657Y41703D01*
X216432Y41159D01*
X216366Y40886D01*
X211277D01*
Y57470D01*
X216804Y51942D01*
X216657Y51703D01*
X216432Y51159D01*
X216294Y50587D01*
X216248Y50000D01*
X216294Y49413D01*
X216432Y48841D01*
X216657Y48297D01*
X216965Y47795D01*
X217347Y47347D01*
X217795Y46965D01*
X218297Y46657D01*
X218841Y46432D01*
X219413Y46294D01*
X219994Y46249D01*
Y43751D01*
G37*
G36*
Y33751D02*X219413Y33706D01*
X218841Y33568D01*
X218297Y33343D01*
X217795Y33035D01*
X217347Y32653D01*
X216965Y32205D01*
X216657Y31703D01*
X216432Y31159D01*
X216366Y30886D01*
X211277D01*
Y39114D01*
X216366D01*
X216367Y39111D01*
X216432Y38841D01*
X216657Y38297D01*
X216965Y37795D01*
X217347Y37347D01*
X217795Y36965D01*
X218297Y36657D01*
X218841Y36432D01*
X219413Y36294D01*
X219994Y36249D01*
Y33751D01*
G37*
G36*
Y22500D02*X211277D01*
Y29114D01*
X216366D01*
X216367Y29111D01*
X216432Y28841D01*
X216657Y28297D01*
X216965Y27795D01*
X217347Y27347D01*
X217795Y26965D01*
X218297Y26657D01*
X218841Y26432D01*
X219413Y26294D01*
X219994Y26249D01*
Y22500D01*
G37*
G36*
X211277Y277500D02*X219994D01*
Y226874D01*
X218925Y226790D01*
X217876Y226538D01*
X216879Y226126D01*
X215959Y225562D01*
X215139Y224861D01*
X214438Y224041D01*
X213874Y223121D01*
X213462Y222124D01*
X213210Y221075D01*
X213125Y220000D01*
X213210Y218925D01*
X213462Y217876D01*
X213874Y216879D01*
X214438Y215959D01*
X215139Y215139D01*
X215959Y214438D01*
X216879Y213874D01*
X217876Y213462D01*
X218925Y213210D01*
X219994Y213126D01*
Y209751D01*
X219413Y209706D01*
X218841Y209568D01*
X218297Y209343D01*
X217795Y209035D01*
X217347Y208653D01*
X216965Y208205D01*
X216657Y207703D01*
X216432Y207159D01*
X216392Y206992D01*
X216294Y206587D01*
X216248Y206000D01*
X216294Y205413D01*
X216432Y204841D01*
X216657Y204297D01*
X216804Y204058D01*
X211277Y198530D01*
Y277500D01*
G37*
G36*
Y150326D02*X182870Y121919D01*
Y138287D01*
X187367D01*
X187402Y138284D01*
X187540Y138295D01*
X187541Y138295D01*
X187676Y138328D01*
X187805Y138381D01*
X187924Y138454D01*
X188030Y138544D01*
X188053Y138571D01*
X211277Y161795D01*
Y150326D01*
G37*
G36*
Y136886D02*X200345D01*
X211277Y147818D01*
Y136886D01*
G37*
G36*
Y118530D02*X209971Y117225D01*
X182870D01*
Y117640D01*
X200344Y135114D01*
X211277D01*
Y118530D01*
G37*
G36*
Y109977D02*X208164Y113090D01*
X211277D01*
Y109977D01*
G37*
G36*
Y40886D02*X198359D01*
X182870Y56376D01*
Y109547D01*
X205735D01*
X211277Y104005D01*
Y59977D01*
X201477Y69777D01*
Y101024D01*
X201635Y101121D01*
X201847Y101302D01*
X202029Y101514D01*
X202174Y101752D01*
X202281Y102010D01*
X202346Y102281D01*
X202363Y102559D01*
X202346Y102837D01*
X202281Y103108D01*
X202174Y103366D01*
X202029Y103604D01*
X201847Y103816D01*
X201635Y103997D01*
X201398Y104143D01*
X201140Y104250D01*
X200869Y104315D01*
X200591Y104337D01*
X200312Y104315D01*
X200041Y104250D01*
X199784Y104143D01*
X199546Y103997D01*
X199334Y103816D01*
X199153Y103604D01*
X199007Y103366D01*
X198900Y103108D01*
X198835Y102837D01*
X198813Y102559D01*
X198835Y102281D01*
X198900Y102010D01*
X199007Y101752D01*
X199153Y101514D01*
X199334Y101302D01*
X199546Y101121D01*
X199704Y101024D01*
Y69444D01*
X199701Y69409D01*
X199712Y69271D01*
X199712Y69270D01*
X199745Y69135D01*
X199798Y69006D01*
X199871Y68887D01*
X199962Y68781D01*
X199988Y68758D01*
X211277Y57470D01*
Y40886D01*
G37*
G36*
Y30886D02*X206588D01*
X198361Y39114D01*
X211277D01*
Y30886D01*
G37*
G36*
Y22500D02*X182870D01*
Y37842D01*
X182977Y38005D01*
X183130Y38296D01*
X183256Y38599D01*
X183355Y38912D01*
X183426Y39232D01*
X183470Y39558D01*
X183484Y39886D01*
X183470Y40214D01*
X183426Y40539D01*
X183355Y40860D01*
X183256Y41173D01*
X183130Y41476D01*
X182977Y41766D01*
X182870Y41933D01*
Y52096D01*
X205569Y29398D01*
X205592Y29371D01*
X205698Y29281D01*
X205817Y29208D01*
X205946Y29154D01*
X206081Y29122D01*
X206082Y29122D01*
X206220Y29111D01*
X206255Y29114D01*
X211277D01*
Y22500D01*
G37*
G36*
X182870Y240000D02*X190000D01*
Y275479D01*
X192185Y273293D01*
X192142Y273113D01*
X192120Y272835D01*
X192142Y272557D01*
X192207Y272285D01*
X192314Y272028D01*
X192460Y271790D01*
X192641Y271578D01*
X192853Y271397D01*
X193091Y271251D01*
X193348Y271144D01*
X193620Y271079D01*
X193898Y271057D01*
X194176Y271079D01*
X194447Y271144D01*
X194705Y271251D01*
X194942Y271397D01*
X195154Y271578D01*
X195336Y271790D01*
X195481Y272028D01*
X195588Y272285D01*
X195653Y272557D01*
X195670Y272835D01*
X195653Y273113D01*
X195588Y273384D01*
X195481Y273642D01*
X195336Y273879D01*
X195154Y274092D01*
X194942Y274273D01*
X194705Y274418D01*
X194447Y274525D01*
X194176Y274590D01*
X193898Y274612D01*
X193620Y274590D01*
X193439Y274547D01*
X190612Y277374D01*
X190589Y277400D01*
X190483Y277491D01*
X190469Y277500D01*
X211277D01*
Y198530D01*
X210028Y197281D01*
X210001Y197259D01*
X209911Y197153D01*
X209838Y197034D01*
X209784Y196905D01*
X209752Y196769D01*
X209752Y196769D01*
Y196769D01*
X209741Y196630D01*
X209743Y196595D01*
Y164540D01*
X186444Y141241D01*
X182870D01*
Y240000D01*
G37*
G36*
Y121919D02*X180538Y119587D01*
X179742D01*
Y138287D01*
X182870D01*
Y121919D01*
G37*
G36*
Y117225D02*X182455D01*
X182870Y117640D01*
Y117225D01*
G37*
G36*
Y56376D02*X179742Y59504D01*
Y109547D01*
X182870D01*
Y56376D01*
G37*
G36*
Y22500D02*X179742D01*
Y36142D01*
X180068Y36156D01*
X180394Y36200D01*
X180714Y36271D01*
X181027Y36370D01*
X181330Y36496D01*
X181621Y36649D01*
X181897Y36826D01*
X181933Y36856D01*
X181964Y36891D01*
X181989Y36930D01*
X182008Y36974D01*
X182020Y37019D01*
X182024Y37066D01*
X182021Y37113D01*
X182011Y37158D01*
X181993Y37202D01*
X181969Y37242D01*
X181939Y37279D01*
X181904Y37310D01*
X181864Y37335D01*
X181821Y37353D01*
X181776Y37365D01*
X181729Y37369D01*
X181682Y37366D01*
X181636Y37356D01*
X181593Y37339D01*
X181553Y37314D01*
X181322Y37162D01*
X181078Y37034D01*
X180823Y36928D01*
X180559Y36845D01*
X180290Y36785D01*
X180016Y36748D01*
X179742Y36736D01*
Y43035D01*
X180016Y43023D01*
X180290Y42987D01*
X180559Y42927D01*
X180823Y42844D01*
X181078Y42737D01*
X181322Y42609D01*
X181555Y42460D01*
X181594Y42436D01*
X181637Y42419D01*
X181683Y42408D01*
X181729Y42405D01*
X181775Y42410D01*
X181820Y42421D01*
X181863Y42440D01*
X181902Y42464D01*
X181937Y42495D01*
X181967Y42531D01*
X181991Y42571D01*
X182008Y42614D01*
X182018Y42659D01*
X182021Y42706D01*
X182017Y42752D01*
X182005Y42797D01*
X181987Y42840D01*
X181962Y42879D01*
X181931Y42914D01*
X181895Y42943D01*
X181621Y43123D01*
X181330Y43275D01*
X181027Y43402D01*
X180714Y43501D01*
X180394Y43572D01*
X180068Y43615D01*
X179742Y43630D01*
Y55225D01*
X182870Y52096D01*
Y41933D01*
X182800Y42043D01*
X182770Y42079D01*
X182735Y42110D01*
X182696Y42135D01*
X182652Y42154D01*
X182607Y42165D01*
X182560Y42170D01*
X182513Y42167D01*
X182468Y42156D01*
X182424Y42139D01*
X182384Y42115D01*
X182347Y42085D01*
X182316Y42050D01*
X182291Y42010D01*
X182273Y41967D01*
X182261Y41922D01*
X182257Y41875D01*
X182260Y41828D01*
X182270Y41782D01*
X182287Y41738D01*
X182312Y41699D01*
X182464Y41468D01*
X182592Y41223D01*
X182698Y40968D01*
X182781Y40705D01*
X182841Y40436D01*
X182870Y40217D01*
Y39554D01*
X182841Y39336D01*
X182781Y39067D01*
X182698Y38803D01*
X182592Y38548D01*
X182464Y38304D01*
X182315Y38071D01*
X182290Y38032D01*
X182273Y37989D01*
X182263Y37943D01*
X182260Y37897D01*
X182264Y37851D01*
X182276Y37806D01*
X182294Y37763D01*
X182319Y37724D01*
X182349Y37689D01*
X182385Y37659D01*
X182425Y37635D01*
X182468Y37618D01*
X182514Y37608D01*
X182560Y37605D01*
X182606Y37609D01*
X182651Y37621D01*
X182694Y37639D01*
X182733Y37664D01*
X182768Y37695D01*
X182797Y37731D01*
X182870Y37842D01*
Y22500D01*
G37*
G36*
X179742Y240000D02*X182870D01*
Y141241D01*
X179742D01*
Y240000D01*
G37*
G36*
Y59504D02*X139272Y99973D01*
Y107310D01*
X139975Y108013D01*
X139977Y107990D01*
X140042Y107718D01*
X140149Y107461D01*
X140294Y107223D01*
X140475Y107011D01*
X140688Y106830D01*
X140925Y106684D01*
X141183Y106577D01*
X141454Y106512D01*
X141732Y106490D01*
X142010Y106512D01*
X142282Y106577D01*
X142539Y106684D01*
X142734Y106803D01*
X142798Y106537D01*
X142904Y106280D01*
X143050Y106042D01*
X143231Y105830D01*
X143443Y105649D01*
X143681Y105503D01*
X143939Y105396D01*
X144210Y105331D01*
X144488Y105309D01*
X144766Y105331D01*
X145037Y105396D01*
X145295Y105503D01*
X145533Y105649D01*
X145745Y105830D01*
X145926Y106042D01*
X146072Y106280D01*
X146179Y106537D01*
X146244Y106809D01*
X146260Y107087D01*
X146244Y107365D01*
X146179Y107636D01*
X146072Y107894D01*
X145926Y108131D01*
X145745Y108343D01*
X145533Y108525D01*
X145375Y108622D01*
Y108885D01*
X146036Y109547D01*
X179742D01*
Y59504D01*
G37*
G36*
Y22500D02*X177500D01*
X176610Y21610D01*
Y37838D01*
X176680Y37729D01*
X176710Y37693D01*
X176745Y37662D01*
X176785Y37637D01*
X176828Y37618D01*
X176873Y37606D01*
X176920Y37602D01*
X176967Y37605D01*
X177013Y37615D01*
X177056Y37633D01*
X177097Y37657D01*
X177133Y37687D01*
X177164Y37722D01*
X177189Y37762D01*
X177208Y37805D01*
X177219Y37850D01*
X177224Y37897D01*
X177221Y37944D01*
X177210Y37990D01*
X177193Y38033D01*
X177168Y38073D01*
X177017Y38304D01*
X176889Y38548D01*
X176782Y38803D01*
X176699Y39067D01*
X176639Y39336D01*
X176610Y39554D01*
Y40217D01*
X176639Y40436D01*
X176699Y40705D01*
X176782Y40968D01*
X176889Y41223D01*
X177017Y41468D01*
X177166Y41700D01*
X177190Y41740D01*
X177207Y41783D01*
X177218Y41828D01*
X177221Y41875D01*
X177216Y41921D01*
X177205Y41966D01*
X177186Y42009D01*
X177162Y42048D01*
X177131Y42083D01*
X177095Y42113D01*
X177055Y42136D01*
X177012Y42153D01*
X176967Y42164D01*
X176920Y42167D01*
X176874Y42162D01*
X176829Y42151D01*
X176786Y42132D01*
X176747Y42108D01*
X176712Y42077D01*
X176683Y42041D01*
X176610Y41929D01*
Y58357D01*
X179742Y55225D01*
Y43630D01*
X179740Y43630D01*
X179412Y43615D01*
X179087Y43572D01*
X178766Y43501D01*
X178453Y43402D01*
X178150Y43275D01*
X177860Y43123D01*
X177583Y42946D01*
X177547Y42916D01*
X177516Y42881D01*
X177491Y42841D01*
X177472Y42798D01*
X177461Y42753D01*
X177456Y42706D01*
X177459Y42659D01*
X177470Y42613D01*
X177487Y42570D01*
X177511Y42529D01*
X177541Y42493D01*
X177576Y42462D01*
X177616Y42437D01*
X177659Y42418D01*
X177704Y42407D01*
X177751Y42402D01*
X177798Y42405D01*
X177844Y42416D01*
X177888Y42433D01*
X177927Y42458D01*
X178158Y42609D01*
X178403Y42737D01*
X178658Y42844D01*
X178921Y42927D01*
X179190Y42987D01*
X179464Y43023D01*
X179740Y43035D01*
X179742Y43035D01*
Y36736D01*
X179740Y36736D01*
X179464Y36748D01*
X179190Y36785D01*
X178921Y36845D01*
X178658Y36928D01*
X178403Y37034D01*
X178158Y37162D01*
X177926Y37311D01*
X177886Y37336D01*
X177843Y37353D01*
X177798Y37363D01*
X177751Y37366D01*
X177705Y37362D01*
X177660Y37350D01*
X177617Y37332D01*
X177578Y37307D01*
X177543Y37276D01*
X177513Y37241D01*
X177490Y37201D01*
X177473Y37158D01*
X177462Y37112D01*
X177459Y37066D01*
X177464Y37020D01*
X177475Y36975D01*
X177494Y36932D01*
X177518Y36893D01*
X177549Y36858D01*
X177585Y36829D01*
X177860Y36649D01*
X178150Y36496D01*
X178453Y36370D01*
X178766Y36271D01*
X179087Y36200D01*
X179412Y36156D01*
X179740Y36142D01*
X179742Y36142D01*
Y22500D01*
G37*
G36*
X176610Y39554D02*X176603Y39610D01*
X176591Y39886D01*
X176603Y40162D01*
X176610Y40217D01*
Y39554D01*
G37*
G36*
Y21610D02*X167500Y12500D01*
X159989D01*
Y13126D01*
X160000Y13125D01*
X161075Y13210D01*
X162124Y13462D01*
X163121Y13874D01*
X164041Y14438D01*
X164861Y15139D01*
X165562Y15959D01*
X166126Y16879D01*
X166538Y17876D01*
X166790Y18925D01*
X166854Y20000D01*
X166790Y21075D01*
X166538Y22124D01*
X166126Y23121D01*
X165562Y24041D01*
X164861Y24861D01*
X164041Y25562D01*
X163121Y26126D01*
X162124Y26538D01*
X161075Y26790D01*
X160000Y26875D01*
X159989Y26874D01*
Y74977D01*
X176610Y58357D01*
Y41929D01*
X176503Y41766D01*
X176351Y41476D01*
X176224Y41173D01*
X176125Y40860D01*
X176054Y40539D01*
X176011Y40214D01*
X175996Y39886D01*
X176011Y39558D01*
X176054Y39232D01*
X176125Y38912D01*
X176224Y38599D01*
X176351Y38296D01*
X176503Y38005D01*
X176610Y37838D01*
Y21610D01*
G37*
G36*
X159989Y12500D02*X139994D01*
Y16249D01*
X140000Y16248D01*
X140587Y16294D01*
X141159Y16432D01*
X141703Y16657D01*
X142205Y16965D01*
X142653Y17347D01*
X143035Y17795D01*
X143343Y18297D01*
X143568Y18841D01*
X143706Y19413D01*
X143740Y20000D01*
X143706Y20587D01*
X143568Y21159D01*
X143343Y21703D01*
X143035Y22205D01*
X142653Y22653D01*
X142205Y23035D01*
X141703Y23343D01*
X141159Y23568D01*
X140587Y23706D01*
X140000Y23752D01*
X139994Y23751D01*
Y26249D01*
X140000Y26248D01*
X140587Y26294D01*
X141159Y26432D01*
X141703Y26657D01*
X142205Y26965D01*
X142653Y27347D01*
X143035Y27795D01*
X143343Y28297D01*
X143568Y28841D01*
X143706Y29413D01*
X143740Y30000D01*
X143716Y30410D01*
X143706Y30587D01*
X143568Y31159D01*
X143343Y31703D01*
X143035Y32205D01*
X142653Y32653D01*
X142205Y33035D01*
X141703Y33343D01*
X141159Y33568D01*
X140587Y33706D01*
X140000Y33752D01*
X139994Y33751D01*
Y94973D01*
X159989Y74977D01*
Y26874D01*
X158925Y26790D01*
X157876Y26538D01*
X156879Y26126D01*
X155959Y25562D01*
X155139Y24861D01*
X154438Y24041D01*
X153874Y23121D01*
X153462Y22124D01*
X153210Y21075D01*
X153125Y20000D01*
X153210Y18925D01*
X153462Y17876D01*
X153874Y16879D01*
X154438Y15959D01*
X155139Y15139D01*
X155959Y14438D01*
X156879Y13874D01*
X157876Y13462D01*
X158925Y13210D01*
X159989Y13126D01*
Y12500D01*
G37*
G36*
X123130Y20331D02*X123137Y20276D01*
X123150Y20000D01*
X123137Y19724D01*
X123130Y19669D01*
Y20331D01*
G37*
G36*
X139994Y23751D02*X139413Y23706D01*
X138841Y23568D01*
X138297Y23343D01*
X137795Y23035D01*
X137347Y22653D01*
X136965Y22205D01*
X136657Y21703D01*
X136432Y21159D01*
X136294Y20587D01*
X136248Y20000D01*
X136294Y19413D01*
X136413Y18919D01*
X134030Y16535D01*
X131409D01*
X131703Y16657D01*
X132205Y16965D01*
X132653Y17347D01*
X133035Y17795D01*
X133343Y18297D01*
X133568Y18841D01*
X133706Y19413D01*
X133740Y20000D01*
X133706Y20587D01*
X133568Y21159D01*
X133343Y21703D01*
X133035Y22205D01*
X132653Y22653D01*
X132205Y23035D01*
X131703Y23343D01*
X131159Y23568D01*
X130587Y23706D01*
X130000Y23752D01*
X129413Y23706D01*
X128841Y23568D01*
X128297Y23343D01*
X127795Y23035D01*
X127347Y22653D01*
X126965Y22205D01*
X126657Y21703D01*
X126432Y21159D01*
X126294Y20587D01*
X126248Y20000D01*
X126294Y19413D01*
X126432Y18841D01*
X126657Y18297D01*
X126965Y17795D01*
X127347Y17347D01*
X127795Y16965D01*
X128297Y16657D01*
X128591Y16535D01*
X123130D01*
Y17956D01*
X123237Y18120D01*
X123389Y18410D01*
X123516Y18713D01*
X123615Y19026D01*
X123686Y19347D01*
X123729Y19672D01*
X123744Y20000D01*
X123729Y20328D01*
X123686Y20653D01*
X123615Y20974D01*
X123516Y21287D01*
X123389Y21590D01*
X123237Y21880D01*
X123130Y22047D01*
Y27950D01*
X123343Y28297D01*
X123568Y28841D01*
X123706Y29413D01*
X123740Y30000D01*
X123706Y30587D01*
X123568Y31159D01*
X123343Y31703D01*
X123130Y32050D01*
Y33562D01*
X125184D01*
X126804Y31942D01*
X126657Y31703D01*
X126432Y31159D01*
X126294Y30587D01*
X126248Y30000D01*
X126294Y29413D01*
X126432Y28841D01*
X126657Y28297D01*
X126965Y27795D01*
X127347Y27347D01*
X127795Y26965D01*
X128297Y26657D01*
X128841Y26432D01*
X129413Y26294D01*
X130000Y26248D01*
X130587Y26294D01*
X131159Y26432D01*
X131703Y26657D01*
X132205Y26965D01*
X132653Y27347D01*
X133035Y27795D01*
X133343Y28297D01*
X133568Y28841D01*
X133706Y29413D01*
X133740Y30000D01*
X133706Y30587D01*
X133568Y31159D01*
X133343Y31703D01*
X133035Y32205D01*
X132653Y32653D01*
X132205Y33035D01*
X131703Y33343D01*
X131159Y33568D01*
X130587Y33706D01*
X130000Y33752D01*
X129413Y33706D01*
X128841Y33568D01*
X128297Y33343D01*
X128058Y33196D01*
X126203Y35051D01*
X126180Y35078D01*
X126074Y35168D01*
X125955Y35241D01*
X125826Y35295D01*
X125690Y35327D01*
X125690Y35327D01*
X125551Y35338D01*
X125516Y35335D01*
X123130D01*
Y97861D01*
X135788Y110519D01*
X135767Y110494D01*
X135621Y110256D01*
X135514Y109998D01*
X135449Y109727D01*
X135427Y109449D01*
X135449Y109171D01*
X135514Y108900D01*
X135621Y108642D01*
X135767Y108404D01*
X135948Y108192D01*
X136160Y108011D01*
X136318Y107914D01*
Y99050D01*
X136315Y99016D01*
X136326Y98877D01*
X136326Y98877D01*
X136359Y98741D01*
X136412Y98612D01*
X136485Y98493D01*
X136576Y98387D01*
X136602Y98364D01*
X139994Y94973D01*
Y33751D01*
X139413Y33706D01*
X138841Y33568D01*
X138297Y33343D01*
X137795Y33035D01*
X137347Y32653D01*
X136965Y32205D01*
X136657Y31703D01*
X136432Y31159D01*
X136315Y30674D01*
X136294Y30587D01*
X136248Y30000D01*
X136294Y29413D01*
X136432Y28841D01*
X136657Y28297D01*
X136965Y27795D01*
X137347Y27347D01*
X137795Y26965D01*
X138297Y26657D01*
X138841Y26432D01*
X139413Y26294D01*
X139994Y26249D01*
Y23751D01*
G37*
G36*
X123130Y35335D02*X110407D01*
X91241Y54501D01*
Y62761D01*
X91244Y62795D01*
X91233Y62934D01*
X91233Y62934D01*
X91200Y63070D01*
X91147Y63199D01*
X91074Y63318D01*
X90983Y63424D01*
X90957Y63447D01*
X88840Y65563D01*
X88818Y65589D01*
X88712Y65680D01*
X88593Y65753D01*
X88464Y65806D01*
X88328Y65839D01*
X88328Y65839D01*
X88189Y65850D01*
X88154Y65847D01*
X86785D01*
X79319Y73312D01*
Y82184D01*
X84399D01*
X84373Y82162D01*
X84192Y81950D01*
X84046Y81712D01*
X83939Y81455D01*
X83874Y81184D01*
X83852Y80906D01*
X83874Y80627D01*
X83939Y80356D01*
X84046Y80099D01*
X84192Y79861D01*
X84373Y79649D01*
X84585Y79468D01*
X84823Y79322D01*
X85081Y79215D01*
X85352Y79150D01*
X85630Y79128D01*
X85908Y79150D01*
X86088Y79193D01*
X86750Y78532D01*
X86773Y78505D01*
X86879Y78414D01*
X86998Y78342D01*
X87127Y78288D01*
X87262Y78256D01*
X87263Y78256D01*
X87402Y78245D01*
X87436Y78247D01*
X113351D01*
X113386Y78245D01*
X113525Y78256D01*
X113525Y78256D01*
X113661Y78288D01*
X113790Y78342D01*
X113909Y78414D01*
X114015Y78505D01*
X114037Y78532D01*
X118319Y82813D01*
X118345Y82836D01*
X118436Y82942D01*
X118509Y83061D01*
X118562Y83190D01*
X118595Y83325D01*
X118606Y83465D01*
X118603Y83499D01*
Y93334D01*
X123130Y97861D01*
Y35335D01*
G37*
G36*
Y32050D02*X123035Y32205D01*
X122653Y32653D01*
X122205Y33035D01*
X121703Y33343D01*
X121173Y33562D01*
X123130D01*
Y32050D01*
G37*
G36*
Y16535D02*X121409D01*
X121590Y16611D01*
X121880Y16763D01*
X122157Y16940D01*
X122193Y16970D01*
X122224Y17005D01*
X122249Y17045D01*
X122268Y17088D01*
X122279Y17133D01*
X122284Y17180D01*
X122281Y17227D01*
X122271Y17273D01*
X122253Y17316D01*
X122229Y17357D01*
X122199Y17393D01*
X122164Y17424D01*
X122124Y17449D01*
X122081Y17467D01*
X122036Y17479D01*
X121989Y17483D01*
X121942Y17480D01*
X121896Y17470D01*
X121853Y17453D01*
X121813Y17428D01*
X121582Y17277D01*
X121337Y17148D01*
X121082Y17042D01*
X120819Y16959D01*
X120550Y16899D01*
X120276Y16863D01*
X120000Y16850D01*
X119998Y16850D01*
Y23150D01*
X120000Y23150D01*
X120276Y23138D01*
X120550Y23101D01*
X120819Y23041D01*
X121082Y22958D01*
X121337Y22852D01*
X121582Y22723D01*
X121815Y22574D01*
X121854Y22550D01*
X121897Y22533D01*
X121943Y22523D01*
X121989Y22520D01*
X122035Y22524D01*
X122080Y22535D01*
X122123Y22554D01*
X122162Y22579D01*
X122197Y22609D01*
X122227Y22645D01*
X122250Y22685D01*
X122268Y22728D01*
X122278Y22774D01*
X122281Y22820D01*
X122276Y22866D01*
X122265Y22911D01*
X122247Y22954D01*
X122222Y22993D01*
X122191Y23028D01*
X122155Y23057D01*
X121880Y23237D01*
X121590Y23389D01*
X121287Y23516D01*
X120974Y23615D01*
X120653Y23686D01*
X120328Y23729D01*
X120000Y23744D01*
X119998Y23744D01*
Y26248D01*
X120000Y26248D01*
X120587Y26294D01*
X121159Y26432D01*
X121703Y26657D01*
X122205Y26965D01*
X122653Y27347D01*
X123035Y27795D01*
X123130Y27950D01*
Y22047D01*
X123060Y22157D01*
X123030Y22193D01*
X122995Y22224D01*
X122955Y22249D01*
X122912Y22268D01*
X122867Y22279D01*
X122820Y22284D01*
X122773Y22281D01*
X122727Y22271D01*
X122684Y22253D01*
X122643Y22229D01*
X122607Y22199D01*
X122576Y22164D01*
X122551Y22124D01*
X122533Y22081D01*
X122521Y22036D01*
X122517Y21989D01*
X122520Y21942D01*
X122530Y21896D01*
X122547Y21853D01*
X122572Y21813D01*
X122723Y21582D01*
X122852Y21337D01*
X122958Y21082D01*
X123041Y20819D01*
X123101Y20550D01*
X123130Y20331D01*
Y19669D01*
X123101Y19450D01*
X123041Y19181D01*
X122958Y18918D01*
X122852Y18663D01*
X122723Y18418D01*
X122574Y18185D01*
X122550Y18146D01*
X122533Y18103D01*
X122523Y18057D01*
X122520Y18011D01*
X122524Y17965D01*
X122535Y17920D01*
X122554Y17877D01*
X122579Y17838D01*
X122609Y17803D01*
X122645Y17773D01*
X122685Y17750D01*
X122728Y17732D01*
X122774Y17722D01*
X122820Y17719D01*
X122866Y17724D01*
X122911Y17735D01*
X122954Y17753D01*
X122993Y17778D01*
X123028Y17809D01*
X123057Y17845D01*
X123130Y17956D01*
Y16535D01*
G37*
G36*
X119998Y16850D02*X119724Y16863D01*
X119450Y16899D01*
X119181Y16959D01*
X118918Y17042D01*
X118663Y17148D01*
X118418Y17277D01*
X118185Y17426D01*
X118146Y17450D01*
X118103Y17467D01*
X118057Y17477D01*
X118011Y17480D01*
X117965Y17476D01*
X117920Y17465D01*
X117877Y17446D01*
X117838Y17421D01*
X117803Y17391D01*
X117773Y17355D01*
X117750Y17315D01*
X117732Y17272D01*
X117722Y17226D01*
X117719Y17180D01*
X117723Y17134D01*
X117735Y17089D01*
X117753Y17046D01*
X117778Y17007D01*
X117809Y16972D01*
X117845Y16943D01*
X118120Y16763D01*
X118410Y16611D01*
X118591Y16535D01*
X116870D01*
Y17953D01*
X116940Y17843D01*
X116970Y17807D01*
X117005Y17776D01*
X117045Y17751D01*
X117088Y17732D01*
X117133Y17721D01*
X117180Y17716D01*
X117227Y17719D01*
X117273Y17729D01*
X117316Y17747D01*
X117357Y17771D01*
X117393Y17801D01*
X117424Y17836D01*
X117449Y17876D01*
X117467Y17919D01*
X117479Y17964D01*
X117483Y18011D01*
X117480Y18058D01*
X117470Y18104D01*
X117453Y18147D01*
X117428Y18187D01*
X117277Y18418D01*
X117148Y18663D01*
X117042Y18918D01*
X116959Y19181D01*
X116899Y19450D01*
X116870Y19669D01*
Y20331D01*
X116899Y20550D01*
X116959Y20819D01*
X117042Y21082D01*
X117148Y21337D01*
X117277Y21582D01*
X117426Y21815D01*
X117450Y21854D01*
X117467Y21897D01*
X117477Y21943D01*
X117480Y21989D01*
X117476Y22035D01*
X117465Y22080D01*
X117446Y22123D01*
X117421Y22162D01*
X117391Y22197D01*
X117355Y22227D01*
X117315Y22250D01*
X117272Y22268D01*
X117226Y22278D01*
X117180Y22281D01*
X117134Y22276D01*
X117089Y22265D01*
X117046Y22247D01*
X117007Y22222D01*
X116972Y22191D01*
X116943Y22155D01*
X116870Y22044D01*
Y27950D01*
X116965Y27795D01*
X117347Y27347D01*
X117795Y26965D01*
X118297Y26657D01*
X118841Y26432D01*
X119413Y26294D01*
X119998Y26248D01*
Y23744D01*
X119672Y23729D01*
X119347Y23686D01*
X119026Y23615D01*
X118713Y23516D01*
X118410Y23389D01*
X118120Y23237D01*
X117843Y23060D01*
X117807Y23030D01*
X117776Y22995D01*
X117751Y22955D01*
X117732Y22912D01*
X117721Y22867D01*
X117716Y22820D01*
X117719Y22773D01*
X117729Y22727D01*
X117747Y22684D01*
X117771Y22643D01*
X117801Y22607D01*
X117836Y22576D01*
X117876Y22551D01*
X117919Y22533D01*
X117964Y22521D01*
X118011Y22517D01*
X118058Y22520D01*
X118104Y22530D01*
X118147Y22547D01*
X118187Y22572D01*
X118418Y22723D01*
X118663Y22852D01*
X118918Y22958D01*
X119181Y23041D01*
X119450Y23101D01*
X119724Y23138D01*
X119998Y23150D01*
Y16850D01*
G37*
G36*
X116870Y19669D02*X116862Y19724D01*
X116850Y20000D01*
X116862Y20276D01*
X116870Y20331D01*
Y19669D01*
G37*
G36*
Y16535D02*X98372D01*
X79319Y35588D01*
Y67262D01*
X84508Y62073D01*
X84465Y61892D01*
X84443Y61614D01*
X84465Y61336D01*
X84530Y61065D01*
X84637Y60807D01*
X84782Y60569D01*
X84964Y60357D01*
X85176Y60176D01*
X85414Y60030D01*
X85671Y59924D01*
X85942Y59859D01*
X86220Y59837D01*
X86499Y59859D01*
X86770Y59924D01*
X87027Y60030D01*
X87265Y60176D01*
X87477Y60357D01*
X87658Y60569D01*
X87804Y60807D01*
X87911Y61065D01*
X87976Y61336D01*
X87992Y61614D01*
X87976Y61892D01*
X87911Y62163D01*
X87876Y62249D01*
X88287Y61838D01*
Y53578D01*
X88284Y53543D01*
X88295Y53404D01*
X88295Y53404D01*
X88328Y53269D01*
X88381Y53140D01*
X88454Y53021D01*
X88544Y52915D01*
X88571Y52892D01*
X108797Y32665D01*
X108820Y32639D01*
X108926Y32548D01*
X109045Y32475D01*
X109174Y32422D01*
X109310Y32389D01*
X109310Y32389D01*
X109449Y32378D01*
X109484Y32381D01*
X116365D01*
X116804Y31942D01*
X116657Y31703D01*
X116432Y31159D01*
X116294Y30587D01*
X116248Y30000D01*
X116294Y29413D01*
X116386Y29032D01*
X116432Y28841D01*
X116657Y28297D01*
X116870Y27950D01*
Y22044D01*
X116763Y21880D01*
X116611Y21590D01*
X116484Y21287D01*
X116385Y20974D01*
X116314Y20653D01*
X116271Y20328D01*
X116256Y20000D01*
X116271Y19672D01*
X116314Y19347D01*
X116385Y19026D01*
X116484Y18713D01*
X116611Y18410D01*
X116763Y18120D01*
X116870Y17953D01*
Y16535D01*
G37*
G36*
X139994Y12500D02*X79319D01*
Y30577D01*
X96336Y13560D01*
X96381Y13507D01*
X96593Y13326D01*
X96593Y13326D01*
X96741Y13236D01*
X96831Y13180D01*
X96887Y13157D01*
X97089Y13074D01*
X97295Y13024D01*
X97314Y13020D01*
X97360Y13009D01*
X97360D01*
X97638Y12987D01*
X97707Y12992D01*
X134694D01*
X134764Y12987D01*
X135042Y13009D01*
X135313Y13074D01*
X135571Y13180D01*
X135808Y13326D01*
X136020Y13507D01*
X136066Y13560D01*
X138919Y16413D01*
X139413Y16294D01*
X139994Y16249D01*
Y12500D01*
G37*
G36*
X139269Y152582D02*X163791Y177104D01*
X163818Y177127D01*
X163908Y177233D01*
X163981Y177352D01*
X164028Y177464D01*
X164035Y177481D01*
X164067Y177617D01*
X164078Y177756D01*
X164075Y177791D01*
Y240000D01*
X179742D01*
Y141241D01*
X175367D01*
X175334Y141274D01*
X175378Y141454D01*
X175394Y141732D01*
X175388Y141827D01*
X175378Y142010D01*
X175313Y142282D01*
X175206Y142539D01*
X175060Y142777D01*
X174879Y142989D01*
X174667Y143170D01*
X174429Y143316D01*
X174171Y143423D01*
X173900Y143488D01*
X173622Y143510D01*
X173344Y143488D01*
X173073Y143423D01*
X172815Y143316D01*
X172577Y143170D01*
X172365Y142989D01*
X172184Y142777D01*
X172038Y142539D01*
X171932Y142282D01*
X171866Y142010D01*
X171845Y141732D01*
X171866Y141454D01*
X171932Y141183D01*
X172038Y140925D01*
X172184Y140688D01*
X172365Y140475D01*
X172577Y140294D01*
X172815Y140149D01*
X173023Y140062D01*
X173023D01*
X173030Y140060D01*
X172204D01*
X172107Y140218D01*
X171926Y140430D01*
X171714Y140611D01*
X171476Y140757D01*
X171219Y140864D01*
X170947Y140929D01*
X170669Y140951D01*
X170391Y140929D01*
X170120Y140864D01*
X169862Y140757D01*
X169625Y140611D01*
X169412Y140430D01*
X169231Y140218D01*
X169086Y139980D01*
X168979Y139722D01*
X168914Y139451D01*
X168892Y139173D01*
X168914Y138895D01*
X168979Y138624D01*
X169086Y138366D01*
X169231Y138128D01*
X169412Y137916D01*
X169625Y137735D01*
X169862Y137589D01*
X170120Y137483D01*
X170391Y137418D01*
X170669Y137396D01*
X170947Y137418D01*
X171219Y137483D01*
X171476Y137589D01*
X171714Y137735D01*
X171926Y137916D01*
X172107Y138128D01*
X172204Y138287D01*
X179742D01*
Y119587D01*
X139269D01*
Y130117D01*
X167732Y158581D01*
X167767Y158611D01*
X167888Y158752D01*
X167888Y158752D01*
X167985Y158911D01*
X168056Y159083D01*
X168100Y159263D01*
X168114Y159449D01*
X168111Y159495D01*
Y175254D01*
X168186Y175318D01*
X168367Y175530D01*
X168513Y175768D01*
X168619Y176026D01*
X168684Y176297D01*
X168701Y176575D01*
X168684Y176853D01*
X168619Y177124D01*
X168513Y177382D01*
X168367Y177619D01*
X168186Y177831D01*
X167974Y178013D01*
X167736Y178158D01*
X167478Y178265D01*
X167207Y178330D01*
X166929Y178352D01*
X166651Y178330D01*
X166380Y178265D01*
X166122Y178158D01*
X165885Y178013D01*
X165673Y177831D01*
X165491Y177619D01*
X165346Y177382D01*
X165239Y177124D01*
X165174Y176853D01*
X165152Y176575D01*
X165174Y176297D01*
X165239Y176026D01*
X165346Y175768D01*
X165491Y175530D01*
X165673Y175318D01*
X165748Y175254D01*
Y159938D01*
X139269Y133459D01*
Y152582D01*
G37*
G36*
Y240000D02*X161121D01*
Y178714D01*
X139269Y156861D01*
Y165102D01*
X145878Y171711D01*
X145904Y171733D01*
X145995Y171840D01*
X146068Y171958D01*
X146121Y172087D01*
X146154Y172223D01*
X146165Y172362D01*
X146162Y172397D01*
Y224436D01*
X149224Y227498D01*
X149251Y227521D01*
X149341Y227627D01*
X149414Y227746D01*
X149468Y227875D01*
X149500Y228010D01*
X149511Y228150D01*
X149509Y228184D01*
Y232914D01*
X149667Y233011D01*
X149879Y233192D01*
X150060Y233404D01*
X150206Y233642D01*
X150313Y233900D01*
X150378Y234171D01*
X150394Y234449D01*
X150378Y234727D01*
X150313Y234998D01*
X150206Y235256D01*
X150060Y235494D01*
X149879Y235706D01*
X149667Y235887D01*
X149429Y236033D01*
X149171Y236139D01*
X148900Y236204D01*
X148622Y236226D01*
X148344Y236204D01*
X148073Y236139D01*
X147815Y236033D01*
X147577Y235887D01*
X147365Y235706D01*
X147184Y235494D01*
X147053Y235280D01*
X147038Y235256D01*
X146932Y234998D01*
X146866Y234727D01*
X146845Y234449D01*
X146866Y234171D01*
X146932Y233900D01*
X147038Y233642D01*
X147053Y233618D01*
X147184Y233404D01*
X147365Y233192D01*
X147577Y233011D01*
X147736Y232914D01*
Y228517D01*
X145831Y226613D01*
X145850Y226690D01*
X145866Y226969D01*
X145850Y227247D01*
X145785Y227518D01*
X145678Y227775D01*
X145532Y228013D01*
X145351Y228225D01*
X145139Y228407D01*
X144901Y228552D01*
X144644Y228659D01*
X144373Y228724D01*
X144094Y228746D01*
X143816Y228724D01*
X143545Y228659D01*
X143288Y228552D01*
X143050Y228407D01*
X142838Y228225D01*
X142656Y228013D01*
X142511Y227775D01*
X142404Y227518D01*
X142339Y227247D01*
X142323Y227041D01*
X140650Y228714D01*
Y229961D01*
X140809Y230058D01*
X141021Y230239D01*
X141202Y230451D01*
X141348Y230689D01*
X141454Y230947D01*
X141519Y231218D01*
X141536Y231496D01*
X141519Y231774D01*
X141454Y232045D01*
X141348Y232303D01*
X141202Y232541D01*
X141021Y232753D01*
X140809Y232934D01*
X140571Y233080D01*
X140313Y233187D01*
X140042Y233252D01*
X139764Y233274D01*
X139486Y233252D01*
X139269Y233200D01*
Y240000D01*
G37*
G36*
Y156861D02*X118962Y136555D01*
X118782Y136598D01*
X118504Y136620D01*
X118226Y136598D01*
X117955Y136533D01*
X117697Y136426D01*
X117459Y136281D01*
X117247Y136099D01*
X117066Y135887D01*
X116920Y135649D01*
X116813Y135392D01*
X116748Y135121D01*
X116726Y134843D01*
X116748Y134564D01*
X116813Y134293D01*
X116920Y134036D01*
X117066Y133798D01*
X117247Y133586D01*
X117459Y133405D01*
X117697Y133259D01*
X117955Y133152D01*
X118226Y133087D01*
X118504Y133065D01*
X118782Y133087D01*
X119053Y133152D01*
X119311Y133259D01*
X119549Y133405D01*
X119761Y133586D01*
X119942Y133798D01*
X120079Y134021D01*
X120216Y133798D01*
X120397Y133586D01*
X120609Y133405D01*
X120847Y133259D01*
X121104Y133152D01*
X121375Y133087D01*
X121654Y133065D01*
X121932Y133087D01*
X122203Y133152D01*
X122460Y133259D01*
X122698Y133405D01*
X122910Y133586D01*
X123092Y133798D01*
X123237Y134036D01*
X123344Y134293D01*
X123409Y134564D01*
X123426Y134843D01*
X123409Y135121D01*
X123344Y135392D01*
X123237Y135649D01*
X123092Y135887D01*
X122910Y136099D01*
X122843Y136157D01*
X139269Y152582D01*
Y133459D01*
X111713Y105904D01*
X111614Y105911D01*
X111336Y105889D01*
X111065Y105824D01*
X110807Y105718D01*
X110569Y105572D01*
X110357Y105391D01*
X110176Y105179D01*
X110030Y104941D01*
X109924Y104683D01*
X109859Y104412D01*
X109837Y104134D01*
X109859Y103856D01*
X109924Y103585D01*
X110030Y103327D01*
X110176Y103089D01*
X110357Y102877D01*
X110569Y102696D01*
X110807Y102550D01*
X111065Y102443D01*
X111336Y102378D01*
X111614Y102356D01*
X111892Y102378D01*
X112163Y102443D01*
X112421Y102550D01*
X112659Y102696D01*
X112871Y102877D01*
X113052Y103089D01*
X113198Y103327D01*
X113305Y103585D01*
X113370Y103856D01*
X113386Y104134D01*
X113381Y104229D01*
X139269Y130117D01*
Y119587D01*
X133893D01*
X133858Y119590D01*
X133719Y119579D01*
X133583Y119546D01*
X133455Y119493D01*
X133336Y119420D01*
X133229Y119330D01*
X133207Y119303D01*
X111209Y97305D01*
X111182Y97282D01*
X111092Y97176D01*
X111019Y97057D01*
X110965Y96928D01*
X110933Y96793D01*
X110933Y96792D01*
X110922Y96654D01*
X110925Y96619D01*
Y90131D01*
X103176Y82383D01*
X90131D01*
X87659Y84854D01*
X87637Y84881D01*
X87531Y84971D01*
X87412Y85044D01*
X87283Y85098D01*
X87147Y85130D01*
X87147Y85130D01*
X87008Y85141D01*
X86973Y85138D01*
X79501D01*
X79319Y85320D01*
Y87270D01*
X80194Y86395D01*
X80239Y86342D01*
X80451Y86161D01*
X80452Y86161D01*
X80599Y86070D01*
X80689Y86015D01*
X80796Y85971D01*
X80947Y85908D01*
X81153Y85859D01*
X81218Y85843D01*
X81218D01*
X81496Y85821D01*
X81566Y85827D01*
X96584D01*
X96654Y85821D01*
X96932Y85843D01*
X97203Y85908D01*
X97460Y86015D01*
X97698Y86161D01*
X97910Y86342D01*
X97955Y86395D01*
X110059Y98498D01*
X110115Y98546D01*
X110296Y98758D01*
X110442Y98996D01*
X110549Y99254D01*
X110614Y99525D01*
X110615Y99543D01*
X110635Y99803D01*
X110615Y100064D01*
X110614Y100081D01*
X110549Y100352D01*
X110442Y100610D01*
X110296Y100848D01*
X110115Y101060D01*
X109903Y101241D01*
X109665Y101387D01*
X109408Y101494D01*
X109136Y101559D01*
X108858Y101581D01*
X108580Y101559D01*
X108309Y101494D01*
X108051Y101387D01*
X107814Y101241D01*
X107601Y101060D01*
X107553Y101004D01*
X95920Y89370D01*
X82230D01*
X79319Y92281D01*
Y116774D01*
X88015Y125470D01*
X88068Y125515D01*
X88248Y125727D01*
X88248Y125727D01*
X88249Y125727D01*
X88394Y125965D01*
X88501Y126222D01*
X88566Y126494D01*
X88588Y126772D01*
X88583Y126841D01*
Y138833D01*
X90891Y141142D01*
X91895D01*
X91672Y141005D01*
X91460Y140824D01*
X91279Y140612D01*
X91133Y140374D01*
X91026Y140116D01*
X90961Y139845D01*
X90939Y139567D01*
X90961Y139289D01*
X91026Y139018D01*
X91133Y138760D01*
X91279Y138522D01*
X91460Y138310D01*
X91672Y138129D01*
X91734Y138091D01*
X91672Y138052D01*
X91460Y137871D01*
X91279Y137659D01*
X91133Y137421D01*
X91026Y137163D01*
X90961Y136892D01*
X90939Y136614D01*
X90947Y136512D01*
X90961Y136336D01*
X91026Y136065D01*
X91133Y135807D01*
X91279Y135569D01*
X91440Y135380D01*
X91460Y135357D01*
X91672Y135176D01*
X91910Y135030D01*
X92167Y134924D01*
X92438Y134859D01*
X92717Y134837D01*
X92818Y134845D01*
X92995Y134859D01*
X93266Y134924D01*
X93523Y135030D01*
X93761Y135176D01*
X93973Y135357D01*
X94155Y135569D01*
X94252Y135728D01*
X107387D01*
X105874Y134214D01*
X105848Y134192D01*
X105757Y134086D01*
X105684Y133967D01*
X105631Y133838D01*
X105598Y133702D01*
X105598Y133702D01*
X105587Y133563D01*
X105590Y133528D01*
Y105781D01*
X92034Y92225D01*
X87362D01*
X87265Y92383D01*
X87084Y92595D01*
X86872Y92777D01*
X86634Y92922D01*
X86376Y93029D01*
X86105Y93094D01*
X85827Y93116D01*
X85549Y93094D01*
X85278Y93029D01*
X85020Y92922D01*
X84782Y92777D01*
X84570Y92595D01*
X84389Y92383D01*
X84243Y92146D01*
X84136Y91888D01*
X84071Y91617D01*
X84049Y91339D01*
X84071Y91061D01*
X84136Y90789D01*
X84243Y90532D01*
X84389Y90294D01*
X84570Y90082D01*
X84782Y89901D01*
X85020Y89755D01*
X85278Y89648D01*
X85549Y89583D01*
X85827Y89561D01*
X86105Y89583D01*
X86376Y89648D01*
X86634Y89755D01*
X86872Y89901D01*
X87084Y90082D01*
X87265Y90294D01*
X87362Y90452D01*
X92367D01*
X92402Y90449D01*
X92540Y90460D01*
X92541Y90460D01*
X92676Y90493D01*
X92805Y90546D01*
X92924Y90619D01*
X93030Y90710D01*
X93053Y90736D01*
X107079Y104762D01*
X107105Y104785D01*
X107196Y104891D01*
X107269Y105010D01*
X107322Y105139D01*
X107355Y105274D01*
X107366Y105413D01*
X107363Y105448D01*
Y133196D01*
X139269Y165102D01*
Y156861D01*
G37*
G36*
X108918Y273166D02*X108925Y273111D01*
X108937Y272835D01*
X108925Y272559D01*
X108918Y272503D01*
Y273166D01*
G37*
G36*
X131797Y240000D02*X139269D01*
Y233200D01*
X139215Y233187D01*
X138957Y233080D01*
X138719Y232934D01*
X138507Y232753D01*
X138326Y232541D01*
X138180Y232303D01*
X138073Y232045D01*
X138008Y231774D01*
X137986Y231496D01*
X138008Y231218D01*
X138073Y230947D01*
X138180Y230689D01*
X138326Y230451D01*
X138507Y230239D01*
X138719Y230058D01*
X138877Y229961D01*
Y228381D01*
X138875Y228346D01*
X138885Y228208D01*
X138885Y228208D01*
X138885Y228207D01*
X138918Y228072D01*
X138971Y227943D01*
X139033Y227843D01*
X117559Y249317D01*
Y268534D01*
X117993Y268799D01*
X118440Y269182D01*
X118823Y269629D01*
X119130Y270131D01*
X119355Y270675D01*
X119493Y271248D01*
X119528Y271835D01*
X119493Y272422D01*
X119355Y272994D01*
X119130Y273538D01*
X118823Y274040D01*
X118440Y274487D01*
X117993Y274870D01*
X117491Y275177D01*
X116947Y275403D01*
X116374Y275540D01*
X115787Y275586D01*
X115201Y275540D01*
X114628Y275403D01*
X114084Y275177D01*
X113582Y274870D01*
X113135Y274487D01*
X112752Y274040D01*
X112445Y273538D01*
X112219Y272994D01*
X112082Y272422D01*
X112036Y271835D01*
X112082Y271248D01*
X112219Y270675D01*
X112445Y270131D01*
X112752Y269629D01*
X113135Y269182D01*
X113582Y268799D01*
X114016Y268534D01*
Y248652D01*
X114010Y248583D01*
X114032Y248305D01*
Y248305D01*
X114038Y248280D01*
X114097Y248034D01*
X114181Y247832D01*
X114204Y247776D01*
X114259Y247686D01*
X114350Y247538D01*
X114350Y247538D01*
X114531Y247326D01*
X114584Y247281D01*
X124498Y237366D01*
X116600Y229468D01*
X116420Y229511D01*
X116142Y229533D01*
X115864Y229511D01*
X115592Y229446D01*
X115335Y229340D01*
X115097Y229194D01*
X114885Y229013D01*
X114704Y228801D01*
X114558Y228563D01*
X114451Y228305D01*
X114386Y228034D01*
X114364Y227756D01*
X114386Y227478D01*
X114451Y227207D01*
X114558Y226949D01*
X114704Y226711D01*
X114885Y226499D01*
X115097Y226318D01*
X115335Y226172D01*
X115592Y226065D01*
X115864Y226000D01*
X116142Y225978D01*
X116420Y226000D01*
X116691Y226065D01*
X116949Y226172D01*
X117186Y226318D01*
X117399Y226499D01*
X117580Y226711D01*
X117725Y226949D01*
X117832Y227207D01*
X117897Y227478D01*
X117914Y227756D01*
X117897Y228034D01*
X117854Y228214D01*
X125752Y236113D01*
X138386Y223479D01*
Y184002D01*
X133639Y179255D01*
X133586Y179209D01*
X133405Y178997D01*
X133259Y178760D01*
X133152Y178502D01*
X133087Y178231D01*
X133065Y177953D01*
X133071Y177883D01*
Y173888D01*
X133065Y173819D01*
X133071Y173749D01*
Y171600D01*
X108918Y147447D01*
Y189286D01*
X114786Y195155D01*
X114839Y195200D01*
X115020Y195412D01*
X115020Y195412D01*
X115166Y195650D01*
X115273Y195908D01*
X115338Y196179D01*
X115360Y196457D01*
X115354Y196526D01*
Y220467D01*
X115355Y220472D01*
X115338Y220750D01*
X115273Y221022D01*
X115166Y221279D01*
X115021Y221517D01*
X114840Y221729D01*
X114627Y221910D01*
X114390Y222056D01*
X114132Y222163D01*
X113861Y222228D01*
X113583Y222250D01*
X113305Y222228D01*
X113033Y222163D01*
X112776Y222056D01*
X112538Y221910D01*
X112326Y221729D01*
X112145Y221517D01*
X111999Y221279D01*
X111892Y221022D01*
X111827Y220750D01*
X111805Y220472D01*
X111811Y220399D01*
Y197191D01*
X108918Y194297D01*
Y270791D01*
X109025Y270954D01*
X109177Y271245D01*
X109303Y271548D01*
X109402Y271861D01*
X109474Y272181D01*
X109517Y272507D01*
X109531Y272835D01*
X109517Y273163D01*
X109474Y273488D01*
X109402Y273808D01*
X109303Y274121D01*
X109177Y274424D01*
X109025Y274715D01*
X108918Y274882D01*
Y277500D01*
X129216D01*
X129202Y277491D01*
X129096Y277400D01*
X129073Y277374D01*
X128273Y276574D01*
X122545Y276569D01*
X122455Y276548D01*
X122369Y276512D01*
X122290Y276463D01*
X122219Y276403D01*
X122159Y276332D01*
X122110Y276253D01*
X122074Y276167D01*
X122053Y276077D01*
X122047Y275984D01*
X122053Y269592D01*
X122074Y269502D01*
X122110Y269416D01*
X122159Y269337D01*
X122219Y269266D01*
X122290Y269206D01*
X122369Y269157D01*
X122455Y269122D01*
X122545Y269100D01*
X122638Y269094D01*
X129030Y269100D01*
X129120Y269122D01*
X129206Y269157D01*
X129285Y269206D01*
X129356Y269266D01*
X129416Y269337D01*
X129465Y269416D01*
X129500Y269502D01*
X129522Y269592D01*
X129528Y269685D01*
X129523Y275316D01*
X130000Y275794D01*
Y240000D01*
X131797D01*
G37*
G36*
X108918Y194297D02*X106594Y191974D01*
Y269183D01*
X106761Y269220D01*
X107074Y269319D01*
X107377Y269445D01*
X107668Y269597D01*
X107944Y269775D01*
X107981Y269804D01*
X108012Y269840D01*
X108037Y269879D01*
X108055Y269922D01*
X108067Y269968D01*
X108071Y270015D01*
X108068Y270061D01*
X108058Y270107D01*
X108041Y270151D01*
X108017Y270191D01*
X107987Y270227D01*
X107951Y270258D01*
X107912Y270284D01*
X107869Y270302D01*
X107823Y270314D01*
X107776Y270318D01*
X107729Y270315D01*
X107684Y270305D01*
X107640Y270287D01*
X107600Y270263D01*
X107369Y270111D01*
X107125Y269983D01*
X106870Y269877D01*
X106607Y269793D01*
X106594Y269791D01*
Y275879D01*
X106607Y275876D01*
X106870Y275792D01*
X107125Y275686D01*
X107369Y275558D01*
X107602Y275409D01*
X107641Y275385D01*
X107685Y275367D01*
X107730Y275357D01*
X107776Y275354D01*
X107823Y275359D01*
X107868Y275370D01*
X107910Y275388D01*
X107950Y275413D01*
X107984Y275444D01*
X108014Y275480D01*
X108038Y275520D01*
X108055Y275563D01*
X108065Y275608D01*
X108068Y275655D01*
X108064Y275701D01*
X108052Y275746D01*
X108034Y275789D01*
X108009Y275828D01*
X107978Y275863D01*
X107942Y275892D01*
X107668Y276072D01*
X107377Y276224D01*
X107074Y276350D01*
X106761Y276450D01*
X106594Y276487D01*
Y277500D01*
X108918D01*
Y274882D01*
X108847Y274991D01*
X108818Y275028D01*
X108782Y275059D01*
X108743Y275084D01*
X108700Y275103D01*
X108654Y275114D01*
X108607Y275118D01*
X108561Y275115D01*
X108515Y275105D01*
X108471Y275088D01*
X108431Y275064D01*
X108395Y275034D01*
X108364Y274999D01*
X108338Y274959D01*
X108320Y274916D01*
X108308Y274870D01*
X108304Y274824D01*
X108307Y274777D01*
X108317Y274731D01*
X108335Y274687D01*
X108359Y274647D01*
X108511Y274417D01*
X108639Y274172D01*
X108745Y273917D01*
X108829Y273654D01*
X108889Y273384D01*
X108918Y273166D01*
Y272503D01*
X108889Y272285D01*
X108829Y272015D01*
X108745Y271752D01*
X108639Y271497D01*
X108511Y271253D01*
X108362Y271020D01*
X108337Y270981D01*
X108320Y270937D01*
X108310Y270892D01*
X108307Y270846D01*
X108311Y270799D01*
X108323Y270754D01*
X108341Y270712D01*
X108366Y270672D01*
X108397Y270638D01*
X108432Y270608D01*
X108472Y270584D01*
X108516Y270567D01*
X108561Y270557D01*
X108607Y270554D01*
X108654Y270558D01*
X108699Y270570D01*
X108741Y270588D01*
X108781Y270613D01*
X108816Y270644D01*
X108844Y270680D01*
X108918Y270791D01*
Y194297D01*
G37*
G36*
Y147447D02*X106594Y145123D01*
Y186963D01*
X108918Y189286D01*
Y147447D01*
G37*
G36*
X102657Y197500D02*X105000D01*
Y227500D01*
X102657D01*
Y270787D01*
X102727Y270678D01*
X102757Y270641D01*
X102792Y270610D01*
X102832Y270585D01*
X102875Y270567D01*
X102921Y270555D01*
X102967Y270551D01*
X103014Y270554D01*
X103060Y270564D01*
X103104Y270581D01*
X103144Y270605D01*
X103180Y270635D01*
X103211Y270671D01*
X103236Y270710D01*
X103255Y270753D01*
X103267Y270799D01*
X103271Y270846D01*
X103268Y270893D01*
X103258Y270938D01*
X103240Y270982D01*
X103215Y271022D01*
X103064Y271253D01*
X102936Y271497D01*
X102830Y271752D01*
X102746Y272015D01*
X102686Y272285D01*
X102657Y272503D01*
Y273166D01*
X102686Y273384D01*
X102746Y273654D01*
X102830Y273917D01*
X102936Y274172D01*
X103064Y274417D01*
X103213Y274649D01*
X103237Y274689D01*
X103255Y274732D01*
X103265Y274777D01*
X103268Y274824D01*
X103264Y274870D01*
X103252Y274915D01*
X103234Y274958D01*
X103209Y274997D01*
X103178Y275032D01*
X103142Y275061D01*
X103102Y275085D01*
X103059Y275102D01*
X103014Y275112D01*
X102967Y275115D01*
X102921Y275111D01*
X102876Y275100D01*
X102833Y275081D01*
X102794Y275056D01*
X102759Y275026D01*
X102730Y274989D01*
X102657Y274878D01*
Y277500D01*
X106594D01*
Y276487D01*
X106441Y276521D01*
X106115Y276564D01*
X105787Y276578D01*
X105459Y276564D01*
X105134Y276521D01*
X104814Y276450D01*
X104501Y276350D01*
X104198Y276224D01*
X103907Y276072D01*
X103631Y275895D01*
X103594Y275865D01*
X103563Y275830D01*
X103538Y275790D01*
X103520Y275747D01*
X103508Y275701D01*
X103504Y275655D01*
X103507Y275608D01*
X103517Y275562D01*
X103534Y275518D01*
X103558Y275478D01*
X103588Y275442D01*
X103623Y275411D01*
X103663Y275386D01*
X103706Y275367D01*
X103752Y275356D01*
X103798Y275351D01*
X103845Y275354D01*
X103891Y275365D01*
X103935Y275382D01*
X103975Y275407D01*
X104205Y275558D01*
X104450Y275686D01*
X104705Y275792D01*
X104968Y275876D01*
X105238Y275936D01*
X105512Y275972D01*
X105787Y275984D01*
X106063Y275972D01*
X106337Y275936D01*
X106594Y275879D01*
Y269791D01*
X106337Y269733D01*
X106063Y269697D01*
X105787Y269685D01*
X105512Y269697D01*
X105238Y269733D01*
X104968Y269793D01*
X104705Y269877D01*
X104450Y269983D01*
X104205Y270111D01*
X103973Y270260D01*
X103933Y270285D01*
X103890Y270302D01*
X103845Y270312D01*
X103798Y270315D01*
X103752Y270311D01*
X103707Y270299D01*
X103665Y270281D01*
X103625Y270256D01*
X103590Y270225D01*
X103561Y270190D01*
X103537Y270150D01*
X103520Y270106D01*
X103510Y270061D01*
X103507Y270015D01*
X103511Y269968D01*
X103522Y269923D01*
X103541Y269881D01*
X103566Y269841D01*
X103596Y269806D01*
X103633Y269778D01*
X103907Y269597D01*
X104198Y269445D01*
X104501Y269319D01*
X104814Y269220D01*
X105134Y269148D01*
X105459Y269105D01*
X105787Y269091D01*
X106115Y269105D01*
X106441Y269148D01*
X106594Y269183D01*
Y191974D01*
X102657Y188037D01*
Y197500D01*
G37*
G36*
X106594Y145123D02*X106156Y144685D01*
X104134D01*
Y157608D01*
X104139Y157677D01*
X104117Y157955D01*
X104052Y158226D01*
X103946Y158484D01*
X103800Y158722D01*
X103800Y158722D01*
X103619Y158934D01*
X103566Y158979D01*
X102657Y159888D01*
Y183026D01*
X106594Y186963D01*
Y145123D01*
G37*
G36*
X102657Y272503D02*X102650Y272559D01*
X102638Y272835D01*
X102650Y273111D01*
X102657Y273166D01*
Y272503D01*
G37*
G36*
Y227500D02*X79319D01*
Y245388D01*
X96390Y262459D01*
X96416Y262481D01*
X96507Y262588D01*
X96580Y262707D01*
X96633Y262835D01*
X96666Y262971D01*
X96677Y263110D01*
X96674Y263145D01*
Y268201D01*
X96947Y268267D01*
X97491Y268492D01*
X97993Y268799D01*
X98440Y269182D01*
X98823Y269629D01*
X99130Y270131D01*
X99355Y270675D01*
X99493Y271248D01*
X99528Y271835D01*
X99493Y272422D01*
X99355Y272994D01*
X99130Y273538D01*
X98823Y274040D01*
X98440Y274487D01*
X97993Y274870D01*
X97491Y275177D01*
X96947Y275403D01*
X96374Y275540D01*
X95787Y275586D01*
X95201Y275540D01*
X94628Y275403D01*
X94084Y275177D01*
X93582Y274870D01*
X93135Y274487D01*
X92752Y274040D01*
X92445Y273538D01*
X92219Y272994D01*
X92082Y272422D01*
X92036Y271835D01*
X92082Y271248D01*
X92219Y270675D01*
X92445Y270131D01*
X92752Y269629D01*
X93135Y269182D01*
X93582Y268799D01*
X94084Y268492D01*
X94628Y268267D01*
X94901Y268201D01*
Y263477D01*
X86674Y255250D01*
Y269201D01*
X86947Y269267D01*
X87491Y269492D01*
X87993Y269799D01*
X88440Y270182D01*
X88823Y270629D01*
X89130Y271131D01*
X89355Y271675D01*
X89493Y272248D01*
X89528Y272835D01*
X89493Y273422D01*
X89355Y273994D01*
X89130Y274538D01*
X88823Y275040D01*
X88440Y275487D01*
X87993Y275870D01*
X87491Y276177D01*
X86947Y276403D01*
X86374Y276540D01*
X85787Y276586D01*
X85201Y276540D01*
X84628Y276403D01*
X84084Y276177D01*
X83582Y275870D01*
X83135Y275487D01*
X82752Y275040D01*
X82445Y274538D01*
X82219Y273994D01*
X82082Y273422D01*
X82036Y272835D01*
X82082Y272248D01*
X82219Y271675D01*
X82445Y271131D01*
X82752Y270629D01*
X83135Y270182D01*
X83582Y269799D01*
X84084Y269492D01*
X84628Y269267D01*
X84901Y269201D01*
Y255249D01*
X79319Y249667D01*
Y270588D01*
X79355Y270675D01*
X79493Y271248D01*
X79528Y271835D01*
X79493Y272422D01*
X79355Y272994D01*
X79319Y273082D01*
Y277500D01*
X102657D01*
Y274878D01*
X102550Y274715D01*
X102398Y274424D01*
X102272Y274121D01*
X102173Y273808D01*
X102101Y273488D01*
X102058Y273163D01*
X102044Y272835D01*
X102058Y272507D01*
X102101Y272181D01*
X102173Y271861D01*
X102272Y271548D01*
X102398Y271245D01*
X102550Y270954D01*
X102657Y270787D01*
Y227500D01*
G37*
G36*
Y159888D02*X90869Y171676D01*
X90824Y171729D01*
X90612Y171910D01*
X90611Y171910D01*
X90374Y172056D01*
X90116Y172163D01*
X89845Y172228D01*
X89567Y172250D01*
X89497Y172244D01*
X79319D01*
Y197500D01*
X102657D01*
Y188037D01*
X98406Y183785D01*
X98349Y183737D01*
X98168Y183525D01*
X98023Y183287D01*
X97916Y183030D01*
X97851Y182758D01*
X97829Y182480D01*
X97851Y182202D01*
X97916Y181931D01*
X98023Y181673D01*
X98168Y181436D01*
X98349Y181223D01*
X98562Y181042D01*
X98799Y180897D01*
X99057Y180790D01*
X99328Y180725D01*
X99606Y180703D01*
X99884Y180725D01*
X100156Y180790D01*
X100413Y180897D01*
X100651Y181042D01*
X100863Y181223D01*
X100911Y181280D01*
X102657Y183026D01*
Y159888D01*
G37*
G36*
X79319Y92281D02*X78346Y93254D01*
Y115802D01*
X79319Y116774D01*
Y92281D01*
G37*
G36*
Y73312D02*X61320Y91312D01*
Y116562D01*
X65722Y120964D01*
X68666D01*
X68701Y120961D01*
X68839Y120972D01*
X68840Y120972D01*
X68976Y121005D01*
X69104Y121058D01*
X69223Y121131D01*
X69330Y121222D01*
X69352Y121248D01*
X79319Y131215D01*
Y121785D01*
X75371Y117837D01*
X75318Y117792D01*
X75137Y117580D01*
X74991Y117342D01*
X74885Y117085D01*
X74820Y116813D01*
X74798Y116535D01*
X74803Y116466D01*
Y96723D01*
X74798Y96654D01*
X74803Y96584D01*
Y92591D01*
X74798Y92524D01*
X74798Y92522D01*
X74798Y92520D01*
X74809Y92382D01*
X74819Y92246D01*
X74819Y92244D01*
X74820Y92242D01*
Y92242D01*
X74836Y92175D01*
X74852Y92108D01*
X74883Y91975D01*
X74884Y91973D01*
X74885Y91971D01*
X74937Y91844D01*
X74989Y91717D01*
X74990Y91715D01*
X74991Y91713D01*
X75036Y91639D01*
X75063Y91596D01*
X75134Y91479D01*
X75136Y91477D01*
X75137Y91475D01*
X75137Y91475D01*
X75318Y91263D01*
X75371Y91218D01*
X79319Y87270D01*
Y85320D01*
X72146Y92493D01*
Y99633D01*
X72846Y100333D01*
X72873Y100355D01*
X72964Y100462D01*
X73036Y100581D01*
X73090Y100709D01*
X73122Y100845D01*
X73133Y100984D01*
X73131Y101019D01*
Y115123D01*
X73133Y115157D01*
X73122Y115296D01*
X73122Y115297D01*
X73090Y115432D01*
X73036Y115561D01*
X72964Y115680D01*
X72873Y115786D01*
X72846Y115809D01*
X71594Y117061D01*
X71637Y117242D01*
X71654Y117520D01*
X71637Y117798D01*
X71572Y118069D01*
X71465Y118326D01*
X71320Y118564D01*
X71138Y118776D01*
X70926Y118957D01*
X70689Y119103D01*
X70431Y119210D01*
X70160Y119275D01*
X69882Y119297D01*
X69604Y119275D01*
X69333Y119210D01*
X69075Y119103D01*
X68837Y118957D01*
X68625Y118776D01*
X68444Y118564D01*
X68298Y118326D01*
X68192Y118069D01*
X68127Y117798D01*
X68105Y117520D01*
X68127Y117242D01*
X68192Y116971D01*
X68298Y116713D01*
X68444Y116475D01*
X68625Y116263D01*
X68837Y116082D01*
X69075Y115936D01*
X69333Y115830D01*
X69604Y115764D01*
X69882Y115743D01*
X70160Y115764D01*
X70340Y115808D01*
X71358Y114790D01*
Y103002D01*
X71335Y103028D01*
X71123Y103209D01*
X70886Y103355D01*
X70628Y103462D01*
X70357Y103527D01*
X70079Y103549D01*
X69801Y103527D01*
X69530Y103462D01*
X69272Y103355D01*
X69034Y103209D01*
X68822Y103028D01*
X68641Y102816D01*
X68495Y102578D01*
X68389Y102321D01*
X68324Y102050D01*
X68302Y101772D01*
X68324Y101494D01*
X68389Y101222D01*
X68495Y100965D01*
X68641Y100727D01*
X68822Y100515D01*
X69034Y100334D01*
X69192Y100237D01*
Y91570D01*
X69190Y91535D01*
X69200Y91397D01*
X69200Y91396D01*
X69233Y91261D01*
X69286Y91132D01*
X69359Y91013D01*
X69450Y90907D01*
X69476Y90884D01*
X77892Y82469D01*
X77915Y82442D01*
X78021Y82351D01*
X78140Y82279D01*
X78269Y82225D01*
X78404Y82193D01*
X78404Y82193D01*
X78543Y82182D01*
X78578Y82184D01*
X79319D01*
Y73312D01*
G37*
G36*
Y227500D02*X61431D01*
X79319Y245388D01*
Y227500D01*
G37*
G36*
Y155020D02*X72082D01*
X72047Y155023D01*
X71908Y155012D01*
X71772Y154980D01*
X71644Y154926D01*
X71525Y154853D01*
X71418Y154763D01*
X71396Y154736D01*
X69870Y153210D01*
X69844Y153188D01*
X69753Y153082D01*
X69680Y152963D01*
X69627Y152834D01*
X69594Y152698D01*
X69594Y152698D01*
Y152698D01*
X69583Y152559D01*
X69586Y152524D01*
Y131666D01*
X65025Y127106D01*
X64845Y127149D01*
X64567Y127171D01*
X64289Y127149D01*
X64108Y127106D01*
X40060Y151155D01*
Y170438D01*
X40062Y170472D01*
X40052Y170611D01*
X40052Y170612D01*
X40019Y170747D01*
X39966Y170876D01*
X39893Y170995D01*
X39802Y171101D01*
X39775Y171124D01*
X32973Y177926D01*
Y199042D01*
X60000Y226069D01*
Y197500D01*
X79319D01*
Y172244D01*
X66605D01*
X66535Y172250D01*
X66466Y172244D01*
X44041D01*
X37402Y178883D01*
Y181687D01*
X37402Y181693D01*
X37386Y181971D01*
X37320Y182242D01*
X37214Y182500D01*
X37068Y182738D01*
X36887Y182950D01*
X36675Y183131D01*
X36437Y183277D01*
X36179Y183383D01*
X35908Y183448D01*
X35630Y183470D01*
X35352Y183448D01*
X35081Y183383D01*
X34823Y183277D01*
X34585Y183131D01*
X34373Y182950D01*
X34192Y182738D01*
X34046Y182500D01*
X33939Y182242D01*
X33874Y181971D01*
X33852Y181693D01*
X33858Y181619D01*
Y178810D01*
X33853Y178740D01*
X33858Y178671D01*
Y178219D01*
X33853Y178150D01*
X33875Y177872D01*
Y177872D01*
X33890Y177807D01*
X33940Y177600D01*
X34002Y177450D01*
X34046Y177343D01*
X34102Y177252D01*
X34192Y177105D01*
X34192Y177105D01*
X34373Y176893D01*
X34426Y176848D01*
X42005Y169269D01*
X42050Y169216D01*
X42262Y169035D01*
X42263Y169035D01*
X42410Y168944D01*
X42500Y168889D01*
X42666Y168820D01*
X42758Y168782D01*
X42940Y168739D01*
X43029Y168717D01*
X43029Y168717D01*
X43307Y168695D01*
X43377Y168701D01*
X64764D01*
Y155389D01*
X64758Y155315D01*
X64764Y155241D01*
Y143578D01*
X64758Y143504D01*
X64780Y143226D01*
X64845Y142955D01*
X64952Y142697D01*
X65097Y142459D01*
X65279Y142247D01*
X65491Y142066D01*
X65728Y141920D01*
X65986Y141813D01*
X66257Y141748D01*
X66535Y141726D01*
X66813Y141748D01*
X67085Y141813D01*
X67342Y141920D01*
X67580Y142066D01*
X67792Y142247D01*
X67973Y142459D01*
X68119Y142697D01*
X68226Y142955D01*
X68291Y143226D01*
X68307Y143504D01*
X68307Y143510D01*
Y155309D01*
X68307Y155315D01*
X68307Y155321D01*
Y168701D01*
X79319D01*
Y155020D01*
G37*
G36*
Y152059D02*X79270Y152029D01*
X79058Y151847D01*
X78877Y151635D01*
X78731Y151398D01*
X78624Y151140D01*
X78559Y150869D01*
X78537Y150591D01*
X78559Y150312D01*
X78624Y150041D01*
X78731Y149784D01*
X78877Y149546D01*
X79058Y149334D01*
X79270Y149153D01*
X79319Y149123D01*
Y135396D01*
X73029Y129105D01*
X72997Y129143D01*
X72785Y129324D01*
X72547Y129470D01*
X72289Y129576D01*
X72018Y129641D01*
X71740Y129663D01*
X71462Y129641D01*
X71191Y129576D01*
X70933Y129470D01*
X70695Y129324D01*
X70483Y129143D01*
X70302Y128931D01*
X70156Y128693D01*
X70050Y128435D01*
X69985Y128164D01*
X69963Y127886D01*
X69985Y127608D01*
X70022Y127452D01*
X70050Y127337D01*
X70156Y127079D01*
X70302Y126841D01*
X70483Y126629D01*
X70521Y126597D01*
X67841Y123918D01*
X65550D01*
X65555Y123921D01*
X65555D01*
X65612Y123956D01*
X65824Y124137D01*
X66005Y124349D01*
X66151Y124587D01*
X66257Y124844D01*
X66323Y125116D01*
X66339Y125394D01*
X66323Y125672D01*
X66279Y125852D01*
X71075Y130648D01*
X71101Y130670D01*
X71192Y130777D01*
X71265Y130896D01*
X71318Y131024D01*
X71351Y131160D01*
X71362Y131299D01*
X71359Y131334D01*
Y152192D01*
X72414Y153247D01*
X79319D01*
Y152059D01*
G37*
G36*
X38616Y138476D02*X56003Y121089D01*
Y118145D01*
X56001Y118110D01*
X56011Y117971D01*
X56011Y117971D01*
X56044Y117835D01*
X56097Y117707D01*
X56170Y117588D01*
X56261Y117481D01*
X56288Y117459D01*
X57184Y116562D01*
Y89798D01*
X57182Y89764D01*
X57193Y89625D01*
X57193Y89625D01*
X57225Y89489D01*
X57279Y89360D01*
X57351Y89241D01*
X57442Y89135D01*
X57469Y89112D01*
X79319Y67262D01*
Y35588D01*
X55512Y59395D01*
Y106190D01*
X55517Y106260D01*
X55495Y106538D01*
X55430Y106809D01*
X55324Y107067D01*
X55178Y107304D01*
X55178Y107305D01*
X54997Y107516D01*
X54944Y107562D01*
X38616Y123889D01*
Y138476D01*
G37*
G36*
Y148319D02*X59350Y127586D01*
Y123189D01*
X59191Y123092D01*
X58979Y122910D01*
X58798Y122698D01*
X58707Y122549D01*
X58700Y122558D01*
X58673Y122581D01*
X38616Y142637D01*
Y148319D01*
G37*
G36*
X51005Y225413D02*X52794Y225554D01*
X54543Y225974D01*
X56205Y226662D01*
X56487Y226835D01*
X51005Y221353D01*
Y225413D01*
G37*
G36*
X59777Y262692D02*X59903Y262154D01*
X60017Y261330D01*
X60055Y260500D01*
X60017Y259670D01*
X59903Y258846D01*
X59777Y258308D01*
Y262692D01*
G37*
G36*
Y277500D02*X79319D01*
Y273082D01*
X79130Y273538D01*
X78823Y274040D01*
X78440Y274487D01*
X77993Y274870D01*
X77491Y275177D01*
X76947Y275403D01*
X76374Y275540D01*
X75787Y275586D01*
X75201Y275540D01*
X74628Y275403D01*
X74084Y275177D01*
X73582Y274870D01*
X73135Y274487D01*
X72752Y274040D01*
X72445Y273538D01*
X72219Y272994D01*
X72082Y272422D01*
X72036Y271835D01*
X72082Y271248D01*
X72219Y270675D01*
X72445Y270131D01*
X72752Y269629D01*
X73135Y269182D01*
X73582Y268799D01*
X74084Y268492D01*
X74628Y268267D01*
X75201Y268129D01*
X75787Y268083D01*
X76374Y268129D01*
X76947Y268267D01*
X77491Y268492D01*
X77993Y268799D01*
X78440Y269182D01*
X78823Y269629D01*
X79130Y270131D01*
X79319Y270588D01*
Y249667D01*
X61043Y231391D01*
X61216Y231673D01*
X61904Y233335D01*
X62324Y235084D01*
X62430Y236878D01*
X62324Y238672D01*
X61904Y240421D01*
X61216Y242083D01*
X60276Y243617D01*
X59777Y244201D01*
Y254836D01*
X59909Y255026D01*
X60374Y255866D01*
X60759Y256745D01*
X61062Y257656D01*
X61281Y258590D01*
X61413Y259541D01*
X61457Y260500D01*
X61413Y261459D01*
X61281Y262410D01*
X61062Y263344D01*
X60759Y264255D01*
X60374Y265134D01*
X59909Y265974D01*
X59777Y266169D01*
Y277500D01*
G37*
G36*
X51005D02*X59777D01*
Y266169D01*
X59370Y266768D01*
X59297Y266852D01*
X59212Y266923D01*
X59116Y266979D01*
X59013Y267020D01*
X58905Y267044D01*
X58794Y267052D01*
X58684Y267041D01*
X58576Y267014D01*
X58474Y266970D01*
X58381Y266911D01*
X58297Y266837D01*
X58227Y266752D01*
X58170Y266656D01*
X58129Y266553D01*
X58105Y266445D01*
X58098Y266334D01*
X58108Y266224D01*
X58135Y266116D01*
X58179Y266015D01*
X58240Y265922D01*
X58715Y265240D01*
X59117Y264513D01*
X59451Y263752D01*
X59714Y262963D01*
X59777Y262692D01*
Y258308D01*
X59714Y258037D01*
X59451Y257248D01*
X59117Y256487D01*
X58715Y255760D01*
X58248Y255072D01*
X58188Y254981D01*
X58144Y254880D01*
X58117Y254774D01*
X58107Y254665D01*
X58114Y254556D01*
X58138Y254449D01*
X58179Y254348D01*
X58234Y254254D01*
X58304Y254169D01*
X58386Y254097D01*
X58479Y254039D01*
X58579Y253995D01*
X58685Y253968D01*
X58794Y253958D01*
X58904Y253965D01*
X59010Y253989D01*
X59112Y254029D01*
X59206Y254085D01*
X59290Y254155D01*
X59361Y254239D01*
X59777Y254836D01*
Y244201D01*
X59107Y244985D01*
X57739Y246153D01*
X56205Y247093D01*
X54543Y247782D01*
X52794Y248202D01*
X51005Y248343D01*
Y250044D01*
X51959Y250087D01*
X52910Y250219D01*
X53844Y250438D01*
X54755Y250741D01*
X55634Y251126D01*
X56474Y251591D01*
X57268Y252130D01*
X57352Y252203D01*
X57423Y252288D01*
X57479Y252384D01*
X57520Y252487D01*
X57544Y252595D01*
X57552Y252706D01*
X57541Y252816D01*
X57514Y252924D01*
X57470Y253026D01*
X57411Y253119D01*
X57337Y253203D01*
X57252Y253273D01*
X57156Y253330D01*
X57053Y253371D01*
X56945Y253395D01*
X56834Y253402D01*
X56724Y253392D01*
X56616Y253365D01*
X56515Y253321D01*
X56422Y253260D01*
X55740Y252785D01*
X55013Y252383D01*
X54252Y252049D01*
X53463Y251786D01*
X52654Y251597D01*
X51830Y251483D01*
X51005Y251445D01*
Y269555D01*
X51830Y269517D01*
X52654Y269403D01*
X53463Y269214D01*
X54252Y268951D01*
X55013Y268617D01*
X55740Y268215D01*
X56428Y267748D01*
X56519Y267688D01*
X56620Y267644D01*
X56726Y267617D01*
X56835Y267607D01*
X56944Y267614D01*
X57051Y267638D01*
X57152Y267679D01*
X57246Y267734D01*
X57331Y267804D01*
X57403Y267886D01*
X57461Y267979D01*
X57505Y268079D01*
X57532Y268185D01*
X57542Y268294D01*
X57535Y268404D01*
X57511Y268510D01*
X57471Y268612D01*
X57415Y268706D01*
X57345Y268790D01*
X57261Y268861D01*
X56474Y269409D01*
X55634Y269874D01*
X54755Y270259D01*
X53844Y270562D01*
X52910Y270781D01*
X51959Y270913D01*
X51005Y270956D01*
Y277500D01*
G37*
G36*
X42223Y229555D02*X42893Y228771D01*
X44261Y227602D01*
X45795Y226662D01*
X47457Y225974D01*
X49206Y225554D01*
X51000Y225413D01*
X51005Y225413D01*
Y221353D01*
X42223Y212571D01*
Y229555D01*
G37*
G36*
Y277500D02*X51005D01*
Y270956D01*
X51000Y270957D01*
X50041Y270913D01*
X49090Y270781D01*
X48156Y270562D01*
X47245Y270259D01*
X46366Y269874D01*
X45526Y269409D01*
X44732Y268870D01*
X44648Y268797D01*
X44577Y268712D01*
X44521Y268616D01*
X44480Y268513D01*
X44456Y268405D01*
X44448Y268294D01*
X44459Y268184D01*
X44486Y268076D01*
X44530Y267974D01*
X44589Y267881D01*
X44663Y267797D01*
X44748Y267727D01*
X44844Y267670D01*
X44947Y267629D01*
X45055Y267605D01*
X45166Y267598D01*
X45276Y267608D01*
X45384Y267635D01*
X45485Y267679D01*
X45578Y267740D01*
X46260Y268215D01*
X46987Y268617D01*
X47748Y268951D01*
X48537Y269214D01*
X49346Y269403D01*
X50170Y269517D01*
X51000Y269555D01*
X51005Y269555D01*
Y251445D01*
X51000Y251445D01*
X50170Y251483D01*
X49346Y251597D01*
X48537Y251786D01*
X47748Y252049D01*
X46987Y252383D01*
X46260Y252785D01*
X45572Y253252D01*
X45481Y253312D01*
X45380Y253356D01*
X45274Y253383D01*
X45165Y253393D01*
X45056Y253386D01*
X44949Y253362D01*
X44848Y253321D01*
X44754Y253266D01*
X44669Y253196D01*
X44597Y253114D01*
X44539Y253021D01*
X44495Y252921D01*
X44468Y252815D01*
X44458Y252706D01*
X44465Y252596D01*
X44489Y252490D01*
X44529Y252388D01*
X44585Y252294D01*
X44655Y252210D01*
X44739Y252139D01*
X45526Y251591D01*
X46366Y251126D01*
X47245Y250741D01*
X48156Y250438D01*
X49090Y250219D01*
X50041Y250087D01*
X51000Y250043D01*
X51005Y250044D01*
Y248343D01*
X51000Y248343D01*
X49206Y248202D01*
X47457Y247782D01*
X45795Y247093D01*
X44261Y246153D01*
X42893Y244985D01*
X42223Y244201D01*
Y254831D01*
X42630Y254232D01*
X42703Y254148D01*
X42788Y254077D01*
X42884Y254021D01*
X42987Y253980D01*
X43095Y253956D01*
X43206Y253948D01*
X43316Y253959D01*
X43424Y253986D01*
X43526Y254030D01*
X43619Y254089D01*
X43703Y254163D01*
X43773Y254248D01*
X43830Y254344D01*
X43871Y254447D01*
X43895Y254555D01*
X43902Y254666D01*
X43892Y254776D01*
X43865Y254884D01*
X43821Y254985D01*
X43760Y255078D01*
X43285Y255760D01*
X42883Y256487D01*
X42549Y257248D01*
X42286Y258037D01*
X42223Y258308D01*
Y262692D01*
X42286Y262963D01*
X42549Y263752D01*
X42883Y264513D01*
X43285Y265240D01*
X43752Y265928D01*
X43812Y266019D01*
X43856Y266120D01*
X43883Y266226D01*
X43893Y266335D01*
X43886Y266444D01*
X43862Y266551D01*
X43821Y266652D01*
X43766Y266746D01*
X43696Y266831D01*
X43614Y266903D01*
X43521Y266961D01*
X43421Y267005D01*
X43315Y267032D01*
X43206Y267042D01*
X43096Y267035D01*
X42990Y267011D01*
X42888Y266971D01*
X42794Y266915D01*
X42710Y266845D01*
X42639Y266761D01*
X42223Y266164D01*
Y277500D01*
G37*
G36*
Y258308D02*X42097Y258846D01*
X41983Y259670D01*
X41945Y260500D01*
X41983Y261330D01*
X42097Y262154D01*
X42223Y262692D01*
Y258308D01*
G37*
G36*
X38616Y240655D02*X39118Y241083D01*
X40185Y242333D01*
X41045Y243735D01*
X41674Y245254D01*
X42058Y246853D01*
X42154Y248492D01*
X42058Y250131D01*
X41674Y251730D01*
X41045Y253249D01*
X40185Y254651D01*
X39118Y255901D01*
X38616Y256329D01*
Y277500D01*
X42223D01*
Y266164D01*
X42091Y265974D01*
X41626Y265134D01*
X41241Y264255D01*
X40938Y263344D01*
X40719Y262410D01*
X40587Y261459D01*
X40543Y260500D01*
X40587Y259541D01*
X40719Y258590D01*
X40938Y257656D01*
X41241Y256745D01*
X41626Y255866D01*
X42091Y255026D01*
X42223Y254831D01*
Y244201D01*
X41724Y243617D01*
X40784Y242083D01*
X40096Y240421D01*
X39676Y238672D01*
X39535Y236878D01*
X39676Y235084D01*
X40096Y233335D01*
X40784Y231673D01*
X41724Y230139D01*
X42223Y229555D01*
Y212571D01*
X38616Y208965D01*
Y240655D01*
G37*
G36*
X79319Y12500D02*X49989D01*
Y13126D01*
X50000Y13125D01*
X51075Y13210D01*
X52124Y13462D01*
X53121Y13874D01*
X54041Y14438D01*
X54861Y15139D01*
X55562Y15959D01*
X56126Y16879D01*
X56538Y17876D01*
X56790Y18925D01*
X56854Y20000D01*
X56790Y21075D01*
X56538Y22124D01*
X56126Y23121D01*
X55562Y24041D01*
X54861Y24861D01*
X54041Y25562D01*
X53121Y26126D01*
X52124Y26538D01*
X51075Y26790D01*
X50000Y26875D01*
X49989Y26874D01*
Y61986D01*
X50020Y61999D01*
X50257Y62145D01*
X50469Y62326D01*
X50651Y62538D01*
X50796Y62776D01*
X50903Y63033D01*
X50968Y63305D01*
X50985Y63583D01*
X50968Y63861D01*
X50903Y64132D01*
X50796Y64390D01*
X50651Y64627D01*
X50469Y64840D01*
X50257Y65021D01*
X50020Y65166D01*
X49989Y65179D01*
Y69860D01*
X50020Y69873D01*
X50257Y70019D01*
X50469Y70200D01*
X50651Y70412D01*
X50796Y70650D01*
X50903Y70907D01*
X50968Y71179D01*
X50985Y71457D01*
X50968Y71735D01*
X50903Y72006D01*
X50796Y72264D01*
X50651Y72501D01*
X50469Y72714D01*
X50257Y72895D01*
X50020Y73040D01*
X49989Y73053D01*
Y107505D01*
X51969Y105526D01*
Y58731D01*
X51963Y58661D01*
X51985Y58383D01*
Y58383D01*
X51996Y58338D01*
X52001Y58318D01*
X52050Y58112D01*
X52134Y57911D01*
X52157Y57855D01*
X52212Y57764D01*
X52302Y57617D01*
X52303Y57617D01*
X52484Y57405D01*
X52536Y57360D01*
X79319Y30577D01*
Y12500D01*
G37*
G36*
X49989Y73053D02*X49762Y73147D01*
X49491Y73212D01*
X49213Y73234D01*
X48935Y73212D01*
X48663Y73147D01*
X48406Y73040D01*
X48168Y72895D01*
X47956Y72714D01*
X47775Y72501D01*
X47678Y72343D01*
X41491D01*
X41457Y72346D01*
X41318Y72335D01*
X41182Y72302D01*
X41053Y72249D01*
X40934Y72176D01*
X40828Y72085D01*
X40805Y72059D01*
X38616Y69870D01*
Y118878D01*
X49989Y107505D01*
Y73053D01*
G37*
G36*
Y65179D02*X49762Y65273D01*
X49491Y65338D01*
X49213Y65360D01*
X48935Y65338D01*
X48663Y65273D01*
X48406Y65166D01*
X48168Y65021D01*
X47956Y64840D01*
X47775Y64627D01*
X47678Y64469D01*
X43617D01*
X43583Y64472D01*
X43444Y64461D01*
X43308Y64428D01*
X43179Y64375D01*
X43060Y64302D01*
X42954Y64211D01*
X42931Y64185D01*
X38616Y59870D01*
Y67363D01*
X41824Y70570D01*
X47678D01*
X47775Y70412D01*
X47956Y70200D01*
X48168Y70019D01*
X48406Y69873D01*
X48663Y69766D01*
X48935Y69701D01*
X49213Y69679D01*
X49491Y69701D01*
X49762Y69766D01*
X49989Y69860D01*
Y65179D01*
G37*
G36*
Y12500D02*X42500D01*
X38616Y16384D01*
Y57363D01*
X43950Y62696D01*
X47678D01*
X47775Y62538D01*
X47956Y62326D01*
X48168Y62145D01*
X48406Y61999D01*
X48663Y61892D01*
X48935Y61827D01*
X49213Y61805D01*
X49491Y61827D01*
X49762Y61892D01*
X49989Y61986D01*
Y26874D01*
X48925Y26790D01*
X47876Y26538D01*
X46879Y26126D01*
X45959Y25562D01*
X45139Y24861D01*
X44438Y24041D01*
X43874Y23121D01*
X43462Y22124D01*
X43210Y21075D01*
X43125Y20000D01*
X43210Y18925D01*
X43462Y17876D01*
X43874Y16879D01*
X44438Y15959D01*
X45139Y15139D01*
X45959Y14438D01*
X46879Y13874D01*
X47876Y13462D01*
X48925Y13210D01*
X49989Y13126D01*
Y12500D01*
G37*
G36*
X38616Y256329D02*X37867Y256969D01*
X36466Y257828D01*
X34947Y258457D01*
X33348Y258841D01*
X31709Y258970D01*
X30070Y258841D01*
X28471Y258457D01*
X26952Y257828D01*
X25550Y256969D01*
X24300Y255901D01*
X23232Y254651D01*
X22500Y253457D01*
Y275000D01*
X25000Y277500D01*
X38616D01*
Y256329D01*
G37*
G36*
X29989Y56249D02*X30000Y56248D01*
X30587Y56294D01*
X31159Y56432D01*
X31703Y56657D01*
X32205Y56965D01*
X32653Y57347D01*
X33035Y57795D01*
X33343Y58297D01*
X33568Y58841D01*
X33706Y59413D01*
X33740Y60000D01*
X33706Y60587D01*
X33568Y61159D01*
X33343Y61703D01*
X33196Y61942D01*
X38616Y67363D01*
Y59870D01*
X31942Y53196D01*
X31703Y53343D01*
X31159Y53568D01*
X30587Y53706D01*
X30000Y53752D01*
X29989Y53751D01*
Y56249D01*
G37*
G36*
X33130Y110331D02*X33137Y110276D01*
X33150Y110000D01*
X33137Y109724D01*
X33130Y109669D01*
Y110331D01*
G37*
G36*
Y120331D02*X33137Y120276D01*
X33150Y120000D01*
X33137Y119724D01*
X33130Y119669D01*
Y120331D01*
G37*
G36*
Y124364D02*X38616Y118878D01*
Y69870D01*
X33130Y64384D01*
Y67950D01*
X33343Y68297D01*
X33568Y68841D01*
X33706Y69413D01*
X33740Y70000D01*
X33706Y70587D01*
X33568Y71159D01*
X33343Y71703D01*
X33130Y72050D01*
Y77950D01*
X33343Y78297D01*
X33568Y78841D01*
X33706Y79413D01*
X33740Y80000D01*
X33706Y80587D01*
X33568Y81159D01*
X33343Y81703D01*
X33130Y82050D01*
Y97950D01*
X33343Y98297D01*
X33568Y98841D01*
X33706Y99413D01*
X33740Y100000D01*
X33706Y100587D01*
X33568Y101159D01*
X33343Y101703D01*
X33130Y102050D01*
Y107956D01*
X33237Y108120D01*
X33389Y108410D01*
X33516Y108713D01*
X33615Y109026D01*
X33686Y109347D01*
X33729Y109672D01*
X33744Y110000D01*
X33729Y110328D01*
X33686Y110653D01*
X33615Y110974D01*
X33516Y111287D01*
X33389Y111590D01*
X33237Y111880D01*
X33130Y112047D01*
Y117956D01*
X33237Y118120D01*
X33389Y118410D01*
X33516Y118713D01*
X33615Y119026D01*
X33686Y119347D01*
X33729Y119672D01*
X33744Y120000D01*
X33729Y120328D01*
X33686Y120653D01*
X33615Y120974D01*
X33516Y121287D01*
X33389Y121590D01*
X33237Y121880D01*
X33130Y122047D01*
Y124364D01*
G37*
G36*
Y82050D02*X33035Y82205D01*
X32653Y82653D01*
X32205Y83035D01*
X31703Y83343D01*
X31159Y83568D01*
X30587Y83706D01*
X30000Y83752D01*
X29989Y83751D01*
Y96249D01*
X30000Y96248D01*
X30587Y96294D01*
X31159Y96432D01*
X31703Y96657D01*
X32205Y96965D01*
X32653Y97347D01*
X33035Y97795D01*
X33130Y97950D01*
Y82050D01*
G37*
G36*
Y72050D02*X33035Y72205D01*
X32653Y72653D01*
X32205Y73035D01*
X31703Y73343D01*
X31159Y73568D01*
X30587Y73706D01*
X30000Y73752D01*
X29989Y73751D01*
Y76249D01*
X30000Y76248D01*
X30587Y76294D01*
X31159Y76432D01*
X31703Y76657D01*
X32205Y76965D01*
X32653Y77347D01*
X33035Y77795D01*
X33130Y77950D01*
Y72050D01*
G37*
G36*
Y64384D02*X31942Y63196D01*
X31703Y63343D01*
X31159Y63568D01*
X30587Y63706D01*
X30000Y63752D01*
X29989Y63751D01*
Y66249D01*
X30000Y66248D01*
X30587Y66294D01*
X31159Y66432D01*
X31703Y66657D01*
X32205Y66965D01*
X32653Y67347D01*
X33035Y67795D01*
X33130Y67950D01*
Y64384D01*
G37*
G36*
X29989Y126249D02*X30000Y126248D01*
X30587Y126294D01*
X31081Y126413D01*
X33130Y124364D01*
Y122047D01*
X33060Y122157D01*
X33030Y122193D01*
X32995Y122224D01*
X32955Y122249D01*
X32912Y122268D01*
X32867Y122279D01*
X32820Y122284D01*
X32773Y122281D01*
X32727Y122271D01*
X32684Y122253D01*
X32643Y122229D01*
X32607Y122199D01*
X32576Y122164D01*
X32551Y122124D01*
X32533Y122081D01*
X32521Y122036D01*
X32517Y121989D01*
X32520Y121942D01*
X32530Y121896D01*
X32547Y121853D01*
X32572Y121813D01*
X32723Y121582D01*
X32852Y121337D01*
X32958Y121082D01*
X33041Y120819D01*
X33101Y120550D01*
X33130Y120331D01*
Y119669D01*
X33101Y119450D01*
X33041Y119181D01*
X32958Y118918D01*
X32852Y118663D01*
X32723Y118418D01*
X32574Y118185D01*
X32550Y118146D01*
X32533Y118103D01*
X32523Y118057D01*
X32520Y118011D01*
X32524Y117965D01*
X32535Y117920D01*
X32554Y117877D01*
X32579Y117838D01*
X32609Y117803D01*
X32645Y117773D01*
X32685Y117750D01*
X32728Y117732D01*
X32774Y117722D01*
X32820Y117719D01*
X32866Y117724D01*
X32911Y117735D01*
X32954Y117753D01*
X32993Y117778D01*
X33028Y117809D01*
X33057Y117845D01*
X33130Y117956D01*
Y112047D01*
X33060Y112157D01*
X33030Y112193D01*
X32995Y112224D01*
X32955Y112249D01*
X32912Y112268D01*
X32867Y112279D01*
X32820Y112284D01*
X32773Y112281D01*
X32727Y112271D01*
X32684Y112253D01*
X32643Y112229D01*
X32607Y112199D01*
X32576Y112164D01*
X32551Y112124D01*
X32533Y112081D01*
X32521Y112036D01*
X32517Y111989D01*
X32520Y111942D01*
X32530Y111896D01*
X32547Y111853D01*
X32572Y111813D01*
X32723Y111582D01*
X32852Y111337D01*
X32958Y111082D01*
X33041Y110819D01*
X33101Y110550D01*
X33130Y110331D01*
Y109669D01*
X33101Y109450D01*
X33041Y109181D01*
X32958Y108918D01*
X32852Y108663D01*
X32723Y108418D01*
X32574Y108185D01*
X32550Y108146D01*
X32533Y108103D01*
X32523Y108057D01*
X32520Y108011D01*
X32524Y107965D01*
X32535Y107920D01*
X32554Y107877D01*
X32579Y107838D01*
X32609Y107803D01*
X32645Y107773D01*
X32685Y107750D01*
X32728Y107732D01*
X32774Y107722D01*
X32820Y107719D01*
X32866Y107724D01*
X32911Y107735D01*
X32954Y107753D01*
X32993Y107778D01*
X33028Y107809D01*
X33057Y107845D01*
X33130Y107956D01*
Y102050D01*
X33035Y102205D01*
X32653Y102653D01*
X32205Y103035D01*
X31703Y103343D01*
X31159Y103568D01*
X30587Y103706D01*
X30000Y103752D01*
X29989Y103751D01*
Y106257D01*
X30000Y106256D01*
X30328Y106271D01*
X30653Y106314D01*
X30974Y106385D01*
X31287Y106484D01*
X31590Y106611D01*
X31880Y106763D01*
X32157Y106940D01*
X32193Y106970D01*
X32224Y107005D01*
X32249Y107045D01*
X32268Y107088D01*
X32279Y107133D01*
X32284Y107180D01*
X32281Y107227D01*
X32271Y107273D01*
X32253Y107316D01*
X32229Y107357D01*
X32199Y107393D01*
X32164Y107424D01*
X32124Y107449D01*
X32081Y107467D01*
X32036Y107479D01*
X31989Y107483D01*
X31942Y107480D01*
X31896Y107470D01*
X31853Y107453D01*
X31813Y107428D01*
X31582Y107277D01*
X31337Y107148D01*
X31082Y107042D01*
X30819Y106959D01*
X30550Y106899D01*
X30276Y106863D01*
X30000Y106850D01*
X29989Y106851D01*
Y113149D01*
X30000Y113150D01*
X30276Y113138D01*
X30550Y113101D01*
X30819Y113041D01*
X31082Y112958D01*
X31337Y112852D01*
X31582Y112723D01*
X31815Y112574D01*
X31854Y112550D01*
X31897Y112533D01*
X31943Y112523D01*
X31989Y112520D01*
X32035Y112524D01*
X32080Y112535D01*
X32123Y112554D01*
X32162Y112579D01*
X32197Y112609D01*
X32227Y112645D01*
X32250Y112685D01*
X32268Y112728D01*
X32278Y112774D01*
X32281Y112820D01*
X32276Y112866D01*
X32265Y112911D01*
X32247Y112954D01*
X32222Y112993D01*
X32191Y113028D01*
X32155Y113057D01*
X31880Y113237D01*
X31590Y113389D01*
X31287Y113516D01*
X30974Y113615D01*
X30653Y113686D01*
X30328Y113729D01*
X30000Y113744D01*
X29989Y113743D01*
Y116257D01*
X30000Y116256D01*
X30328Y116271D01*
X30653Y116314D01*
X30974Y116385D01*
X31287Y116484D01*
X31590Y116611D01*
X31880Y116763D01*
X32157Y116940D01*
X32193Y116970D01*
X32224Y117005D01*
X32249Y117045D01*
X32268Y117088D01*
X32279Y117133D01*
X32284Y117180D01*
X32281Y117227D01*
X32271Y117273D01*
X32253Y117316D01*
X32229Y117357D01*
X32199Y117393D01*
X32164Y117424D01*
X32124Y117449D01*
X32081Y117467D01*
X32036Y117479D01*
X31989Y117483D01*
X31942Y117480D01*
X31896Y117470D01*
X31853Y117453D01*
X31813Y117428D01*
X31582Y117277D01*
X31337Y117148D01*
X31082Y117042D01*
X30819Y116959D01*
X30550Y116899D01*
X30276Y116863D01*
X30000Y116850D01*
X29989Y116851D01*
Y123149D01*
X30000Y123150D01*
X30276Y123138D01*
X30550Y123101D01*
X30819Y123041D01*
X31082Y122958D01*
X31337Y122852D01*
X31582Y122723D01*
X31815Y122574D01*
X31854Y122550D01*
X31897Y122533D01*
X31943Y122523D01*
X31989Y122520D01*
X32035Y122524D01*
X32080Y122535D01*
X32123Y122554D01*
X32162Y122579D01*
X32197Y122609D01*
X32227Y122645D01*
X32250Y122685D01*
X32268Y122728D01*
X32278Y122774D01*
X32281Y122820D01*
X32276Y122866D01*
X32265Y122911D01*
X32247Y122954D01*
X32222Y122993D01*
X32191Y123028D01*
X32155Y123057D01*
X31880Y123237D01*
X31590Y123389D01*
X31287Y123516D01*
X30974Y123615D01*
X30653Y123686D01*
X30328Y123729D01*
X30000Y123744D01*
X29989Y123743D01*
Y126249D01*
G37*
G36*
Y144783D02*X32310D01*
X38616Y138476D01*
Y123889D01*
X33587Y128919D01*
X33706Y129413D01*
X33740Y130000D01*
X33706Y130587D01*
X33568Y131159D01*
X33343Y131703D01*
X33035Y132205D01*
X32653Y132653D01*
X32205Y133035D01*
X31703Y133343D01*
X31159Y133568D01*
X30587Y133706D01*
X30000Y133752D01*
X29989Y133751D01*
Y136249D01*
X30000Y136248D01*
X30587Y136294D01*
X31159Y136432D01*
X31703Y136657D01*
X32205Y136965D01*
X32653Y137347D01*
X33035Y137795D01*
X33343Y138297D01*
X33568Y138841D01*
X33706Y139413D01*
X33740Y140000D01*
X33706Y140587D01*
X33568Y141159D01*
X33343Y141703D01*
X33035Y142205D01*
X32653Y142653D01*
X32205Y143035D01*
X31703Y143343D01*
X31159Y143568D01*
X30587Y143706D01*
X30000Y143752D01*
X29989Y143751D01*
Y144783D01*
G37*
G36*
Y238162D02*X30070Y238143D01*
X31709Y238014D01*
X33348Y238143D01*
X34947Y238527D01*
X36466Y239156D01*
X37867Y240015D01*
X38616Y240655D01*
Y208965D01*
X30303Y200651D01*
X30277Y200629D01*
X30186Y200523D01*
X30113Y200404D01*
X30060Y200275D01*
X30027Y200139D01*
X30027Y200139D01*
X30016Y200000D01*
X30019Y199965D01*
Y177003D01*
X30016Y176969D01*
X30027Y176830D01*
X30027Y176829D01*
X30060Y176694D01*
X30113Y176565D01*
X30186Y176446D01*
X30277Y176340D01*
X30303Y176317D01*
X37106Y169515D01*
Y150232D01*
X37103Y150197D01*
X37114Y150058D01*
X37114Y150058D01*
X37146Y149922D01*
X37200Y149793D01*
X37273Y149674D01*
X37363Y149568D01*
X37390Y149545D01*
X38616Y148319D01*
Y142637D01*
X33196Y148058D01*
X33343Y148297D01*
X33568Y148841D01*
X33706Y149413D01*
X33740Y150000D01*
X33706Y150587D01*
X33568Y151159D01*
X33343Y151703D01*
X33035Y152205D01*
X32653Y152653D01*
X32205Y153035D01*
X31703Y153343D01*
X31159Y153568D01*
X30587Y153706D01*
X30000Y153752D01*
X29989Y153751D01*
Y156249D01*
X30000Y156248D01*
X30587Y156294D01*
X31159Y156432D01*
X31703Y156657D01*
X32205Y156965D01*
X32653Y157347D01*
X33035Y157795D01*
X33343Y158297D01*
X33568Y158841D01*
X33706Y159413D01*
X33740Y160000D01*
X33706Y160587D01*
X33568Y161159D01*
X33343Y161703D01*
X33035Y162205D01*
X32653Y162653D01*
X32205Y163035D01*
X31703Y163343D01*
X31159Y163568D01*
X30587Y163706D01*
X30000Y163752D01*
X29989Y163751D01*
Y166249D01*
X30000Y166248D01*
X30587Y166294D01*
X31159Y166432D01*
X31703Y166657D01*
X32205Y166965D01*
X32653Y167347D01*
X33035Y167795D01*
X33343Y168297D01*
X33568Y168841D01*
X33706Y169413D01*
X33740Y170000D01*
X33706Y170587D01*
X33568Y171159D01*
X33343Y171703D01*
X33035Y172205D01*
X32653Y172653D01*
X32205Y173035D01*
X31703Y173343D01*
X31159Y173568D01*
X30587Y173706D01*
X30000Y173752D01*
X29989Y173751D01*
Y218126D01*
X30000Y218125D01*
X31075Y218210D01*
X32124Y218462D01*
X33121Y218874D01*
X34041Y219438D01*
X34861Y220139D01*
X35562Y220959D01*
X36126Y221879D01*
X36538Y222876D01*
X36790Y223925D01*
X36854Y225000D01*
X36790Y226075D01*
X36538Y227124D01*
X36126Y228121D01*
X35562Y229041D01*
X34861Y229861D01*
X34041Y230562D01*
X33121Y231126D01*
X32124Y231538D01*
X31075Y231790D01*
X30000Y231875D01*
X29989Y231874D01*
Y238162D01*
G37*
G36*
X38616Y16384D02*X32500Y22500D01*
X29989D01*
Y26249D01*
X30000Y26248D01*
X30587Y26294D01*
X31159Y26432D01*
X31703Y26657D01*
X32205Y26965D01*
X32653Y27347D01*
X33035Y27795D01*
X33343Y28297D01*
X33568Y28841D01*
X33706Y29413D01*
X33740Y30000D01*
X33706Y30587D01*
X33568Y31159D01*
X33343Y31703D01*
X33035Y32205D01*
X32653Y32653D01*
X32205Y33035D01*
X31703Y33343D01*
X31159Y33568D01*
X30587Y33706D01*
X30000Y33752D01*
X29989Y33751D01*
Y36249D01*
X30000Y36248D01*
X30587Y36294D01*
X31159Y36432D01*
X31703Y36657D01*
X32205Y36965D01*
X32653Y37347D01*
X33035Y37795D01*
X33343Y38297D01*
X33568Y38841D01*
X33706Y39413D01*
X33740Y40000D01*
X33706Y40587D01*
X33568Y41159D01*
X33343Y41703D01*
X33035Y42205D01*
X32653Y42653D01*
X32205Y43035D01*
X31703Y43343D01*
X31159Y43568D01*
X30587Y43706D01*
X30000Y43752D01*
X29989Y43751D01*
Y46249D01*
X30000Y46248D01*
X30587Y46294D01*
X31159Y46432D01*
X31703Y46657D01*
X32205Y46965D01*
X32653Y47347D01*
X33035Y47795D01*
X33343Y48297D01*
X33568Y48841D01*
X33706Y49413D01*
X33740Y50000D01*
X33706Y50587D01*
X33568Y51159D01*
X33343Y51703D01*
X33196Y51942D01*
X38616Y57363D01*
Y16384D01*
G37*
G36*
X29989Y163751D02*X29413Y163706D01*
X28841Y163568D01*
X28297Y163343D01*
X27795Y163035D01*
X27347Y162653D01*
X26965Y162205D01*
X26674Y161730D01*
Y165420D01*
X28058Y166804D01*
X28297Y166657D01*
X28841Y166432D01*
X29413Y166294D01*
X29989Y166249D01*
Y163751D01*
G37*
G36*
Y153751D02*X29413Y153706D01*
X28841Y153568D01*
X28297Y153343D01*
X27795Y153035D01*
X27347Y152653D01*
X26965Y152205D01*
X26674Y151730D01*
Y158270D01*
X26965Y157795D01*
X27347Y157347D01*
X27795Y156965D01*
X28297Y156657D01*
X28841Y156432D01*
X29413Y156294D01*
X29989Y156249D01*
Y153751D01*
G37*
G36*
X26870Y37950D02*X26965Y37795D01*
X27347Y37347D01*
X27795Y36965D01*
X28297Y36657D01*
X28841Y36432D01*
X29413Y36294D01*
X29989Y36249D01*
Y33751D01*
X29413Y33706D01*
X28841Y33568D01*
X28297Y33343D01*
X27795Y33035D01*
X27347Y32653D01*
X26965Y32205D01*
X26870Y32050D01*
Y37950D01*
G37*
G36*
Y47950D02*X26965Y47795D01*
X27347Y47347D01*
X27795Y46965D01*
X28297Y46657D01*
X28841Y46432D01*
X29413Y46294D01*
X29989Y46249D01*
Y43751D01*
X29413Y43706D01*
X28841Y43568D01*
X28297Y43343D01*
X27795Y43035D01*
X27347Y42653D01*
X26965Y42205D01*
X26870Y42050D01*
Y47950D01*
G37*
G36*
Y57950D02*X26965Y57795D01*
X27347Y57347D01*
X27795Y56965D01*
X28297Y56657D01*
X28841Y56432D01*
X29413Y56294D01*
X29989Y56249D01*
Y53751D01*
X29413Y53706D01*
X28841Y53568D01*
X28297Y53343D01*
X27795Y53035D01*
X27347Y52653D01*
X26965Y52205D01*
X26870Y52050D01*
Y57950D01*
G37*
G36*
Y67950D02*X26965Y67795D01*
X27347Y67347D01*
X27795Y66965D01*
X28297Y66657D01*
X28841Y66432D01*
X29413Y66294D01*
X29989Y66249D01*
Y63751D01*
X29413Y63706D01*
X28841Y63568D01*
X28297Y63343D01*
X27795Y63035D01*
X27347Y62653D01*
X26965Y62205D01*
X26870Y62050D01*
Y67950D01*
G37*
G36*
Y77950D02*X26965Y77795D01*
X27347Y77347D01*
X27795Y76965D01*
X28297Y76657D01*
X28841Y76432D01*
X29413Y76294D01*
X29989Y76249D01*
Y73751D01*
X29413Y73706D01*
X28841Y73568D01*
X28297Y73343D01*
X27795Y73035D01*
X27347Y72653D01*
X26965Y72205D01*
X26870Y72050D01*
Y77950D01*
G37*
G36*
Y97950D02*X26965Y97795D01*
X27347Y97347D01*
X27795Y96965D01*
X28297Y96657D01*
X28841Y96432D01*
X29413Y96294D01*
X29989Y96249D01*
Y83751D01*
X29413Y83706D01*
X28841Y83568D01*
X28297Y83343D01*
X27795Y83035D01*
X27347Y82653D01*
X26965Y82205D01*
X26870Y82050D01*
Y97950D01*
G37*
G36*
Y127950D02*X26965Y127795D01*
X27347Y127347D01*
X27795Y126965D01*
X28297Y126657D01*
X28841Y126432D01*
X29413Y126294D01*
X29989Y126249D01*
Y123743D01*
X29672Y123729D01*
X29347Y123686D01*
X29026Y123615D01*
X28713Y123516D01*
X28410Y123389D01*
X28120Y123237D01*
X27843Y123060D01*
X27807Y123030D01*
X27776Y122995D01*
X27751Y122955D01*
X27732Y122912D01*
X27721Y122867D01*
X27716Y122820D01*
X27719Y122773D01*
X27729Y122727D01*
X27747Y122684D01*
X27771Y122643D01*
X27801Y122607D01*
X27836Y122576D01*
X27876Y122551D01*
X27919Y122533D01*
X27964Y122521D01*
X28011Y122517D01*
X28058Y122520D01*
X28104Y122530D01*
X28147Y122547D01*
X28187Y122572D01*
X28418Y122723D01*
X28663Y122852D01*
X28918Y122958D01*
X29181Y123041D01*
X29450Y123101D01*
X29724Y123138D01*
X29989Y123149D01*
Y116851D01*
X29724Y116863D01*
X29450Y116899D01*
X29181Y116959D01*
X28918Y117042D01*
X28663Y117148D01*
X28418Y117277D01*
X28185Y117426D01*
X28146Y117450D01*
X28103Y117467D01*
X28057Y117477D01*
X28011Y117480D01*
X27965Y117476D01*
X27920Y117465D01*
X27877Y117446D01*
X27838Y117421D01*
X27803Y117391D01*
X27773Y117355D01*
X27750Y117315D01*
X27732Y117272D01*
X27722Y117226D01*
X27719Y117180D01*
X27724Y117134D01*
X27735Y117089D01*
X27753Y117046D01*
X27778Y117007D01*
X27809Y116972D01*
X27845Y116943D01*
X28120Y116763D01*
X28410Y116611D01*
X28713Y116484D01*
X29026Y116385D01*
X29347Y116314D01*
X29672Y116271D01*
X29989Y116257D01*
Y113743D01*
X29672Y113729D01*
X29347Y113686D01*
X29026Y113615D01*
X28713Y113516D01*
X28410Y113389D01*
X28120Y113237D01*
X27843Y113060D01*
X27807Y113030D01*
X27776Y112995D01*
X27751Y112955D01*
X27732Y112912D01*
X27721Y112867D01*
X27716Y112820D01*
X27719Y112773D01*
X27729Y112727D01*
X27747Y112684D01*
X27771Y112643D01*
X27801Y112607D01*
X27836Y112576D01*
X27876Y112551D01*
X27919Y112533D01*
X27964Y112521D01*
X28011Y112517D01*
X28058Y112520D01*
X28104Y112530D01*
X28147Y112547D01*
X28187Y112572D01*
X28418Y112723D01*
X28663Y112852D01*
X28918Y112958D01*
X29181Y113041D01*
X29450Y113101D01*
X29724Y113138D01*
X29989Y113149D01*
Y106851D01*
X29724Y106863D01*
X29450Y106899D01*
X29181Y106959D01*
X28918Y107042D01*
X28663Y107148D01*
X28418Y107277D01*
X28185Y107426D01*
X28146Y107450D01*
X28103Y107467D01*
X28057Y107477D01*
X28011Y107480D01*
X27965Y107476D01*
X27920Y107465D01*
X27877Y107446D01*
X27838Y107421D01*
X27803Y107391D01*
X27773Y107355D01*
X27750Y107315D01*
X27732Y107272D01*
X27722Y107226D01*
X27719Y107180D01*
X27724Y107134D01*
X27735Y107089D01*
X27753Y107046D01*
X27778Y107007D01*
X27809Y106972D01*
X27845Y106943D01*
X28120Y106763D01*
X28410Y106611D01*
X28713Y106484D01*
X29026Y106385D01*
X29347Y106314D01*
X29672Y106271D01*
X29989Y106257D01*
Y103751D01*
X29413Y103706D01*
X28841Y103568D01*
X28297Y103343D01*
X27795Y103035D01*
X27347Y102653D01*
X26965Y102205D01*
X26870Y102050D01*
Y107953D01*
X26940Y107843D01*
X26970Y107807D01*
X27005Y107776D01*
X27045Y107751D01*
X27088Y107732D01*
X27133Y107721D01*
X27180Y107716D01*
X27227Y107719D01*
X27273Y107729D01*
X27316Y107747D01*
X27357Y107771D01*
X27393Y107801D01*
X27424Y107836D01*
X27449Y107876D01*
X27467Y107919D01*
X27479Y107964D01*
X27483Y108011D01*
X27480Y108058D01*
X27470Y108104D01*
X27453Y108147D01*
X27428Y108187D01*
X27277Y108418D01*
X27148Y108663D01*
X27042Y108918D01*
X26959Y109181D01*
X26899Y109450D01*
X26870Y109669D01*
Y110331D01*
X26899Y110550D01*
X26959Y110819D01*
X27042Y111082D01*
X27148Y111337D01*
X27277Y111582D01*
X27426Y111815D01*
X27450Y111854D01*
X27467Y111897D01*
X27477Y111943D01*
X27480Y111989D01*
X27476Y112035D01*
X27465Y112080D01*
X27446Y112123D01*
X27421Y112162D01*
X27391Y112197D01*
X27355Y112227D01*
X27315Y112250D01*
X27272Y112268D01*
X27226Y112278D01*
X27180Y112281D01*
X27134Y112277D01*
X27089Y112265D01*
X27046Y112247D01*
X27007Y112222D01*
X26972Y112191D01*
X26943Y112155D01*
X26870Y112044D01*
Y117953D01*
X26940Y117843D01*
X26970Y117807D01*
X27005Y117776D01*
X27045Y117751D01*
X27088Y117732D01*
X27133Y117721D01*
X27180Y117716D01*
X27227Y117719D01*
X27273Y117729D01*
X27316Y117747D01*
X27357Y117771D01*
X27393Y117801D01*
X27424Y117836D01*
X27449Y117876D01*
X27467Y117919D01*
X27479Y117964D01*
X27483Y118011D01*
X27480Y118058D01*
X27470Y118104D01*
X27453Y118147D01*
X27428Y118187D01*
X27277Y118418D01*
X27148Y118663D01*
X27042Y118918D01*
X26959Y119181D01*
X26899Y119450D01*
X26870Y119669D01*
Y120331D01*
X26899Y120550D01*
X26959Y120819D01*
X27042Y121082D01*
X27148Y121337D01*
X27277Y121582D01*
X27426Y121815D01*
X27450Y121854D01*
X27467Y121897D01*
X27477Y121943D01*
X27480Y121989D01*
X27476Y122035D01*
X27465Y122080D01*
X27446Y122123D01*
X27421Y122162D01*
X27391Y122197D01*
X27355Y122227D01*
X27315Y122250D01*
X27272Y122268D01*
X27226Y122278D01*
X27180Y122281D01*
X27134Y122277D01*
X27089Y122265D01*
X27046Y122247D01*
X27007Y122222D01*
X26972Y122191D01*
X26943Y122155D01*
X26870Y122044D01*
Y127950D01*
G37*
G36*
Y137950D02*X26965Y137795D01*
X27347Y137347D01*
X27795Y136965D01*
X28297Y136657D01*
X28841Y136432D01*
X29413Y136294D01*
X29989Y136249D01*
Y133751D01*
X29413Y133706D01*
X28841Y133568D01*
X28297Y133343D01*
X27795Y133035D01*
X27347Y132653D01*
X26965Y132205D01*
X26870Y132050D01*
Y137950D01*
G37*
G36*
Y145892D02*X27695Y145067D01*
X27718Y145041D01*
X27824Y144950D01*
X27943Y144877D01*
X28072Y144824D01*
X28207Y144791D01*
X28208Y144791D01*
X28346Y144780D01*
X28381Y144783D01*
X29989D01*
Y143751D01*
X29413Y143706D01*
X28841Y143568D01*
X28297Y143343D01*
X27795Y143035D01*
X27347Y142653D01*
X26965Y142205D01*
X26870Y142050D01*
Y145892D01*
G37*
G36*
Y218880D02*X26879Y218874D01*
X27876Y218462D01*
X28925Y218210D01*
X29989Y218126D01*
Y173751D01*
X29413Y173706D01*
X28841Y173568D01*
X28297Y173343D01*
X27795Y173035D01*
X27347Y172653D01*
X26965Y172205D01*
X26870Y172050D01*
Y218880D01*
G37*
G36*
Y239206D02*X26952Y239156D01*
X28471Y238527D01*
X29989Y238162D01*
Y231874D01*
X28925Y231790D01*
X27876Y231538D01*
X26879Y231126D01*
X26870Y231120D01*
Y239206D01*
G37*
G36*
X29989Y22500D02*X26870D01*
Y27950D01*
X26965Y27795D01*
X27347Y27347D01*
X27795Y26965D01*
X28297Y26657D01*
X28841Y26432D01*
X29413Y26294D01*
X29989Y26249D01*
Y22500D01*
G37*
G36*
X26870Y109669D02*X26862Y109724D01*
X26850Y110000D01*
X26862Y110276D01*
X26870Y110331D01*
Y109669D01*
G37*
G36*
Y119669D02*X26862Y119724D01*
X26850Y120000D01*
X26862Y120276D01*
X26870Y120331D01*
Y119669D01*
G37*
G36*
Y22500D02*X25000D01*
X22500Y25000D01*
Y243528D01*
X23232Y242333D01*
X24300Y241083D01*
X25550Y240015D01*
X26870Y239206D01*
Y231120D01*
X25959Y230562D01*
X25139Y229861D01*
X24438Y229041D01*
X23874Y228121D01*
X23462Y227124D01*
X23210Y226075D01*
X23125Y225000D01*
X23210Y223925D01*
X23462Y222876D01*
X23874Y221879D01*
X24438Y220959D01*
X25139Y220139D01*
X25959Y219438D01*
X26870Y218880D01*
Y172050D01*
X26657Y171703D01*
X26432Y171159D01*
X26294Y170587D01*
X26248Y170000D01*
X26294Y169413D01*
X26432Y168841D01*
X26657Y168297D01*
X26804Y168058D01*
X25185Y166439D01*
X25159Y166416D01*
X25068Y166310D01*
X24995Y166191D01*
X24942Y166062D01*
X24909Y165927D01*
X24909Y165926D01*
X24898Y165787D01*
X24901Y165753D01*
Y148263D01*
X24898Y148228D01*
X24909Y148089D01*
X24909Y148089D01*
X24942Y147954D01*
X24995Y147825D01*
X25068Y147706D01*
X25159Y147600D01*
X25185Y147577D01*
X26870Y145892D01*
Y142050D01*
X26657Y141703D01*
X26432Y141159D01*
X26294Y140587D01*
X26248Y140000D01*
X26294Y139413D01*
X26432Y138841D01*
X26657Y138297D01*
X26870Y137950D01*
Y132050D01*
X26657Y131703D01*
X26432Y131159D01*
X26294Y130587D01*
X26248Y130000D01*
X26294Y129413D01*
X26432Y128841D01*
X26657Y128297D01*
X26870Y127950D01*
Y122044D01*
X26763Y121880D01*
X26611Y121590D01*
X26484Y121287D01*
X26385Y120974D01*
X26314Y120653D01*
X26271Y120328D01*
X26256Y120000D01*
X26271Y119672D01*
X26314Y119347D01*
X26385Y119026D01*
X26484Y118713D01*
X26611Y118410D01*
X26763Y118120D01*
X26870Y117953D01*
Y112044D01*
X26763Y111880D01*
X26611Y111590D01*
X26484Y111287D01*
X26385Y110974D01*
X26314Y110653D01*
X26271Y110328D01*
X26256Y110000D01*
X26271Y109672D01*
X26314Y109347D01*
X26385Y109026D01*
X26484Y108713D01*
X26611Y108410D01*
X26763Y108120D01*
X26870Y107953D01*
Y102050D01*
X26657Y101703D01*
X26432Y101159D01*
X26294Y100587D01*
X26248Y100000D01*
X26294Y99413D01*
X26432Y98841D01*
X26657Y98297D01*
X26870Y97950D01*
Y82050D01*
X26657Y81703D01*
X26432Y81159D01*
X26294Y80587D01*
X26248Y80000D01*
X26294Y79413D01*
X26432Y78841D01*
X26657Y78297D01*
X26870Y77950D01*
Y72050D01*
X26657Y71703D01*
X26432Y71159D01*
X26294Y70587D01*
X26248Y70000D01*
X26294Y69413D01*
X26432Y68841D01*
X26657Y68297D01*
X26870Y67950D01*
Y62050D01*
X26657Y61703D01*
X26432Y61159D01*
X26294Y60587D01*
X26248Y60000D01*
X26294Y59413D01*
X26432Y58841D01*
X26657Y58297D01*
X26870Y57950D01*
Y52050D01*
X26657Y51703D01*
X26432Y51159D01*
X26294Y50587D01*
X26248Y50000D01*
X26294Y49413D01*
X26432Y48841D01*
X26657Y48297D01*
X26870Y47950D01*
Y42050D01*
X26657Y41703D01*
X26432Y41159D01*
X26294Y40587D01*
X26248Y40000D01*
X26294Y39413D01*
X26432Y38841D01*
X26657Y38297D01*
X26870Y37950D01*
Y32050D01*
X26657Y31703D01*
X26432Y31159D01*
X26294Y30587D01*
X26248Y30000D01*
X26294Y29413D01*
X26432Y28841D01*
X26657Y28297D01*
X26870Y27950D01*
Y22500D01*
G37*
G54D31*X130000Y30000D02*X125551Y34449D01*
G54D32*X97638Y14764D02*X134764D01*
X140000Y20000D01*
G54D31*X125551Y34449D02*X110039D01*
X120000Y30000D02*X116732Y33268D01*
X109449D01*
X158661Y258661D02*X162008Y255315D01*
X129724Y276772D02*X189961D01*
X193898Y272835D01*
X211811Y163583D02*Y187811D01*
X219882Y206102D02*Y206299D01*
X220000Y156000D02*X218205D01*
X211811Y187811D02*X220000Y196000D01*
Y206000D02*X210630Y196630D01*
Y164173D01*
X163189Y258661D02*Y177756D01*
G54D33*X166929Y159449D02*Y176575D01*
G54D32*X115787Y271835D02*Y253504D01*
X113583Y220472D02*Y196457D01*
X115787Y248583D02*Y253583D01*
G54D31*X162008Y255315D02*Y178346D01*
G54D32*X134843Y173819D02*Y170866D01*
X140157Y183268D02*X134843Y177953D01*
Y170866D01*
G54D31*X142913Y173622D02*Y225197D01*
X148622Y234449D02*Y228150D01*
X145276Y224803D01*
Y172362D02*Y224803D01*
X144094Y226969D02*Y173031D01*
G54D32*X140157Y224213D02*Y183268D01*
Y224213D02*X115787Y248583D01*
G54D31*X116142Y227756D02*X126575Y238189D01*
X142913Y225197D02*X139764Y228346D01*
Y231496D01*
X139961Y110630D02*Y109449D01*
X137205D02*Y107677D01*
X139961Y110630D02*Y109252D01*
X138386Y107677D01*
X60433Y116929D02*X65354Y121850D01*
X69882Y117520D02*X72244Y115157D01*
X65354Y121850D02*X68701D01*
X64764Y123031D02*X68209D01*
X72047Y154134D02*X70472Y152559D01*
Y131299D01*
X83071Y133858D02*X80709D01*
X80315Y136575D02*Y135138D01*
X80709Y133858D02*X68701Y121850D01*
X80315Y135138D02*X73063Y127886D01*
X71740D01*
G54D32*X76575Y116535D02*X86811Y126772D01*
G54D31*X70472Y131299D02*X64567Y125394D01*
X71740Y127886D02*Y126563D01*
X68209Y123031D01*
X64764D02*X59252Y117520D01*
G54D32*X66535Y143504D02*Y170472D01*
G54D31*X80315Y150591D02*Y136417D01*
X30000Y170000D02*X25787Y165787D01*
Y148228D01*
X28346Y145669D01*
X32677D01*
X39173Y170472D02*Y150787D01*
X64567Y125394D02*X63386Y126575D01*
X30000Y150000D02*X58071Y121929D01*
X32677Y145669D02*X56890Y121457D01*
X64567Y125394D02*X39173Y150787D01*
X60236Y127953D02*X37992Y150197D01*
G54D32*X69291Y170472D02*X54528D01*
X43307D02*X54921D01*
X89567D02*X43307D01*
G54D31*X125787Y272835D02*X129724Y276772D01*
X85787Y272835D02*Y254882D01*
X95787Y271835D02*Y263110D01*
X82087Y154134D02*X72047D01*
X85787Y254882D02*X30906Y200000D01*
X95787Y263110D02*X32087Y199409D01*
X30906Y200000D02*Y176969D01*
X37992Y169882D01*
Y150197D01*
X32087Y199409D02*Y177559D01*
X39173Y170472D01*
G54D32*X35630Y181693D02*Y178150D01*
X43307Y170472D01*
X102362Y157677D02*X89567Y170472D01*
X113583Y196457D02*X99606Y182480D01*
G54D31*X106476Y105413D02*Y133563D01*
G54D32*X107480Y143504D02*X134843Y170866D01*
X107087Y143110D02*X107677Y143701D01*
X106890Y142913D02*X107283Y143307D01*
G54D31*X145276Y172362D02*X106476Y133563D01*
X142913Y173622D02*X108563Y139272D01*
X144094Y173031D02*X107677Y136614D01*
X141732Y108268D02*X145079Y111614D01*
X144488Y107087D02*Y109252D01*
X83858Y146654D02*Y152362D01*
G54D32*X86811Y139567D02*X90157Y142913D01*
X95079D01*
G54D31*X83858Y152362D02*X82087Y154134D01*
G54D32*X102362Y142913D02*Y157677D01*
X86811Y126772D02*Y139567D01*
X94882Y142913D02*X106890D01*
G54D31*X92421Y139272D02*X108563D01*
X92717Y136614D02*X107677D01*
G54D32*X30000Y130000D02*X47835Y112165D01*
X47815Y112185D02*X53740Y106260D01*
G54D31*X58071Y121929D02*Y118701D01*
X59252Y117520D01*
X56890Y121457D02*Y118110D01*
X58071Y116929D01*
Y89764D01*
X59252Y117520D02*Y90354D01*
X70079Y101772D02*Y91535D01*
X72244Y115157D02*Y100984D01*
X71260Y100000D01*
Y92126D01*
G54D32*X76575Y92520D02*Y116535D01*
G54D31*X60433Y116929D02*Y90945D01*
X60236Y121654D02*Y127953D01*
X49213Y71457D02*X41457D01*
X30000Y60000D01*
X49213Y63583D02*X43583D01*
G54D32*X53740Y106260D02*Y58661D01*
G54D31*X43583Y63583D02*X30000Y50000D01*
X136220Y113976D02*X117126Y94882D01*
X135630Y115157D02*X115354Y94882D01*
X135039Y116339D02*X114173Y95472D01*
X134449Y117520D02*X112992Y96063D01*
X133858Y118701D02*X111811Y96654D01*
X136811Y112795D02*X117717Y93701D01*
G54D32*X53740Y58661D02*X97638Y14764D01*
G54D31*X89173Y62205D02*Y53543D01*
X108465Y82874D02*Y81299D01*
X103543Y81496D02*X89764D01*
X104134Y80315D02*X89173D01*
X85827Y63780D02*X87598D01*
X89173Y62205D01*
X90354Y62795D02*Y54134D01*
X110039Y34449D01*
X113386Y79134D02*X87402D01*
X89173Y53543D02*X109449Y33268D01*
X117224Y94980D02*X116535Y94291D01*
X112992Y96063D02*Y94094D01*
X116535Y94291D02*Y84055D01*
X115354Y94882D02*Y86220D01*
X114173Y95472D02*Y88583D01*
X117717Y93701D02*Y83465D01*
X112992Y96063D02*Y89173D01*
X111811Y96654D02*Y89764D01*
X116535Y84055D02*X113780Y81299D01*
X111417D01*
X115354Y86220D02*X112992Y83858D01*
X117717Y83465D02*X113386Y79134D01*
X114173Y88583D02*X108465Y82874D01*
X112992Y89173D02*X104134Y80315D01*
X111811Y89764D02*X103543Y81496D01*
G54D32*X96654Y87598D02*X108858Y99803D01*
G54D31*X92402Y91339D02*X106476Y105413D01*
X58071Y89764D02*X86220Y61614D01*
X59252Y90354D02*X85827Y63780D01*
X60433Y90945D02*X86417Y64961D01*
X88189D01*
X90354Y62795D01*
X87402Y79134D02*X85630Y80906D01*
X86417Y83071D02*X78543D01*
X89764Y81496D02*X87008Y84252D01*
X79134D01*
X86417Y83071D02*X89173Y80315D01*
X78543Y83071D02*X70079Y91535D01*
X79134Y84252D02*X71260Y92126D01*
G54D32*X76575Y92520D02*X81496Y87598D01*
X76575Y92520D02*X76604Y92490D01*
X81496Y87598D02*X96654D01*
G54D31*X85827Y91339D02*X92402D01*
X200591Y69409D02*X220000Y50000D01*
Y60000D02*X225000Y65000D01*
X220000Y30000D02*X206220D01*
X163189Y177756D02*X121654Y136220D01*
X162008Y178346D02*X118504Y134843D01*
X121654Y136220D02*Y134843D01*
G54D33*X111614Y104134D02*X166929Y159449D01*
G54D31*X144488Y109252D02*X145669Y110433D01*
X181496Y117520D02*X134449D01*
X180906Y118701D02*X133858D01*
X135039Y116339D02*X210339D01*
X135630Y115157D02*X219157D01*
X136220Y113976D02*X214567D01*
X225000Y103543D02*X214567Y113976D01*
X136811Y112795D02*X207205D01*
X145079Y111614D02*X206693D01*
X145669Y110433D02*X206102D01*
X212992Y103543D01*
X137205Y109449D02*Y99016D01*
X138386Y107677D02*Y99606D01*
X220000Y136000D02*X199976D01*
X170669Y139173D02*X187402D01*
X181496Y117520D02*X199976Y136000D01*
X210339Y116339D02*X219736Y125736D01*
X219157Y115157D02*X220000Y116000D01*
X180906Y118701D02*X218205Y156000D01*
X187402Y139173D02*X211811Y163583D01*
X210630Y164173D02*X186811Y140354D01*
X175000D01*
X173622Y141732D01*
X225000Y65000D02*Y103543D01*
X214173Y95827D02*X220000Y90000D01*
X212992Y103543D02*Y77008D01*
X220000Y70000D01*
X197992Y40000D02*X220000D01*
X207205Y112795D02*X220000Y100000D01*
X206693Y111614D02*X214173Y104134D01*
X200591Y102559D02*Y69409D01*
X220000Y90000D02*Y91024D01*
X212795Y77205D02*X220000Y70000D01*
X214173Y104134D02*Y95827D01*
X137205Y99016D02*X206220Y30000D01*
X138386Y99606D02*X197992Y40000D01*
G54D34*X30000Y80000D03*
Y70000D03*
Y60000D03*
Y50000D03*
Y40000D03*
Y30000D03*
Y170000D03*
G54D35*X31709Y248492D03*
X51000Y260500D03*
G54D36*Y236878D03*
G54D34*X30000Y160000D03*
Y150000D03*
Y140000D03*
Y130000D03*
Y120000D03*
Y110000D03*
Y100000D03*
X140000Y30000D03*
Y20000D03*
X130000Y30000D03*
Y20000D03*
X120000D03*
Y30000D03*
X179740Y39886D03*
X220000Y30000D03*
Y40000D03*
Y50000D03*
Y60000D03*
Y70000D03*
Y80000D03*
Y90000D03*
G54D37*X151339Y259311D03*
X168661D03*
G54D30*G36*
X122638Y275984D02*Y269685D01*
X128937D01*
Y275984D01*
X122638D01*
G37*
G54D34*X115787Y271835D03*
X105787Y272835D03*
X95787Y271835D03*
X85787Y272835D03*
X75787Y271835D03*
X220000Y100000D03*
Y116000D03*
Y126000D03*
Y136000D03*
Y146000D03*
Y156000D03*
Y166000D03*
Y176000D03*
Y186000D03*
Y196000D03*
Y206000D03*
G54D38*X160000Y20000D03*
X50000D03*
G54D39*X92717Y136614D03*
X118504Y134843D03*
X121654D03*
X83071Y133858D03*
X66535Y155315D03*
Y143504D03*
G54D32*X166929Y176575D03*
X134843Y173819D03*
Y170866D03*
G54D39*X64567Y125394D03*
X71740Y127886D03*
X83858Y146654D03*
X173622Y141732D03*
X170669Y139173D03*
X92717Y139567D03*
G54D32*X102362Y142913D03*
G54D39*X80315Y150591D03*
X49213Y71457D03*
Y63583D03*
X200591Y102559D03*
X144488Y107087D03*
X85827Y91339D03*
X86220Y61614D03*
X108465Y81299D03*
X111417D03*
X112992Y83858D03*
X85630Y80906D03*
X98406Y106594D03*
X92500Y104626D03*
X111614Y104134D03*
X108858Y99803D03*
X90531Y114469D03*
X94469Y110531D03*
X100374Y112500D03*
X88563Y108563D03*
X141732Y108268D03*
X137205Y109449D03*
X139961Y110630D03*
G54D32*X69882Y117520D03*
G54D39*X60236Y121654D03*
G54D32*X76575Y96654D03*
X70079Y101772D03*
G54D39*X86594Y118406D03*
X84626Y112500D03*
X96437Y116437D03*
X92500Y120374D03*
G54D38*X220000Y220000D03*
G54D39*X193898Y272835D03*
G54D32*X177362Y258661D03*
G54D39*X158661D03*
X163189D03*
G54D32*X142717D03*
G54D39*X144094Y226969D03*
X139764Y231496D03*
X148622Y234449D03*
G54D38*X30000Y225000D03*
G54D39*X35630Y181693D03*
G54D32*Y178740D03*
X74606Y217854D03*
X66732D03*
X78543D03*
Y221791D03*
X82480Y217854D03*
Y221791D03*
X86417Y217854D03*
X66732Y221791D03*
X70669D03*
X74606D03*
X86417D03*
G54D39*X113583Y220472D03*
X117913Y209980D03*
Y213917D03*
Y217854D03*
X121850D03*
X125787D03*
X129724D03*
X133661D03*
Y213917D03*
Y209980D03*
Y206043D03*
X117913D03*
X121850D03*
X129724D03*
X125787D03*
X116142Y227756D03*
G54D32*X74606Y206043D03*
Y209980D03*
Y213917D03*
X86417Y206043D03*
Y202106D03*
X82480Y206043D03*
Y202106D03*
X78543Y206043D03*
X66732D03*
X70669Y202106D03*
X66732D03*
X78543D03*
X74606D03*
X66732Y209980D03*
Y213917D03*
X90354Y217854D03*
Y221791D03*
X94291D03*
X98228D03*
Y217854D03*
X94291Y202106D03*
X90354D03*
Y213917D03*
X98228D03*
X90354Y209980D03*
Y206043D03*
X98228Y209980D03*
Y206043D03*
Y202106D03*
X74803Y176713D03*
Y179665D03*
Y173760D03*
X71850Y176713D03*
Y179665D03*
Y173760D03*
G54D39*X99606Y182480D03*
G54D40*G54D33*G54D41*G54D33*G54D41*G54D33*G54D41*G54D33*G54D41*G54D33*G54D41*G54D33*G54D41*G54D33*G54D41*G54D40*G54D33*G54D41*G54D40*G54D41*G54D33*G54D41*G54D33*G54D41*G54D42*G54D43*G54D44*G54D42*G54D45*G54D42*M02*
