M48
INCH
T69C0.012
T68C0.122
T67C0.035
T66C0.138
T65C0.118
T64C0.039
%
T69
X003563Y018169
X003563Y017874
X004921Y007146
X004921Y006358
X006024Y012165
X006457Y012539
X006654Y015531
X006654Y014350
X006673Y022179
X006673Y021785
X006673Y021392
X006673Y020998
X006673Y020604
X006673Y020211
X006988Y011752
X007008Y010177
X007067Y022179
X007067Y020211
X007174Y012789
X007185Y017967
X007185Y017671
X007185Y017376
X007461Y022179
X007461Y021785
X007461Y021392
X007461Y020998
X007461Y020604
X007461Y020211
X007480Y017967
X007480Y017671
X007480Y017376
X007657Y009665
X007854Y022179
X007854Y021785
X007854Y020604
X007854Y020211
X008031Y015059
X008248Y022179
X008248Y021785
X008248Y020604
X008248Y020211
X008307Y013386
X008386Y014665
X008463Y011250
X008563Y008091
X008583Y009134
X008622Y006161
X008642Y022179
X008642Y021785
X008642Y020604
X008642Y020211
X008659Y011841
X008856Y010856
X009035Y022179
X009035Y021785
X009035Y021392
X009035Y020998
X009035Y020604
X009035Y020211
X009053Y011447
X009250Y012037
X009250Y010463
X009272Y013957
X009272Y013661
X009429Y022179
X009429Y020211
X009447Y011053
X009644Y011644
X009823Y022179
X009823Y021785
X009823Y021392
X009823Y020998
X009823Y020604
X009823Y020211
X009841Y010659
X009961Y018248
X010037Y011250
X010236Y014291
X010846Y008130
X010886Y009980
X011142Y008130
X011161Y010413
X011299Y008386
X011358Y022047
X011614Y022776
X011791Y021785
X011791Y021392
X011791Y020998
X011791Y020604
X011850Y013484
X012165Y013484
X012185Y021785
X012185Y020604
X012579Y021785
X012579Y020604
X012972Y021785
X012972Y020604
X013366Y021785
X013366Y021392
X013366Y020998
X013366Y020604
X013484Y017382
X013484Y017087
X013720Y010945
X013976Y023150
X013996Y011063
X014173Y010827
X014272Y025866
X014409Y022697
X014449Y010709
X014862Y023445
X015866Y025866
X016319Y025866
X016693Y017657
X017067Y013917
X017362Y014173
X017736Y025866
X019390Y027283
X020059Y010256
T67
X015134Y025931
X016866Y025931
T64
X003000Y017000
X003000Y016000
X003000Y015000
X003000Y014000
X003000Y013000
X003000Y012000
X003000Y011000
X003000Y010000
X003000Y008000
X003000Y007000
X003000Y006000
X003000Y005000
X003000Y004000
X003000Y003000
X007579Y027183
X008579Y027283
X009579Y027183
X010579Y027283
X011579Y027183
X012000Y003000
X012000Y002000
X012579Y027283
X013000Y003000
X013000Y002000
X014000Y003000
X014000Y002000
X017974Y003989
X022000Y020600
X022000Y019600
X022000Y018600
X022000Y017600
X022000Y016600
X022000Y015600
X022000Y014600
X022000Y013600
X022000Y012600
X022000Y011600
X022000Y010000
X022000Y009000
X022000Y008000
X022000Y007000
X022000Y006000
X022000Y005000
X022000Y004000
X022000Y003000
T65
X003171Y024849
X005100Y026050
T68
X003000Y022500
X005000Y002000
X016000Y002000
X022000Y022000
T66
X005100Y023688
M30
