G04 start of page 10 for group -4078 idx -4078 *
G04 Title: (unknown), bottomsilk *
G04 Creator: pcb 1.99z *
G04 CreationDate: Tue Apr 19 20:08:47 2016 UTC *
G04 For: matt *
G04 Format: Gerber/RS-274X *
G04 PCB-Dimensions (mil): 2500.00 3000.00 *
G04 PCB-Coordinate-Origin: lower left *
%MOIN*%
%FSLAX25Y25*%
%LNBOTTOMSILK*%
%ADD92C,0.0161*%
%ADD91C,0.0001*%
G54D91*G36*
X119931Y153671D02*X119981Y153918D01*
X120117Y154119D01*
X120319Y154255D01*
X120565Y154305D01*
X120811Y154255D01*
X121013Y154119D01*
X121148Y153918D01*
X121198Y153671D01*
X121148Y153425D01*
X121013Y153224D01*
X120811Y153088D01*
X120565Y153038D01*
X120319Y153088D01*
X120117Y153224D01*
X119981Y153425D01*
X119931Y153671D01*
G37*
G36*
X122414Y153984D02*X122440Y153671D01*
X122402Y153294D01*
X122293Y152941D01*
X122120Y152623D01*
X121890Y152346D01*
X121254Y152982D01*
X121373Y153126D01*
X121463Y153292D01*
X121520Y153475D01*
X121540Y153671D01*
X121520Y153868D01*
X121463Y154052D01*
X121373Y154217D01*
X121254Y154361D01*
X121110Y154480D01*
X120944Y154570D01*
X120761Y154627D01*
X120565Y154646D01*
X120369Y154627D01*
X120185Y154570D01*
X120019Y154480D01*
X119875Y154361D01*
X119756Y154217D01*
X119666Y154052D01*
X119609Y153868D01*
X119589Y153671D01*
X119609Y153475D01*
X119666Y153292D01*
X119756Y153126D01*
X119875Y152982D01*
X120019Y152863D01*
X120185Y152772D01*
X120369Y152717D01*
X120565Y152696D01*
X120761Y152717D01*
X120944Y152772D01*
X121110Y152863D01*
X121254Y152982D01*
X121890Y152346D01*
X121613Y152117D01*
X121294Y151943D01*
X120943Y151834D01*
X120565Y151796D01*
X120046Y151869D01*
X119584Y152073D01*
X119197Y152389D01*
X118906Y152794D01*
X114321D01*
Y151816D01*
X113115D01*
Y152798D01*
X113011Y152833D01*
X112922Y152900D01*
X112856Y152990D01*
X112826Y153093D01*
X112568Y156087D01*
X106177Y149577D01*
X105795Y149952D01*
X112509Y156783D01*
X111785Y165197D01*
X112432Y165268D01*
X116567Y160913D01*
X116930Y160530D01*
X116563Y160156D01*
X113169Y156698D01*
X113449Y153446D01*
X118703D01*
X118690Y153671D01*
X118818Y154352D01*
X119168Y154922D01*
X119693Y155333D01*
X120345Y155534D01*
X120399Y156110D01*
X116563Y160156D01*
X116930Y160530D01*
X120465Y156809D01*
X121196Y164677D01*
X121124D01*
Y164802D01*
X116930Y160530D01*
X116567Y160913D01*
X116199Y160540D01*
X112503Y164438D01*
X113109Y157395D01*
X116199Y160540D01*
X116567Y160913D01*
X119011Y163402D01*
X115563D01*
Y164704D01*
X119552D01*
Y163951D01*
X121124Y165552D01*
Y166948D01*
X121409D01*
X121500Y167932D01*
X112203D01*
X112432Y165268D01*
X111785Y165197D01*
X105398Y171933D01*
Y172675D01*
X111713Y166024D01*
X111547Y167959D01*
X110763D01*
Y168610D01*
X111452D01*
X111501Y168737D01*
X111717Y169107D01*
X112013Y169424D01*
X112409Y168935D01*
X112149Y168610D01*
X112797D01*
Y169202D01*
X112409Y168935D01*
X112013Y169424D01*
X112376Y169693D01*
X112797Y169917D01*
Y170346D01*
X113910D01*
Y170280D01*
X114794Y170437D01*
X115672Y170522D01*
Y170780D01*
X118874D01*
Y169180D01*
X115672D01*
Y169856D01*
X116324Y169831D01*
X118222D01*
Y170129D01*
X116324D01*
Y169831D01*
X115672Y169856D01*
X114793Y169763D01*
X113910Y169600D01*
Y168610D01*
X121475D01*
X121105Y169069D01*
X120494Y169405D01*
X119723Y169639D01*
X118874Y169787D01*
Y170450D01*
X119735Y170306D01*
X120551Y170076D01*
X121261Y169743D01*
X121810Y169287D01*
X121944Y169424D01*
X122107Y169529D01*
X122291Y169596D01*
X122493Y169619D01*
X122668Y169602D01*
X122831Y169552D01*
X122978Y169471D01*
X123107Y169365D01*
X123212Y169237D01*
X123293Y169089D01*
X123343Y168926D01*
X123361Y168751D01*
X123343Y168576D01*
X123293Y168413D01*
X123212Y168267D01*
X123107Y168139D01*
X122978Y168031D01*
X122831Y167951D01*
X122668Y167901D01*
X122493Y167883D01*
X122156Y167951D01*
X122063Y166948D01*
X122496D01*
X128211Y172763D01*
Y172020D01*
X123230Y166948D01*
X123334D01*
Y164677D01*
X121851D01*
X121905Y165262D01*
X122764D01*
Y166361D01*
X122656D01*
X121940Y165633D01*
X121905Y165262D01*
X121851Y164677D01*
X121059Y156182D01*
X126916Y150013D01*
X126528Y149644D01*
X122414Y153984D01*
G37*
G36*
X107236Y144964D02*X126099D01*
Y140372D01*
X107236D01*
Y144964D01*
G37*
G36*
X83930Y162870D02*X83607Y163901D01*
X83121Y164849D01*
X82489Y165696D01*
X81727Y166427D01*
X80854Y167024D01*
X79884Y167472D01*
X78836Y167754D01*
X77724Y167851D01*
X76832Y167787D01*
Y170455D01*
X77724Y170500D01*
X79537Y170316D01*
X81226Y169790D01*
X82755Y168958D01*
X84088Y167857D01*
X85188Y166524D01*
X86020Y164994D01*
X86546Y163306D01*
X86729Y161495D01*
X86546Y159685D01*
X86020Y157997D01*
X85188Y156468D01*
X84088Y155134D01*
X82755Y154033D01*
X81226Y153201D01*
X79537Y152675D01*
X77724Y152491D01*
X76832Y152536D01*
Y155205D01*
X77724Y155140D01*
X78836Y155238D01*
X79884Y155519D01*
X80854Y155967D01*
X81727Y156564D01*
X82489Y157294D01*
X83121Y158142D01*
X83607Y159088D01*
X83930Y160118D01*
X78728D01*
Y162870D01*
X83930D01*
G37*
G36*
X92309Y155205D02*X93199Y155140D01*
X94478Y155270D01*
X95670Y155641D01*
X96751Y156228D01*
X97692Y157006D01*
X98470Y157946D01*
X99058Y159026D01*
X99428Y160218D01*
X99558Y161495D01*
X99428Y162773D01*
X99058Y163965D01*
X98470Y165044D01*
X97692Y165985D01*
X96751Y166763D01*
X95670Y167350D01*
X94478Y167721D01*
X93199Y167851D01*
X92309Y167787D01*
Y170455D01*
X93199Y170500D01*
X95011Y170316D01*
X96701Y169790D01*
X98230Y168958D01*
X99564Y167857D01*
X100666Y166524D01*
X101498Y164994D01*
X102023Y163306D01*
X102207Y161495D01*
X102023Y159685D01*
X101498Y157997D01*
X100666Y156468D01*
X99564Y155134D01*
X98230Y154033D01*
X96701Y153201D01*
X95011Y152675D01*
X93199Y152491D01*
X92309Y152536D01*
Y155205D01*
G37*
G36*
X166662Y210291D02*X167120Y212306D01*
X168482Y211814D01*
X170416Y211573D01*
X172453Y211956D01*
X174078Y213054D01*
X175154Y214791D01*
X175543Y217096D01*
X175204Y219269D01*
X174204Y221044D01*
X172569Y222242D01*
X170324Y222681D01*
X169310Y222623D01*
X168459Y222468D01*
X167762Y222244D01*
X167211Y221979D01*
X166601Y224054D01*
X168142Y224573D01*
X170324Y224817D01*
X172049Y224667D01*
X173598Y224231D01*
X174954Y223535D01*
X176100Y222601D01*
X177019Y221455D01*
X177697Y220118D01*
X178115Y218617D01*
X178258Y216974D01*
X178126Y215353D01*
X177736Y213887D01*
X177107Y212596D01*
X176252Y211497D01*
X175189Y210611D01*
X173933Y209954D01*
X172500Y209547D01*
X170904Y209406D01*
X169504Y209494D01*
X168303Y209712D01*
X167343Y209999D01*
X166662Y210291D01*
G37*
G36*
X163824Y231409D02*Y209742D01*
X161138D01*
Y218652D01*
X161104Y219351D01*
X160955Y219934D01*
X160431Y220972D01*
X159624Y221826D01*
X158582Y222407D01*
X157354Y222620D01*
X155752Y222268D01*
X154695Y221315D01*
X154114Y219917D01*
X153936Y218226D01*
Y209742D01*
X151251D01*
Y218531D01*
X151391Y220266D01*
X151778Y221668D01*
X152360Y222769D01*
X153086Y223600D01*
X153905Y224193D01*
X154766Y224577D01*
X155617Y224785D01*
X156408Y224847D01*
X157861Y224637D01*
X159155Y224084D01*
X160265Y223253D01*
X161077Y222193D01*
X161138D01*
Y231409D01*
X163824D01*
G37*
G36*
X147191Y209742D02*X144506D01*
Y224512D01*
X147191D01*
Y209742D01*
G37*
G36*
X144201Y228662D02*X144317Y229324D01*
X144648Y229856D01*
X145167Y230211D01*
X145849Y230340D01*
X146523Y230211D01*
X147054Y229856D01*
X147402Y229324D01*
X147527Y228662D01*
X147407Y228019D01*
X147074Y227495D01*
X146562Y227143D01*
X145909Y227015D01*
X145189Y227143D01*
X144644Y227495D01*
X144306Y228019D01*
X144201Y228662D01*
G37*
G36*
X140356Y219690D02*Y203700D01*
X137701D01*
Y211725D01*
X137640D01*
X136831Y210746D01*
X135767Y210017D01*
X134504Y209563D01*
X133093Y209406D01*
X131806Y209530D01*
X130577Y209900D01*
X129440Y210517D01*
X128432Y211383D01*
X127587Y212497D01*
X126939Y213861D01*
X126526Y215475D01*
X126379Y217340D01*
X126502Y218951D01*
X126855Y220406D01*
X127418Y221687D01*
X128169Y222776D01*
X129087Y223655D01*
X130152Y224305D01*
X131341Y224709D01*
X132635Y224847D01*
X134318Y224652D01*
X135752Y224088D01*
X136940Y223187D01*
X137884Y221979D01*
X136923Y220754D01*
X135981Y221803D01*
X134794Y222475D01*
X133459Y222711D01*
X131576Y222269D01*
X130198Y221074D01*
X129352Y219325D01*
X129065Y217219D01*
X129367Y214898D01*
X130244Y213096D01*
X131653Y211927D01*
X133551Y211512D01*
X134923Y211741D01*
X136103Y212386D01*
X137014Y213378D01*
X137579Y214655D01*
X137701Y215754D01*
Y218287D01*
X137644Y218848D01*
X137518Y219385D01*
X136923Y220754D01*
X137884Y221979D01*
X137945D01*
X138067Y224512D01*
X140478D01*
X140394Y222285D01*
X140356Y219690D01*
G37*
G36*
X132805Y202930D02*X133206Y206150D01*
X133756D01*
X133130Y201918D01*
X132596D01*
X132031Y204547D01*
X131467Y201918D01*
X130933D01*
X130307Y206150D01*
X130855D01*
X131258Y202742D01*
X131742Y205173D01*
X132331D01*
X132805Y202930D01*
G37*
G36*
X129355D02*X129758Y206150D01*
X130307D01*
X129681Y201918D01*
X129148D01*
X128583Y204547D01*
X128018Y201918D01*
X127484D01*
X126859Y206150D01*
X127408D01*
X127809Y202742D01*
X128292Y205173D01*
X128883D01*
X129355Y202930D01*
G37*
G36*
X125907D02*X126309Y206150D01*
X126859D01*
X126233Y201918D01*
X125699D01*
X125135Y204547D01*
X124569Y201918D01*
X124036D01*
X123410Y206150D01*
X123960D01*
X124361Y202742D01*
X124845Y205173D01*
X125435D01*
X125907Y202930D01*
G37*
G36*
X122149Y202391D02*X122128Y202185D01*
X122017Y202050D01*
X121696Y201918D01*
X121375Y202050D01*
X121304Y202183D01*
X121243Y202391D01*
X121375Y202737D01*
X121696Y202868D01*
X122017Y202737D01*
X122153Y202567D01*
X122149Y202391D01*
G37*
G36*
X116960Y202131D02*Y202702D01*
X117211Y202528D01*
X117399Y202447D01*
X117880Y202360D01*
X118401Y202439D01*
X118710Y202778D01*
X118917Y203280D01*
X118985Y204034D01*
X118951Y204754D01*
X118710Y205289D01*
X118382Y205578D01*
X117880Y205707D01*
X117680Y205669D01*
X117403Y205611D01*
X116960Y205321D01*
Y205931D01*
X117217Y205992D01*
X117403Y206098D01*
X117880Y206150D01*
X118616Y205998D01*
X119128Y205590D01*
X119472Y204901D01*
X119575Y204034D01*
X119487Y203112D01*
X119128Y202471D01*
X118611Y202057D01*
X117880Y201918D01*
X117676Y201925D01*
X117403Y201969D01*
X116960Y202131D01*
G37*
G36*
X115561Y204553D02*Y206150D01*
X116131D01*
Y201918D01*
X115561D01*
Y204111D01*
X114016D01*
Y201918D01*
X113446D01*
Y206150D01*
X114016D01*
Y204553D01*
X115561D01*
G37*
G36*
X105825Y230082D02*X112039D01*
X117254Y220978D01*
X112650Y209742D01*
X105855D01*
X111189Y220858D01*
X105825Y230082D01*
G37*
G36*
X117433D02*X123483D01*
Y209742D01*
X117433D01*
Y230082D01*
G37*
G36*
X97749D02*X103798D01*
Y209742D01*
X97749D01*
Y230082D01*
G37*
G36*
X84829Y224241D02*X80210D01*
Y230082D01*
X95513D01*
Y224241D01*
X90880D01*
Y209742D01*
X84829D01*
Y224241D01*
G37*
G36*
X79248Y230014D02*Y229569D01*
X78396D01*
Y227315D01*
X77859D01*
Y229569D01*
X76997D01*
Y230014D01*
X79248D01*
G37*
G36*
X73545Y227315D02*X73755Y230014D01*
X74527D01*
X74994Y228676D01*
X75182Y228011D01*
X75191D01*
X75369Y228694D01*
X75837Y230014D01*
X76641D01*
X76838Y227315D01*
X76323D01*
X76224Y228901D01*
X76202Y229658D01*
X76174D01*
X76075Y229260D01*
X75986Y228892D01*
X75500Y227356D01*
X74944D01*
X74457Y228854D01*
X74231Y229658D01*
X74200D01*
X74181Y228901D01*
X74082Y227315D01*
X73545D01*
G37*
G36*
X110203Y205707D02*Y206150D01*
X112516D01*
Y205707D01*
X111642D01*
Y202360D01*
X112516D01*
Y201918D01*
X110203D01*
Y202360D01*
X111077D01*
Y205707D01*
X110203D01*
G37*
G36*
X107862Y206150D02*X109083D01*
Y201918D01*
X108519D01*
Y203785D01*
X107862D01*
X107278Y203833D01*
X106799Y204085D01*
X106566Y204440D01*
X106443Y204970D01*
X106563Y205477D01*
X106805Y205849D01*
X107268Y206074D01*
X107862Y206150D01*
Y205707D01*
X107252Y205514D01*
X107129Y205266D01*
X107034Y204970D01*
X107101Y204629D01*
X107252Y204421D01*
X107862Y204227D01*
X108519D01*
Y205707D01*
X107862D01*
Y206150D01*
G37*
G36*
X105233Y204269D02*Y206150D01*
X105802D01*
Y201918D01*
X105233D01*
Y203570D01*
X104801Y204034D01*
X103443Y201918D01*
X102756D01*
X104430Y204415D01*
X102807Y206150D01*
X103468D01*
X105233Y204269D01*
G37*
G36*
X99857Y205707D02*Y206150D01*
X102171D01*
Y205707D01*
X101296D01*
Y202360D01*
X102171D01*
Y201918D01*
X99857D01*
Y202360D01*
X100731D01*
Y205707D01*
X99857D01*
G37*
G36*
X95971D02*Y206150D01*
X99155D01*
Y205707D01*
X97843D01*
Y201918D01*
X97278D01*
Y205707D01*
X95971D01*
G37*
G36*
X94578Y202391D02*X94557Y202185D01*
X94445Y202050D01*
X94124Y201918D01*
X93804Y202050D01*
X93732Y202183D01*
X93672Y202391D01*
X93804Y202737D01*
X94124Y202868D01*
X94445Y202737D01*
X94581Y202567D01*
X94578Y202391D01*
G37*
G36*
X89895Y202665D02*X91304Y206150D01*
X92021D01*
Y201918D01*
X91472D01*
Y205402D01*
X90063Y201918D01*
X89350D01*
Y206150D01*
X89895D01*
Y202665D01*
G37*
G36*
X85933Y205707D02*Y206150D01*
X88410D01*
Y201918D01*
X85877D01*
Y202360D01*
X87846D01*
Y204111D01*
X86015D01*
Y204553D01*
X87846D01*
Y205707D01*
X85933D01*
G37*
G36*
X82195D02*Y206150D01*
X85378D01*
Y205707D01*
X84067D01*
Y201918D01*
X83502D01*
Y205707D01*
X82195D01*
G37*
G36*
X148211Y164498D02*X147659Y164267D01*
X147056Y163601D01*
X146444Y162641D01*
X145857Y161532D01*
X145335Y160420D01*
X144915Y159448D01*
X144636Y158759D01*
X144534Y158496D01*
X142079Y160415D01*
X141077Y162497D01*
X139533Y164975D01*
X137577Y167609D01*
X135338Y170152D01*
X134821Y170717D01*
X134277Y171275D01*
X133740Y171807D01*
X133235Y172293D01*
X132791Y172707D01*
X132439Y173030D01*
X132207Y173241D01*
X132122Y173315D01*
X132296Y173555D01*
X132502Y173860D01*
X132766Y173739D01*
X133031Y173583D01*
X133236Y173448D01*
X133316Y173392D01*
X135749Y171670D01*
X138079Y169517D01*
X140280Y167044D01*
X142027Y164806D01*
X143181Y163187D01*
X143597Y162563D01*
X143709Y162800D01*
X144011Y163417D01*
X144459Y164279D01*
X145002Y165243D01*
X145869Y165921D01*
X146201Y165941D01*
X146575Y165817D01*
X146963Y165594D01*
X147341Y165315D01*
X147683Y165022D01*
X147957Y164759D01*
X148144Y164570D01*
X148211Y164498D01*
G37*
G36*
X150048Y152852D02*X149526D01*
Y158087D01*
X148043D01*
X147319Y158041D01*
X146938Y157886D01*
X146623Y157525D01*
X146513Y157023D01*
X146601Y156500D01*
X146862Y156143D01*
X147326Y155941D01*
X148011Y155873D01*
X149526D01*
Y155404D01*
X147861D01*
X147306Y155351D01*
X146975Y155188D01*
X146794Y154831D01*
X146695Y154192D01*
X146630Y153437D01*
X146582Y153084D01*
X146506Y152852D01*
X145924D01*
Y152930D01*
X146044Y153123D01*
X146106Y153457D01*
X146179Y154312D01*
X146393Y155280D01*
X146892Y155637D01*
X146207Y156150D01*
X145971Y157037D01*
X146152Y157799D01*
X146671Y158324D01*
X147189Y158501D01*
X148147Y158556D01*
X150048D01*
Y152852D01*
G37*
G36*
X145226Y154904D02*X145104Y153992D01*
X144733Y153310D01*
X144139Y152889D01*
X143342Y152748D01*
Y153162D01*
X143930Y153276D01*
X144371Y153619D01*
X144644Y154170D01*
X144735Y154904D01*
X144644Y155643D01*
X144371Y156193D01*
X143930Y156536D01*
X143342Y156651D01*
X142748Y156538D01*
X142308Y156196D01*
X142035Y155645D01*
X141944Y154904D01*
X142035Y154165D01*
X142308Y153615D01*
X142748Y153275D01*
X143342Y153162D01*
Y152748D01*
X142538Y152889D01*
X141940Y153312D01*
X141568Y153994D01*
X141444Y154904D01*
X141569Y155821D01*
X141941Y156506D01*
X142541Y156931D01*
X143342Y157073D01*
X144139Y156931D01*
X144733Y156506D01*
X145104Y155821D01*
X145226Y154904D01*
G37*
G36*
X140491Y152852D02*X139968D01*
Y155613D01*
X136708D01*
Y152852D01*
X136177D01*
Y158556D01*
X136708D01*
Y156081D01*
X139968D01*
Y158556D01*
X140491D01*
Y152852D01*
G37*
G36*
X135178Y154578D02*Y154540D01*
X135043Y153753D01*
X134628Y153171D01*
X133961Y152813D01*
X133060Y152692D01*
X132246Y152803D01*
X131625Y153134D01*
X131233Y153658D01*
X131100Y154343D01*
X131201Y154937D01*
X131498Y155389D01*
X132046Y155735D01*
X132885Y156016D01*
X133552Y156182D01*
X134295Y156540D01*
X134521Y157158D01*
X134176Y157955D01*
X133203Y158237D01*
X132612Y158155D01*
X132170Y157906D01*
X131890Y157507D01*
X131789Y156968D01*
X131259D01*
X131395Y157699D01*
X131777Y158246D01*
X132380Y158589D01*
X133179Y158703D01*
X133944Y158599D01*
X134536Y158284D01*
X134916Y157799D01*
X135043Y157173D01*
X134959Y156617D01*
X134708Y156201D01*
X134239Y155884D01*
X133498Y155629D01*
X132955Y155492D01*
X131890Y155032D01*
X131623Y154288D01*
X131720Y153818D01*
X132005Y153462D01*
X133052Y153162D01*
X133727Y153255D01*
X134230Y153533D01*
X134545Y153981D01*
X134656Y154578D01*
X135178D01*
G37*
G36*
X141019Y149601D02*X140784Y149115D01*
X140276Y148943D01*
X139766Y149100D01*
X139437Y149558D01*
X139327Y150368D01*
X139438Y151113D01*
X139761Y151510D01*
X140235Y151649D01*
X140831Y151402D01*
X141069Y150754D01*
X140841Y150124D01*
X140284Y149886D01*
X139919Y149983D01*
X139652Y150235D01*
X139834Y150331D01*
X140204Y150174D01*
X140583Y150331D01*
X140735Y150743D01*
X140573Y151202D01*
X140196Y151379D01*
X139837Y151214D01*
X139688Y150769D01*
X139834Y150331D01*
X139652Y150235D01*
X139650Y150170D01*
X139699Y149772D01*
X139820Y149462D01*
X140005Y149279D01*
X140268Y149210D01*
X140556Y149310D01*
X140707Y149629D01*
X141019Y149601D01*
G37*
G36*
X142251Y148943D02*X141989D01*
X141222Y151682D01*
X141482D01*
X142251Y148943D01*
G37*
G36*
X142445Y149300D02*X143746D01*
X143608Y149477D01*
X143231Y149810D01*
X142730Y150277D01*
X142515Y150600D01*
X142450Y150912D01*
X142671Y151437D01*
X143275Y151648D01*
X143877Y151452D01*
X144135Y150882D01*
X143800Y150848D01*
X143658Y151238D01*
X143282Y151380D01*
X142922Y151246D01*
X142783Y150920D01*
X142935Y150529D01*
X143519Y149968D01*
X143944Y149566D01*
X144159Y149214D01*
X144196Y148988D01*
X142445D01*
Y149300D01*
G37*
G36*
X146215Y150294D02*X146150Y149652D01*
X145952Y149217D01*
X145350Y148943D01*
Y149210D01*
X145726Y149426D01*
X145879Y150294D01*
X145711Y151189D01*
X145353Y151380D01*
X144972Y151164D01*
X144820Y150294D01*
X144972Y149427D01*
X145350Y149210D01*
Y148943D01*
X144868Y149099D01*
X144582Y149541D01*
X144486Y150294D01*
X144546Y150921D01*
X144710Y151315D01*
X144975Y151562D01*
X145350Y151649D01*
X145830Y151493D01*
X146116Y151050D01*
X146215Y150294D01*
G37*
G36*
X148273D02*X148207Y149652D01*
X148010Y149217D01*
X147408Y148943D01*
Y149210D01*
X147785Y149426D01*
X147937Y150294D01*
X147769Y151189D01*
X147412Y151380D01*
X147032Y151164D01*
X146879Y150294D01*
X147032Y149427D01*
X147408Y149210D01*
Y148943D01*
X146927Y149099D01*
X146639Y149541D01*
X146545Y150294D01*
X146603Y150921D01*
X146769Y151315D01*
X147034Y151562D01*
X147408Y151649D01*
X147888Y151493D01*
X148175Y151050D01*
X148273Y150294D01*
G37*
G36*
X148621Y149300D02*X149921D01*
X149783Y149477D01*
X149406Y149810D01*
X148907Y150277D01*
X148690Y150600D01*
X148624Y150912D01*
X148846Y151437D01*
X149450Y151648D01*
X150050Y151452D01*
X150309Y150882D01*
X149976Y150848D01*
X149834Y151238D01*
X149457Y151380D01*
X149098Y151246D01*
X148959Y150920D01*
X149110Y150529D01*
X149695Y149968D01*
X150121Y149566D01*
X150334Y149214D01*
X150372Y148988D01*
X148621D01*
Y149300D01*
G37*
G36*
X137105Y148943D02*X136844D01*
X136078Y151682D01*
X136337D01*
X137105Y148943D01*
G37*
G36*
X131435Y149917D02*X131710Y149413D01*
X132208Y149243D01*
X132659Y149368D01*
X132965Y149744D01*
X133064Y150334D01*
X132980Y150843D01*
X132693Y151237D01*
X132182Y151381D01*
X131740Y151251D01*
X131474Y150829D01*
X131127Y150911D01*
X131506Y151480D01*
X132174Y151682D01*
X132816Y151522D01*
X133268Y151054D01*
X133425Y150333D01*
X133284Y149623D01*
X132876Y149117D01*
X132180Y148943D01*
X131480Y149170D01*
X131083Y149828D01*
X131435Y149917D01*
G37*
G36*
X135785Y148988D02*X133808D01*
Y149300D01*
X135435D01*
Y150202D01*
X133969D01*
Y150513D01*
X135435D01*
Y151324D01*
X133870D01*
Y151637D01*
X135785D01*
Y148988D01*
G37*
G36*
X139010Y149682D02*X138749Y149146D01*
X138160Y148943D01*
X137465Y149265D01*
X137254Y149886D01*
X137492Y150505D01*
X138078Y150744D01*
X138580Y150579D01*
X138436Y151290D01*
X137378D01*
Y151601D01*
X138696D01*
X138953Y150240D01*
X138648Y150201D01*
X138449Y150386D01*
X138165Y150457D01*
X137756Y150296D01*
X137600Y149857D01*
X137761Y149389D01*
X138160Y149210D01*
X138493Y149335D01*
X138669Y149710D01*
X139010Y149682D01*
G37*
G36*
X166508Y151170D02*X166457Y151232D01*
X166379Y151270D01*
X166275Y151283D01*
X165954Y151221D01*
X165975Y151573D01*
X166415Y151631D01*
X166615Y151613D01*
X166793Y151548D01*
X166920Y151433D01*
X166981Y151263D01*
X166997Y150965D01*
Y150892D01*
X167246D01*
X167255Y150711D01*
X167266Y150532D01*
X167040D01*
X167094Y149343D01*
X167116Y149040D01*
X166856Y149044D01*
X166590Y149040D01*
X166536Y150532D01*
X166096D01*
X166075Y150892D01*
X166542D01*
Y150959D01*
X166535Y151079D01*
X166508Y151170D01*
G37*
G36*
X160446Y150028D02*X160428Y150204D01*
X160490Y150537D01*
X160664Y150791D01*
X160947Y150944D01*
X161303Y150990D01*
X161681Y150934D01*
X162006Y150744D01*
X162227Y150398D01*
X162305Y149962D01*
X162237Y149574D01*
X162026Y149263D01*
X161694Y149088D01*
X161264Y149040D01*
X160993Y149055D01*
X160659Y149113D01*
X160591Y149500D01*
X160941Y149406D01*
X161215Y149379D01*
X161435Y149413D01*
X161628Y149519D01*
X161750Y149691D01*
X161793Y149917D01*
X161788Y150025D01*
X161774Y150240D01*
X161737Y150378D01*
X161681Y150488D01*
X161583Y150589D01*
X161450Y150660D01*
X161301Y150682D01*
X161178Y150667D01*
X161076Y150626D01*
X160998Y150557D01*
X160947Y150463D01*
X160922Y150367D01*
X160917Y150238D01*
X161774Y150240D01*
X161788Y150025D01*
X160446Y150028D01*
G37*
G36*
X168780Y150276D02*X168807Y149906D01*
X168178Y149915D01*
X167542Y149906D01*
X167516Y150276D01*
X168148Y150269D01*
X168780Y150276D01*
G37*
G36*
X162719Y150791D02*X163001Y150944D01*
X163357Y150990D01*
X163735Y150934D01*
X164058Y150744D01*
X164280Y150398D01*
X164358Y149962D01*
X164290Y149574D01*
X164079Y149263D01*
X163748Y149088D01*
X163318Y149040D01*
X163045Y149055D01*
X162711Y149113D01*
X162643Y149500D01*
X162995Y149406D01*
X163269Y149379D01*
X163489Y149413D01*
X163681Y149519D01*
X163804Y149691D01*
X163845Y149917D01*
X163842Y150025D01*
X163826Y150240D01*
X163791Y150378D01*
X163735Y150488D01*
X163637Y150589D01*
X163503Y150659D01*
X163354Y150682D01*
X163231Y150667D01*
X163129Y150626D01*
X163052Y150557D01*
X163000Y150463D01*
X162977Y150367D01*
X162970Y150238D01*
X163826Y150240D01*
X163842Y150025D01*
X162499Y150028D01*
X162481Y150204D01*
X162542Y150537D01*
X162719Y150791D01*
G37*
G36*
X164701Y150946D02*X164855Y150928D01*
X164991Y150875D01*
X165102Y150792D01*
X165222Y150644D01*
X165211Y150902D01*
X165460Y150899D01*
X165709Y150902D01*
X165706Y150728D01*
X165709Y150415D01*
X165725Y149909D01*
X165778Y149040D01*
X165506Y149044D01*
X165252Y149040D01*
X165257Y149256D01*
X165247Y149711D01*
X165223Y150036D01*
X165171Y150236D01*
X165065Y150396D01*
X164918Y150493D01*
X164730Y150525D01*
X164534Y150496D01*
X164551Y150928D01*
X164701Y150946D01*
G37*
G36*
X173541Y150791D02*X173823Y150944D01*
X174180Y150990D01*
X174558Y150934D01*
X174881Y150744D01*
X175102Y150398D01*
X175180Y149962D01*
X175113Y149574D01*
X174902Y149263D01*
X174569Y149088D01*
X174140Y149040D01*
X173867Y149055D01*
X173534Y149113D01*
X173467Y149500D01*
X173817Y149406D01*
X174091Y149379D01*
X174310Y149413D01*
X174503Y149519D01*
X174625Y149691D01*
X174667Y149917D01*
X174664Y150025D01*
X174649Y150240D01*
X174613Y150378D01*
X174556Y150488D01*
X174459Y150589D01*
X174326Y150659D01*
X174178Y150682D01*
X174053Y150667D01*
X173952Y150626D01*
X173876Y150557D01*
X173822Y150463D01*
X173798Y150367D01*
X173792Y150238D01*
X174649Y150240D01*
X174664Y150025D01*
X173321Y150028D01*
X173304Y150204D01*
X173364Y150537D01*
X173541Y150791D01*
G37*
G36*
X175912Y151539D02*X175959Y150153D01*
X176027Y149040D01*
X175746Y149044D01*
X175491Y149040D01*
X175484Y149381D01*
X175420Y150872D01*
X175376Y151539D01*
X175640Y151536D01*
X175912Y151539D01*
G37*
G36*
X172112Y151099D02*X172710Y150967D01*
X172890Y150742D01*
X172928Y150552D01*
X172789Y150696D01*
X172234Y150842D01*
X171964Y150757D01*
X171853Y150531D01*
X172036Y150331D01*
X172499Y150162D01*
X172956Y149933D01*
X173107Y149583D01*
X172940Y149177D01*
X172442Y149040D01*
X171909Y149251D01*
X172000Y149398D01*
X172337Y149324D01*
X172643Y149620D01*
X172198Y149951D01*
X171888Y150046D01*
Y149617D01*
X172000Y149398D01*
X171909Y149251D01*
Y149053D01*
X171308D01*
Y150568D01*
X171494Y150936D01*
X172112Y151099D01*
G37*
G36*
X169588Y151583D02*Y151458D01*
X169601Y150959D01*
X169978Y150990D01*
X170410Y150931D01*
X170769Y150732D01*
X171020Y150364D01*
X171112Y149895D01*
X171061Y149561D01*
X170901Y149285D01*
X170640Y149106D01*
X170310Y149040D01*
X170105Y149064D01*
X169921Y149136D01*
X169778Y149242D01*
X169640Y149403D01*
X169825Y149563D01*
X169975Y149453D01*
X170159Y149417D01*
X170398Y149485D01*
X170555Y149670D01*
X170605Y149929D01*
X170549Y150222D01*
X170393Y150470D01*
X170160Y150607D01*
X169883Y150648D01*
X169620Y150611D01*
X169643Y150066D01*
X169711Y149753D01*
X169825Y149563D01*
X169640Y149403D01*
X169656Y149084D01*
X169405Y149088D01*
X169167Y149084D01*
X169131Y150317D01*
X169056Y151583D01*
X169323Y151580D01*
X169588Y151583D01*
G37*
G36*
X159123Y159898D02*X157589Y160726D01*
X157258Y162254D01*
X157142Y163851D01*
X157369Y166098D01*
X158019Y168188D01*
X159046Y170082D01*
X160406Y171729D01*
X162055Y173090D01*
X163947Y174117D01*
X166039Y174767D01*
X168284Y174992D01*
X170529Y174767D01*
X172621Y174117D01*
X174513Y173090D01*
X176163Y171729D01*
X177524Y170082D01*
X178551Y168188D01*
X179200Y166098D01*
X179426Y163851D01*
X179200Y161606D01*
X178551Y159515D01*
X177524Y157623D01*
X176163Y155972D01*
X174513Y154613D01*
X172621Y153585D01*
X170529Y152935D01*
X168284Y152709D01*
X164452Y153386D01*
X161195Y155255D01*
X161135Y156293D01*
X162595Y156837D01*
X165212Y155355D01*
X168284Y154819D01*
X170105Y155002D01*
X171799Y155529D01*
X173334Y156361D01*
X174671Y157465D01*
X175774Y158802D01*
X176607Y160336D01*
X177133Y162031D01*
X177316Y163851D01*
X176781Y166922D01*
X175298Y169540D01*
X162595Y156837D01*
X161135Y156293D01*
X160864Y157480D01*
X161270Y158161D01*
X173973Y170865D01*
X171355Y172348D01*
X168284Y172884D01*
X166465Y172701D01*
X164769Y172175D01*
X163235Y171341D01*
X161897Y170239D01*
X160795Y168902D01*
X159963Y167369D01*
X159436Y165672D01*
X159252Y163851D01*
X159789Y160781D01*
X161270Y158161D01*
X160864Y157480D01*
X160243Y158717D01*
X159123Y159898D01*
G37*
G36*
X161102Y164894D02*X161594Y165713D01*
X162229Y166293D01*
X162976Y166639D01*
X163800Y166754D01*
X164919Y166485D01*
X165819Y165672D01*
X165326Y164861D01*
X164679Y165443D01*
X163948Y165635D01*
X163175Y165451D01*
X162531Y164894D01*
X162100Y163944D01*
X161954Y162573D01*
X162104Y161224D01*
X162553Y160257D01*
X163194Y159677D01*
X163922Y159482D01*
X164956Y159807D01*
X165678Y160752D01*
X165867Y161529D01*
X165931Y162618D01*
X165780Y163913D01*
X165326Y164861D01*
X165819Y165672D01*
Y169627D01*
X167072D01*
Y158544D01*
X165914D01*
Y159550D01*
X165028Y158661D01*
X163871Y158363D01*
X162674Y158641D01*
X161636Y159470D01*
X160917Y160813D01*
X160678Y162618D01*
X160784Y163857D01*
X161102Y164894D01*
G37*
G36*
X158890Y159605D02*X160071Y158293D01*
X160635Y156933D01*
X160810Y155670D01*
X160818Y154637D01*
X160490Y154216D01*
X160042Y154753D01*
X160002Y156424D01*
X159629Y156889D01*
Y155464D01*
X159237Y155854D01*
Y157347D01*
X158843Y157920D01*
Y156332D01*
X158166Y157009D01*
X158183Y157124D01*
X158199Y157411D01*
X158166Y157785D01*
X158036Y158156D01*
X158027Y158031D01*
X157992Y157745D01*
X157930Y157430D01*
X157833Y157219D01*
X157581Y157389D01*
X157011Y157769D01*
X156408Y158166D01*
X156053Y158389D01*
X156246Y158224D01*
X156761Y157762D01*
X157501Y157062D01*
X158372Y156180D01*
X159278Y155170D01*
X160122Y154090D01*
X160810Y152996D01*
X161245Y151943D01*
X160945Y151643D01*
X160851Y151900D01*
X160612Y152502D01*
X160303Y153202D01*
X159992Y153754D01*
X159822Y153649D01*
X159409Y153412D01*
X158901Y153155D01*
X158447Y152993D01*
X158020Y152971D01*
X157523Y153073D01*
X156996Y153337D01*
X156480Y153796D01*
X156035Y154341D01*
X155573Y155026D01*
X155086Y155967D01*
X154558Y157272D01*
X154470Y157538D01*
X154355Y157910D01*
X154249Y158265D01*
X154185Y158481D01*
X153934Y159275D01*
X153682Y159807D01*
X153410Y160181D01*
X153106Y160500D01*
Y160782D01*
X153717Y160831D01*
X155217Y160818D01*
X157107Y160490D01*
X158890Y159605D01*
G37*
G36*
X169205Y169414D02*X169939Y169574D01*
X170989Y169627D01*
X174413D01*
Y158544D01*
X173211D01*
Y163050D01*
X170883D01*
X169288Y163286D01*
X168245Y163994D01*
X167674Y165078D01*
X167481Y166437D01*
X168722Y166376D01*
X168850Y165491D01*
X169235Y164861D01*
X169900Y164485D01*
X170861Y164358D01*
X173211D01*
Y168319D01*
X170883D01*
X170092Y168276D01*
X169588Y168144D01*
X168974Y167504D01*
X168722Y166376D01*
X167481Y166437D01*
X167600Y167482D01*
X167951Y168349D01*
X168499Y169006D01*
X169205Y169414D01*
G37*
G36*
X170628Y108613D02*X170417Y104612D01*
X170152Y100821D01*
X171021Y98077D01*
X171534Y95282D01*
X170939Y95026D01*
X170051Y99091D01*
X170069Y94928D01*
X170665Y90558D01*
X170939Y91584D01*
Y95026D01*
X171534Y95282D01*
X171580Y92463D01*
X171040Y89643D01*
X170838Y89441D01*
X170207Y89908D01*
X169767Y91428D01*
X169493Y93131D01*
X169410Y94165D01*
Y100959D01*
X167808Y104346D01*
X165840Y106772D01*
X165070Y106573D01*
X164466Y105902D01*
X163578Y103660D01*
X162983Y100776D01*
X162498Y97956D01*
X161921Y95933D01*
X161541Y95435D01*
X161051Y95440D01*
X160438Y96004D01*
X159687Y97187D01*
X158772Y99119D01*
X157646Y101911D01*
X156703Y104630D01*
X155769Y107395D01*
X154716Y110089D01*
X153434Y112622D01*
X152857Y109611D01*
X152656Y106379D01*
Y103101D01*
X152720Y100007D01*
X152793Y97461D01*
X152857Y95997D01*
X152913Y95099D01*
X152940Y94184D01*
Y92701D01*
X152894Y90156D01*
X152857Y87702D01*
X152775Y84177D01*
X152464Y80167D01*
X151823Y76276D01*
X150679Y73102D01*
X149875Y71960D01*
X148884Y71259D01*
X148426Y71314D01*
X148435Y71772D01*
X149800Y72980D01*
X150715Y74811D01*
X151301Y77009D01*
X151622Y79297D01*
X151787Y81458D01*
X151906Y83188D01*
X152161Y86887D01*
X152262Y89508D01*
X152281Y91565D01*
X152235Y93616D01*
X152134Y96235D01*
X152043Y99943D01*
X152024Y105225D01*
X152344Y110480D01*
X152464Y111222D01*
X152775Y112494D01*
X153233Y113446D01*
X153846Y113263D01*
X155201Y110590D01*
X156291Y107789D01*
X157298Y104923D01*
X158332Y102085D01*
X159232Y99810D01*
X159962Y98224D01*
X160543Y97235D01*
X160996Y96747D01*
X161610Y97068D01*
X162004Y98670D01*
X162324Y101031D01*
X162764Y103596D01*
X163533Y105820D01*
X164787Y107184D01*
X166380Y107232D01*
X167662Y106061D01*
X168632Y104355D01*
X169309Y102863D01*
X169511Y102387D01*
X169786Y105509D01*
X169950Y108640D01*
X170298Y108933D01*
X170628Y108613D01*
G37*
G36*
X145996Y93964D02*X145693Y96326D01*
X145510Y97564D01*
Y98077D01*
X145730Y98239D01*
X146224Y97857D01*
X146444Y96134D01*
X147598Y96418D01*
X148669Y95795D01*
X149557Y94669D01*
X150143Y93452D01*
X150491Y92179D01*
X150692Y90494D01*
X150555Y88947D01*
X149804Y88077D01*
X148806Y88169D01*
X148962Y88746D01*
X149740Y88965D01*
X150006Y90641D01*
X149704Y92920D01*
X148770Y94944D01*
X148053Y95626D01*
X147159Y95896D01*
X146472Y95220D01*
X146627Y94605D01*
X146820Y93854D01*
X147003Y93113D01*
X147159Y92499D01*
X147433Y91648D01*
X147735Y90796D01*
X148401Y89419D01*
X148962Y88746D01*
X148806Y88169D01*
X147973Y88947D01*
X147278Y90174D01*
X146710Y91648D01*
X146407Y88810D01*
X146078Y87709D01*
X145556Y87024D01*
X145117Y86786D01*
X144641Y86621D01*
X144238Y86841D01*
X144402Y87237D01*
X144760Y87363D01*
X145117Y87537D01*
X145693Y88654D01*
X145987Y90183D01*
X146069Y92005D01*
X145996Y93964D01*
G37*
G36*
X142995Y93829D02*X142537Y94440D01*
X142033Y95063D01*
X141594Y95539D01*
X141301Y95733D01*
X141146Y95420D01*
X140907Y94687D01*
X140688Y93836D01*
X140551Y93177D01*
X140368Y91748D01*
X140212Y90549D01*
X140093Y89288D01*
X140010Y87775D01*
X142848Y86823D01*
X145073Y85431D01*
X146144Y84454D01*
X146987Y83637D01*
X147719Y82712D01*
X148433Y81421D01*
X149285Y78363D01*
X149266Y74747D01*
X148195Y71378D01*
X147211Y70041D01*
X145888Y69117D01*
X144515Y68682D01*
X143379Y68796D01*
X141677Y70124D01*
X140587Y72266D01*
X139873Y74454D01*
X140404Y74811D01*
X141567Y71360D01*
X142361Y70261D01*
X143361Y69611D01*
X145650Y69767D01*
X147362Y71417D01*
X148369Y73841D01*
X148754Y76496D01*
X148607Y78803D01*
X147792Y81183D01*
X146382Y83252D01*
X144533Y84974D01*
X142354Y86246D01*
X141512Y86539D01*
X139974Y86924D01*
X139827Y83106D01*
X139891Y78904D01*
X140404Y74811D01*
X139873Y74454D01*
X139379Y76853D01*
X139131Y79975D01*
X139077Y83518D01*
X139196Y87134D01*
X137227Y87384D01*
X135689Y87372D01*
X135011Y87217D01*
X134407Y87006D01*
X133977Y86906D01*
X133821Y87098D01*
X134370Y87656D01*
X135863Y88116D01*
X137484Y88151D01*
X139260Y87949D01*
X139589Y91355D01*
X140038Y94065D01*
X140166Y94708D01*
X140331Y95420D01*
X140660Y96033D01*
X141200Y96408D01*
X141841Y96134D01*
X142711Y95300D01*
X143425Y94330D01*
X143645Y93625D01*
X143206Y93360D01*
X142995Y93829D01*
G37*
G36*
X131743Y81115D02*X132027Y81508D01*
X132494Y81636D01*
X132896Y81517D01*
X133208Y81188D01*
Y81536D01*
X133812D01*
Y77434D01*
X133208D01*
Y79778D01*
X133098Y80849D01*
X132732Y81069D01*
X132347Y80867D01*
X132246Y79778D01*
Y77434D01*
X131633D01*
Y79778D01*
X131523Y80849D01*
X131120Y81069D01*
X130773Y80858D01*
X130672Y79778D01*
Y77434D01*
X130059D01*
Y79815D01*
X130260Y81252D01*
X130956Y81636D01*
X131422Y81508D01*
X131743Y81115D01*
G37*
G36*
X126499Y77434D02*X125831D01*
Y79778D01*
X125886Y80583D01*
X126078Y81032D01*
X126664Y81481D01*
X127534Y81636D01*
X128202Y81563D01*
X128917Y81344D01*
Y80675D01*
X128230Y80968D01*
X127534Y81060D01*
X126756Y80840D01*
X126499Y80126D01*
Y80025D01*
X127406D01*
X128752Y79668D01*
X129219Y78624D01*
X128843Y77681D01*
X127845Y77324D01*
X127049Y77507D01*
X126499Y78038D01*
X126829Y78277D01*
X127699Y77892D01*
X128321Y78094D01*
X128541Y78670D01*
X128239Y79293D01*
X127360Y79494D01*
X126499D01*
Y79348D01*
X126829Y78277D01*
X126499Y78038D01*
Y77434D01*
G37*
G36*
X124156Y81014D02*X122993D01*
Y77361D01*
X123157Y76674D01*
X123652Y76445D01*
X124513D01*
Y75878D01*
X123579D01*
X122645Y76262D01*
X122315Y77361D01*
Y81536D01*
X124156D01*
Y81014D01*
G37*
G36*
X174258Y121796D02*X175366D01*
Y116330D01*
X174258D01*
X173171Y116497D01*
X172409Y116999D01*
X171972Y117848D01*
X171822Y119059D01*
X171972Y120278D01*
X172409Y121128D01*
X173171Y121629D01*
X174258Y121796D01*
X174276Y121192D01*
X172967Y120734D01*
X172601Y119059D01*
X172967Y117401D01*
X174276Y116935D01*
X174624D01*
Y121192D01*
X174276D01*
X174258Y121796D01*
G37*
G36*
X170204Y118219D02*X167284D01*
Y118546D01*
X167732Y120002D01*
X168978Y120533D01*
X170378Y119946D01*
X170909Y118381D01*
X170369Y116797D01*
X168877Y116220D01*
X168181Y116303D01*
X167448Y116541D01*
Y117209D01*
X168190Y116900D01*
X168868Y116797D01*
X169857Y117163D01*
X170204Y118198D01*
Y118219D01*
X170177Y118748D01*
X169802Y119635D01*
X169005Y119956D01*
X168236Y119654D01*
X167961Y118748D01*
X170177D01*
X170204Y118219D01*
G37*
G36*
X163285Y119626D02*Y120285D01*
X163880Y120469D01*
X164512Y120533D01*
X165656Y120212D01*
X166050Y119297D01*
X165785Y118565D01*
X164933Y118180D01*
X164686Y118134D01*
X164650Y118125D01*
X163979Y117871D01*
X163752Y117475D01*
X163999Y116974D01*
X164695Y116788D01*
X165345Y116889D01*
X166069Y117173D01*
Y116477D01*
X165345Y116285D01*
X164704Y116220D01*
X163505Y116569D01*
X163074Y117521D01*
X163331Y118262D01*
X164091Y118637D01*
X164365Y118692D01*
X165199Y118958D01*
X165373Y119370D01*
X165144Y119819D01*
X164466Y119965D01*
X163862Y119883D01*
X163285Y119626D01*
G37*
G36*
X159928Y121173D02*Y122027D01*
X160606D01*
Y121173D01*
X159928D01*
G37*
G36*
Y117813D02*Y120423D01*
X161685D01*
Y119903D01*
X160606D01*
Y117813D01*
X160267Y116715D01*
X159333Y116330D01*
X158481D01*
Y116900D01*
X159269D01*
X159763Y117136D01*
X159928Y117813D01*
G37*
G36*
X154004Y116596D02*Y120416D01*
X154682D01*
Y119883D01*
X155130Y120368D01*
X155798Y120533D01*
X156943Y119956D01*
X157373Y118418D01*
X156943Y116880D01*
X155798Y116303D01*
X155121Y116468D01*
X154682Y116980D01*
X154929Y117267D01*
X155643Y116861D01*
X156394Y117267D01*
X156659Y118418D01*
X156403Y119572D01*
X155643Y119956D01*
X154929Y119572D01*
X154682Y118418D01*
X154929Y117267D01*
X154682Y116980D01*
Y116495D01*
X154929Y115552D01*
X155726Y115259D01*
X156265Y115342D01*
X156916Y115589D01*
Y114923D01*
X156302Y114776D01*
X155726Y114719D01*
X154444Y115195D01*
X154004Y116596D01*
G37*
G36*
X150143Y116330D02*X149465D01*
Y118878D01*
X149768Y120123D01*
X150711Y120533D01*
X151434Y120349D01*
X151919Y119819D01*
Y120432D01*
X152596D01*
Y116330D01*
X151919D01*
Y118647D01*
X151663Y119610D01*
X150939Y119946D01*
X150335Y119684D01*
X150143Y118878D01*
Y116330D01*
G37*
G36*
X147646Y118219D02*X144725D01*
Y118546D01*
X145174Y120002D01*
X146419Y120533D01*
X147820Y119946D01*
X148351Y118381D01*
X147811Y116797D01*
X146319Y116220D01*
X145622Y116303D01*
X144890Y116541D01*
Y117209D01*
X145632Y116900D01*
X146309Y116797D01*
X147298Y117163D01*
X147646Y118198D01*
Y118219D01*
X147619Y118748D01*
X147243Y119635D01*
X146446Y119956D01*
X145677Y119654D01*
X145403Y118748D01*
X147619D01*
X147646Y118219D01*
G37*
G36*
X140470Y122027D02*X141148D01*
Y119910D01*
X141395Y119562D01*
X141148Y118381D01*
X141395Y117200D01*
X142146Y116797D01*
X142878Y117193D01*
X143125Y118381D01*
X142878Y119562D01*
X142146Y119956D01*
X141395Y119562D01*
X141148Y119910D01*
X141587Y120368D01*
X142237Y120533D01*
X143409Y119965D01*
X143840Y118390D01*
X143409Y116807D01*
X142237Y116220D01*
X141596Y116387D01*
X141148Y116843D01*
Y116330D01*
X140470D01*
Y122027D01*
G37*
G36*
X133039Y121796D02*X134659D01*
Y116330D01*
X133039D01*
X131583Y116715D01*
X131098Y117831D01*
X131409Y118804D01*
X132251Y119260D01*
X132278Y119745D01*
X133048Y119544D01*
X133908D01*
Y121192D01*
X133048D01*
X132270Y121009D01*
X132041Y120404D01*
X132278Y119745D01*
X132251Y119260D01*
X132132Y118692D01*
X131839Y117905D01*
X132114Y117163D01*
X133039Y116935D01*
X133908D01*
Y118940D01*
X133039D01*
X132132Y118692D01*
X132251Y119260D01*
X131528Y119617D01*
X131290Y120404D01*
X131748Y121430D01*
X133039Y121796D01*
G37*
G36*
X127612Y117648D02*X126531Y120432D01*
X127246D01*
X128445Y117228D01*
X129654Y120432D01*
X130367D01*
X128784Y116394D01*
X129214Y115509D01*
X129681Y115332D01*
X130075D01*
Y114776D01*
X129534D01*
X128948Y114911D01*
X128527Y115342D01*
X128042Y116522D01*
X127612Y117648D01*
G37*
G36*
X141805Y101535D02*X141741Y101233D01*
X141420Y100940D01*
X141100Y101197D01*
X140990Y101535D01*
Y101886D01*
X141402Y102185D01*
X141878Y101947D01*
Y101812D01*
X141805Y101535D01*
G37*
G36*
X130056Y89478D02*X130532Y89341D01*
Y89377D01*
X131796Y87976D01*
X133462Y87098D01*
X134735Y87574D01*
X135467Y88965D01*
X133581Y91493D01*
X132171Y94678D01*
X132812Y94880D01*
X133902Y92298D01*
X135668Y89716D01*
X135769Y90430D01*
X135870Y92426D01*
X135650Y94708D01*
X134908Y96729D01*
X133426Y98004D01*
X132812Y97402D01*
X132593Y96612D01*
X132812Y94880D01*
X132171Y94678D01*
X131997Y95621D01*
X132015Y97052D01*
X132428Y98285D01*
X133426Y98716D01*
X135128Y97526D01*
X136227Y95063D01*
X136620Y92023D01*
X136209Y89103D01*
X135970Y88489D01*
X134973Y87043D01*
X133426Y86420D01*
X131933Y87091D01*
X130130Y88865D01*
X129956Y89068D01*
X129928Y89103D01*
X129956D01*
X130056Y89478D01*
G37*
G36*
X129569Y96612D02*X129606Y95520D01*
X129651Y93756D01*
X129669Y91666D01*
X129624Y89606D01*
X129431Y87958D01*
X129056Y87061D01*
X128516Y87237D01*
X127307Y91034D01*
X125559Y94605D01*
X125357Y94568D01*
X124827Y92792D01*
X124506Y90934D01*
X123993Y89167D01*
X122904Y87677D01*
X122437Y87702D01*
X122428Y88151D01*
X123472Y89606D01*
X123965Y91412D01*
X124286Y93296D01*
X124845Y95044D01*
X125083Y95255D01*
X125339Y95264D01*
X125623Y95282D01*
X125998Y95117D01*
X127737Y91959D01*
X128818Y88489D01*
X128909Y92584D01*
X128891Y96685D01*
X129267Y97013D01*
X129569Y96612D01*
G37*
G36*
X128230Y94504D02*X127831Y93740D01*
X127186Y93351D01*
X125474Y93389D01*
X123515Y94147D01*
X121739Y95181D01*
X121931Y92838D01*
X122069Y91107D01*
X122150Y89386D01*
X122178Y87061D01*
X121748Y86448D01*
X121500Y86786D01*
X121180Y88928D01*
X120365Y91327D01*
X119056Y93277D01*
X117289Y94101D01*
X116767Y93516D01*
X117189Y92481D01*
X117957Y91373D01*
X118480Y90595D01*
X118269Y90156D01*
X117326Y89947D01*
X115943Y89826D01*
X114552Y89762D01*
X113581Y89744D01*
X113243Y90119D01*
X113655Y90430D01*
X114524Y90460D01*
X115696Y90540D01*
X116868Y90641D01*
X117728Y90695D01*
X116969Y91648D01*
X116063Y93213D01*
X116035Y93671D01*
X116236Y94101D01*
X117124Y94660D01*
X118022Y94642D01*
X118910Y94184D01*
X119734Y93415D01*
X121437Y90631D01*
X121373Y92106D01*
X121281Y92975D01*
X121162Y93836D01*
X121024Y95319D01*
X120988Y95660D01*
X120686Y95914D01*
X120448Y96106D01*
X119349Y97113D01*
X119789Y97580D01*
X120924Y96573D01*
X120686Y98853D01*
X120384Y101252D01*
X120027Y103596D01*
X119633Y105719D01*
X119313Y107212D01*
X118754Y109116D01*
X117985Y111002D01*
X117051Y112412D01*
X116183Y113069D01*
X115477Y113126D01*
X114469Y112140D01*
X113957Y110462D01*
X113819Y109052D01*
X113939Y107807D01*
X114231Y106534D01*
X116035Y102369D01*
X118745Y98688D01*
X119789Y97580D01*
X119349Y97113D01*
X118269Y98212D01*
X116740Y99943D01*
X115421Y101947D01*
X114350Y104099D01*
X113581Y106296D01*
X113124Y109611D01*
X113350Y111279D01*
X114057Y112787D01*
X115678Y113858D01*
X117152Y113245D01*
X118342Y111734D01*
X119120Y110105D01*
X119395Y109372D01*
X119743Y108265D01*
X120063Y107013D01*
X120310Y105820D01*
X120805Y102891D01*
X121126Y100821D01*
X121381Y98817D01*
X121675Y96033D01*
X123167Y95099D01*
X124980Y94230D01*
X126619Y93937D01*
X127228Y94168D01*
X127589Y94743D01*
X128029Y94907D01*
X128230Y94504D01*
G37*
G36*
X110915Y97224D02*X111968Y96848D01*
X113112Y95520D01*
X113735Y93195D01*
X113936Y90714D01*
X113835Y88901D01*
X113552Y87912D01*
X113057Y86960D01*
X112316Y86246D01*
X111290Y85972D01*
X109349Y86725D01*
X107720Y88544D01*
X106777Y90796D01*
X106841Y92838D01*
X107079Y93396D01*
X107344Y93964D01*
X107875Y94531D01*
X108708Y94916D01*
X106639Y95282D01*
X104561Y95694D01*
X104341Y96116D01*
X104726Y96372D01*
X107674Y95777D01*
X110640Y95356D01*
X110915Y95081D01*
X110713Y94708D01*
X110000Y94531D01*
X109185Y94348D01*
X108434Y94056D01*
X107921Y93589D01*
X107555Y91593D01*
X108095Y89267D01*
X109404Y87384D01*
X111254Y86685D01*
X112069Y86960D01*
X112637Y87556D01*
X112975Y88315D01*
X113194Y89142D01*
X113350Y90870D01*
X113194Y92920D01*
X112654Y94861D01*
X111629Y96235D01*
X111172Y96454D01*
X110640Y96573D01*
X110439Y97031D01*
X110915Y97224D01*
G37*
G36*
X122315Y82277D02*Y83129D01*
X122993D01*
Y82277D01*
X122315D01*
G37*
G36*
X119525Y79320D02*X116605D01*
Y79650D01*
X117054Y81106D01*
X118298Y81636D01*
X119700Y81050D01*
X120230Y79485D01*
X119690Y77901D01*
X118198Y77324D01*
X117502Y77407D01*
X116770Y77645D01*
Y78313D01*
X117511Y78002D01*
X118189Y77901D01*
X119178Y78267D01*
X119525Y79302D01*
Y79320D01*
X119498Y79851D01*
X119122Y80739D01*
X118326Y81060D01*
X117557Y80758D01*
X117283Y79851D01*
X119498D01*
X119525Y79320D01*
G37*
G36*
X113000Y77434D02*X112322D01*
Y79979D01*
X112625Y81225D01*
X113568Y81636D01*
X114291Y81454D01*
X114776Y80922D01*
Y81536D01*
X115454D01*
Y77434D01*
X114776D01*
Y79750D01*
X114520Y80712D01*
X113796Y81050D01*
X113193Y80785D01*
X113000Y79979D01*
Y77434D01*
G37*
G36*
X110100Y79833D02*Y83129D01*
X110796D01*
Y77434D01*
X110100D01*
Y79082D01*
X109596Y79549D01*
X108076Y77434D01*
X107253D01*
X109120Y79989D01*
X107509Y81536D01*
X108324D01*
X110100Y79833D01*
G37*
G36*
X104893Y81636D02*X106193Y81078D01*
X106642Y79485D01*
X106193Y77883D01*
X104893Y77324D01*
X103583Y77883D01*
X103135Y79485D01*
X103583Y81078D01*
X104893Y81636D01*
Y81060D01*
X104106Y80666D01*
X103849Y79485D01*
X104106Y78304D01*
X104893Y77901D01*
X105662Y78304D01*
X105928Y79485D01*
X105662Y80666D01*
X104893Y81060D01*
Y81636D01*
G37*
G36*
X100984Y77947D02*X100810Y77507D01*
X100389Y77333D01*
X99967Y77507D01*
X99794Y77947D01*
X99967Y78405D01*
X100389Y78570D01*
X100810Y78405D01*
X100984Y77947D01*
G37*
G36*
X94239Y77645D02*Y78341D01*
X94751Y78011D01*
X95383Y77901D01*
X96354Y78313D01*
X96693Y79485D01*
X96354Y80657D01*
X95383Y81060D01*
X94769Y80959D01*
X94239Y80611D01*
Y81316D01*
X94806Y81554D01*
X95383Y81636D01*
X96866Y81060D01*
X97406Y79485D01*
X96866Y77901D01*
X95383Y77324D01*
X94788Y77407D01*
X94239Y77645D01*
G37*
G36*
X91357Y81636D02*X92657Y81078D01*
X93106Y79485D01*
X92657Y77883D01*
X91357Y77324D01*
X90048Y77883D01*
X89599Y79485D01*
X90048Y81078D01*
X91357Y81636D01*
Y81060D01*
X90569Y80666D01*
X90313Y79485D01*
X90569Y78304D01*
X91357Y77901D01*
X92126Y78304D01*
X92392Y79485D01*
X92126Y80666D01*
X91357Y81060D01*
Y81636D01*
G37*
G36*
X87450Y77947D02*X87276Y77507D01*
X86855Y77333D01*
X86434Y77507D01*
X86260Y77947D01*
X86434Y78405D01*
X86855Y78570D01*
X87276Y78405D01*
X87450Y77947D01*
G37*
G36*
X83195Y81527D02*X83873D01*
Y78991D01*
X83561Y77746D01*
X82628Y77324D01*
X81904Y77507D01*
X81419Y78048D01*
Y77434D01*
X80741D01*
Y81527D01*
X81419D01*
Y79210D01*
X81666Y78249D01*
X82398Y77910D01*
X83003Y78176D01*
X83195Y78991D01*
Y81527D01*
G37*
G36*
X78517Y79833D02*Y83129D01*
X79213D01*
Y77434D01*
X78517D01*
Y79082D01*
X78013Y79549D01*
X76494Y77434D01*
X75670D01*
X77537Y79989D01*
X75926Y81536D01*
X76741D01*
X78517Y79833D01*
G37*
G54D92*X160267Y121689D02*Y121512D01*
X122654Y82790D02*Y82616D01*
M02*
