G04 start of page 12 for group -3984 idx -3984 *
G04 Title: (unknown), fab *
G04 Creator: pcb 1.99z *
G04 CreationDate: Tue Apr 19 20:08:47 2016 UTC *
G04 For: matt *
G04 Format: Gerber/RS-274X *
G04 PCB-Dimensions (mil): 2500.00 3000.00 *
G04 PCB-Coordinate-Origin: lower left *
%MOIN*%
%FSLAX25Y25*%
%LNFAB*%
%ADD97C,0.0100*%
%ADD96C,0.0075*%
%ADD95C,0.0060*%
%ADD94R,0.0080X0.0080*%
G54D94*X51000Y240078D02*Y233678D01*
X47800Y236878D02*X54200D01*
X49400Y238478D02*X52600D01*
X49400D02*Y235278D01*
X52600D01*
Y238478D02*Y235278D01*
X15000Y314450D02*Y308050D01*
X11800Y311250D02*X18200D01*
X13400Y312850D02*X16600D01*
X13400D02*Y309650D01*
X16600D01*
Y312850D02*Y309650D01*
G54D95*X135000Y313500D02*X136500Y310500D01*
X138000Y313500D01*
X136500Y310500D02*Y307500D01*
X139800Y310800D02*X142050D01*
X139800Y307500D02*X142800D01*
X139800Y313500D02*Y307500D01*
Y313500D02*X142800D01*
X147600D02*X148350Y312750D01*
X145350Y313500D02*X147600D01*
X144600Y312750D02*X145350Y313500D01*
X144600Y312750D02*Y311250D01*
X145350Y310500D01*
X147600D01*
X148350Y309750D01*
Y308250D01*
X147600Y307500D02*X148350Y308250D01*
X145350Y307500D02*X147600D01*
X144600Y308250D02*X145350Y307500D01*
X98000Y312300D02*X99200Y313500D01*
Y307500D01*
X98000D02*X100250D01*
X45000Y308250D02*X45750Y307500D01*
X45000Y312750D02*Y308250D01*
Y312750D02*X45750Y313500D01*
X47250D01*
X48000Y312750D01*
Y308250D01*
X47250Y307500D02*X48000Y308250D01*
X45750Y307500D02*X47250D01*
X45000Y309000D02*X48000Y312000D01*
X49800Y307500D02*X50550D01*
X52350Y312300D02*X53550Y313500D01*
Y307500D01*
X52350D02*X54600D01*
X56400Y312750D02*X57150Y313500D01*
X58650D01*
X59400Y312750D01*
X58650Y307500D02*X59400Y308250D01*
X57150Y307500D02*X58650D01*
X56400Y308250D02*X57150Y307500D01*
Y310800D02*X58650D01*
X59400Y312750D02*Y311550D01*
Y310050D02*Y308250D01*
Y310050D02*X58650Y310800D01*
X59400Y311550D02*X58650Y310800D01*
X61200Y308250D02*X61950Y307500D01*
X61200Y309450D02*Y308250D01*
Y309450D02*X62250Y310500D01*
X63150D01*
X64200Y309450D01*
Y308250D01*
X63450Y307500D02*X64200Y308250D01*
X61950Y307500D02*X63450D01*
X61200Y311550D02*X62250Y310500D01*
X61200Y312750D02*Y311550D01*
Y312750D02*X61950Y313500D01*
X63450D01*
X64200Y312750D01*
Y311550D01*
X63150Y310500D02*X64200Y311550D01*
X220000Y220000D02*Y216800D01*
Y220000D02*X222773Y221600D01*
X220000Y220000D02*X217227Y221600D01*
X218400Y220000D02*G75*G03X221600Y220000I1600J0D01*G01*
G75*G03X218400Y220000I-1600J0D01*G01*
X160000Y20000D02*Y16800D01*
Y20000D02*X162773Y21600D01*
X160000Y20000D02*X157227Y21600D01*
X158400Y20000D02*G75*G03X161600Y20000I1600J0D01*G01*
G75*G03X158400Y20000I-1600J0D01*G01*
X50000D02*Y16800D01*
Y20000D02*X52773Y21600D01*
X50000Y20000D02*X47227Y21600D01*
X48400Y20000D02*G75*G03X51600Y20000I1600J0D01*G01*
G75*G03X48400Y20000I-1600J0D01*G01*
X30000Y225000D02*Y221800D01*
Y225000D02*X32773Y226600D01*
X30000Y225000D02*X27227Y226600D01*
X28400Y225000D02*G75*G03X31600Y225000I1600J0D01*G01*
G75*G03X28400Y225000I-1600J0D01*G01*
X15000Y326250D02*Y323050D01*
Y326250D02*X17773Y327850D01*
X15000Y326250D02*X12227Y327850D01*
X13400Y326250D02*G75*G03X16600Y326250I1600J0D01*G01*
G75*G03X13400Y326250I-1600J0D01*G01*
X135000Y328500D02*X136500Y325500D01*
X138000Y328500D01*
X136500Y325500D02*Y322500D01*
X139800Y325800D02*X142050D01*
X139800Y322500D02*X142800D01*
X139800Y328500D02*Y322500D01*
Y328500D02*X142800D01*
X147600D02*X148350Y327750D01*
X145350Y328500D02*X147600D01*
X144600Y327750D02*X145350Y328500D01*
X144600Y327750D02*Y326250D01*
X145350Y325500D01*
X147600D01*
X148350Y324750D01*
Y323250D01*
X147600Y322500D02*X148350Y323250D01*
X145350Y322500D02*X147600D01*
X144600Y323250D02*X145350Y322500D01*
X98000Y324750D02*X101000Y328500D01*
X98000Y324750D02*X101750D01*
X101000Y328500D02*Y322500D01*
X45000Y323250D02*X45750Y322500D01*
X45000Y327750D02*Y323250D01*
Y327750D02*X45750Y328500D01*
X47250D01*
X48000Y327750D01*
Y323250D01*
X47250Y322500D02*X48000Y323250D01*
X45750Y322500D02*X47250D01*
X45000Y324000D02*X48000Y327000D01*
X49800Y322500D02*X50550D01*
X52350Y327300D02*X53550Y328500D01*
Y322500D01*
X52350D02*X54600D01*
X56400Y327750D02*X57150Y328500D01*
X59400D01*
X60150Y327750D01*
Y326250D01*
X56400Y322500D02*X60150Y326250D01*
X56400Y322500D02*X60150D01*
X61950Y327750D02*X62700Y328500D01*
X64950D01*
X65700Y327750D01*
Y326250D01*
X61950Y322500D02*X65700Y326250D01*
X61950Y322500D02*X65700D01*
X30109Y250092D02*X33309D01*
X30109D02*Y246892D01*
X33309D01*
Y250092D02*Y246892D01*
X49400Y262100D02*X52600D01*
X49400D02*Y258900D01*
X52600D01*
Y262100D02*Y258900D01*
X13400Y342850D02*X16600D01*
X13400D02*Y339650D01*
X16600D01*
Y342850D02*Y339650D01*
X135000Y343500D02*X136500Y340500D01*
X138000Y343500D01*
X136500Y340500D02*Y337500D01*
X139800Y340800D02*X142050D01*
X139800Y337500D02*X142800D01*
X139800Y343500D02*Y337500D01*
Y343500D02*X142800D01*
X147600D02*X148350Y342750D01*
X145350Y343500D02*X147600D01*
X144600Y342750D02*X145350Y343500D01*
X144600Y342750D02*Y341250D01*
X145350Y340500D01*
X147600D01*
X148350Y339750D01*
Y338250D01*
X147600Y337500D02*X148350Y338250D01*
X145350Y337500D02*X147600D01*
X144600Y338250D02*X145350Y337500D01*
X98000Y342750D02*X98750Y343500D01*
X101000D01*
X101750Y342750D01*
Y341250D01*
X98000Y337500D02*X101750Y341250D01*
X98000Y337500D02*X101750D01*
X45000Y338250D02*X45750Y337500D01*
X45000Y342750D02*Y338250D01*
Y342750D02*X45750Y343500D01*
X47250D01*
X48000Y342750D01*
Y338250D01*
X47250Y337500D02*X48000Y338250D01*
X45750Y337500D02*X47250D01*
X45000Y339000D02*X48000Y342000D01*
X49800Y337500D02*X50550D01*
X52350Y342300D02*X53550Y343500D01*
Y337500D01*
X52350D02*X54600D01*
X56400Y342300D02*X57600Y343500D01*
Y337500D01*
X56400D02*X58650D01*
X60450Y338250D02*X61200Y337500D01*
X60450Y339450D02*Y338250D01*
Y339450D02*X61500Y340500D01*
X62400D01*
X63450Y339450D01*
Y338250D01*
X62700Y337500D02*X63450Y338250D01*
X61200Y337500D02*X62700D01*
X60450Y341550D02*X61500Y340500D01*
X60450Y342750D02*Y341550D01*
Y342750D02*X61200Y343500D01*
X62700D01*
X63450Y342750D01*
Y341550D01*
X62400Y340500D02*X63450Y341550D01*
X29200Y80000D02*G75*G03X30800Y80000I800J0D01*G01*
G75*G03X29200Y80000I-800J0D01*G01*
Y70000D02*G75*G03X30800Y70000I800J0D01*G01*
G75*G03X29200Y70000I-800J0D01*G01*
Y60000D02*G75*G03X30800Y60000I800J0D01*G01*
G75*G03X29200Y60000I-800J0D01*G01*
Y50000D02*G75*G03X30800Y50000I800J0D01*G01*
G75*G03X29200Y50000I-800J0D01*G01*
Y40000D02*G75*G03X30800Y40000I800J0D01*G01*
G75*G03X29200Y40000I-800J0D01*G01*
Y30000D02*G75*G03X30800Y30000I800J0D01*G01*
G75*G03X29200Y30000I-800J0D01*G01*
X139200D02*G75*G03X140800Y30000I800J0D01*G01*
G75*G03X139200Y30000I-800J0D01*G01*
Y20000D02*G75*G03X140800Y20000I800J0D01*G01*
G75*G03X139200Y20000I-800J0D01*G01*
X129200Y30000D02*G75*G03X130800Y30000I800J0D01*G01*
G75*G03X129200Y30000I-800J0D01*G01*
Y20000D02*G75*G03X130800Y20000I800J0D01*G01*
G75*G03X129200Y20000I-800J0D01*G01*
X119200Y30000D02*G75*G03X120800Y30000I800J0D01*G01*
G75*G03X119200Y30000I-800J0D01*G01*
Y20000D02*G75*G03X120800Y20000I800J0D01*G01*
G75*G03X119200Y20000I-800J0D01*G01*
X29200Y170000D02*G75*G03X30800Y170000I800J0D01*G01*
G75*G03X29200Y170000I-800J0D01*G01*
Y160000D02*G75*G03X30800Y160000I800J0D01*G01*
G75*G03X29200Y160000I-800J0D01*G01*
Y150000D02*G75*G03X30800Y150000I800J0D01*G01*
G75*G03X29200Y150000I-800J0D01*G01*
Y140000D02*G75*G03X30800Y140000I800J0D01*G01*
G75*G03X29200Y140000I-800J0D01*G01*
Y130000D02*G75*G03X30800Y130000I800J0D01*G01*
G75*G03X29200Y130000I-800J0D01*G01*
Y120000D02*G75*G03X30800Y120000I800J0D01*G01*
G75*G03X29200Y120000I-800J0D01*G01*
Y110000D02*G75*G03X30800Y110000I800J0D01*G01*
G75*G03X29200Y110000I-800J0D01*G01*
Y100000D02*G75*G03X30800Y100000I800J0D01*G01*
G75*G03X29200Y100000I-800J0D01*G01*
X219200Y30000D02*G75*G03X220800Y30000I800J0D01*G01*
G75*G03X219200Y30000I-800J0D01*G01*
Y40000D02*G75*G03X220800Y40000I800J0D01*G01*
G75*G03X219200Y40000I-800J0D01*G01*
Y50000D02*G75*G03X220800Y50000I800J0D01*G01*
G75*G03X219200Y50000I-800J0D01*G01*
Y60000D02*G75*G03X220800Y60000I800J0D01*G01*
G75*G03X219200Y60000I-800J0D01*G01*
Y70000D02*G75*G03X220800Y70000I800J0D01*G01*
G75*G03X219200Y70000I-800J0D01*G01*
Y80000D02*G75*G03X220800Y80000I800J0D01*G01*
G75*G03X219200Y80000I-800J0D01*G01*
Y90000D02*G75*G03X220800Y90000I800J0D01*G01*
G75*G03X219200Y90000I-800J0D01*G01*
Y100000D02*G75*G03X220800Y100000I800J0D01*G01*
G75*G03X219200Y100000I-800J0D01*G01*
X124987Y272835D02*G75*G03X126587Y272835I800J0D01*G01*
G75*G03X124987Y272835I-800J0D01*G01*
X114987Y271835D02*G75*G03X116587Y271835I800J0D01*G01*
G75*G03X114987Y271835I-800J0D01*G01*
X104987Y272835D02*G75*G03X106587Y272835I800J0D01*G01*
G75*G03X104987Y272835I-800J0D01*G01*
X94987Y271835D02*G75*G03X96587Y271835I800J0D01*G01*
G75*G03X94987Y271835I-800J0D01*G01*
X84987Y272835D02*G75*G03X86587Y272835I800J0D01*G01*
G75*G03X84987Y272835I-800J0D01*G01*
X74987Y271835D02*G75*G03X76587Y271835I800J0D01*G01*
G75*G03X74987Y271835I-800J0D01*G01*
X219200Y116000D02*G75*G03X220800Y116000I800J0D01*G01*
G75*G03X219200Y116000I-800J0D01*G01*
Y126000D02*G75*G03X220800Y126000I800J0D01*G01*
G75*G03X219200Y126000I-800J0D01*G01*
Y136000D02*G75*G03X220800Y136000I800J0D01*G01*
G75*G03X219200Y136000I-800J0D01*G01*
Y146000D02*G75*G03X220800Y146000I800J0D01*G01*
G75*G03X219200Y146000I-800J0D01*G01*
Y156000D02*G75*G03X220800Y156000I800J0D01*G01*
G75*G03X219200Y156000I-800J0D01*G01*
Y166000D02*G75*G03X220800Y166000I800J0D01*G01*
G75*G03X219200Y166000I-800J0D01*G01*
Y176000D02*G75*G03X220800Y176000I800J0D01*G01*
G75*G03X219200Y176000I-800J0D01*G01*
Y186000D02*G75*G03X220800Y186000I800J0D01*G01*
G75*G03X219200Y186000I-800J0D01*G01*
Y196000D02*G75*G03X220800Y196000I800J0D01*G01*
G75*G03X219200Y196000I-800J0D01*G01*
Y206000D02*G75*G03X220800Y206000I800J0D01*G01*
G75*G03X219200Y206000I-800J0D01*G01*
X178940Y39886D02*G75*G03X180540Y39886I800J0D01*G01*
G75*G03X178940Y39886I-800J0D01*G01*
X14200Y356250D02*G75*G03X15800Y356250I800J0D01*G01*
G75*G03X14200Y356250I-800J0D01*G01*
X135000Y358500D02*X136500Y355500D01*
X138000Y358500D01*
X136500Y355500D02*Y352500D01*
X139800Y355800D02*X142050D01*
X139800Y352500D02*X142800D01*
X139800Y358500D02*Y352500D01*
Y358500D02*X142800D01*
X147600D02*X148350Y357750D01*
X145350Y358500D02*X147600D01*
X144600Y357750D02*X145350Y358500D01*
X144600Y357750D02*Y356250D01*
X145350Y355500D01*
X147600D01*
X148350Y354750D01*
Y353250D01*
X147600Y352500D02*X148350Y353250D01*
X145350Y352500D02*X147600D01*
X144600Y353250D02*X145350Y352500D01*
X98000Y354750D02*X101000Y358500D01*
X98000Y354750D02*X101750D01*
X101000Y358500D02*Y352500D01*
X103550Y358500D02*X106550D01*
X103550D02*Y355500D01*
X104300Y356250D01*
X105800D01*
X106550Y355500D01*
Y353250D01*
X105800Y352500D02*X106550Y353250D01*
X104300Y352500D02*X105800D01*
X103550Y353250D02*X104300Y352500D01*
X45000Y353250D02*X45750Y352500D01*
X45000Y357750D02*Y353250D01*
Y357750D02*X45750Y358500D01*
X47250D01*
X48000Y357750D01*
Y353250D01*
X47250Y352500D02*X48000Y353250D01*
X45750Y352500D02*X47250D01*
X45000Y354000D02*X48000Y357000D01*
X49800Y352500D02*X50550D01*
X52350Y353250D02*X53100Y352500D01*
X52350Y357750D02*Y353250D01*
Y357750D02*X53100Y358500D01*
X54600D01*
X55350Y357750D01*
Y353250D01*
X54600Y352500D02*X55350Y353250D01*
X53100Y352500D02*X54600D01*
X52350Y354000D02*X55350Y357000D01*
X57150Y357750D02*X57900Y358500D01*
X59400D01*
X60150Y357750D01*
X59400Y352500D02*X60150Y353250D01*
X57900Y352500D02*X59400D01*
X57150Y353250D02*X57900Y352500D01*
Y355800D02*X59400D01*
X60150Y357750D02*Y356550D01*
Y355050D02*Y353250D01*
Y355050D02*X59400Y355800D01*
X60150Y356550D02*X59400Y355800D01*
X62700Y352500D02*X64950Y355500D01*
Y357750D02*Y355500D01*
X64200Y358500D02*X64950Y357750D01*
X62700Y358500D02*X64200D01*
X61950Y357750D02*X62700Y358500D01*
X61950Y357750D02*Y356250D01*
X62700Y355500D01*
X64950D01*
X150139Y260511D02*X152539Y258111D01*
X150139D02*X152539Y260511D01*
X167461D02*X169861Y258111D01*
X167461D02*X169861Y260511D01*
X13800Y372450D02*X16200Y370050D01*
X13800D02*X16200Y372450D01*
X135000Y373500D02*X136500Y370500D01*
X138000Y373500D01*
X136500Y370500D02*Y367500D01*
X139800Y370800D02*X142050D01*
X139800Y367500D02*X142800D01*
X139800Y373500D02*Y367500D01*
Y373500D02*X142800D01*
X147600D02*X148350Y372750D01*
X145350Y373500D02*X147600D01*
X144600Y372750D02*X145350Y373500D01*
X144600Y372750D02*Y371250D01*
X145350Y370500D01*
X147600D01*
X148350Y369750D01*
Y368250D01*
X147600Y367500D02*X148350Y368250D01*
X145350Y367500D02*X147600D01*
X144600Y368250D02*X145350Y367500D01*
X98000Y372750D02*X98750Y373500D01*
X101000D01*
X101750Y372750D01*
Y371250D01*
X98000Y367500D02*X101750Y371250D01*
X98000Y367500D02*X101750D01*
X45000Y368250D02*X45750Y367500D01*
X45000Y372750D02*Y368250D01*
Y372750D02*X45750Y373500D01*
X47250D01*
X48000Y372750D01*
Y368250D01*
X47250Y367500D02*X48000Y368250D01*
X45750Y367500D02*X47250D01*
X45000Y369000D02*X48000Y372000D01*
X49800Y367500D02*X50550D01*
X52350Y368250D02*X53100Y367500D01*
X52350Y372750D02*Y368250D01*
Y372750D02*X53100Y373500D01*
X54600D01*
X55350Y372750D01*
Y368250D01*
X54600Y367500D02*X55350Y368250D01*
X53100Y367500D02*X54600D01*
X52350Y369000D02*X55350Y372000D01*
X57150Y372750D02*X57900Y373500D01*
X59400D01*
X60150Y372750D01*
X59400Y367500D02*X60150Y368250D01*
X57900Y367500D02*X59400D01*
X57150Y368250D02*X57900Y367500D01*
Y370800D02*X59400D01*
X60150Y372750D02*Y371550D01*
Y370050D02*Y368250D01*
Y370050D02*X59400Y370800D01*
X60150Y371550D02*X59400Y370800D01*
X61950Y373500D02*X64950D01*
X61950D02*Y370500D01*
X62700Y371250D01*
X64200D01*
X64950Y370500D01*
Y368250D01*
X64200Y367500D02*X64950Y368250D01*
X62700Y367500D02*X64200D01*
X61950Y368250D02*X62700Y367500D01*
X158661Y260261D02*Y257061D01*
X157061Y258661D02*X160261D01*
X163189Y260261D02*Y257061D01*
X161589Y258661D02*X164789D01*
X92717Y138214D02*Y135014D01*
X91117Y136614D02*X94317D01*
X85827Y92939D02*Y89739D01*
X84227Y91339D02*X87427D01*
X111614Y105734D02*Y102534D01*
X110014Y104134D02*X113214D01*
X200591Y104159D02*Y100959D01*
X198991Y102559D02*X202191D01*
X144488Y108687D02*Y105487D01*
X142888Y107087D02*X146088D01*
X141732Y109868D02*Y106668D01*
X140132Y108268D02*X143332D01*
X137205Y111049D02*Y107849D01*
X135605Y109449D02*X138805D01*
X49213Y73057D02*Y69857D01*
X47613Y71457D02*X50813D01*
X49213Y65183D02*Y61983D01*
X47613Y63583D02*X50813D01*
X118504Y136443D02*Y133243D01*
X116904Y134843D02*X120104D01*
X121654Y136443D02*Y133243D01*
X120054Y134843D02*X123254D01*
X69882Y119120D02*Y115920D01*
X68282Y117520D02*X71482D01*
X193898Y274435D02*Y271235D01*
X192298Y272835D02*X195498D01*
X60236Y123254D02*Y120054D01*
X58636Y121654D02*X61836D01*
X142717Y260261D02*Y257061D01*
X141117Y258661D02*X144317D01*
X177362Y260261D02*Y257061D01*
X175762Y258661D02*X178962D01*
X66535Y156915D02*Y153715D01*
X64935Y155315D02*X68135D01*
X64567Y126994D02*Y123794D01*
X62967Y125394D02*X66167D01*
X83858Y148254D02*Y145054D01*
X82258Y146654D02*X85458D01*
X66535Y145104D02*Y141904D01*
X64935Y143504D02*X68135D01*
X86220Y63214D02*Y60014D01*
X84620Y61614D02*X87820D01*
X173622Y143332D02*Y140132D01*
X172022Y141732D02*X175222D01*
X170669Y140773D02*Y137573D01*
X169069Y139173D02*X172269D01*
X74803Y178313D02*Y175113D01*
X73203Y176713D02*X76403D01*
X74803Y181265D02*Y178065D01*
X73203Y179665D02*X76403D01*
X74803Y175360D02*Y172160D01*
X73203Y173760D02*X76403D01*
X71850Y178313D02*Y175113D01*
X70250Y176713D02*X73450D01*
X71850Y181265D02*Y178065D01*
X70250Y179665D02*X73450D01*
X71850Y175360D02*Y172160D01*
X70250Y173760D02*X73450D01*
X166929Y178175D02*Y174975D01*
X165329Y176575D02*X168529D01*
X35630Y180340D02*Y177140D01*
X34030Y178740D02*X37230D01*
X134843Y175419D02*Y172219D01*
X133243Y173819D02*X136443D01*
X134843Y172466D02*Y169266D01*
X133243Y170866D02*X136443D01*
X76575Y98254D02*Y95054D01*
X74975Y96654D02*X78175D01*
X70079Y103372D02*Y100172D01*
X68479Y101772D02*X71679D01*
X102362Y144513D02*Y141313D01*
X100762Y142913D02*X103962D01*
X74606Y211580D02*Y208380D01*
X73006Y209980D02*X76206D01*
X74606Y215517D02*Y212317D01*
X73006Y213917D02*X76206D01*
X74606Y219454D02*Y216254D01*
X73006Y217854D02*X76206D01*
X78543Y219454D02*Y216254D01*
X76943Y217854D02*X80143D01*
X82480Y219454D02*Y216254D01*
X80880Y217854D02*X84080D01*
X86417Y219454D02*Y216254D01*
X84817Y217854D02*X88017D01*
X90354Y219454D02*Y216254D01*
X88754Y217854D02*X91954D01*
X90354Y215517D02*Y212317D01*
X88754Y213917D02*X91954D01*
X90354Y211580D02*Y208380D01*
X88754Y209980D02*X91954D01*
X90354Y207643D02*Y204443D01*
X88754Y206043D02*X91954D01*
X86417Y207643D02*Y204443D01*
X84817Y206043D02*X88017D01*
X82480Y207643D02*Y204443D01*
X80880Y206043D02*X84080D01*
X78543Y207643D02*Y204443D01*
X76943Y206043D02*X80143D01*
X74606Y207643D02*Y204443D01*
X73006Y206043D02*X76206D01*
X82480Y223391D02*Y220191D01*
X80880Y221791D02*X84080D01*
X86417Y223391D02*Y220191D01*
X84817Y221791D02*X88017D01*
X90354Y223391D02*Y220191D01*
X88754Y221791D02*X91954D01*
X94291Y223391D02*Y220191D01*
X92691Y221791D02*X95891D01*
X98228Y223391D02*Y220191D01*
X96628Y221791D02*X99828D01*
X98228Y219454D02*Y216254D01*
X96628Y217854D02*X99828D01*
X98228Y215517D02*Y212317D01*
X96628Y213917D02*X99828D01*
X98228Y211580D02*Y208380D01*
X96628Y209980D02*X99828D01*
X98228Y207643D02*Y204443D01*
X96628Y206043D02*X99828D01*
X98228Y203706D02*Y200506D01*
X96628Y202106D02*X99828D01*
X94291Y203706D02*Y200506D01*
X92691Y202106D02*X95891D01*
X90354Y203706D02*Y200506D01*
X88754Y202106D02*X91954D01*
X86417Y203706D02*Y200506D01*
X84817Y202106D02*X88017D01*
X82480Y203706D02*Y200506D01*
X80880Y202106D02*X84080D01*
X78543Y203706D02*Y200506D01*
X76943Y202106D02*X80143D01*
X74606Y203706D02*Y200506D01*
X73006Y202106D02*X76206D01*
X70669Y203706D02*Y200506D01*
X69069Y202106D02*X72269D01*
X66732Y203706D02*Y200506D01*
X65132Y202106D02*X68332D01*
X78543Y223391D02*Y220191D01*
X76943Y221791D02*X80143D01*
X74606Y223391D02*Y220191D01*
X73006Y221791D02*X76206D01*
X70669Y223391D02*Y220191D01*
X69069Y221791D02*X72269D01*
X66732Y223391D02*Y220191D01*
X65132Y221791D02*X68332D01*
X66732Y219454D02*Y216254D01*
X65132Y217854D02*X68332D01*
X66732Y215517D02*Y212317D01*
X65132Y213917D02*X68332D01*
X66732Y211580D02*Y208380D01*
X65132Y209980D02*X68332D01*
X66732Y207643D02*Y204443D01*
X65132Y206043D02*X68332D01*
X139961Y112230D02*Y109030D01*
X138361Y110630D02*X141561D01*
X15000Y387850D02*Y384650D01*
X13400Y386250D02*X16600D01*
X135000Y388500D02*X136500Y385500D01*
X138000Y388500D01*
X136500Y385500D02*Y382500D01*
X139800Y385800D02*X142050D01*
X139800Y382500D02*X142800D01*
X139800Y388500D02*Y382500D01*
Y388500D02*X142800D01*
X147600D02*X148350Y387750D01*
X145350Y388500D02*X147600D01*
X144600Y387750D02*X145350Y388500D01*
X144600Y387750D02*Y386250D01*
X145350Y385500D01*
X147600D01*
X148350Y384750D01*
Y383250D01*
X147600Y382500D02*X148350Y383250D01*
X145350Y382500D02*X147600D01*
X144600Y383250D02*X145350Y382500D01*
X98750D02*X101750Y388500D01*
X98000D02*X101750D01*
X104300Y382500D02*X106550Y385500D01*
Y387750D02*Y385500D01*
X105800Y388500D02*X106550Y387750D01*
X104300Y388500D02*X105800D01*
X103550Y387750D02*X104300Y388500D01*
X103550Y387750D02*Y386250D01*
X104300Y385500D01*
X106550D01*
X45000Y383250D02*X45750Y382500D01*
X45000Y387750D02*Y383250D01*
Y387750D02*X45750Y388500D01*
X47250D01*
X48000Y387750D01*
Y383250D01*
X47250Y382500D02*X48000Y383250D01*
X45750Y382500D02*X47250D01*
X45000Y384000D02*X48000Y387000D01*
X49800Y382500D02*X50550D01*
X52350Y383250D02*X53100Y382500D01*
X52350Y387750D02*Y383250D01*
Y387750D02*X53100Y388500D01*
X54600D01*
X55350Y387750D01*
Y383250D01*
X54600Y382500D02*X55350Y383250D01*
X53100Y382500D02*X54600D01*
X52350Y384000D02*X55350Y387000D01*
X57150Y387300D02*X58350Y388500D01*
Y382500D01*
X57150D02*X59400D01*
X61200Y387750D02*X61950Y388500D01*
X64200D01*
X64950Y387750D01*
Y386250D01*
X61200Y382500D02*X64950Y386250D01*
X61200Y382500D02*X64950D01*
X35630Y181693D02*Y180093D01*
Y181693D02*X37017Y182493D01*
X35630Y181693D02*X34243Y182493D01*
X92717Y139567D02*Y137967D01*
Y139567D02*X94103Y140367D01*
X92717Y139567D02*X91330Y140367D01*
X108858Y99803D02*Y98203D01*
Y99803D02*X110245Y100603D01*
X108858Y99803D02*X107472Y100603D01*
X108465Y81299D02*Y79699D01*
Y81299D02*X109851Y82099D01*
X108465Y81299D02*X107078Y82099D01*
X111417Y81299D02*Y79699D01*
Y81299D02*X112804Y82099D01*
X111417Y81299D02*X110031Y82099D01*
X112992Y83858D02*Y82258D01*
Y83858D02*X114379Y84658D01*
X112992Y83858D02*X111605Y84658D01*
X85630Y80906D02*Y79306D01*
Y80906D02*X87017Y81706D01*
X85630Y80906D02*X84243Y81706D01*
X113583Y220472D02*Y218872D01*
Y220472D02*X114969Y221272D01*
X113583Y220472D02*X112196Y221272D01*
X99606Y182480D02*Y180880D01*
Y182480D02*X100993Y183280D01*
X99606Y182480D02*X98220Y183280D01*
X90531Y114469D02*Y112869D01*
Y114469D02*X91918Y115269D01*
X90531Y114469D02*X89145Y115269D01*
X86594Y118406D02*Y116806D01*
Y118406D02*X87981Y119206D01*
X86594Y118406D02*X85208Y119206D01*
X94469Y110531D02*Y108931D01*
Y110531D02*X95855Y111331D01*
X94469Y110531D02*X93082Y111331D01*
X98406Y106594D02*Y104994D01*
Y106594D02*X99792Y107394D01*
X98406Y106594D02*X97019Y107394D01*
X100374Y112500D02*Y110900D01*
Y112500D02*X101761Y113300D01*
X100374Y112500D02*X98987Y113300D01*
X96437Y116437D02*Y114837D01*
Y116437D02*X97824Y117237D01*
X96437Y116437D02*X95050Y117237D01*
X92500Y120374D02*Y118774D01*
Y120374D02*X93887Y121174D01*
X92500Y120374D02*X91113Y121174D01*
X84626Y112500D02*Y110900D01*
Y112500D02*X86013Y113300D01*
X84626Y112500D02*X83239Y113300D01*
X88563Y108563D02*Y106963D01*
Y108563D02*X89950Y109363D01*
X88563Y108563D02*X87176Y109363D01*
X92500Y104626D02*Y103026D01*
Y104626D02*X93887Y105426D01*
X92500Y104626D02*X91113Y105426D01*
X117913Y209980D02*Y208380D01*
Y209980D02*X119300Y210780D01*
X117913Y209980D02*X116527Y210780D01*
X117913Y213917D02*Y212317D01*
Y213917D02*X119300Y214717D01*
X117913Y213917D02*X116527Y214717D01*
X117913Y217854D02*Y216254D01*
Y217854D02*X119300Y218654D01*
X117913Y217854D02*X116527Y218654D01*
X121850Y217854D02*Y216254D01*
Y217854D02*X123237Y218654D01*
X121850Y217854D02*X120464Y218654D01*
X125787Y217854D02*Y216254D01*
Y217854D02*X127174Y218654D01*
X125787Y217854D02*X124401Y218654D01*
X129724Y217854D02*Y216254D01*
Y217854D02*X131111Y218654D01*
X129724Y217854D02*X128338Y218654D01*
X133661Y217854D02*Y216254D01*
Y217854D02*X135048Y218654D01*
X133661Y217854D02*X132275Y218654D01*
X133661Y213917D02*Y212317D01*
Y213917D02*X135048Y214717D01*
X133661Y213917D02*X132275Y214717D01*
X133661Y209980D02*Y208380D01*
Y209980D02*X135048Y210780D01*
X133661Y209980D02*X132275Y210780D01*
X133661Y206043D02*Y204443D01*
Y206043D02*X135048Y206843D01*
X133661Y206043D02*X132275Y206843D01*
X129724Y206043D02*Y204443D01*
Y206043D02*X131111Y206843D01*
X129724Y206043D02*X128338Y206843D01*
X125787Y206043D02*Y204443D01*
Y206043D02*X127174Y206843D01*
X125787Y206043D02*X124401Y206843D01*
X121850Y206043D02*Y204443D01*
Y206043D02*X123237Y206843D01*
X121850Y206043D02*X120464Y206843D01*
X117913Y206043D02*Y204443D01*
Y206043D02*X119300Y206843D01*
X117913Y206043D02*X116527Y206843D01*
X139764Y231496D02*Y229896D01*
Y231496D02*X141150Y232296D01*
X139764Y231496D02*X138377Y232296D01*
X116142Y227756D02*Y226156D01*
Y227756D02*X117528Y228556D01*
X116142Y227756D02*X114755Y228556D01*
X144094Y226969D02*Y225369D01*
Y226969D02*X145481Y227769D01*
X144094Y226969D02*X142708Y227769D01*
X148622Y234449D02*Y232849D01*
Y234449D02*X150009Y235249D01*
X148622Y234449D02*X147235Y235249D01*
X83071Y133858D02*Y132258D01*
Y133858D02*X84458Y134658D01*
X83071Y133858D02*X81684Y134658D01*
X80315Y150591D02*Y148991D01*
Y150591D02*X81702Y151391D01*
X80315Y150591D02*X78928Y151391D01*
X71740Y127886D02*Y126286D01*
Y127886D02*X73127Y128686D01*
X71740Y127886D02*X70353Y128686D01*
X15000Y401250D02*Y399650D01*
Y401250D02*X16387Y402050D01*
X15000Y401250D02*X13613Y402050D01*
X135000Y403500D02*X136500Y400500D01*
X138000Y403500D01*
X136500Y400500D02*Y397500D01*
X139800Y400800D02*X142050D01*
X139800Y397500D02*X142800D01*
X139800Y403500D02*Y397500D01*
Y403500D02*X142800D01*
X147600D02*X148350Y402750D01*
X145350Y403500D02*X147600D01*
X144600Y402750D02*X145350Y403500D01*
X144600Y402750D02*Y401250D01*
X145350Y400500D01*
X147600D01*
X148350Y399750D01*
Y398250D01*
X147600Y397500D02*X148350Y398250D01*
X145350Y397500D02*X147600D01*
X144600Y398250D02*X145350Y397500D01*
X98000Y399750D02*X101000Y403500D01*
X98000Y399750D02*X101750D01*
X101000Y403500D02*Y397500D01*
X103550Y398250D02*X104300Y397500D01*
X103550Y402750D02*Y398250D01*
Y402750D02*X104300Y403500D01*
X105800D01*
X106550Y402750D01*
Y398250D01*
X105800Y397500D02*X106550Y398250D01*
X104300Y397500D02*X105800D01*
X103550Y399000D02*X106550Y402000D01*
X45000Y398250D02*X45750Y397500D01*
X45000Y402750D02*Y398250D01*
Y402750D02*X45750Y403500D01*
X47250D01*
X48000Y402750D01*
Y398250D01*
X47250Y397500D02*X48000Y398250D01*
X45750Y397500D02*X47250D01*
X45000Y399000D02*X48000Y402000D01*
X49800Y397500D02*X50550D01*
X52350Y398250D02*X53100Y397500D01*
X52350Y402750D02*Y398250D01*
Y402750D02*X53100Y403500D01*
X54600D01*
X55350Y402750D01*
Y398250D01*
X54600Y397500D02*X55350Y398250D01*
X53100Y397500D02*X54600D01*
X52350Y399000D02*X55350Y402000D01*
X57150Y402300D02*X58350Y403500D01*
Y397500D01*
X57150D02*X59400D01*
X61200Y402750D02*X61950Y403500D01*
X64200D01*
X64950Y402750D01*
Y401250D01*
X61200Y397500D02*X64950Y401250D01*
X61200Y397500D02*X64950D01*
X3000Y418500D02*X3750Y417750D01*
X750Y418500D02*X3000D01*
X0Y417750D02*X750Y418500D01*
X0Y417750D02*Y416250D01*
X750Y415500D01*
X3000D01*
X3750Y414750D01*
Y413250D01*
X3000Y412500D02*X3750Y413250D01*
X750Y412500D02*X3000D01*
X0Y413250D02*X750Y412500D01*
X5550Y415500D02*Y413250D01*
X6300Y412500D01*
X8550Y415500D02*Y411000D01*
X7800Y410250D02*X8550Y411000D01*
X6300Y410250D02*X7800D01*
X5550Y411000D02*X6300Y410250D01*
Y412500D02*X7800D01*
X8550Y413250D01*
X11100Y414750D02*Y412500D01*
Y414750D02*X11850Y415500D01*
X12600D01*
X13350Y414750D01*
Y412500D01*
Y414750D02*X14100Y415500D01*
X14850D01*
X15600Y414750D01*
Y412500D01*
X10350Y415500D02*X11100Y414750D01*
X17400Y418500D02*Y412500D01*
Y413250D02*X18150Y412500D01*
X19650D01*
X20400Y413250D01*
Y414750D02*Y413250D01*
X19650Y415500D02*X20400Y414750D01*
X18150Y415500D02*X19650D01*
X17400Y414750D02*X18150Y415500D01*
X22200Y414750D02*Y413250D01*
Y414750D02*X22950Y415500D01*
X24450D01*
X25200Y414750D01*
Y413250D01*
X24450Y412500D02*X25200Y413250D01*
X22950Y412500D02*X24450D01*
X22200Y413250D02*X22950Y412500D01*
X27000Y418500D02*Y413250D01*
X27750Y412500D01*
X0Y409250D02*X29250D01*
X41750Y418500D02*Y412500D01*
X43700Y418500D02*X44750Y417450D01*
Y413550D01*
X43700Y412500D02*X44750Y413550D01*
X41000Y412500D02*X43700D01*
X41000Y418500D02*X43700D01*
G54D96*X46550Y417000D02*Y416850D01*
G54D95*Y414750D02*Y412500D01*
X50300Y415500D02*X51050Y414750D01*
X48800Y415500D02*X50300D01*
X48050Y414750D02*X48800Y415500D01*
X48050Y414750D02*Y413250D01*
X48800Y412500D01*
X51050Y415500D02*Y413250D01*
X51800Y412500D01*
X48800D02*X50300D01*
X51050Y413250D01*
X54350Y414750D02*Y412500D01*
Y414750D02*X55100Y415500D01*
X55850D01*
X56600Y414750D01*
Y412500D01*
Y414750D02*X57350Y415500D01*
X58100D01*
X58850Y414750D01*
Y412500D01*
X53600Y415500D02*X54350Y414750D01*
X60650Y412500D02*X61400D01*
X65900Y413250D02*X66650Y412500D01*
X65900Y417750D02*X66650Y418500D01*
X65900Y417750D02*Y413250D01*
X68450Y418500D02*X69950D01*
X69200D02*Y412500D01*
X68450D02*X69950D01*
X72500Y414750D02*Y412500D01*
Y414750D02*X73250Y415500D01*
X74000D01*
X74750Y414750D01*
Y412500D01*
X71750Y415500D02*X72500Y414750D01*
X77300Y415500D02*X79550D01*
X76550Y414750D02*X77300Y415500D01*
X76550Y414750D02*Y413250D01*
X77300Y412500D01*
X79550D01*
X81350Y418500D02*Y412500D01*
Y414750D02*X82100Y415500D01*
X83600D01*
X84350Y414750D01*
Y412500D01*
X86150Y418500D02*X86900Y417750D01*
Y413250D01*
X86150Y412500D02*X86900Y413250D01*
X41000Y409250D02*X88700D01*
X96050Y412500D02*X98000D01*
X95000Y413550D02*X96050Y412500D01*
X95000Y417450D02*Y413550D01*
Y417450D02*X96050Y418500D01*
X98000D01*
X99800Y414750D02*Y413250D01*
Y414750D02*X100550Y415500D01*
X102050D01*
X102800Y414750D01*
Y413250D01*
X102050Y412500D02*X102800Y413250D01*
X100550Y412500D02*X102050D01*
X99800Y413250D02*X100550Y412500D01*
X104600Y415500D02*Y413250D01*
X105350Y412500D01*
X106850D01*
X107600Y413250D01*
Y415500D02*Y413250D01*
X110150Y414750D02*Y412500D01*
Y414750D02*X110900Y415500D01*
X111650D01*
X112400Y414750D01*
Y412500D01*
X109400Y415500D02*X110150Y414750D01*
X114950Y418500D02*Y413250D01*
X115700Y412500D01*
X114200Y416250D02*X115700D01*
X95000Y409250D02*X117200D01*
X130750Y418500D02*Y412500D01*
X130000Y418500D02*X133000D01*
X133750Y417750D01*
Y416250D01*
X133000Y415500D02*X133750Y416250D01*
X130750Y415500D02*X133000D01*
X135550Y418500D02*Y413250D01*
X136300Y412500D01*
X140050Y415500D02*X140800Y414750D01*
X138550Y415500D02*X140050D01*
X137800Y414750D02*X138550Y415500D01*
X137800Y414750D02*Y413250D01*
X138550Y412500D01*
X140800Y415500D02*Y413250D01*
X141550Y412500D01*
X138550D02*X140050D01*
X140800Y413250D01*
X144100Y418500D02*Y413250D01*
X144850Y412500D01*
X143350Y416250D02*X144850D01*
X147100Y412500D02*X149350D01*
X146350Y413250D02*X147100Y412500D01*
X146350Y414750D02*Y413250D01*
Y414750D02*X147100Y415500D01*
X148600D01*
X149350Y414750D01*
X146350Y414000D02*X149350D01*
Y414750D02*Y414000D01*
X154150Y418500D02*Y412500D01*
X153400D02*X154150Y413250D01*
X151900Y412500D02*X153400D01*
X151150Y413250D02*X151900Y412500D01*
X151150Y414750D02*Y413250D01*
Y414750D02*X151900Y415500D01*
X153400D01*
X154150Y414750D01*
X157450Y415500D02*Y414750D01*
Y413250D02*Y412500D01*
X155950Y417750D02*Y417000D01*
Y417750D02*X156700Y418500D01*
X158200D01*
X158950Y417750D01*
Y417000D01*
X157450Y415500D02*X158950Y417000D01*
X130000Y409250D02*X160750D01*
X0Y433500D02*X3000D01*
X1500D02*Y427500D01*
X4800Y433500D02*Y427500D01*
Y429750D02*X5550Y430500D01*
X7050D01*
X7800Y429750D01*
Y427500D01*
X10350D02*X12600D01*
X9600Y428250D02*X10350Y427500D01*
X9600Y429750D02*Y428250D01*
Y429750D02*X10350Y430500D01*
X11850D01*
X12600Y429750D01*
X9600Y429000D02*X12600D01*
Y429750D02*Y429000D01*
X15150Y429750D02*Y427500D01*
Y429750D02*X15900Y430500D01*
X17400D01*
X14400D02*X15150Y429750D01*
X19950Y427500D02*X22200D01*
X19200Y428250D02*X19950Y427500D01*
X19200Y429750D02*Y428250D01*
Y429750D02*X19950Y430500D01*
X21450D01*
X22200Y429750D01*
X19200Y429000D02*X22200D01*
Y429750D02*Y429000D01*
X28950Y430500D02*X29700Y429750D01*
X27450Y430500D02*X28950D01*
X26700Y429750D02*X27450Y430500D01*
X26700Y429750D02*Y428250D01*
X27450Y427500D01*
X29700Y430500D02*Y428250D01*
X30450Y427500D01*
X27450D02*X28950D01*
X29700Y428250D01*
X33000Y429750D02*Y427500D01*
Y429750D02*X33750Y430500D01*
X35250D01*
X32250D02*X33000Y429750D01*
X37800Y427500D02*X40050D01*
X37050Y428250D02*X37800Y427500D01*
X37050Y429750D02*Y428250D01*
Y429750D02*X37800Y430500D01*
X39300D01*
X40050Y429750D01*
X37050Y429000D02*X40050D01*
Y429750D02*Y429000D01*
X45300Y427500D02*X48300Y433500D01*
X44550D02*X48300D01*
X55800D02*Y427500D01*
X55050D02*X55800Y428250D01*
X53550Y427500D02*X55050D01*
X52800Y428250D02*X53550Y427500D01*
X52800Y429750D02*Y428250D01*
Y429750D02*X53550Y430500D01*
X55050D01*
X55800Y429750D01*
G54D96*X57600Y432000D02*Y431850D01*
G54D95*Y429750D02*Y427500D01*
X59850Y432750D02*Y427500D01*
Y432750D02*X60600Y433500D01*
X61350D01*
X59100Y430500D02*X60600D01*
X63600Y432750D02*Y427500D01*
Y432750D02*X64350Y433500D01*
X65100D01*
X62850Y430500D02*X64350D01*
X67350Y427500D02*X69600D01*
X66600Y428250D02*X67350Y427500D01*
X66600Y429750D02*Y428250D01*
Y429750D02*X67350Y430500D01*
X68850D01*
X69600Y429750D01*
X66600Y429000D02*X69600D01*
Y429750D02*Y429000D01*
X72150Y429750D02*Y427500D01*
Y429750D02*X72900Y430500D01*
X74400D01*
X71400D02*X72150Y429750D01*
X76950Y427500D02*X79200D01*
X76200Y428250D02*X76950Y427500D01*
X76200Y429750D02*Y428250D01*
Y429750D02*X76950Y430500D01*
X78450D01*
X79200Y429750D01*
X76200Y429000D02*X79200D01*
Y429750D02*Y429000D01*
X81750Y429750D02*Y427500D01*
Y429750D02*X82500Y430500D01*
X83250D01*
X84000Y429750D01*
Y427500D01*
X81000Y430500D02*X81750Y429750D01*
X86550Y433500D02*Y428250D01*
X87300Y427500D01*
X85800Y431250D02*X87300D01*
X94500Y433500D02*Y427500D01*
X93750D02*X94500Y428250D01*
X92250Y427500D02*X93750D01*
X91500Y428250D02*X92250Y427500D01*
X91500Y429750D02*Y428250D01*
Y429750D02*X92250Y430500D01*
X93750D01*
X94500Y429750D01*
X97050D02*Y427500D01*
Y429750D02*X97800Y430500D01*
X99300D01*
X96300D02*X97050Y429750D01*
G54D96*X101100Y432000D02*Y431850D01*
G54D95*Y429750D02*Y427500D01*
X102600Y433500D02*Y428250D01*
X103350Y427500D01*
X104850Y433500D02*Y428250D01*
X105600Y427500D01*
X110550D02*X112800D01*
X113550Y428250D01*
X112800Y429000D02*X113550Y428250D01*
X110550Y429000D02*X112800D01*
X109800Y429750D02*X110550Y429000D01*
X109800Y429750D02*X110550Y430500D01*
X112800D01*
X113550Y429750D01*
X109800Y428250D02*X110550Y427500D01*
G54D96*X115350Y432000D02*Y431850D01*
G54D95*Y429750D02*Y427500D01*
X116850Y430500D02*X119850D01*
X116850Y427500D02*X119850Y430500D01*
X116850Y427500D02*X119850D01*
X122400D02*X124650D01*
X121650Y428250D02*X122400Y427500D01*
X121650Y429750D02*Y428250D01*
Y429750D02*X122400Y430500D01*
X123900D01*
X124650Y429750D01*
X121650Y429000D02*X124650D01*
Y429750D02*Y429000D01*
X127200Y427500D02*X129450D01*
X130200Y428250D01*
X129450Y429000D02*X130200Y428250D01*
X127200Y429000D02*X129450D01*
X126450Y429750D02*X127200Y429000D01*
X126450Y429750D02*X127200Y430500D01*
X129450D01*
X130200Y429750D01*
X126450Y428250D02*X127200Y427500D01*
X134700Y430500D02*Y428250D01*
X135450Y427500D01*
X136950D01*
X137700Y428250D01*
Y430500D02*Y428250D01*
X140250Y427500D02*X142500D01*
X143250Y428250D01*
X142500Y429000D02*X143250Y428250D01*
X140250Y429000D02*X142500D01*
X139500Y429750D02*X140250Y429000D01*
X139500Y429750D02*X140250Y430500D01*
X142500D01*
X143250Y429750D01*
X139500Y428250D02*X140250Y427500D01*
X145800D02*X148050D01*
X145050Y428250D02*X145800Y427500D01*
X145050Y429750D02*Y428250D01*
Y429750D02*X145800Y430500D01*
X147300D01*
X148050Y429750D01*
X145050Y429000D02*X148050D01*
Y429750D02*Y429000D01*
X152850Y433500D02*Y427500D01*
X152100D02*X152850Y428250D01*
X150600Y427500D02*X152100D01*
X149850Y428250D02*X150600Y427500D01*
X149850Y429750D02*Y428250D01*
Y429750D02*X150600Y430500D01*
X152100D01*
X152850Y429750D01*
G54D96*X157350Y432000D02*Y431850D01*
G54D95*Y429750D02*Y427500D01*
X159600Y429750D02*Y427500D01*
Y429750D02*X160350Y430500D01*
X161100D01*
X161850Y429750D01*
Y427500D01*
X158850Y430500D02*X159600Y429750D01*
X167100Y433500D02*Y428250D01*
X167850Y427500D01*
X166350Y431250D02*X167850D01*
X169350Y433500D02*Y427500D01*
Y429750D02*X170100Y430500D01*
X171600D01*
X172350Y429750D01*
Y427500D01*
G54D96*X174150Y432000D02*Y431850D01*
G54D95*Y429750D02*Y427500D01*
X176400D02*X178650D01*
X179400Y428250D01*
X178650Y429000D02*X179400Y428250D01*
X176400Y429000D02*X178650D01*
X175650Y429750D02*X176400Y429000D01*
X175650Y429750D02*X176400Y430500D01*
X178650D01*
X179400Y429750D01*
X175650Y428250D02*X176400Y427500D01*
X183900Y433500D02*Y428250D01*
X184650Y427500D01*
X188400Y430500D02*X189150Y429750D01*
X186900Y430500D02*X188400D01*
X186150Y429750D02*X186900Y430500D01*
X186150Y429750D02*Y428250D01*
X186900Y427500D01*
X189150Y430500D02*Y428250D01*
X189900Y427500D01*
X186900D02*X188400D01*
X189150Y428250D01*
X191700Y430500D02*Y428250D01*
X192450Y427500D01*
X194700Y430500D02*Y426000D01*
X193950Y425250D02*X194700Y426000D01*
X192450Y425250D02*X193950D01*
X191700Y426000D02*X192450Y425250D01*
Y427500D02*X193950D01*
X194700Y428250D01*
X196500Y429750D02*Y428250D01*
Y429750D02*X197250Y430500D01*
X198750D01*
X199500Y429750D01*
Y428250D01*
X198750Y427500D02*X199500Y428250D01*
X197250Y427500D02*X198750D01*
X196500Y428250D02*X197250Y427500D01*
X201300Y430500D02*Y428250D01*
X202050Y427500D01*
X203550D01*
X204300Y428250D01*
Y430500D02*Y428250D01*
X206850Y433500D02*Y428250D01*
X207600Y427500D01*
X206100Y431250D02*X207600D01*
X209100Y426000D02*X210600Y427500D01*
X215100Y432300D02*X216300Y433500D01*
Y427500D01*
X215100D02*X217350D01*
X219900D02*X222900Y433500D01*
X219150D02*X222900D01*
X224700Y432750D02*X225450Y433500D01*
X226950D01*
X227700Y432750D01*
X226950Y427500D02*X227700Y428250D01*
X225450Y427500D02*X226950D01*
X224700Y428250D02*X225450Y427500D01*
Y430800D02*X226950D01*
X227700Y432750D02*Y431550D01*
Y430050D02*Y428250D01*
Y430050D02*X226950Y430800D01*
X227700Y431550D02*X226950Y430800D01*
X232200Y433500D02*Y427500D01*
Y429750D02*X232950Y430500D01*
X234450D01*
X235200Y429750D01*
Y427500D01*
X237000Y429750D02*Y428250D01*
Y429750D02*X237750Y430500D01*
X239250D01*
X240000Y429750D01*
Y428250D01*
X239250Y427500D02*X240000Y428250D01*
X237750Y427500D02*X239250D01*
X237000Y428250D02*X237750Y427500D01*
X241800Y433500D02*Y428250D01*
X242550Y427500D01*
X244800D02*X247050D01*
X244050Y428250D02*X244800Y427500D01*
X244050Y429750D02*Y428250D01*
Y429750D02*X244800Y430500D01*
X246300D01*
X247050Y429750D01*
X244050Y429000D02*X247050D01*
Y429750D02*Y429000D01*
X249600Y427500D02*X251850D01*
X252600Y428250D01*
X251850Y429000D02*X252600Y428250D01*
X249600Y429000D02*X251850D01*
X248850Y429750D02*X249600Y429000D01*
X248850Y429750D02*X249600Y430500D01*
X251850D01*
X252600Y429750D01*
X248850Y428250D02*X249600Y427500D01*
X257850Y433500D02*Y428250D01*
X258600Y427500D01*
X257100Y431250D02*X258600D01*
X260100Y429750D02*Y428250D01*
Y429750D02*X260850Y430500D01*
X262350D01*
X263100Y429750D01*
Y428250D01*
X262350Y427500D02*X263100Y428250D01*
X260850Y427500D02*X262350D01*
X260100Y428250D02*X260850Y427500D01*
X265650Y433500D02*Y428250D01*
X266400Y427500D01*
X264900Y431250D02*X266400D01*
X270150Y430500D02*X270900Y429750D01*
X268650Y430500D02*X270150D01*
X267900Y429750D02*X268650Y430500D01*
X267900Y429750D02*Y428250D01*
X268650Y427500D01*
X270900Y430500D02*Y428250D01*
X271650Y427500D01*
X268650D02*X270150D01*
X270900Y428250D01*
X273450Y433500D02*Y428250D01*
X274200Y427500D01*
G54D97*X25000Y280000D02*X225000D01*
X230000Y275000D02*Y25000D01*
X225000Y20000D02*X180000D01*
X170000Y10000D01*
X40000D01*
X30000Y20000D01*
X25000D01*
X20000Y25000D02*Y275000D01*
G75*G02X25000Y280000I5000J0D01*G01*
X225000D02*G75*G02X230000Y275000I0J-5000D01*G01*
X20000Y25000D02*G75*G03X25000Y20000I5000J0D01*G01*
X230000Y25000D02*G75*G02X225000Y20000I-5000J0D01*G01*
G54D95*X38675Y-9500D02*X41675D01*
X42425Y-8750D01*
Y-6950D02*Y-8750D01*
X41675Y-6200D02*X42425Y-6950D01*
X39425Y-6200D02*X41675D01*
X39425Y-3500D02*Y-9500D01*
X38675Y-3500D02*X41675D01*
X42425Y-4250D01*
Y-5450D01*
X41675Y-6200D02*X42425Y-5450D01*
X44225Y-7250D02*Y-8750D01*
Y-7250D02*X44975Y-6500D01*
X46475D01*
X47225Y-7250D01*
Y-8750D01*
X46475Y-9500D02*X47225Y-8750D01*
X44975Y-9500D02*X46475D01*
X44225Y-8750D02*X44975Y-9500D01*
X51275Y-6500D02*X52025Y-7250D01*
X49775Y-6500D02*X51275D01*
X49025Y-7250D02*X49775Y-6500D01*
X49025Y-7250D02*Y-8750D01*
X49775Y-9500D01*
X52025Y-6500D02*Y-8750D01*
X52775Y-9500D01*
X49775D02*X51275D01*
X52025Y-8750D01*
X55325Y-7250D02*Y-9500D01*
Y-7250D02*X56075Y-6500D01*
X57575D01*
X54575D02*X55325Y-7250D01*
X62375Y-3500D02*Y-9500D01*
X61625D02*X62375Y-8750D01*
X60125Y-9500D02*X61625D01*
X59375Y-8750D02*X60125Y-9500D01*
X59375Y-7250D02*Y-8750D01*
Y-7250D02*X60125Y-6500D01*
X61625D01*
X62375Y-7250D01*
X66875D02*Y-8750D01*
Y-7250D02*X67625Y-6500D01*
X69125D01*
X69875Y-7250D01*
Y-8750D01*
X69125Y-9500D02*X69875Y-8750D01*
X67625Y-9500D02*X69125D01*
X66875Y-8750D02*X67625Y-9500D01*
X71675Y-6500D02*Y-8750D01*
X72425Y-9500D01*
X73925D01*
X74675Y-8750D01*
Y-6500D02*Y-8750D01*
X77225Y-3500D02*Y-8750D01*
X77975Y-9500D01*
X76475Y-5750D02*X77975D01*
X79475Y-3500D02*Y-8750D01*
X80225Y-9500D01*
G54D96*X81725Y-5000D02*Y-5150D01*
G54D95*Y-7250D02*Y-9500D01*
X83975Y-7250D02*Y-9500D01*
Y-7250D02*X84725Y-6500D01*
X85475D01*
X86225Y-7250D01*
Y-9500D01*
X83225Y-6500D02*X83975Y-7250D01*
X88775Y-9500D02*X91025D01*
X88025Y-8750D02*X88775Y-9500D01*
X88025Y-7250D02*Y-8750D01*
Y-7250D02*X88775Y-6500D01*
X90275D01*
X91025Y-7250D01*
X88025Y-8000D02*X91025D01*
Y-7250D02*Y-8000D01*
G54D96*X95525Y-5000D02*Y-5150D01*
G54D95*Y-7250D02*Y-9500D01*
X97775D02*X100025D01*
X100775Y-8750D01*
X100025Y-8000D02*X100775Y-8750D01*
X97775Y-8000D02*X100025D01*
X97025Y-7250D02*X97775Y-8000D01*
X97025Y-7250D02*X97775Y-6500D01*
X100025D01*
X100775Y-7250D01*
X97025Y-8750D02*X97775Y-9500D01*
X106025Y-3500D02*Y-8750D01*
X106775Y-9500D01*
X105275Y-5750D02*X106775D01*
X108275Y-3500D02*Y-9500D01*
Y-7250D02*X109025Y-6500D01*
X110525D01*
X111275Y-7250D01*
Y-9500D01*
X113825D02*X116075D01*
X113075Y-8750D02*X113825Y-9500D01*
X113075Y-7250D02*Y-8750D01*
Y-7250D02*X113825Y-6500D01*
X115325D01*
X116075Y-7250D01*
X113075Y-8000D02*X116075D01*
Y-7250D02*Y-8000D01*
X121325Y-6500D02*X123575D01*
X120575Y-7250D02*X121325Y-6500D01*
X120575Y-7250D02*Y-8750D01*
X121325Y-9500D01*
X123575D01*
X126125D02*X128375D01*
X125375Y-8750D02*X126125Y-9500D01*
X125375Y-7250D02*Y-8750D01*
Y-7250D02*X126125Y-6500D01*
X127625D01*
X128375Y-7250D01*
X125375Y-8000D02*X128375D01*
Y-7250D02*Y-8000D01*
X130925Y-7250D02*Y-9500D01*
Y-7250D02*X131675Y-6500D01*
X132425D01*
X133175Y-7250D01*
Y-9500D01*
X130175Y-6500D02*X130925Y-7250D01*
X135725Y-3500D02*Y-8750D01*
X136475Y-9500D01*
X134975Y-5750D02*X136475D01*
X138725Y-9500D02*X140975D01*
X137975Y-8750D02*X138725Y-9500D01*
X137975Y-7250D02*Y-8750D01*
Y-7250D02*X138725Y-6500D01*
X140225D01*
X140975Y-7250D01*
X137975Y-8000D02*X140975D01*
Y-7250D02*Y-8000D01*
X143525Y-7250D02*Y-9500D01*
Y-7250D02*X144275Y-6500D01*
X145775D01*
X142775D02*X143525Y-7250D01*
X147575Y-3500D02*Y-8750D01*
X148325Y-9500D01*
G54D96*X149825Y-5000D02*Y-5150D01*
G54D95*Y-7250D02*Y-9500D01*
X152075Y-7250D02*Y-9500D01*
Y-7250D02*X152825Y-6500D01*
X153575D01*
X154325Y-7250D01*
Y-9500D01*
X151325Y-6500D02*X152075Y-7250D01*
X156875Y-9500D02*X159125D01*
X156125Y-8750D02*X156875Y-9500D01*
X156125Y-7250D02*Y-8750D01*
Y-7250D02*X156875Y-6500D01*
X158375D01*
X159125Y-7250D01*
X156125Y-8000D02*X159125D01*
Y-7250D02*Y-8000D01*
X163625Y-7250D02*Y-8750D01*
Y-7250D02*X164375Y-6500D01*
X165875D01*
X166625Y-7250D01*
Y-8750D01*
X165875Y-9500D02*X166625Y-8750D01*
X164375Y-9500D02*X165875D01*
X163625Y-8750D02*X164375Y-9500D01*
X169175Y-4250D02*Y-9500D01*
Y-4250D02*X169925Y-3500D01*
X170675D01*
X168425Y-6500D02*X169925D01*
X175625Y-3500D02*Y-8750D01*
X176375Y-9500D01*
X174875Y-5750D02*X176375D01*
X177875Y-3500D02*Y-9500D01*
Y-7250D02*X178625Y-6500D01*
X180125D01*
X180875Y-7250D01*
Y-9500D01*
G54D96*X182675Y-5000D02*Y-5150D01*
G54D95*Y-7250D02*Y-9500D01*
X184925D02*X187175D01*
X187925Y-8750D01*
X187175Y-8000D02*X187925Y-8750D01*
X184925Y-8000D02*X187175D01*
X184175Y-7250D02*X184925Y-8000D01*
X184175Y-7250D02*X184925Y-6500D01*
X187175D01*
X187925Y-7250D01*
X184175Y-8750D02*X184925Y-9500D01*
X193175Y-7250D02*Y-11750D01*
X192425Y-6500D02*X193175Y-7250D01*
X193925Y-6500D01*
X195425D01*
X196175Y-7250D01*
Y-8750D01*
X195425Y-9500D02*X196175Y-8750D01*
X193925Y-9500D02*X195425D01*
X193175Y-8750D02*X193925Y-9500D01*
X200225Y-6500D02*X200975Y-7250D01*
X198725Y-6500D02*X200225D01*
X197975Y-7250D02*X198725Y-6500D01*
X197975Y-7250D02*Y-8750D01*
X198725Y-9500D01*
X200975Y-6500D02*Y-8750D01*
X201725Y-9500D01*
X198725D02*X200225D01*
X200975Y-8750D01*
X204275Y-3500D02*Y-8750D01*
X205025Y-9500D01*
X203525Y-5750D02*X205025D01*
X206525Y-3500D02*Y-9500D01*
Y-7250D02*X207275Y-6500D01*
X208775D01*
X209525Y-7250D01*
Y-9500D01*
X200750Y328500D02*Y322500D01*
X202700Y328500D02*X203750Y327450D01*
Y323550D01*
X202700Y322500D02*X203750Y323550D01*
X200000Y322500D02*X202700D01*
X200000Y328500D02*X202700D01*
X207800Y325500D02*X208550Y324750D01*
X206300Y325500D02*X207800D01*
X205550Y324750D02*X206300Y325500D01*
X205550Y324750D02*Y323250D01*
X206300Y322500D01*
X208550Y325500D02*Y323250D01*
X209300Y322500D01*
X206300D02*X207800D01*
X208550Y323250D01*
X211850Y328500D02*Y323250D01*
X212600Y322500D01*
X211100Y326250D02*X212600D01*
X214850Y322500D02*X217100D01*
X214100Y323250D02*X214850Y322500D01*
X214100Y324750D02*Y323250D01*
Y324750D02*X214850Y325500D01*
X216350D01*
X217100Y324750D01*
X214100Y324000D02*X217100D01*
Y324750D02*Y324000D01*
X218900Y326250D02*X219650D01*
X218900Y324750D02*X219650D01*
X224150Y328500D02*X227150D01*
X225650D02*Y322500D01*
X228950Y325500D02*Y323250D01*
X229700Y322500D01*
X231200D01*
X231950Y323250D01*
Y325500D02*Y323250D01*
X234500Y322500D02*X236750D01*
X233750Y323250D02*X234500Y322500D01*
X233750Y324750D02*Y323250D01*
Y324750D02*X234500Y325500D01*
X236000D01*
X236750Y324750D01*
X233750Y324000D02*X236750D01*
Y324750D02*Y324000D01*
X241250Y327000D02*Y322500D01*
Y327000D02*X242300Y328500D01*
X243950D01*
X245000Y327000D01*
Y322500D01*
X241250Y325500D02*X245000D01*
X247550Y324750D02*Y320250D01*
X246800Y325500D02*X247550Y324750D01*
X248300Y325500D01*
X249800D01*
X250550Y324750D01*
Y323250D01*
X249800Y322500D02*X250550Y323250D01*
X248300Y322500D02*X249800D01*
X247550Y323250D02*X248300Y322500D01*
X253100Y324750D02*Y322500D01*
Y324750D02*X253850Y325500D01*
X255350D01*
X252350D02*X253100Y324750D01*
X259850Y327300D02*X261050Y328500D01*
Y322500D01*
X259850D02*X262100D01*
X264650D02*X266900Y325500D01*
Y327750D02*Y325500D01*
X266150Y328500D02*X266900Y327750D01*
X264650Y328500D02*X266150D01*
X263900Y327750D02*X264650Y328500D01*
X263900Y327750D02*Y326250D01*
X264650Y325500D01*
X266900D01*
X271400Y327750D02*X272150Y328500D01*
X274400D01*
X275150Y327750D01*
Y326250D01*
X271400Y322500D02*X275150Y326250D01*
X271400Y322500D02*X275150D01*
X276950Y323250D02*X277700Y322500D01*
X276950Y327750D02*Y323250D01*
Y327750D02*X277700Y328500D01*
X279200D01*
X279950Y327750D01*
Y323250D01*
X279200Y322500D02*X279950Y323250D01*
X277700Y322500D02*X279200D01*
X276950Y324000D02*X279950Y327000D01*
X281750Y326250D02*X282500D01*
X281750Y324750D02*X282500D01*
X284300Y323250D02*X285050Y322500D01*
X284300Y327750D02*Y323250D01*
Y327750D02*X285050Y328500D01*
X286550D01*
X287300Y327750D01*
Y323250D01*
X286550Y322500D02*X287300Y323250D01*
X285050Y322500D02*X286550D01*
X284300Y324000D02*X287300Y327000D01*
X289100Y323250D02*X289850Y322500D01*
X289100Y324450D02*Y323250D01*
Y324450D02*X290150Y325500D01*
X291050D01*
X292100Y324450D01*
Y323250D01*
X291350Y322500D02*X292100Y323250D01*
X289850Y322500D02*X291350D01*
X289100Y326550D02*X290150Y325500D01*
X289100Y327750D02*Y326550D01*
Y327750D02*X289850Y328500D01*
X291350D01*
X292100Y327750D01*
Y326550D01*
X291050Y325500D02*X292100Y326550D01*
X293900Y326250D02*X294650D01*
X293900Y324750D02*X294650D01*
X296450D02*X299450Y328500D01*
X296450Y324750D02*X300200D01*
X299450Y328500D02*Y322500D01*
X302750D02*X305750Y328500D01*
X302000D02*X305750D01*
X310250Y327750D02*X311000Y328500D01*
X313250D01*
X314000Y327750D01*
Y326250D01*
X310250Y322500D02*X314000Y326250D01*
X310250Y322500D02*X314000D01*
X315800Y323250D02*X316550Y322500D01*
X315800Y327750D02*Y323250D01*
Y327750D02*X316550Y328500D01*
X318050D01*
X318800Y327750D01*
Y323250D01*
X318050Y322500D02*X318800Y323250D01*
X316550Y322500D02*X318050D01*
X315800Y324000D02*X318800Y327000D01*
X320600Y327300D02*X321800Y328500D01*
Y322500D01*
X320600D02*X322850D01*
X326900Y328500D02*X327650Y327750D01*
X325400Y328500D02*X326900D01*
X324650Y327750D02*X325400Y328500D01*
X324650Y327750D02*Y323250D01*
X325400Y322500D01*
X326900Y325800D02*X327650Y325050D01*
X324650Y325800D02*X326900D01*
X325400Y322500D02*X326900D01*
X327650Y323250D01*
Y325050D02*Y323250D01*
X332150Y328500D02*Y323250D01*
X332900Y322500D01*
X334400D01*
X335150Y323250D01*
Y328500D02*Y323250D01*
X336950Y328500D02*X339950D01*
X338450D02*Y322500D01*
X342800D02*X344750D01*
X341750Y323550D02*X342800Y322500D01*
X341750Y327450D02*Y323550D01*
Y327450D02*X342800Y328500D01*
X344750D01*
X200000Y342000D02*Y337500D01*
Y342000D02*X201050Y343500D01*
X202700D01*
X203750Y342000D01*
Y337500D01*
X200000Y340500D02*X203750D01*
X205550D02*Y338250D01*
X206300Y337500D01*
X207800D01*
X208550Y338250D01*
Y340500D02*Y338250D01*
X211100Y343500D02*Y338250D01*
X211850Y337500D01*
X210350Y341250D02*X211850D01*
X213350Y343500D02*Y337500D01*
Y339750D02*X214100Y340500D01*
X215600D01*
X216350Y339750D01*
Y337500D01*
X218150Y339750D02*Y338250D01*
Y339750D02*X218900Y340500D01*
X220400D01*
X221150Y339750D01*
Y338250D01*
X220400Y337500D02*X221150Y338250D01*
X218900Y337500D02*X220400D01*
X218150Y338250D02*X218900Y337500D01*
X223700Y339750D02*Y337500D01*
Y339750D02*X224450Y340500D01*
X225950D01*
X222950D02*X223700Y339750D01*
X227750Y341250D02*X228500D01*
X227750Y339750D02*X228500D01*
X233000Y343500D02*Y337500D01*
Y343500D02*X235250Y340500D01*
X237500Y343500D01*
Y337500D01*
X241550Y340500D02*X242300Y339750D01*
X240050Y340500D02*X241550D01*
X239300Y339750D02*X240050Y340500D01*
X239300Y339750D02*Y338250D01*
X240050Y337500D01*
X242300Y340500D02*Y338250D01*
X243050Y337500D01*
X240050D02*X241550D01*
X242300Y338250D01*
X245600Y343500D02*Y338250D01*
X246350Y337500D01*
X244850Y341250D02*X246350D01*
X248600Y343500D02*Y338250D01*
X249350Y337500D01*
X247850Y341250D02*X249350D01*
X254600Y343500D02*X255800D01*
Y338250D01*
X255050Y337500D02*X255800Y338250D01*
X254300Y337500D02*X255050D01*
X253550Y338250D02*X254300Y337500D01*
X253550Y339000D02*Y338250D01*
X258350Y337500D02*X260600D01*
X257600Y338250D02*X258350Y337500D01*
X257600Y339750D02*Y338250D01*
Y339750D02*X258350Y340500D01*
X259850D01*
X260600Y339750D01*
X257600Y339000D02*X260600D01*
Y339750D02*Y339000D01*
X263150Y339750D02*Y337500D01*
Y339750D02*X263900Y340500D01*
X264650D01*
X265400Y339750D01*
Y337500D01*
X262400Y340500D02*X263150Y339750D01*
X267200Y343500D02*Y337500D01*
Y339750D02*X269450Y337500D01*
X267200Y339750D02*X268700Y341250D01*
G54D96*X271250Y342000D02*Y341850D01*
G54D95*Y339750D02*Y337500D01*
X273500Y339750D02*Y337500D01*
Y339750D02*X274250Y340500D01*
X275000D01*
X275750Y339750D01*
Y337500D01*
X272750Y340500D02*X273500Y339750D01*
X278300Y337500D02*X280550D01*
X281300Y338250D01*
X280550Y339000D02*X281300Y338250D01*
X278300Y339000D02*X280550D01*
X277550Y339750D02*X278300Y339000D01*
X277550Y339750D02*X278300Y340500D01*
X280550D01*
X281300Y339750D01*
X277550Y338250D02*X278300Y337500D01*
X200000Y358500D02*X203000D01*
X201500D02*Y352500D01*
G54D96*X204800Y357000D02*Y356850D01*
G54D95*Y354750D02*Y352500D01*
X207050Y358500D02*Y353250D01*
X207800Y352500D01*
X206300Y356250D02*X207800D01*
X209300Y358500D02*Y353250D01*
X210050Y352500D01*
X212300D02*X214550D01*
X211550Y353250D02*X212300Y352500D01*
X211550Y354750D02*Y353250D01*
Y354750D02*X212300Y355500D01*
X213800D01*
X214550Y354750D01*
X211550Y354000D02*X214550D01*
Y354750D02*Y354000D01*
X216350Y356250D02*X217100D01*
X216350Y354750D02*X217100D01*
X221600Y353250D02*X222350Y352500D01*
X221600Y357750D02*X222350Y358500D01*
X221600Y357750D02*Y353250D01*
X224150Y355500D02*Y353250D01*
X224900Y352500D01*
X226400D01*
X227150Y353250D01*
Y355500D02*Y353250D01*
X229700Y354750D02*Y352500D01*
Y354750D02*X230450Y355500D01*
X231200D01*
X231950Y354750D01*
Y352500D01*
X228950Y355500D02*X229700Y354750D01*
X233750Y358500D02*Y352500D01*
Y354750D02*X236000Y352500D01*
X233750Y354750D02*X235250Y356250D01*
X238550Y354750D02*Y352500D01*
Y354750D02*X239300Y355500D01*
X240050D01*
X240800Y354750D01*
Y352500D01*
X237800Y355500D02*X238550Y354750D01*
X242600D02*Y353250D01*
Y354750D02*X243350Y355500D01*
X244850D01*
X245600Y354750D01*
Y353250D01*
X244850Y352500D02*X245600Y353250D01*
X243350Y352500D02*X244850D01*
X242600Y353250D02*X243350Y352500D01*
X247400Y355500D02*Y353250D01*
X248150Y352500D01*
X248900D01*
X249650Y353250D01*
Y355500D02*Y353250D01*
X250400Y352500D01*
X251150D01*
X251900Y353250D01*
Y355500D02*Y353250D01*
X254450Y354750D02*Y352500D01*
Y354750D02*X255200Y355500D01*
X255950D01*
X256700Y354750D01*
Y352500D01*
X253700Y355500D02*X254450Y354750D01*
X258500Y358500D02*X259250Y357750D01*
Y353250D01*
X258500Y352500D02*X259250Y353250D01*
X263750Y355500D02*X266750D01*
X271250Y358500D02*Y352500D01*
Y358500D02*X274250D01*
X271250Y355800D02*X273500D01*
X278300Y355500D02*X279050Y354750D01*
X276800Y355500D02*X278300D01*
X276050Y354750D02*X276800Y355500D01*
X276050Y354750D02*Y353250D01*
X276800Y352500D01*
X279050Y355500D02*Y353250D01*
X279800Y352500D01*
X276800D02*X278300D01*
X279050Y353250D01*
X281600Y358500D02*Y352500D01*
Y353250D02*X282350Y352500D01*
X283850D01*
X284600Y353250D01*
Y354750D02*Y353250D01*
X283850Y355500D02*X284600Y354750D01*
X282350Y355500D02*X283850D01*
X281600Y354750D02*X282350Y355500D01*
X287150Y354750D02*Y352500D01*
Y354750D02*X287900Y355500D01*
X289400D01*
X286400D02*X287150Y354750D01*
G54D96*X291200Y357000D02*Y356850D01*
G54D95*Y354750D02*Y352500D01*
X293450Y355500D02*X295700D01*
X292700Y354750D02*X293450Y355500D01*
X292700Y354750D02*Y353250D01*
X293450Y352500D01*
X295700D01*
X299750Y355500D02*X300500Y354750D01*
X298250Y355500D02*X299750D01*
X297500Y354750D02*X298250Y355500D01*
X297500Y354750D02*Y353250D01*
X298250Y352500D01*
X300500Y355500D02*Y353250D01*
X301250Y352500D01*
X298250D02*X299750D01*
X300500Y353250D01*
X303800Y358500D02*Y353250D01*
X304550Y352500D01*
X303050Y356250D02*X304550D01*
G54D96*X306050Y357000D02*Y356850D01*
G54D95*Y354750D02*Y352500D01*
X307550Y354750D02*Y353250D01*
Y354750D02*X308300Y355500D01*
X309800D01*
X310550Y354750D01*
Y353250D01*
X309800Y352500D02*X310550Y353250D01*
X308300Y352500D02*X309800D01*
X307550Y353250D02*X308300Y352500D01*
X313100Y354750D02*Y352500D01*
Y354750D02*X313850Y355500D01*
X314600D01*
X315350Y354750D01*
Y352500D01*
X312350Y355500D02*X313100Y354750D01*
X320600Y358500D02*Y352500D01*
X322550Y358500D02*X323600Y357450D01*
Y353550D01*
X322550Y352500D02*X323600Y353550D01*
X319850Y352500D02*X322550D01*
X319850Y358500D02*X322550D01*
X326150Y354750D02*Y352500D01*
Y354750D02*X326900Y355500D01*
X328400D01*
X325400D02*X326150Y354750D01*
X332450Y355500D02*X333200Y354750D01*
X330950Y355500D02*X332450D01*
X330200Y354750D02*X330950Y355500D01*
X330200Y354750D02*Y353250D01*
X330950Y352500D01*
X333200Y355500D02*Y353250D01*
X333950Y352500D01*
X330950D02*X332450D01*
X333200Y353250D01*
X335750Y355500D02*Y353250D01*
X336500Y352500D01*
X337250D01*
X338000Y353250D01*
Y355500D02*Y353250D01*
X338750Y352500D01*
X339500D01*
X340250Y353250D01*
Y355500D02*Y353250D01*
G54D96*X342050Y357000D02*Y356850D01*
G54D95*Y354750D02*Y352500D01*
X344300Y354750D02*Y352500D01*
Y354750D02*X345050Y355500D01*
X345800D01*
X346550Y354750D01*
Y352500D01*
X343550Y355500D02*X344300Y354750D01*
X350600Y355500D02*X351350Y354750D01*
X349100Y355500D02*X350600D01*
X348350Y354750D02*X349100Y355500D01*
X348350Y354750D02*Y353250D01*
X349100Y352500D01*
X350600D01*
X351350Y353250D01*
X348350Y351000D02*X349100Y350250D01*
X350600D01*
X351350Y351000D01*
Y355500D02*Y351000D01*
M02*
