G04 start of page 9 for group -4078 idx -4078 *
G04 Title: (unknown), bottomsilk *
G04 Creator: pcb 1.99z *
G04 CreationDate: Fri May 13 00:02:03 2016 UTC *
G04 For: matt *
G04 Format: Gerber/RS-274X *
G04 PCB-Dimensions (mil): 2500.00 3000.00 *
G04 PCB-Coordinate-Origin: lower left *
%MOIN*%
%FSLAX25Y25*%
%LNBOTTOMSILK*%
%ADD70C,0.0161*%
%ADD69C,0.0001*%
G54D69*G36*
X149320Y129150D02*X146586Y129978D01*
Y135336D01*
X163144Y129115D01*
Y123534D01*
X146586Y117309D01*
Y122534D01*
X149320Y123340D01*
Y129150D01*
X152901Y128089D01*
Y124452D01*
X158853Y126261D01*
X152901Y128089D01*
X149320Y129150D01*
G37*
G36*
X163144Y135828D02*X146586D01*
Y140944D01*
X150627D01*
X153396Y143589D01*
X146586Y147080D01*
Y153381D01*
X156894Y147066D01*
X163144Y153109D01*
Y146304D01*
X156887Y140944D01*
X163144D01*
Y135828D01*
G37*
G36*
Y153906D02*X146586D01*
Y167867D01*
X150336D01*
Y159034D01*
X153600D01*
Y166997D01*
X156977D01*
Y159034D01*
X159609D01*
Y167619D01*
X163144D01*
Y153906D01*
G37*
G36*
X146586Y168954D02*Y174093D01*
X159801D01*
Y176342D01*
X159694Y177518D01*
X159372Y178250D01*
X158850Y178630D01*
X158141Y178759D01*
X157181Y178436D01*
X156662Y177606D01*
X156493Y176764D01*
X156435Y176250D01*
Y174093D01*
X153306D01*
Y174545D01*
X152922Y175799D01*
X152457Y176233D01*
X151647Y176726D01*
X146586Y179461D01*
Y185241D01*
X151383Y182764D01*
X151822Y182493D01*
X152412Y182047D01*
X152964Y181574D01*
X153283Y181228D01*
X153894Y179897D01*
X154548Y181694D01*
X155266Y182612D01*
X156170Y183310D01*
X157265Y183750D01*
X158548Y183897D01*
X160010Y183706D01*
X161231Y183129D01*
X162159Y182239D01*
X162739Y181107D01*
X163044Y179574D01*
X163144Y177482D01*
Y168954D01*
X146586D01*
G37*
G36*
X152734Y196168D02*X155262Y195770D01*
X157098Y194642D01*
X158219Y192878D01*
X158597Y190574D01*
X158199Y188297D01*
X157047Y186530D01*
X155204Y185386D01*
X152734Y184981D01*
X150009Y185345D01*
X148065Y186420D01*
X146900Y188174D01*
X146512Y190574D01*
X149185D01*
X149424Y189596D01*
X150116Y188893D01*
X151224Y188469D01*
X152713Y188327D01*
X154048Y188466D01*
X155060Y188885D01*
X155700Y189587D01*
X155924Y190574D01*
X155700Y191530D01*
X155060Y192235D01*
X154048Y192670D01*
X152713Y192820D01*
X151224Y192686D01*
X150116Y192277D01*
X149424Y191578D01*
X149185Y190574D01*
X146512D01*
X146917Y192906D01*
X148107Y194668D01*
X150056Y195780D01*
X152734Y196168D01*
G37*
G36*
X146512Y200557D02*X146654Y201686D01*
X147029Y202580D01*
X147611Y202869D01*
X148324Y203087D01*
X149092Y203207D01*
X149836Y203208D01*
X149432Y201837D01*
X149481Y201415D01*
X149652Y201122D01*
X149982Y200949D01*
X150510Y200894D01*
X163719D01*
X163554Y199013D01*
X163068Y197638D01*
X149971D01*
X148587Y197778D01*
X147493Y198254D01*
X146772Y199154D01*
X146512Y200557D01*
G37*
G36*
X152734Y214564D02*X155262Y214165D01*
X157098Y213038D01*
X158219Y211274D01*
X158597Y208970D01*
X158199Y206693D01*
X157047Y204925D01*
X155204Y203782D01*
X152734Y203376D01*
X150009Y203741D01*
X148065Y204816D01*
X146900Y206569D01*
X146512Y208970D01*
X149185D01*
X149424Y207993D01*
X150116Y207290D01*
X151224Y206866D01*
X152713Y206723D01*
X154048Y206862D01*
X155060Y207281D01*
X155700Y207983D01*
X155924Y208970D01*
X155700Y209928D01*
X155060Y210632D01*
X154048Y211067D01*
X152713Y211216D01*
X151224Y211082D01*
X150116Y210674D01*
X149424Y209974D01*
X149185Y208970D01*
X146512D01*
X146917Y211302D01*
X148107Y213064D01*
X150056Y214176D01*
X152734Y214564D01*
G37*
G36*
X151095Y216998D02*X150937D01*
X150697Y216483D01*
X150286Y216069D01*
X149724Y215796D01*
X149028Y215696D01*
X148017Y215920D01*
X147344Y216617D01*
X147186D01*
X145896Y218116D01*
X146468Y218683D01*
X146307Y219524D01*
X146265Y220617D01*
X146201Y222061D01*
X145993Y222962D01*
X145631Y223427D01*
X145097Y223559D01*
X144400Y223372D01*
X143919Y222828D01*
X143639Y221948D01*
X143547Y220751D01*
X143619Y219637D01*
X143870Y218737D01*
X144353Y218138D01*
X145120Y217921D01*
X145896Y218116D01*
X147186Y216617D01*
X146872Y215920D01*
X146319Y215372D01*
X145560Y215015D01*
X144626Y214888D01*
X142956Y215281D01*
X141843Y216404D01*
X141224Y218166D01*
X141031Y220481D01*
X141269Y223027D01*
X142017Y224951D01*
X143335Y226167D01*
X145276Y226591D01*
X147089Y226182D01*
X148186Y225044D01*
X148727Y223302D01*
X148871Y221088D01*
X148903Y220111D01*
X149017Y219408D01*
X149250Y218983D01*
X149634Y218841D01*
X150047Y218939D01*
X150375Y219223D01*
X152701Y219588D01*
X153058Y218999D01*
X153630Y218644D01*
X154397Y218527D01*
X155156Y218644D01*
X155728Y218999D01*
X156091Y219588D01*
X156217Y220414D01*
X156095Y221217D01*
X155737Y221800D01*
X155165Y222157D01*
X154397Y222278D01*
X153640Y222160D01*
X153066Y221809D01*
X152705Y221226D01*
X152578Y220414D01*
X152701Y219588D01*
X150375Y219223D01*
X150253Y219743D01*
X150196Y220481D01*
X150468Y222479D01*
X151260Y223984D01*
X152538Y224934D01*
X154263Y225265D01*
X155127Y225172D01*
X155655Y224930D01*
X155767D01*
Y226547D01*
X157009Y226452D01*
X158148Y226143D01*
Y222907D01*
X158474Y221795D01*
X158597Y220414D01*
X158333Y218457D01*
X157542Y216915D01*
X156228Y215903D01*
X154397Y215539D01*
X153398Y215618D01*
X152485Y215872D01*
X151703Y216324D01*
X151095Y216998D01*
G37*
G36*
X149185Y233284D02*Y233104D01*
X150902Y232828D01*
X152330Y232452D01*
X158081Y230386D01*
X158217Y229884D01*
X158283Y229015D01*
X158160Y227804D01*
X157834Y227017D01*
X146782Y231104D01*
X145932Y230402D01*
X145187Y229535D01*
X144577Y228485D01*
X144131Y227241D01*
X143331Y227411D01*
X142576Y227737D01*
X141914Y228185D01*
X141390Y228724D01*
X143106Y232026D01*
X145748Y234318D01*
X148989Y235866D01*
X152734Y237148D01*
X157834Y238787D01*
X158160Y238006D01*
X158283Y236855D01*
X158217Y236003D01*
X158081Y235507D01*
X152397Y233846D01*
X150876Y233514D01*
X149185Y233284D01*
G37*
G36*
X83530Y172311D02*X85041Y171968D01*
X84672Y170947D01*
X84492Y169496D01*
X84779Y167969D01*
X85602Y166750D01*
X86906Y165943D01*
X88634Y165651D01*
X90264Y165905D01*
X91595Y166655D01*
X92494Y167881D01*
X92822Y169565D01*
X92779Y170326D01*
X92663Y170964D01*
X92495Y171487D01*
X92296Y171900D01*
X93852Y172357D01*
X94242Y171202D01*
X94425Y169565D01*
X94312Y168272D01*
X93985Y167109D01*
X93463Y166093D01*
X92763Y165233D01*
X91903Y164544D01*
X90900Y164035D01*
X89774Y163722D01*
X88542Y163614D01*
X87327Y163714D01*
X86227Y164006D01*
X85259Y164478D01*
X84435Y165119D01*
X83770Y165917D01*
X83278Y166859D01*
X82972Y167933D01*
X82867Y169130D01*
X82932Y170180D01*
X83096Y171081D01*
X83311Y171801D01*
X83530Y172311D01*
G37*
G36*
X99369Y174440D02*X83118D01*
Y176454D01*
X89801D01*
X90325Y176480D01*
X90763Y176592D01*
X91541Y176984D01*
X92182Y177590D01*
X92617Y178371D01*
X92777Y179292D01*
X92513Y180494D01*
X91798Y181287D01*
X90750Y181722D01*
X89481Y181856D01*
X83118D01*
Y183870D01*
X89710D01*
X91011Y183765D01*
X92063Y183474D01*
X92889Y183038D01*
X93512Y182494D01*
X93956Y181880D01*
X94244Y181234D01*
X94401Y180595D01*
X94447Y180002D01*
X94290Y178912D01*
X93875Y177942D01*
X93252Y177109D01*
X92457Y176500D01*
Y176454D01*
X99369D01*
Y174440D01*
G37*
G36*
X83118Y186915D02*Y188929D01*
X94196D01*
Y186915D01*
X83118D01*
G37*
G36*
X97308Y189157D02*X97805Y189070D01*
X98204Y188822D01*
X98471Y188433D01*
X98567Y187921D01*
X98471Y187416D01*
X98204Y187018D01*
X97805Y186757D01*
X97308Y186663D01*
X96826Y186752D01*
X96433Y187002D01*
X96169Y187387D01*
X96073Y187876D01*
X96169Y188417D01*
X96433Y188825D01*
X96826Y189079D01*
X97308Y189157D01*
G37*
G36*
X90580Y192041D02*X78587D01*
Y194033D01*
X84606D01*
Y194078D01*
X83871Y194684D01*
X83325Y195483D01*
X82984Y196430D01*
X82867Y197489D01*
X82959Y198453D01*
X83237Y199376D01*
X83700Y200228D01*
X84349Y200984D01*
X85185Y201618D01*
X86208Y202104D01*
X87418Y202414D01*
X88817Y202524D01*
X90025Y202432D01*
X91117Y202167D01*
X92078Y201745D01*
X92894Y201181D01*
X93553Y200493D01*
X94041Y199694D01*
X94344Y198802D01*
X94447Y197832D01*
X94301Y196569D01*
X93878Y195494D01*
X93202Y194603D01*
X92296Y193895D01*
X91378Y194616D01*
X92165Y195322D01*
X92668Y196213D01*
X92845Y197213D01*
X92514Y198626D01*
X91618Y199660D01*
X90306Y200294D01*
X88726Y200509D01*
X86985Y200283D01*
X85634Y199625D01*
X84757Y198568D01*
X84446Y197145D01*
X84618Y196116D01*
X85102Y195231D01*
X85846Y194548D01*
X86803Y194124D01*
X87628Y194033D01*
X89527D01*
X89948Y194075D01*
X90351Y194170D01*
X91378Y194616D01*
X92296Y193895D01*
Y193849D01*
X94196Y193757D01*
Y191950D01*
X92526Y192013D01*
X90580Y192041D01*
G37*
G36*
X98373Y209233D02*Y204696D01*
X83118D01*
Y209233D01*
X98373D01*
G37*
G36*
X78009Y197704D02*X80424Y197403D01*
Y196991D01*
X77251Y197461D01*
Y197861D01*
X79222Y198285D01*
X77251Y198708D01*
Y199109D01*
X80424Y199578D01*
Y199167D01*
X77869Y198865D01*
X79692Y198502D01*
Y198060D01*
X78009Y197704D01*
G37*
G36*
Y200292D02*X80424Y199989D01*
Y199578D01*
X77251Y200047D01*
Y200447D01*
X79222Y200871D01*
X77251Y201294D01*
Y201695D01*
X80424Y202164D01*
Y201752D01*
X77869Y201451D01*
X79692Y201089D01*
Y200646D01*
X78009Y200292D01*
G37*
G36*
Y202878D02*X80424Y202577D01*
Y202164D01*
X77251Y202633D01*
Y203034D01*
X79222Y203457D01*
X77251Y203881D01*
Y204281D01*
X80424Y204750D01*
Y204338D01*
X77869Y204037D01*
X79692Y203674D01*
Y203232D01*
X78009Y202878D01*
G37*
G36*
X77606Y205697D02*X77451Y205713D01*
X77350Y205795D01*
X77251Y206036D01*
X77350Y206277D01*
X77449Y206330D01*
X77606Y206377D01*
X77865Y206277D01*
X77963Y206036D01*
X77865Y205795D01*
X77737Y205694D01*
X77606Y205697D01*
G37*
G36*
X93993Y233686D02*Y237150D01*
X98373D01*
Y225673D01*
X93993D01*
Y229148D01*
X83118D01*
Y233686D01*
X93993D01*
G37*
G36*
X98322Y237872D02*X97988D01*
Y238511D01*
X96298D01*
Y238914D01*
X97988D01*
Y239560D01*
X98322D01*
Y237872D01*
G37*
G36*
X96298Y242149D02*X98322Y241992D01*
Y241413D01*
X97319Y241062D01*
X96820Y240922D01*
Y240915D01*
X97333Y240781D01*
X98322Y240431D01*
Y239827D01*
X96298Y239680D01*
Y240066D01*
X97488Y240140D01*
X98056Y240156D01*
Y240178D01*
X97757Y240252D01*
X97481Y240319D01*
X96329Y240683D01*
Y241100D01*
X97452Y241465D01*
X98056Y241634D01*
Y241658D01*
X97488Y241672D01*
X96298Y241746D01*
Y242149D01*
G37*
G36*
X98373Y217939D02*Y213279D01*
X91545Y209368D01*
X83118Y212820D01*
Y217917D01*
X91456Y213916D01*
X98373Y217939D01*
G37*
G36*
Y223996D02*Y219459D01*
X83118D01*
Y223996D01*
X98373D01*
G37*
G36*
X77411Y209588D02*X77838D01*
X77708Y209400D01*
X77647Y209259D01*
X77582Y208898D01*
X77642Y208507D01*
X77895Y208276D01*
X78272Y208120D01*
X78837Y208069D01*
X79377Y208095D01*
X79779Y208276D01*
X79995Y208522D01*
X80092Y208898D01*
X80064Y209048D01*
X80020Y209256D01*
X79803Y209588D01*
X80260D01*
X80306Y209396D01*
X80386Y209256D01*
X80424Y208898D01*
X80311Y208346D01*
X80004Y207963D01*
X79488Y207704D01*
X78837Y207627D01*
X78146Y207693D01*
X77665Y207963D01*
X77355Y208350D01*
X77251Y208898D01*
X77256Y209051D01*
X77288Y209256D01*
X77411Y209588D01*
G37*
G36*
X79227Y210637D02*X80424D01*
Y210210D01*
X77251D01*
Y210637D01*
X78895D01*
Y211796D01*
X77251D01*
Y212223D01*
X80424D01*
Y211796D01*
X79227D01*
Y210637D01*
G37*
G36*
X80092Y214656D02*X80424D01*
Y212921D01*
X80092D01*
Y213576D01*
X77582D01*
Y212921D01*
X77251D01*
Y214656D01*
X77582D01*
Y214000D01*
X80092D01*
Y214656D01*
G37*
G36*
X80424Y216411D02*Y215496D01*
X77251D01*
Y215919D01*
X78651D01*
Y216411D01*
X78687Y216850D01*
X78876Y217209D01*
X79142Y217384D01*
X79539Y217476D01*
X79920Y217385D01*
X80199Y217204D01*
X80368Y216857D01*
X80424Y216411D01*
X80092D01*
X79948Y216869D01*
X79761Y216961D01*
X79539Y217033D01*
X79283Y216983D01*
X79128Y216869D01*
X78982Y216411D01*
Y215919D01*
X80092D01*
Y216411D01*
X80424D01*
G37*
G36*
X79013Y218383D02*X80424D01*
Y217956D01*
X77251D01*
Y218383D01*
X78490D01*
X78837Y218707D01*
X77251Y219726D01*
Y220241D01*
X79123Y218985D01*
X80424Y220203D01*
Y219707D01*
X79013Y218383D01*
G37*
G36*
X80092Y222415D02*X80424D01*
Y220680D01*
X80092D01*
Y221336D01*
X77582D01*
Y220680D01*
X77251D01*
Y222415D01*
X77582D01*
Y221760D01*
X80092D01*
Y222415D01*
G37*
G36*
Y225330D02*X80424D01*
Y222942D01*
X80092D01*
Y223926D01*
X77251D01*
Y224350D01*
X80092D01*
Y225330D01*
G37*
G36*
X77606Y226375D02*X77451Y226390D01*
X77350Y226474D01*
X77251Y226715D01*
X77350Y226955D01*
X77449Y227009D01*
X77606Y227054D01*
X77865Y226955D01*
X77963Y226715D01*
X77865Y226474D01*
X77737Y226372D01*
X77606Y226375D01*
G37*
G36*
X77811Y229887D02*X80424Y228830D01*
Y228292D01*
X77251D01*
Y228704D01*
X79864D01*
X77251Y229761D01*
Y230295D01*
X80424D01*
Y229887D01*
X77811D01*
G37*
G36*
X80092Y232858D02*X80424D01*
Y231000D01*
X77251D01*
Y232900D01*
X77582D01*
Y231424D01*
X78895D01*
Y232797D01*
X79227D01*
Y231424D01*
X80092D01*
Y232858D01*
G37*
G36*
Y235661D02*X80424D01*
Y233274D01*
X80092D01*
Y234258D01*
X77251D01*
Y234681D01*
X80092D01*
Y235661D01*
G37*
G36*
X205419Y64548D02*X205276Y64893D01*
X204859Y65270D01*
X204259Y65653D01*
X203566Y66019D01*
X202871Y66345D01*
X202263Y66608D01*
X201832Y66782D01*
X201669Y66846D01*
X202868Y68381D01*
X204169Y69007D01*
X205718Y69972D01*
X207364Y71194D01*
X208954Y72594D01*
X209306Y72917D01*
X209655Y73257D01*
X209987Y73593D01*
X210291Y73908D01*
X210550Y74186D01*
X210752Y74406D01*
X210884Y74551D01*
X210930Y74604D01*
X211080Y74495D01*
X211271Y74367D01*
X211195Y74202D01*
X211098Y74036D01*
X211013Y73908D01*
X210978Y73857D01*
X209902Y72337D01*
X208556Y70881D01*
X207011Y69505D01*
X205612Y68413D01*
X204600Y67692D01*
X204210Y67432D01*
X204358Y67362D01*
X204744Y67173D01*
X205283Y66893D01*
X205885Y66554D01*
X206309Y66012D01*
X206322Y65805D01*
X206244Y65571D01*
X206105Y65328D01*
X205930Y65092D01*
X205747Y64878D01*
X205583Y64707D01*
X205465Y64590D01*
X205419Y64548D01*
G37*
G36*
X198141Y63400D02*Y63727D01*
X201413D01*
Y64654D01*
X201384Y65106D01*
X201287Y65344D01*
X201061Y65541D01*
X200748Y65610D01*
X200421Y65554D01*
X200198Y65391D01*
X200071Y65101D01*
X200029Y64673D01*
Y63727D01*
X199736D01*
Y64767D01*
X199702Y65114D01*
X199601Y65321D01*
X199378Y65434D01*
X198978Y65496D01*
X198506Y65536D01*
X198286Y65566D01*
X198141Y65614D01*
Y65978D01*
X198189D01*
X198310Y65902D01*
X198519Y65864D01*
X199054Y65818D01*
X199658Y65685D01*
X199881Y65372D01*
X200202Y65801D01*
X200756Y65948D01*
X201233Y65835D01*
X201561Y65511D01*
X201671Y65187D01*
X201706Y64588D01*
Y63400D01*
X198141D01*
G37*
G36*
X199423Y66414D02*X198853Y66490D01*
X198427Y66722D01*
X198164Y67093D01*
X198076Y67591D01*
X198334D01*
X198406Y67224D01*
X198620Y66948D01*
X198965Y66777D01*
X199423Y66720D01*
X199885Y66777D01*
X200229Y66948D01*
X200443Y67224D01*
X200515Y67591D01*
X200444Y67962D01*
X200231Y68237D01*
X199887Y68408D01*
X199423Y68465D01*
X198961Y68408D01*
X198617Y68237D01*
X198405Y67962D01*
X198334Y67591D01*
X198076D01*
X198164Y68094D01*
X198428Y68467D01*
X198854Y68700D01*
X199423Y68777D01*
X199996Y68699D01*
X200424Y68467D01*
X200690Y68093D01*
X200779Y67591D01*
X200690Y67093D01*
X200424Y66722D01*
X199996Y66490D01*
X199423Y66414D01*
G37*
G36*
X198141Y69373D02*Y69700D01*
X199866D01*
Y71738D01*
X198141D01*
Y72070D01*
X201706D01*
Y71738D01*
X200159D01*
Y69700D01*
X201706D01*
Y69373D01*
X198141D01*
G37*
G36*
X199219Y72694D02*X199196D01*
X198704Y72779D01*
X198340Y73038D01*
X198116Y73454D01*
X198041Y74017D01*
X198110Y74526D01*
X198317Y74915D01*
X198644Y75160D01*
X199072Y75243D01*
X199444Y75180D01*
X199726Y74994D01*
X199943Y74651D01*
X200118Y74127D01*
X200222Y73710D01*
X200446Y73246D01*
X200831Y73105D01*
X201330Y73320D01*
X201507Y73928D01*
X201455Y74298D01*
X201300Y74574D01*
X201050Y74748D01*
X200713Y74812D01*
Y75143D01*
X201170Y75058D01*
X201512Y74820D01*
X201727Y74443D01*
X201798Y73943D01*
X201733Y73465D01*
X201536Y73095D01*
X201233Y72857D01*
X200841Y72779D01*
X200494Y72831D01*
X200234Y72988D01*
X200036Y73281D01*
X199876Y73744D01*
X199791Y74083D01*
X199503Y74748D01*
X199039Y74916D01*
X198744Y74855D01*
X198522Y74677D01*
X198334Y74023D01*
X198393Y73601D01*
X198566Y73286D01*
X198846Y73089D01*
X199219Y73020D01*
Y72694D01*
G37*
G36*
X196109Y69043D02*X195806Y69190D01*
X195697Y69508D01*
X195796Y69826D01*
X196081Y70032D01*
X196588Y70101D01*
X197054Y70031D01*
X197302Y69829D01*
X197389Y69533D01*
X197235Y69161D01*
X196829Y69012D01*
X196436Y69154D01*
X196287Y69502D01*
X196348Y69731D01*
X196505Y69898D01*
X196565Y69784D01*
X196467Y69552D01*
X196565Y69316D01*
X196822Y69221D01*
X197110Y69322D01*
X197220Y69557D01*
X197117Y69782D01*
X196839Y69875D01*
X196565Y69784D01*
X196505Y69898D01*
X196465Y69899D01*
X196216Y69869D01*
X196022Y69793D01*
X195908Y69677D01*
X195865Y69513D01*
X195927Y69332D01*
X196126Y69238D01*
X196109Y69043D01*
G37*
G36*
X195697Y68274D02*Y68437D01*
X197410Y68916D01*
Y68754D01*
X195697Y68274D01*
G37*
G36*
X195921Y68152D02*Y67339D01*
X196032Y67425D01*
X196239Y67660D01*
X196531Y67974D01*
X196733Y68109D01*
X196928Y68148D01*
X197256Y68011D01*
X197388Y67633D01*
X197266Y67257D01*
X196910Y67096D01*
X196888Y67305D01*
X197131Y67394D01*
X197221Y67629D01*
X197137Y67854D01*
X196933Y67941D01*
X196689Y67846D01*
X196338Y67481D01*
X196087Y67215D01*
X195867Y67081D01*
X195726Y67057D01*
Y68152D01*
X195921D01*
G37*
G36*
X196543Y65796D02*X196141Y65837D01*
X195869Y65960D01*
X195697Y66336D01*
X195865D01*
X195999Y66101D01*
X196543Y66006D01*
X197101Y66111D01*
X197221Y66334D01*
X197086Y66572D01*
X196543Y66667D01*
X196000Y66572D01*
X195865Y66336D01*
X195697D01*
X195795Y66638D01*
X196071Y66817D01*
X196543Y66876D01*
X196934Y66839D01*
X197180Y66736D01*
X197334Y66570D01*
X197389Y66336D01*
X197291Y66036D01*
X197015Y65858D01*
X196543Y65796D01*
G37*
G36*
Y64510D02*X196141Y64550D01*
X195869Y64674D01*
X195697Y65050D01*
X195865D01*
X195999Y64815D01*
X196543Y64719D01*
X197101Y64824D01*
X197221Y65048D01*
X197086Y65285D01*
X196543Y65381D01*
X196000Y65285D01*
X195865Y65050D01*
X195697D01*
X195795Y65351D01*
X196071Y65530D01*
X196543Y65589D01*
X196934Y65553D01*
X197180Y65449D01*
X197334Y65284D01*
X197389Y65050D01*
X197291Y64750D01*
X197015Y64571D01*
X196543Y64510D01*
G37*
G36*
X195921Y64293D02*Y63479D01*
X196032Y63566D01*
X196239Y63801D01*
X196531Y64113D01*
X196733Y64248D01*
X196928Y64290D01*
X197256Y64151D01*
X197388Y63774D01*
X197266Y63398D01*
X196910Y63237D01*
X196888Y63445D01*
X197131Y63534D01*
X197221Y63769D01*
X197137Y63994D01*
X196933Y64081D01*
X196689Y63986D01*
X196338Y63621D01*
X196087Y63355D01*
X195867Y63221D01*
X195726Y63198D01*
Y64293D01*
X195921D01*
G37*
G36*
X195697Y71489D02*Y71652D01*
X197410Y72131D01*
Y71969D01*
X195697Y71489D01*
G37*
G36*
X196306Y75033D02*X195991Y74861D01*
X195885Y74550D01*
X195963Y74269D01*
X196198Y74077D01*
X196567Y74015D01*
X196885Y74067D01*
X197131Y74247D01*
X197222Y74567D01*
X197140Y74843D01*
X196876Y75009D01*
X196928Y75226D01*
X197283Y74989D01*
X197410Y74571D01*
X197310Y74170D01*
X197017Y73888D01*
X196567Y73789D01*
X196122Y73878D01*
X195807Y74132D01*
X195697Y74567D01*
X195840Y75005D01*
X196251Y75254D01*
X196306Y75033D01*
G37*
G36*
X195726Y72315D02*Y73550D01*
X195921D01*
Y72533D01*
X196485D01*
Y73450D01*
X196679D01*
Y72533D01*
X197186D01*
Y73511D01*
X197382D01*
Y72315D01*
X195726D01*
G37*
G36*
X196159Y70299D02*X195824Y70462D01*
X195697Y70830D01*
X195899Y71265D01*
X196287Y71396D01*
X196674Y71248D01*
X196824Y70881D01*
X196720Y70567D01*
X197165Y70658D01*
Y71319D01*
X197359D01*
Y70495D01*
X196508Y70334D01*
X196484Y70525D01*
X196600Y70650D01*
X196644Y70827D01*
X196543Y71083D01*
X196269Y71180D01*
X195976Y71079D01*
X195865Y70830D01*
X195943Y70622D01*
X196177Y70512D01*
X196159Y70299D01*
G37*
G36*
X198653Y82223D02*X198807Y82192D01*
X198933Y82107D01*
X199018Y81981D01*
X199049Y81827D01*
X199018Y81673D01*
X198933Y81547D01*
X198807Y81462D01*
X198653Y81431D01*
X198499Y81462D01*
X198373Y81547D01*
X198289Y81673D01*
X198257Y81827D01*
X198289Y81981D01*
X198373Y82107D01*
X198499Y82192D01*
X198653Y82223D01*
G37*
G36*
X198848Y80672D02*X198653Y80655D01*
X198417Y80679D01*
X198196Y80747D01*
X197998Y80855D01*
X197824Y80998D01*
X198222Y81396D01*
X198312Y81322D01*
X198416Y81266D01*
X198530Y81230D01*
X198653Y81218D01*
X198776Y81230D01*
X198891Y81266D01*
X198994Y81322D01*
X199084Y81396D01*
X199158Y81487D01*
X199215Y81590D01*
X199250Y81704D01*
X199262Y81827D01*
X199250Y81950D01*
X199215Y82065D01*
X199158Y82168D01*
X199084Y82258D01*
X198994Y82333D01*
X198891Y82389D01*
X198776Y82424D01*
X198653Y82437D01*
X198530Y82424D01*
X198416Y82389D01*
X198312Y82333D01*
X198222Y82258D01*
X198148Y82168D01*
X198091Y82065D01*
X198056Y81950D01*
X198043Y81827D01*
X198056Y81704D01*
X198091Y81590D01*
X198148Y81487D01*
X198222Y81396D01*
X197824Y80998D01*
X197681Y81172D01*
X197573Y81371D01*
X197505Y81591D01*
X197481Y81827D01*
X197526Y82151D01*
X197654Y82440D01*
X197851Y82682D01*
X198105Y82864D01*
Y85730D01*
X197493D01*
Y86483D01*
X198107D01*
X198129Y86548D01*
X198171Y86604D01*
X198227Y86645D01*
X198291Y86664D01*
X200163Y86825D01*
X196094Y90820D01*
X196328Y91058D01*
X200598Y86862D01*
X205856Y87315D01*
X205900Y86910D01*
X203179Y84326D01*
X202939Y84099D01*
X202706Y84328D01*
X200545Y86449D01*
X198512Y86274D01*
Y82991D01*
X198653Y82999D01*
X199078Y82919D01*
X199435Y82700D01*
X199691Y82372D01*
X199817Y81964D01*
X200177Y81931D01*
X202706Y84328D01*
X202939Y84099D01*
X200614Y81890D01*
X205531Y81432D01*
Y81478D01*
X205610D01*
X202939Y84099D01*
X203179Y84326D01*
X202946Y84556D01*
X205382Y86866D01*
X200980Y86487D01*
X202946Y84556D01*
X203179Y84326D01*
X204735Y82798D01*
Y84953D01*
X205548D01*
Y82460D01*
X205078D01*
X206078Y81478D01*
X206950D01*
Y81299D01*
X207566Y81243D01*
Y87054D01*
X205900Y86910D01*
X205856Y87315D01*
X210067Y91306D01*
X210530D01*
X206374Y87360D01*
X207583Y87463D01*
Y87954D01*
X207989D01*
Y87522D01*
X208069Y87492D01*
X208300Y87357D01*
X208498Y87172D01*
X208193Y86924D01*
X207989Y87087D01*
Y86682D01*
X208359D01*
X208193Y86924D01*
X208498Y87172D01*
X208666Y86945D01*
X208806Y86682D01*
X209075D01*
Y85987D01*
X209033D01*
X209132Y85434D01*
X209185Y84885D01*
X209346D01*
Y82884D01*
X208346D01*
Y84885D01*
X208768D01*
X208752Y84478D01*
Y83291D01*
X208939D01*
Y84478D01*
X208752D01*
X208768Y84885D01*
X208710Y85435D01*
X208608Y85987D01*
X207989D01*
Y81258D01*
X208276Y81489D01*
X208487Y81871D01*
X208632Y82353D01*
X208726Y82884D01*
X209140D01*
X209050Y82346D01*
X208906Y81835D01*
X208698Y81392D01*
X208413Y81049D01*
X208498Y80965D01*
X208564Y80863D01*
X208606Y80748D01*
X208620Y80622D01*
X208609Y80513D01*
X208578Y80411D01*
X208528Y80319D01*
X208461Y80239D01*
X208381Y80172D01*
X208289Y80122D01*
X208187Y80091D01*
X208078Y80080D01*
X207968Y80091D01*
X207867Y80122D01*
X207775Y80172D01*
X207695Y80239D01*
X207628Y80319D01*
X207578Y80411D01*
X207546Y80513D01*
X207535Y80622D01*
X207578Y80832D01*
X206950Y80891D01*
Y80620D01*
X210585Y77048D01*
X210121D01*
X206950Y80161D01*
Y80096D01*
X205531D01*
Y81023D01*
X205897Y80989D01*
Y80453D01*
X206584D01*
Y80520D01*
X206129Y80967D01*
X205897Y80989D01*
X205531Y81023D01*
X200222Y81518D01*
X196367Y77857D01*
X196135Y78100D01*
X198848Y80672D01*
G37*
G36*
X193211Y90157D02*Y78369D01*
X190341D01*
Y90157D01*
X193211D01*
G37*
G36*
X204402Y104724D02*X205046Y104926D01*
X205639Y105230D01*
X206169Y105624D01*
X206626Y106101D01*
X206998Y106646D01*
X207278Y107252D01*
X207454Y107907D01*
X207515Y108602D01*
X207475Y109160D01*
X209143D01*
X209171Y108602D01*
X209056Y107470D01*
X208727Y106414D01*
X208207Y105458D01*
X207519Y104625D01*
X206685Y103937D01*
X205730Y103418D01*
X204675Y103089D01*
X203543Y102974D01*
X202412Y103089D01*
X201356Y103418D01*
X200400Y103937D01*
X199567Y104625D01*
X198879Y105458D01*
X198359Y106414D01*
X198030Y107470D01*
X197915Y108602D01*
X197943Y109160D01*
X199611D01*
X199571Y108602D01*
X199632Y107907D01*
X199808Y107252D01*
X200087Y106646D01*
X200461Y106101D01*
X200917Y105624D01*
X201447Y105230D01*
X202038Y104926D01*
X202682Y104724D01*
Y107975D01*
X204402D01*
Y104724D01*
G37*
G36*
X199611Y99487D02*X199571Y98931D01*
X199652Y98131D01*
X199884Y97386D01*
X200250Y96711D01*
X200737Y96123D01*
X201325Y95637D01*
X202000Y95269D01*
X202744Y95037D01*
X203543Y94956D01*
X204341Y95037D01*
X205086Y95269D01*
X205761Y95637D01*
X206349Y96123D01*
X206835Y96711D01*
X207202Y97386D01*
X207434Y98131D01*
X207515Y98931D01*
X207475Y99487D01*
X209143D01*
X209171Y98931D01*
X209056Y97798D01*
X208727Y96742D01*
X208207Y95787D01*
X207519Y94953D01*
X206685Y94264D01*
X205730Y93744D01*
X204675Y93416D01*
X203543Y93301D01*
X202412Y93416D01*
X201356Y93744D01*
X200400Y94264D01*
X199567Y94953D01*
X198879Y95787D01*
X198359Y96742D01*
X198030Y97798D01*
X197915Y98931D01*
X197943Y99487D01*
X199611D01*
G37*
G36*
X141712Y80113D02*Y80112D01*
X128959Y80109D01*
X129422Y80697D01*
X129717Y81067D01*
X130178Y81639D01*
X130741Y82337D01*
X131344Y83083D01*
X131945Y83825D01*
X132501Y84518D01*
X132950Y85085D01*
X133229Y85448D01*
X133485Y85778D01*
X133864Y86259D01*
X134315Y86825D01*
X134787Y87413D01*
X135269Y88007D01*
X135742Y88596D01*
X136154Y89108D01*
X136450Y89480D01*
X137614Y90936D01*
X138811Y92428D01*
X139375Y93128D01*
X151559Y93129D01*
X155080Y93128D01*
X157871Y93123D01*
X160014Y93114D01*
X161590Y93099D01*
X162685Y93076D01*
X163377Y93045D01*
X163751Y93004D01*
X163888Y92955D01*
X164002Y92770D01*
X164009Y92533D01*
X163865Y92170D01*
X163522Y91616D01*
X162933Y90797D01*
X162049Y89645D01*
X160824Y88091D01*
X159210Y86066D01*
X154465Y80116D01*
X141712Y80113D01*
G37*
G36*
X151815Y94346D02*X140404Y94347D01*
X141566Y95919D01*
X153604Y95924D01*
X157515D01*
X160478Y95922D01*
X162634Y95913D01*
X164121Y95896D01*
X165077Y95867D01*
X165641Y95823D01*
X165952Y95764D01*
X166148Y95685D01*
X166489Y95494D01*
X166823Y95196D01*
X167310Y94626D01*
X168105Y93617D01*
X168505Y93105D01*
X169000Y92474D01*
X169524Y91808D01*
X170016Y91184D01*
X170505Y90561D01*
X171020Y89909D01*
X171501Y89298D01*
X171885Y88811D01*
X172272Y88320D01*
X172759Y87705D01*
X173281Y87043D01*
X173780Y86415D01*
X174554Y85437D01*
X175167Y84659D01*
X175640Y84051D01*
X175992Y83586D01*
X176246Y83237D01*
X176421Y82978D01*
X176536Y82778D01*
X176614Y82615D01*
X176743Y82099D01*
X176787Y81456D01*
X176749Y80818D01*
X176624Y80320D01*
X176411Y79989D01*
X175954Y79381D01*
X175321Y78580D01*
X174578Y77676D01*
X173808Y76747D01*
X173096Y75883D01*
X172520Y75178D01*
X172161Y74733D01*
X171858Y74350D01*
X171432Y73815D01*
X170939Y73202D01*
X170435Y72582D01*
X169975Y72008D01*
X169599Y71525D01*
X169343Y71184D01*
X169249Y71036D01*
X169761Y70346D01*
X171098Y68697D01*
X172954Y66458D01*
X175029Y63996D01*
X176029Y62788D01*
X176577Y61995D01*
X176802Y61377D01*
X176835Y60695D01*
X176770Y59967D01*
X176637Y59419D01*
X176476Y59135D01*
X176173Y58675D01*
X175770Y58100D01*
X175309Y57477D01*
X172803Y54169D01*
X170535Y51200D01*
X169994Y50494D01*
X169413Y49732D01*
X168863Y49007D01*
X168410Y48411D01*
X167595Y47359D01*
X166968Y46635D01*
X166466Y46172D01*
X166024Y45901D01*
X165822Y45831D01*
X165480Y45778D01*
X164876Y45738D01*
X163891Y45710D01*
X162403Y45692D01*
X160291Y45682D01*
X157432Y45677D01*
X153708Y45676D01*
X141880Y45673D01*
X141541Y46115D01*
X141202Y46543D01*
X140865Y46952D01*
X140630Y47254D01*
X140531Y47422D01*
X141432Y47452D01*
X143885Y47475D01*
X147515Y47491D01*
X151947Y47497D01*
X155238Y47499D01*
X157859Y47504D01*
X159893Y47514D01*
X161415Y47530D01*
X162506Y47552D01*
X163243Y47584D01*
X163705Y47626D01*
X163971Y47678D01*
X164641Y47982D01*
X165063Y48426D01*
X165241Y49013D01*
X165175Y49750D01*
X165050Y50121D01*
X164804Y50562D01*
X164381Y51160D01*
X163725Y52000D01*
X163196Y52661D01*
X162722Y53250D01*
X162356Y53699D01*
X162147Y53947D01*
X161836Y54322D01*
X161460Y54799D01*
X161094Y55266D01*
X160409Y56133D01*
X159504Y57276D01*
X158475Y58572D01*
X156563Y60978D01*
X155027Y62911D01*
X153826Y64423D01*
X152920Y65567D01*
X152267Y66391D01*
X151828Y66949D01*
X151558Y67292D01*
X151419Y67473D01*
X151228Y67718D01*
X150884Y68150D01*
X150435Y68706D01*
X149931Y69328D01*
X149447Y69937D01*
X149050Y70466D01*
X148783Y70856D01*
X148684Y71052D01*
X148701Y71144D01*
X148805Y71328D01*
X149080Y71710D01*
X149607Y72395D01*
X150473Y73490D01*
X151760Y75100D01*
X153549Y77332D01*
X155924Y80294D01*
X158042Y82932D01*
X159846Y85186D01*
X161148Y86816D01*
X161754Y87583D01*
X162041Y87948D01*
X162467Y88484D01*
X162976Y89120D01*
X163512Y89784D01*
X164424Y90931D01*
X164909Y91646D01*
X165087Y92154D01*
X165081Y92678D01*
X164952Y93255D01*
X164591Y93691D01*
X164150Y94007D01*
X163694Y94216D01*
X162790Y94274D01*
X160529Y94313D01*
X156881Y94337D01*
X151815Y94346D01*
G37*
G36*
X163144Y98237D02*X146586D01*
Y102428D01*
X159214D01*
X146586Y105650D01*
Y109443D01*
X159214Y112673D01*
X146586D01*
Y116863D01*
X163144D01*
Y110137D01*
X153070Y107561D01*
X163144Y104966D01*
Y98237D01*
G37*
G36*
X197090Y53113D02*X197128Y53144D01*
X197152Y53193D01*
X197160Y53258D01*
X197122Y53459D01*
X197341Y53446D01*
X197378Y53170D01*
X197367Y53046D01*
X197326Y52935D01*
X197254Y52855D01*
X197148Y52817D01*
X196961Y52807D01*
X196916D01*
Y52651D01*
X196803Y52646D01*
X196691Y52639D01*
Y52780D01*
X195947Y52746D01*
X195758Y52733D01*
X195761Y52895D01*
X195758Y53061D01*
X196691Y53095D01*
Y53370D01*
X196916Y53383D01*
Y53091D01*
X196958D01*
X197033Y53096D01*
X197090Y53113D01*
G37*
G36*
X196376Y56901D02*X196486Y56913D01*
X196694Y56874D01*
X196853Y56765D01*
X196948Y56588D01*
X196977Y56366D01*
X196942Y56130D01*
X196824Y55926D01*
X196607Y55789D01*
X196334Y55740D01*
X196092Y55782D01*
X195897Y55914D01*
X195788Y56122D01*
X195758Y56390D01*
X195768Y56560D01*
X195804Y56769D01*
X196046Y56811D01*
X195987Y56592D01*
X195970Y56420D01*
X195991Y56283D01*
X196057Y56163D01*
X196165Y56086D01*
X196306Y56060D01*
X196374Y56063D01*
X196508Y56072D01*
X196595Y56094D01*
X196663Y56130D01*
X196726Y56191D01*
X196771Y56274D01*
X196785Y56367D01*
X196776Y56444D01*
X196750Y56507D01*
X196706Y56556D01*
X196647Y56588D01*
X196588Y56604D01*
X196507Y56607D01*
X196508Y56072D01*
X196374Y56063D01*
X196376Y56901D01*
G37*
G36*
X196531Y51693D02*X196300Y51676D01*
X196305Y52069D01*
X196300Y52467D01*
X196531Y52483D01*
X196526Y52087D01*
X196531Y51693D01*
G37*
G36*
X196853Y55481D02*X196948Y55304D01*
X196977Y55082D01*
X196942Y54846D01*
X196824Y54644D01*
X196607Y54506D01*
X196334Y54456D01*
X196092Y54499D01*
X195897Y54631D01*
X195788Y54838D01*
X195758Y55107D01*
X195768Y55277D01*
X195804Y55486D01*
X196046Y55528D01*
X195987Y55308D01*
X195970Y55137D01*
X195991Y55000D01*
X196057Y54880D01*
X196165Y54803D01*
X196306Y54777D01*
X196374Y54779D01*
X196508Y54789D01*
X196595Y54811D01*
X196663Y54846D01*
X196726Y54907D01*
X196770Y54991D01*
X196785Y55083D01*
X196776Y55160D01*
X196750Y55225D01*
X196706Y55272D01*
X196647Y55305D01*
X196588Y55320D01*
X196507Y55324D01*
X196508Y54789D01*
X196374Y54779D01*
X196376Y55618D01*
X196486Y55629D01*
X196694Y55592D01*
X196853Y55481D01*
G37*
G36*
X196949Y54242D02*X196938Y54146D01*
X196905Y54061D01*
X196853Y53992D01*
X196761Y53917D01*
X196922Y53923D01*
X196920Y53767D01*
X196922Y53612D01*
X196813Y53614D01*
X196618Y53612D01*
X196302Y53602D01*
X195758Y53569D01*
X195761Y53739D01*
X195758Y53898D01*
X195893Y53894D01*
X196178Y53900D01*
X196381Y53916D01*
X196506Y53948D01*
X196606Y54014D01*
X196667Y54107D01*
X196686Y54224D01*
X196668Y54346D01*
X196938Y54336D01*
X196949Y54242D01*
G37*
G36*
X196853Y48717D02*X196948Y48541D01*
X196977Y48317D01*
X196942Y48081D01*
X196824Y47880D01*
X196607Y47742D01*
X196334Y47693D01*
X196092Y47735D01*
X195897Y47866D01*
X195788Y48074D01*
X195758Y48343D01*
X195768Y48513D01*
X195804Y48721D01*
X196046Y48763D01*
X195987Y48544D01*
X195970Y48373D01*
X195991Y48236D01*
X196057Y48116D01*
X196165Y48039D01*
X196306Y48013D01*
X196374Y48015D01*
X196508Y48024D01*
X196595Y48047D01*
X196663Y48083D01*
X196726Y48143D01*
X196770Y48226D01*
X196785Y48319D01*
X196776Y48397D01*
X196750Y48460D01*
X196706Y48508D01*
X196647Y48541D01*
X196588Y48556D01*
X196507Y48560D01*
X196508Y48024D01*
X196374Y48015D01*
X196376Y48854D01*
X196486Y48865D01*
X196694Y48828D01*
X196853Y48717D01*
G37*
G36*
X197320Y47235D02*X196454Y47206D01*
X195758Y47163D01*
X195761Y47339D01*
X195758Y47498D01*
X195971Y47502D01*
X196903Y47543D01*
X197320Y47570D01*
X197319Y47405D01*
X197320Y47235D01*
G37*
G36*
X197045Y49610D02*X196962Y49236D01*
X196822Y49124D01*
X196703Y49100D01*
X196794Y49187D01*
X196884Y49534D01*
X196831Y49702D01*
X196690Y49772D01*
X196565Y49657D01*
X196459Y49369D01*
X196317Y49083D01*
X196098Y48989D01*
X195844Y49093D01*
X195758Y49404D01*
X195890Y49737D01*
X195982Y49680D01*
X195936Y49470D01*
X196121Y49278D01*
X196328Y49556D01*
X196387Y49750D01*
X196119D01*
X195982Y49680D01*
X195890Y49737D01*
X195766D01*
Y50113D01*
X196713D01*
X196943Y49996D01*
X197045Y49610D01*
G37*
G36*
X197348Y51188D02*X197269D01*
X196958Y51180D01*
X196977Y50944D01*
X196940Y50674D01*
X196816Y50450D01*
X196586Y50293D01*
X196293Y50235D01*
X196084Y50267D01*
X195911Y50367D01*
X195799Y50530D01*
X195758Y50736D01*
X195773Y50865D01*
X195818Y50980D01*
X195885Y51069D01*
X195985Y51155D01*
X196085Y51039D01*
X196017Y50946D01*
X195994Y50831D01*
X196037Y50681D01*
X196152Y50583D01*
X196314Y50552D01*
X196497Y50587D01*
X196652Y50685D01*
X196738Y50830D01*
X196763Y51004D01*
X196740Y51167D01*
X196399Y51153D01*
X196204Y51111D01*
X196085Y51039D01*
X195985Y51155D01*
X195786Y51145D01*
X195788Y51302D01*
X195786Y51451D01*
X196557Y51474D01*
X197348Y51520D01*
X197346Y51353D01*
X197348Y51188D01*
G37*
G36*
X202544Y57728D02*X203062Y58687D01*
X204017Y58894D01*
X205015Y58966D01*
X206419Y58824D01*
X207726Y58419D01*
X208909Y57776D01*
X209939Y56926D01*
X210790Y55896D01*
X211432Y54713D01*
X211838Y53406D01*
X211978Y52003D01*
X211838Y50600D01*
X211432Y49292D01*
X210790Y48109D01*
X209939Y47078D01*
X208909Y46228D01*
X207726Y45586D01*
X206419Y45180D01*
X205015Y45039D01*
X203612Y45180D01*
X202305Y45586D01*
X201122Y46228D01*
X200091Y47078D01*
X199241Y48109D01*
X198599Y49292D01*
X198193Y50600D01*
X198051Y52003D01*
X198474Y54397D01*
X199643Y56433D01*
X200291Y56470D01*
X200632Y55558D01*
X199705Y53922D01*
X199370Y52003D01*
X199485Y50865D01*
X199814Y49806D01*
X200334Y48846D01*
X201024Y48011D01*
X201859Y47321D01*
X202818Y46801D01*
X203878Y46472D01*
X205015Y46357D01*
X206935Y46693D01*
X208571Y47619D01*
X200632Y55558D01*
X200291Y56470D01*
X201033Y56640D01*
X201459Y56386D01*
X209399Y48447D01*
X210326Y50083D01*
X210661Y52003D01*
X210546Y53140D01*
X210218Y54199D01*
X209696Y55159D01*
X209007Y55994D01*
X208172Y56683D01*
X207213Y57203D01*
X206153Y57533D01*
X205015Y57648D01*
X203096Y57312D01*
X201459Y56386D01*
X201033Y56640D01*
X201806Y57028D01*
X202544Y57728D01*
G37*
G36*
X205667Y56492D02*X206179Y56183D01*
X206541Y55787D01*
X206758Y55320D01*
X206830Y54805D01*
X206662Y54106D01*
X206154Y53543D01*
X205646Y53852D01*
X206010Y54256D01*
X206130Y54713D01*
X206015Y55196D01*
X205667Y55598D01*
X205074Y55867D01*
X204217Y55959D01*
X203373Y55865D01*
X202769Y55585D01*
X202407Y55183D01*
X202285Y54729D01*
X202487Y54083D01*
X203078Y53631D01*
X203564Y53513D01*
X204244Y53473D01*
X205054Y53567D01*
X205646Y53852D01*
X206154Y53543D01*
X208626D01*
Y52760D01*
X201698D01*
Y53484D01*
X202327D01*
X201771Y54038D01*
X201585Y54761D01*
X201759Y55509D01*
X202277Y56158D01*
X203116Y56607D01*
X204244Y56756D01*
X205019Y56690D01*
X205667Y56492D01*
G37*
G36*
X202361Y57874D02*X201541Y57135D01*
X200692Y56783D01*
X199902Y56674D01*
X199256Y56669D01*
X198993Y56874D01*
X199329Y57154D01*
X200373Y57179D01*
X200664Y57412D01*
X199773D01*
X200017Y57657D01*
X200950D01*
X201308Y57903D01*
X200316D01*
X200739Y58326D01*
X200811Y58316D01*
X200990Y58306D01*
X201224Y58326D01*
X201456Y58408D01*
X201378Y58413D01*
X201199Y58435D01*
X201002Y58474D01*
X200870Y58535D01*
X200977Y58693D01*
X201214Y59048D01*
X201462Y59425D01*
X201601Y59647D01*
X201498Y59527D01*
X201210Y59205D01*
X200772Y58742D01*
X200221Y58197D01*
X199590Y57631D01*
X198915Y57104D01*
X198231Y56674D01*
X197572Y56402D01*
X197385Y56589D01*
X197546Y56648D01*
X197922Y56798D01*
X198360Y56991D01*
X198704Y57185D01*
X198639Y57291D01*
X198491Y57550D01*
X198330Y57867D01*
X198229Y58151D01*
X198215Y58417D01*
X198279Y58728D01*
X198444Y59057D01*
X198731Y59380D01*
X199071Y59658D01*
X199500Y59947D01*
X200087Y60252D01*
X200903Y60581D01*
X201070Y60636D01*
X201302Y60708D01*
X201524Y60775D01*
X201659Y60814D01*
X202155Y60971D01*
X202487Y61129D01*
X202721Y61298D01*
X202921Y61489D01*
X203097D01*
X203128Y61107D01*
X203119Y60169D01*
X202915Y58988D01*
X202361Y57874D01*
G37*
G36*
X208492Y51427D02*X208592Y50968D01*
X208626Y50312D01*
Y48172D01*
X201698D01*
Y48923D01*
X204515D01*
Y50378D01*
X204662Y51375D01*
X205105Y52027D01*
X205781Y52384D01*
X206631Y52504D01*
X206593Y51729D01*
X206040Y51649D01*
X205646Y51409D01*
X205411Y50993D01*
X205331Y50393D01*
Y48923D01*
X207807D01*
Y50378D01*
X207781Y50873D01*
X207698Y51188D01*
X207298Y51571D01*
X206593Y51729D01*
X206631Y52504D01*
X207285Y52430D01*
X207826Y52211D01*
X208237Y51869D01*
X208492Y51427D01*
G37*
G36*
X130400Y60028D02*X129894Y60657D01*
X129478Y61181D01*
X129197Y61542D01*
X129093Y61688D01*
X130100Y61706D01*
X132840Y61721D01*
X136896Y61731D01*
X141850Y61735D01*
X154606D01*
X155838Y60184D01*
X156596Y59231D01*
X157746Y57783D01*
X159135Y56037D01*
X160604Y54191D01*
X161664Y52855D01*
X162491Y51804D01*
X163113Y51001D01*
X163556Y50406D01*
X163854Y49978D01*
X164029Y49677D01*
X164115Y49466D01*
X164136Y49306D01*
X163946Y48790D01*
X162914Y48760D01*
X160247Y48737D01*
X156350Y48721D01*
X151625Y48716D01*
X139497Y48717D01*
X138442Y50024D01*
X137990Y50582D01*
X137543Y51138D01*
X137148Y51626D01*
X136860Y51984D01*
X136327Y52650D01*
X135785Y53337D01*
X135472Y53731D01*
X135024Y54288D01*
X134500Y54931D01*
X133961Y55589D01*
X133427Y56241D01*
X132915Y56872D01*
X132487Y57407D01*
X132196Y57777D01*
X131903Y58151D01*
X131469Y58700D01*
X130947Y59350D01*
X130400Y60028D01*
G37*
G36*
X108902Y48203D02*Y47095D01*
X103436D01*
Y48203D01*
X103603Y49290D01*
X104105Y50052D01*
X104954Y50489D01*
X106165Y50638D01*
X107385Y50489D01*
X108234Y50052D01*
X108735Y49290D01*
X108902Y48203D01*
X108298Y48184D01*
X107841Y49494D01*
X106165Y49860D01*
X104507Y49494D01*
X104041Y48184D01*
Y47836D01*
X108298D01*
Y48184D01*
X108902Y48203D01*
G37*
G36*
X105325Y52256D02*Y55177D01*
X105652D01*
X107108Y54728D01*
X107639Y53483D01*
X107053Y52082D01*
X105488Y51552D01*
X103903Y52092D01*
X103327Y53583D01*
X103409Y54280D01*
X103647Y55012D01*
X104316D01*
X104006Y54270D01*
X103903Y53593D01*
X104270Y52604D01*
X105304Y52256D01*
X105325D01*
X105854Y52284D01*
X106742Y52659D01*
X107062Y53456D01*
X106760Y54224D01*
X105854Y54499D01*
Y52284D01*
X105325Y52256D01*
G37*
G36*
X106733Y59175D02*X107392D01*
X107575Y58581D01*
X107639Y57948D01*
X107319Y56804D01*
X106403Y56411D01*
X105671Y56676D01*
X105286Y57527D01*
X105241Y57774D01*
X105231Y57811D01*
X104977Y58482D01*
X104581Y58709D01*
X104080Y58462D01*
X103894Y57765D01*
X103995Y57115D01*
X104279Y56392D01*
X103583D01*
X103391Y57115D01*
X103327Y57756D01*
X103675Y58956D01*
X104627Y59386D01*
X105368Y59130D01*
X105743Y58370D01*
X105798Y58095D01*
X106064Y57262D01*
X106476Y57088D01*
X106925Y57317D01*
X107071Y57994D01*
X106989Y58598D01*
X106733Y59175D01*
G37*
G36*
X108280Y62533D02*X109133D01*
Y61855D01*
X108280D01*
Y62533D01*
G37*
G36*
X104920D02*X107529D01*
Y60775D01*
X107009D01*
Y61855D01*
X104920D01*
X103821Y62194D01*
X103436Y63128D01*
Y63980D01*
X104006D01*
Y63192D01*
X104242Y62698D01*
X104920Y62533D01*
G37*
G36*
X198493Y33058D02*X198487Y33158D01*
X198485Y33307D01*
X198489Y33489D01*
X198495Y33690D01*
X198504Y33895D01*
X198516Y34089D01*
X198530Y34258D01*
X198544Y34387D01*
X198704Y35146D01*
X198953Y35873D01*
X199287Y36559D01*
X199701Y37198D01*
X200189Y37782D01*
X200745Y38305D01*
X201365Y38759D01*
X202044Y39137D01*
X202651Y39387D01*
X203287Y39574D01*
X203922Y39691D01*
X204527Y39731D01*
X204824D01*
Y40233D01*
X204826Y40428D01*
X204831Y40588D01*
X204838Y40695D01*
X204847Y40735D01*
X204872Y40714D01*
X204933Y40656D01*
X205028Y40563D01*
X205152Y40440D01*
X205301Y40291D01*
X205470Y40120D01*
X205656Y39932D01*
X205854Y39731D01*
X206838Y38727D01*
X206531Y38409D01*
X206183Y38048D01*
X205863Y37719D01*
X205578Y37427D01*
X205333Y37176D01*
X205132Y36972D01*
X204980Y36820D01*
X204883Y36726D01*
X204845Y36693D01*
X204837Y36734D01*
X204830Y36844D01*
X204826Y37008D01*
X204824Y37208D01*
Y37724D01*
X204569D01*
X204153Y37694D01*
X203711Y37608D01*
X203269Y37473D01*
X202855Y37295D01*
X202544Y37126D01*
X202267Y36944D01*
X202007Y36736D01*
X201744Y36491D01*
X201318Y36002D01*
X200981Y35476D01*
X200731Y34903D01*
X200561Y34274D01*
X200515Y33928D01*
X200498Y33528D01*
X200509Y33124D01*
X200549Y32774D01*
X200658Y32311D01*
X200815Y31869D01*
X201017Y31448D01*
X201263Y31055D01*
X201550Y30691D01*
X201876Y30360D01*
X202239Y30064D01*
X202635Y29808D01*
X202742Y29750D01*
X202857Y29690D01*
X202966Y29637D01*
X203056Y29597D01*
X203127Y29567D01*
X203187Y29541D01*
X203231Y29521D01*
X203250Y29512D01*
X203229Y29482D01*
X203163Y29408D01*
X203063Y29301D01*
X202938Y29171D01*
X202791Y29021D01*
X202631Y28857D01*
X202478Y28700D01*
X202349Y28569D01*
X202085Y28297D01*
X202407Y27944D01*
X202532Y27807D01*
X202633Y27693D01*
X202699Y27614D01*
X202721Y27582D01*
X202654Y27597D01*
X202500Y27654D01*
X202300Y27735D01*
X202091Y27826D01*
X201489Y28152D01*
X200897Y28566D01*
X200352Y29038D01*
X199891Y29540D01*
X199381Y30274D01*
X198979Y31058D01*
X198693Y31875D01*
X198533Y32706D01*
X198521Y32813D01*
X198509Y32915D01*
X198499Y33001D01*
X198493Y33058D01*
G37*
G36*
X201894Y33167D02*X201886Y33261D01*
X201881Y33387D01*
X201879Y33528D01*
X201881Y33669D01*
X201921Y34057D01*
X202011Y34431D01*
X202150Y34788D01*
X202336Y35121D01*
X202564Y35427D01*
X202833Y35702D01*
X203140Y35943D01*
X203482Y36143D01*
X203578Y36191D01*
X203650Y36225D01*
X203700Y36243D01*
X203734Y36246D01*
X203754Y36231D01*
X203763Y36198D01*
X203766Y36146D01*
X203767Y36074D01*
Y35885D01*
X203591Y35771D01*
X203508Y35711D01*
X203413Y35633D01*
X203315Y35545D01*
X203228Y35460D01*
X202961Y35121D01*
X202778Y34754D01*
X202680Y34357D01*
X202663Y33928D01*
X202713Y33532D01*
X202822Y33193D01*
X203002Y32885D01*
X203265Y32583D01*
X203376Y32478D01*
X203489Y32379D01*
X203596Y32296D01*
X203685Y32236D01*
X203845Y32158D01*
X204043Y32079D01*
X204216Y32021D01*
X204299Y32008D01*
X204301Y32055D01*
X204303Y32186D01*
X204305Y32391D01*
X204306Y32661D01*
X204307Y32989D01*
X204309Y33363D01*
X204309Y33776D01*
X204309Y34217D01*
X205179Y34301D01*
X205178Y33961D01*
X205177Y33544D01*
Y31996D01*
X205238Y32014D01*
X205557Y32161D01*
X205869Y32418D01*
X206083Y32672D01*
X206230Y32939D01*
X206316Y33229D01*
X206344Y33552D01*
X206304Y33918D01*
X206185Y34256D01*
X205993Y34559D01*
X205730Y34819D01*
X205672Y34861D01*
X205601Y34907D01*
X205524Y34952D01*
X205445Y34996D01*
X205370Y35034D01*
X205302Y35065D01*
X205247Y35085D01*
X205211Y35093D01*
X205202Y35076D01*
X205194Y35022D01*
X205189Y34924D01*
X205184Y34776D01*
X205181Y34570D01*
X205179Y34301D01*
X204309Y34217D01*
X204310Y36417D01*
X204561Y36436D01*
X204924Y36437D01*
X205291Y36390D01*
X205654Y36295D01*
X206002Y36155D01*
X206301Y35990D01*
X206574Y35795D01*
X206820Y35572D01*
X207038Y35324D01*
X207226Y35052D01*
X207382Y34757D01*
X207505Y34443D01*
X207593Y34111D01*
X207633Y33807D01*
X207641Y33470D01*
X207618Y33137D01*
X207564Y32843D01*
X207413Y32409D01*
X207200Y32010D01*
X206934Y31652D01*
X206621Y31341D01*
X206267Y31081D01*
X205879Y30881D01*
X205463Y30744D01*
X205028Y30676D01*
X204369Y30693D01*
X203763Y30835D01*
X203215Y31103D01*
X202730Y31495D01*
X202526Y31718D01*
X202356Y31949D01*
X202202Y32218D01*
X202043Y32556D01*
X202001Y32674D01*
X201958Y32832D01*
X201920Y33004D01*
X201894Y33167D01*
G37*
G36*
X203688Y27253D02*X202689Y28270D01*
X203666Y29268D01*
X203863Y29469D01*
X204047Y29657D01*
X204215Y29828D01*
X204363Y29977D01*
X204486Y30102D01*
X204580Y30196D01*
X204641Y30257D01*
X204666Y30280D01*
X204675Y30245D01*
X204682Y30138D01*
X204687Y29977D01*
X204689Y29777D01*
Y29260D01*
X204903D01*
X205303Y29294D01*
X205755Y29385D01*
X206208Y29523D01*
X206612Y29693D01*
X207050Y29946D01*
X207450Y30244D01*
X207810Y30583D01*
X208126Y30961D01*
X208398Y31372D01*
X208620Y31814D01*
X208792Y32282D01*
X208909Y32774D01*
X208950Y33123D01*
X208961Y33525D01*
X208944Y33925D01*
X208899Y34267D01*
X208729Y34899D01*
X208478Y35474D01*
X208141Y36002D01*
X207715Y36491D01*
X207406Y36777D01*
X207130Y36990D01*
X207022Y37059D01*
X206894Y37134D01*
X206757Y37211D01*
X206618Y37285D01*
X206489Y37351D01*
X206377Y37404D01*
X206293Y37440D01*
X206244Y37453D01*
X206219Y37457D01*
X206208Y37469D01*
X206253Y37521D01*
X206376Y37652D01*
X206556Y37843D01*
X206778Y38071D01*
X206999Y38301D01*
X207180Y38493D01*
X207302Y38625D01*
X207347Y38680D01*
X207321Y38716D01*
X207250Y38799D01*
X207146Y38916D01*
X207018Y39055D01*
X206891Y39193D01*
X206789Y39307D01*
X206722Y39387D01*
X206700Y39419D01*
X206732Y39413D01*
X206808Y39387D01*
X206918Y39346D01*
X207050Y39295D01*
X207564Y39061D01*
X208052Y38784D01*
X208510Y38467D01*
X208938Y38111D01*
X209332Y37719D01*
X209689Y37293D01*
X210008Y36834D01*
X210286Y36346D01*
X210589Y35656D01*
X210805Y34944D01*
X210934Y34218D01*
X210976Y33484D01*
X210932Y32750D01*
X210801Y32024D01*
X210583Y31312D01*
X210278Y30622D01*
X209855Y29921D01*
X209345Y29286D01*
X208760Y28724D01*
X208111Y28243D01*
X207408Y27848D01*
X206663Y27548D01*
X205886Y27351D01*
X205089Y27261D01*
X204689Y27245D01*
X204687Y26236D01*
X203688Y27253D01*
G37*
G36*
X185220Y26331D02*X185217Y26383D01*
X185213Y26511D01*
X185592Y26464D01*
X185725Y26331D01*
X186831Y26329D01*
X188630Y26328D01*
X190203D01*
X191548Y26330D01*
X192661Y26333D01*
X193537Y26339D01*
X194173Y26346D01*
X194565Y26355D01*
X194708Y26365D01*
X194752Y26408D01*
X194787Y26465D01*
X194794Y26586D01*
X194799Y26915D01*
X194804Y27457D01*
X194807Y28219D01*
X194809Y29203D01*
X194810Y30415D01*
X194809Y31859D01*
X194808Y33542D01*
X194801Y40550D01*
X194737Y40602D01*
X194724Y40611D01*
X194703Y40619D01*
X194669Y40625D01*
X194615Y40631D01*
X194536Y40636D01*
X194424Y40640D01*
X194275Y40644D01*
X194081Y40647D01*
X193837Y40649D01*
X193537Y40650D01*
X193173Y40652D01*
X192741Y40652D01*
X192233Y40653D01*
X191644D01*
X190969Y40654D01*
X185725D01*
X185658Y40587D01*
X185592Y40520D01*
Y26464D01*
X185213Y26511D01*
X185210Y26711D01*
X185206Y26977D01*
X185204Y27304D01*
X185200Y27687D01*
X185198Y28120D01*
X185196Y28600D01*
X185194Y29120D01*
X185192Y29676D01*
X185190Y30263D01*
X185189Y30875D01*
X185188Y31507D01*
X185187Y32155D01*
X185186Y32813D01*
X185186Y33476D01*
Y34797D01*
X185186Y35445D01*
X185187Y36078D01*
X185187Y36690D01*
X185189Y37278D01*
X185190Y37834D01*
X185191Y38355D01*
X185193Y38836D01*
X185195Y39270D01*
X185198Y39655D01*
X185200Y39983D01*
X185204Y40250D01*
X185207Y40451D01*
X185210Y40581D01*
X185214Y40635D01*
X185262Y40741D01*
X185344Y40848D01*
X185444Y40943D01*
X185551Y41010D01*
X185572Y41018D01*
X185603Y41026D01*
X185647Y41032D01*
X185711Y41037D01*
X185802Y41043D01*
X185924Y41046D01*
X186085Y41050D01*
X186289Y41052D01*
X186542Y41055D01*
X186851Y41056D01*
X187221Y41057D01*
X187659Y41058D01*
X188169Y41059D01*
X188758Y41060D01*
X192119D01*
X192615Y41059D01*
X193046Y41058D01*
X193418Y41057D01*
X193733Y41056D01*
X193999Y41054D01*
X194217Y41051D01*
X194394Y41048D01*
X194534Y41045D01*
X194642Y41041D01*
X194721Y41036D01*
X194777Y41031D01*
X194813Y41025D01*
X194836Y41019D01*
X195013Y40902D01*
X195149Y40721D01*
X195208Y40613D01*
Y26371D01*
X195150Y26263D01*
X195091Y26170D01*
X195025Y26095D01*
X194943Y26034D01*
X194842Y25980D01*
X194819Y25970D01*
X194792Y25962D01*
X194753Y25955D01*
X194697Y25949D01*
X194617Y25943D01*
X194505Y25939D01*
X194356Y25935D01*
X194162Y25932D01*
X193917Y25930D01*
X193615Y25928D01*
X193248Y25926D01*
X192811Y25926D01*
X192296Y25925D01*
X191697D01*
X191007Y25924D01*
X189030D01*
X188048Y25926D01*
X187259Y25928D01*
X186646Y25931D01*
X186191Y25935D01*
X185878Y25941D01*
X185689Y25948D01*
X185608Y25957D01*
X185496Y26014D01*
X185378Y26110D01*
X185279Y26222D01*
X185220Y26331D01*
G37*
G36*
X190176Y31743D02*X190161Y31916D01*
X190167Y32119D01*
X190670Y32046D01*
X190684Y31902D01*
X190737Y31773D01*
X190828Y31663D01*
X190936Y31585D01*
X191064Y31535D01*
X191229Y31508D01*
X191451Y31501D01*
X191602Y31504D01*
X191709Y31513D01*
X191795Y31532D01*
X191879Y31565D01*
X192035Y31662D01*
X192143Y31792D01*
X192198Y31950D01*
X192200Y32132D01*
X192170Y32255D01*
X192115Y32355D01*
X192032Y32437D01*
X191917Y32507D01*
X191826Y32548D01*
X191740Y32571D01*
X191630Y32581D01*
X191464Y32583D01*
X191336Y32580D01*
X191217Y32572D01*
X191116Y32561D01*
X191045Y32547D01*
X190932Y32494D01*
X190828Y32411D01*
X190744Y32310D01*
X190694Y32203D01*
X190670Y32046D01*
X190167Y32119D01*
X190191Y32324D01*
X190233Y32498D01*
X190335Y32719D01*
X190484Y32909D01*
X190674Y33062D01*
X190900Y33172D01*
X191100Y33217D01*
X191368Y33242D01*
X191643Y33245D01*
X191865Y33222D01*
X192119Y33140D01*
X192335Y33009D01*
X192504Y32837D01*
X192618Y32631D01*
X192708Y32233D01*
X192696Y31832D01*
X192589Y31466D01*
X192391Y31176D01*
X192187Y31015D01*
X191944Y30907D01*
X191657Y30850D01*
X191315Y30840D01*
X190865Y30908D01*
X190531Y31076D01*
X190304Y31352D01*
X190176Y31743D01*
G37*
G36*
X188493Y35121D02*X188467Y35140D01*
X188451Y35170D01*
X188443Y35214D01*
X188440Y35278D01*
X188447Y35376D01*
X188475Y35435D01*
X188531Y35464D01*
X188622Y35472D01*
X188685Y35470D01*
X188724Y35460D01*
X188749Y35437D01*
X188768Y35398D01*
X188786Y35322D01*
X188785Y35253D01*
X188765Y35193D01*
X188730Y35144D01*
X188682Y35110D01*
X188626Y35093D01*
X188561Y35096D01*
X188493Y35121D01*
G37*
G36*
X187004Y35915D02*X186950Y36145D01*
X187015Y36383D01*
X187209Y36305D01*
X187191Y36217D01*
X187208Y36139D01*
X187260Y36080D01*
X187362Y36046D01*
X187444Y36082D01*
X187498Y36183D01*
X187517Y36342D01*
Y36476D01*
X187425D01*
X187337Y36458D01*
X187262Y36393D01*
X187209Y36305D01*
X187015Y36383D01*
X187063Y36480D01*
X187083Y36524D01*
X187067Y36528D01*
X187028Y36530D01*
X186998Y36534D01*
X186983Y36552D01*
X186978Y36591D01*
X186980Y36659D01*
X186989Y36788D01*
X187509D01*
X187796Y36787D01*
X187962Y36780D01*
X188050Y36763D01*
X188106Y36732D01*
X188183Y36657D01*
X188237Y36563D01*
X188267Y36445D01*
X188277Y36298D01*
X188270Y36162D01*
X188249Y36043D01*
X188217Y35941D01*
X188174Y35861D01*
X188124Y35804D01*
X188068Y35774D01*
X188007Y35774D01*
X187944Y35805D01*
X187921Y35826D01*
X187914Y35852D01*
X187926Y35893D01*
X187954Y35961D01*
X188019Y36155D01*
X188021Y36308D01*
X187961Y36414D01*
X187840Y36466D01*
X187742Y36482D01*
X187730Y36256D01*
X187694Y36017D01*
X187619Y35849D01*
X187501Y35749D01*
X187340Y35717D01*
X187232Y35730D01*
X187138Y35768D01*
X187062Y35830D01*
X187004Y35915D01*
G37*
G36*
X186993Y37145D02*X186980Y37200D01*
X186975Y37305D01*
X186985Y37419D01*
X187018Y37463D01*
X187065Y37470D01*
X187163Y37475D01*
X187295Y37479D01*
X187450Y37480D01*
X187838D01*
X187908Y37563D01*
X187957Y37643D01*
X187978Y37728D01*
X187970Y37806D01*
X187934Y37863D01*
X187889Y37881D01*
X187796Y37895D01*
X187649Y37906D01*
X187439Y37914D01*
X186989Y37928D01*
Y38253D01*
X187490D01*
X187827Y38247D01*
X188029Y38223D01*
X188145Y38167D01*
X188224Y38069D01*
X188272Y37928D01*
Y37767D01*
X188228Y37613D01*
X188142Y37493D01*
X188081Y37439D01*
X188159Y37426D01*
X188202Y37414D01*
X188226Y37393D01*
X188238Y37348D01*
X188244Y37269D01*
X188253Y37127D01*
X187632D01*
X187390Y37128D01*
X187188Y37132D01*
X187049Y37138D01*
X186993Y37145D01*
G37*
G36*
X186994Y38809D02*X186958Y38916D01*
Y39052D01*
X186976Y39154D01*
X187008Y39221D01*
X187057Y39258D01*
X187127Y39270D01*
X187200Y39265D01*
X187241Y39243D01*
X187256Y39197D01*
X187253Y39120D01*
X187248Y39054D01*
X187253Y39014D01*
X187273Y38991D01*
X187313Y38972D01*
X187364Y38962D01*
X187451Y38953D01*
X187561Y38947D01*
X187682Y38944D01*
X187979D01*
Y39093D01*
X187981Y39174D01*
X187989Y39221D01*
X188010Y39246D01*
X188046Y39259D01*
X188115Y39266D01*
X188182Y39259D01*
X188219Y39246D01*
X188239Y39221D01*
X188248Y39175D01*
X188250Y39094D01*
Y38947D01*
X188406Y38939D01*
X188562Y38931D01*
Y38633D01*
X188407Y38625D01*
X188319Y38619D01*
X188272Y38606D01*
X188252Y38580D01*
X188245Y38530D01*
X188238Y38481D01*
X188221Y38455D01*
X188183Y38444D01*
X188114Y38443D01*
X188045Y38444D01*
X188008Y38455D01*
X187991Y38481D01*
X187984Y38531D01*
X187976Y38619D01*
X187604D01*
X187340Y38626D01*
X187169Y38655D01*
X187064Y38712D01*
X186994Y38809D01*
G37*
G36*
X190236Y28236D02*X190215Y28337D01*
X190206Y28491D01*
X190211Y28647D01*
X190230Y28757D01*
X190256Y28826D01*
X191560D01*
Y28975D01*
X191548Y29111D01*
X191514Y29230D01*
X191459Y29330D01*
X191385Y29406D01*
X191257Y29485D01*
X191059Y29583D01*
X190817Y29689D01*
X190554Y29791D01*
X190441Y29836D01*
X190347Y29879D01*
X190279Y29917D01*
X190243Y29948D01*
X190210Y30073D01*
X190200Y30270D01*
X190213Y30464D01*
X190246Y30575D01*
X190265Y30591D01*
X190283Y30601D01*
X190307Y30605D01*
X190339Y30601D01*
X190383Y30588D01*
X190444Y30567D01*
X190526Y30535D01*
X190630Y30492D01*
X191038Y30319D01*
X191318Y30185D01*
X191501Y30074D01*
X191621Y29967D01*
X191743Y29831D01*
X191848Y30013D01*
X191986Y30202D01*
X192152Y30330D01*
X192357Y30403D01*
X192610Y30427D01*
X192914Y30382D01*
X193158Y30249D01*
X193342Y30029D01*
X193461Y29721D01*
X193479Y29617D01*
X193490Y29454D01*
X193497Y29223D01*
X193499Y28912D01*
X193005Y28826D01*
X192991Y29124D01*
X192956Y29413D01*
X192876Y29601D01*
X192739Y29703D01*
X192536Y29734D01*
X192402Y29719D01*
X192290Y29674D01*
X192200Y29600D01*
X192131Y29495D01*
X192103Y29426D01*
X192086Y29347D01*
X192077Y29245D01*
X192075Y29103D01*
Y28826D01*
X193005D01*
X193499Y28912D01*
X193498Y28546D01*
X193491Y28344D01*
X193476Y28251D01*
X193446Y28214D01*
X193418Y28203D01*
X193359Y28194D01*
X193261Y28187D01*
X193113Y28183D01*
X192905Y28179D01*
X192628Y28177D01*
X192273Y28176D01*
X190265D01*
X190236Y28236D01*
G37*
G36*
X186998Y28316D02*X186961Y28477D01*
X186956Y28654D01*
X186981Y28825D01*
X187034Y28969D01*
X187073Y29033D01*
X187109Y29069D01*
X187159Y29085D01*
X187240Y29093D01*
X187340Y29091D01*
X187382Y29075D01*
X187376Y29053D01*
X187361Y29012D01*
X187338Y28957D01*
X187311Y28895D01*
X187251Y28659D01*
X187296Y28460D01*
X187437Y28312D01*
X187669Y28227D01*
X187895Y28215D01*
X188102Y28253D01*
X188269Y28335D01*
X188377Y28456D01*
X188413Y28563D01*
X188419Y28682D01*
X188397Y28805D01*
X188347Y28921D01*
X188300Y29016D01*
X188291Y29071D01*
X188343Y29094D01*
X188432Y29097D01*
X188526Y29082D01*
X188591Y29051D01*
X188646Y28977D01*
X188685Y28879D01*
X188709Y28758D01*
X188717Y28616D01*
X188667Y28318D01*
X188518Y28085D01*
X188277Y27924D01*
X187950Y27838D01*
X187795Y27833D01*
X187622Y27850D01*
X187459Y27883D01*
X187331Y27930D01*
X187225Y28000D01*
X187131Y28091D01*
X187054Y28198D01*
X186998Y28316D01*
G37*
G36*
X186973Y29667D02*X186957Y29761D01*
X186951Y29880D01*
X186957Y30000D01*
X186974Y30098D01*
X187017Y30204D01*
X187078Y30298D01*
X187160Y30379D01*
X187260Y30446D01*
X187339Y30485D01*
X187412Y30508D01*
X187500Y30518D01*
X187626Y30520D01*
X187823Y30507D01*
X187976Y30467D01*
X188094Y30395D01*
X188187Y30289D01*
X188229Y30219D01*
X188252Y30150D01*
X188261Y30056D01*
X188263Y29909D01*
X188004Y29910D01*
X187993Y29999D01*
X187964Y30067D01*
X187823Y30157D01*
X187616Y30181D01*
X187408Y30143D01*
X187263Y30044D01*
X187222Y29932D01*
X187233Y29813D01*
X187290Y29709D01*
X187385Y29643D01*
X187555Y29613D01*
X187734Y29624D01*
X187886Y29670D01*
X187976Y29744D01*
X188000Y29819D01*
X188004Y29910D01*
X188263Y29909D01*
X188261Y29759D01*
X188252Y29666D01*
X188227Y29598D01*
X188181Y29527D01*
X188139Y29476D01*
X188087Y29424D01*
X188031Y29378D01*
X187978Y29342D01*
X187906Y29306D01*
X187833Y29286D01*
X187738Y29276D01*
X187599Y29274D01*
X187457Y29276D01*
X187362Y29286D01*
X187289Y29309D01*
X187213Y29350D01*
X187130Y29408D01*
X187064Y29478D01*
X187013Y29563D01*
X186973Y29667D01*
G37*
G36*
X190238Y33872D02*X190215Y33974D01*
X190204Y34128D01*
X190209Y34286D01*
X190230Y34399D01*
X190256Y34469D01*
X191641D01*
Y35689D01*
X190964D01*
X190576Y35690D01*
X190370Y35697D01*
X190281Y35715D01*
X190245Y35750D01*
X190216Y35849D01*
X190203Y36007D01*
X190207Y36174D01*
X190230Y36298D01*
X190256Y36367D01*
X191856D01*
X192464Y36369D01*
X192904Y36368D01*
X193203Y36360D01*
X193388Y36338D01*
X193484Y36297D01*
X193519Y36230D01*
X193518Y36132D01*
X193508Y35998D01*
X193502Y35876D01*
X193492Y35793D01*
X193478Y35741D01*
X193458Y35716D01*
X193395Y35706D01*
X193252Y35698D01*
X193052Y35692D01*
X192814Y35690D01*
X192210Y35689D01*
Y34469D01*
X193075D01*
X193252Y34467D01*
X193375Y34456D01*
X193453Y34433D01*
X193496Y34390D01*
X193513Y34324D01*
X193513Y34228D01*
X193508Y34099D01*
X193502Y33977D01*
X193492Y33893D01*
X193478Y33843D01*
X193458Y33817D01*
X193331Y33807D01*
X193003Y33800D01*
X192499Y33797D01*
X191845Y33798D01*
X190272Y33804D01*
X190238Y33872D01*
G37*
G36*
X190188Y37483D02*X190161Y37866D01*
X190215Y38236D01*
X190343Y38557D01*
X190535Y38796D01*
X190805Y38958D01*
X191139Y39019D01*
X191270Y39023D01*
X191367Y39018D01*
X191450Y39002D01*
X191540Y38972D01*
X191715Y38883D01*
X191865Y38743D01*
X192013Y38524D01*
X192184Y38198D01*
X192326Y37920D01*
X192433Y37752D01*
X192528Y37665D01*
X192637Y37626D01*
X192723D01*
X192815Y37653D01*
X192898Y37701D01*
X192958Y37763D01*
X193019Y37917D01*
X193030Y38109D01*
X192992Y38325D01*
X192904Y38557D01*
X192864Y38644D01*
X192839Y38711D01*
X192829Y38760D01*
X192838Y38794D01*
X192865Y38817D01*
X192915Y38829D01*
X192987Y38835D01*
X193083Y38836D01*
X193199Y38834D01*
X193273Y38825D01*
X193321Y38806D01*
X193363Y38772D01*
X193392Y38732D01*
X193425Y38672D01*
X193457Y38600D01*
X193483Y38524D01*
X193540Y38285D01*
X193561Y38051D01*
X193549Y37828D01*
X193504Y37619D01*
X193428Y37431D01*
X193323Y37266D01*
X193189Y37130D01*
X193028Y37026D01*
X192939Y36986D01*
X192857Y36963D01*
X192758Y36953D01*
X192617Y36951D01*
X192476Y36953D01*
X192377Y36963D01*
X192295Y36987D01*
X192205Y37027D01*
X192052Y37123D01*
X191917Y37260D01*
X191784Y37460D01*
X191635Y37745D01*
X191552Y37910D01*
X191473Y38052D01*
X191405Y38160D01*
X191353Y38227D01*
X191299Y38276D01*
X191252Y38305D01*
X191198Y38317D01*
X191123Y38320D01*
X191004Y38310D01*
X190908Y38276D01*
X190833Y38219D01*
X190776Y38137D01*
X190712Y37940D01*
X190705Y37717D01*
X190753Y37474D01*
X190856Y37218D01*
X190926Y37073D01*
X190956Y36988D01*
X190949Y36941D01*
X190910Y36911D01*
X190822Y36890D01*
X190691Y36884D01*
X190558Y36892D01*
X190461Y36915D01*
X190386Y36986D01*
X190307Y37120D01*
X190238Y37294D01*
X190188Y37483D01*
G37*
G36*
X187008Y30793D02*X186983Y30839D01*
X186981Y30962D01*
X186989Y31119D01*
X187414Y31126D01*
X187839Y31133D01*
X187909Y31216D01*
X187967Y31322D01*
X187973Y31422D01*
X187927Y31504D01*
X187834Y31553D01*
X187780Y31559D01*
X187677Y31564D01*
X187539Y31569D01*
X187382Y31573D01*
X186989Y31580D01*
Y31878D01*
X187395Y31885D01*
X187802Y31893D01*
X187890Y31979D01*
X187957Y32065D01*
X187981Y32151D01*
X187965Y32229D01*
X187905Y32291D01*
X187851Y32316D01*
X187764Y32332D01*
X187622Y32343D01*
X187402Y32349D01*
X186972Y32359D01*
X186981Y32512D01*
X186989Y32665D01*
X187490D01*
X187754Y32663D01*
X187919Y32656D01*
X188017Y32641D01*
X188082Y32616D01*
X188166Y32554D01*
X188228Y32472D01*
X188265Y32371D01*
X188277Y32254D01*
X188273Y32178D01*
X188259Y32116D01*
X188231Y32054D01*
X188185Y31980D01*
X188092Y31846D01*
X188178Y31760D01*
X188225Y31708D01*
X188250Y31658D01*
X188261Y31592D01*
X188263Y31487D01*
X188261Y31383D01*
X188250Y31312D01*
X188223Y31255D01*
X188174Y31189D01*
X188085Y31078D01*
X188253D01*
X188244Y30935D01*
X188237Y30793D01*
X187640Y30786D01*
X187406Y30784D01*
X187209Y30784D01*
X187069Y30787D01*
X187008Y30793D01*
G37*
G36*
X186506Y33052D02*X186491Y33162D01*
X186504Y33269D01*
X186519Y33302D01*
X186560Y33321D01*
X186650Y33328D01*
X186818Y33330D01*
X187115D01*
X187330Y33425D01*
X187382Y33371D01*
X187430Y33343D01*
X187498Y33331D01*
X187610Y33330D01*
X187720Y33331D01*
X187789Y33343D01*
X187839Y33369D01*
X187890Y33417D01*
X187964Y33509D01*
X187995Y33589D01*
X187984Y33661D01*
X187932Y33733D01*
X187809Y33810D01*
X187655Y33842D01*
X187489Y33826D01*
X187334Y33764D01*
X187266Y33698D01*
X187243Y33617D01*
X187264Y33525D01*
X187330Y33425D01*
X187115Y33330D01*
X187046Y33412D01*
X186957Y33594D01*
X186963Y33791D01*
X187057Y33974D01*
X187231Y34115D01*
X187311Y34150D01*
X187389Y34172D01*
X187486Y34181D01*
X187626Y34184D01*
X187764Y34181D01*
X187862Y34172D01*
X187940Y34151D01*
X188019Y34116D01*
X188144Y34038D01*
X188224Y33946D01*
X188265Y33832D01*
X188271Y33690D01*
X188263Y33601D01*
X188246Y33530D01*
X188217Y33467D01*
X188172Y33398D01*
X188084Y33275D01*
X188167D01*
X188214Y33272D01*
X188239Y33257D01*
X188248Y33217D01*
X188250Y33140D01*
Y33004D01*
X187384D01*
X187117Y33004D01*
X186910Y33005D01*
X186757Y33007D01*
X186648Y33011D01*
X186577Y33017D01*
X186535Y33025D01*
X186514Y33037D01*
X186506Y33052D01*
G37*
G36*
X187897Y34469D02*X186972D01*
X186981Y34625D01*
X186989Y34781D01*
X188806D01*
X188822Y34469D01*
X187897D01*
G37*
G36*
X187008Y35132D02*X186983Y35180D01*
X186981Y35303D01*
X186989Y35459D01*
X188237D01*
Y35133D01*
X187640Y35126D01*
X187406Y35124D01*
X187209Y35125D01*
X187069Y35128D01*
X187008Y35132D01*
G37*
G36*
X95719Y51833D02*X91718Y52043D01*
X87928Y52309D01*
X85183Y51439D01*
X82389Y50926D01*
X82132Y51522D01*
X86197Y52409D01*
X82034Y52392D01*
X77665Y51796D01*
X78690Y51522D01*
X82132D01*
X82389Y50926D01*
X79569Y50881D01*
X76749Y51420D01*
X76547Y51622D01*
X77015Y52254D01*
X78535Y52693D01*
X80237Y52968D01*
X81272Y53051D01*
X88065D01*
X91452Y54653D01*
X93878Y56620D01*
X93680Y57391D01*
X93009Y57994D01*
X90766Y58882D01*
X87882Y59478D01*
X85062Y59963D01*
X83039Y60539D01*
X82542Y60920D01*
X82546Y61409D01*
X83110Y62023D01*
X84293Y62773D01*
X86225Y63689D01*
X89017Y64815D01*
X91736Y65758D01*
X94501Y66692D01*
X97195Y67744D01*
X99729Y69026D01*
X96717Y69603D01*
X93485Y69805D01*
X90207D01*
X87113Y69741D01*
X84568Y69667D01*
X83103Y69603D01*
X82206Y69548D01*
X81290Y69520D01*
X79807D01*
X77262Y69567D01*
X74808Y69603D01*
X71283Y69686D01*
X67274Y69996D01*
X63382Y70638D01*
X60208Y71782D01*
X59066Y72586D01*
X58365Y73577D01*
X58420Y74034D01*
X58878Y74025D01*
X60086Y72661D01*
X61918Y71745D01*
X64115Y71159D01*
X66404Y70839D01*
X68564Y70674D01*
X70294Y70555D01*
X73993Y70299D01*
X76614Y70198D01*
X78672Y70180D01*
X80722Y70226D01*
X83341Y70326D01*
X87049Y70418D01*
X92331Y70436D01*
X97586Y70116D01*
X98328Y69996D01*
X99600Y69686D01*
X100553Y69228D01*
X100369Y68615D01*
X97696Y67259D01*
X94895Y66170D01*
X92030Y65163D01*
X89191Y64128D01*
X86916Y63229D01*
X85330Y62499D01*
X84341Y61917D01*
X83854Y61464D01*
X84174Y60851D01*
X85776Y60457D01*
X88138Y60137D01*
X90702Y59697D01*
X92926Y58928D01*
X94291Y57674D01*
X94339Y56081D01*
X93167Y54799D01*
X91461Y53829D01*
X89969Y53151D01*
X89493Y52950D01*
X92615Y52675D01*
X95746Y52511D01*
X96039Y52162D01*
X95719Y51833D01*
G37*
G36*
X103702Y68456D02*X107522D01*
Y67779D01*
X106989D01*
X107474Y67331D01*
X107639Y66662D01*
X107062Y65518D01*
X105524Y65087D01*
X103986Y65518D01*
X103409Y66662D01*
X103574Y67340D01*
X104087Y67779D01*
X104373Y67531D01*
X103968Y66818D01*
X104373Y66067D01*
X105524Y65802D01*
X106678Y66057D01*
X107062Y66818D01*
X106678Y67531D01*
X105524Y67779D01*
X104373Y67531D01*
X104087Y67779D01*
X103602D01*
X102659Y67531D01*
X102365Y66735D01*
X102448Y66195D01*
X102695Y65545D01*
X102029D01*
X101883Y66158D01*
X101825Y66735D01*
X102301Y68017D01*
X103702Y68456D01*
G37*
G36*
X103436Y72318D02*Y72995D01*
X105984D01*
X107229Y72693D01*
X107639Y71750D01*
X107456Y71027D01*
X106925Y70542D01*
X107539D01*
Y69864D01*
X103436D01*
Y70542D01*
X105753D01*
X106717Y70798D01*
X107053Y71522D01*
X106790Y72126D01*
X105984Y72318D01*
X103436D01*
G37*
G36*
X81070Y76465D02*X83432Y76767D01*
X84670Y76951D01*
X85183D01*
X85346Y76731D01*
X84963Y76236D01*
X83240Y76017D01*
X83524Y74863D01*
X82901Y73792D01*
X81775Y72904D01*
X80558Y72318D01*
X79285Y71970D01*
X77600Y71769D01*
X76054Y71906D01*
X75183Y72657D01*
X75275Y73654D01*
X75852Y73499D01*
X76072Y72720D01*
X77747Y72455D01*
X80026Y72757D01*
X82050Y73691D01*
X82732Y74407D01*
X83002Y75302D01*
X82327Y75989D01*
X81711Y75833D01*
X80960Y75641D01*
X80219Y75458D01*
X79606Y75302D01*
X78754Y75028D01*
X77902Y74726D01*
X76525Y74059D01*
X75852Y73499D01*
X75275Y73654D01*
X76054Y74487D01*
X77280Y75183D01*
X78754Y75751D01*
X75916Y76053D01*
X74815Y76383D01*
X74131Y76904D01*
X73893Y77344D01*
X73728Y77820D01*
X73947Y78223D01*
X74344Y78058D01*
X74469Y77701D01*
X74643Y77344D01*
X75760Y76767D01*
X77289Y76474D01*
X79111Y76392D01*
X81070Y76465D01*
G37*
G36*
X80935Y79466D02*X81546Y79923D01*
X82169Y80427D01*
X82645Y80866D01*
X82840Y81159D01*
X82526Y81315D01*
X81793Y81553D01*
X80942Y81773D01*
X80283Y81910D01*
X78855Y82093D01*
X77656Y82249D01*
X76394Y82368D01*
X74881Y82451D01*
X73929Y79612D01*
X72537Y77387D01*
X71561Y76316D01*
X70743Y75474D01*
X69819Y74742D01*
X68528Y74028D01*
X65470Y73176D01*
X61854Y73194D01*
X58485Y74266D01*
X57148Y75250D01*
X56223Y76572D01*
X55788Y77946D01*
X55903Y79082D01*
X57230Y80784D01*
X59372Y81874D01*
X61560Y82587D01*
X61918Y82057D01*
X58466Y80894D01*
X57367Y80100D01*
X56717Y79100D01*
X56873Y76811D01*
X58523Y75099D01*
X60947Y74092D01*
X63602Y73707D01*
X65909Y73854D01*
X68290Y74669D01*
X70359Y76078D01*
X72080Y77928D01*
X73353Y80106D01*
X73645Y80949D01*
X74030Y82487D01*
X70212Y82633D01*
X66010Y82569D01*
X61918Y82057D01*
X61560Y82587D01*
X63959Y83082D01*
X67081Y83329D01*
X70624Y83384D01*
X74241Y83265D01*
X74490Y85233D01*
X74478Y86772D01*
X74323Y87449D01*
X74113Y88053D01*
X74012Y88483D01*
X74204Y88639D01*
X74763Y88091D01*
X75222Y86598D01*
X75257Y84977D01*
X75055Y83201D01*
X78461Y82872D01*
X81171Y82423D01*
X81814Y82295D01*
X82526Y82130D01*
X83139Y81801D01*
X83515Y81261D01*
X83240Y80620D01*
X82406Y79750D01*
X81436Y79035D01*
X80731Y78816D01*
X80466Y79255D01*
X80935Y79466D01*
G37*
G36*
X88642Y80656D02*X88340Y80720D01*
X88046Y81041D01*
X88303Y81361D01*
X88642Y81470D01*
X88992D01*
X89292Y81059D01*
X89054Y80583D01*
X88919D01*
X88642Y80656D01*
G37*
G36*
X76584Y92405D02*X76447Y91928D01*
X76483D01*
X75083Y90665D01*
X74204Y88999D01*
X74680Y87726D01*
X76072Y86994D01*
X78599Y88880D01*
X81785Y90290D01*
X81986Y89648D01*
X79404Y88559D01*
X76822Y86793D01*
X77536Y86692D01*
X79532Y86591D01*
X81814Y86811D01*
X83835Y87552D01*
X85110Y89035D01*
X84508Y89648D01*
X83719Y89868D01*
X81986Y89648D01*
X81785Y90290D01*
X82728Y90463D01*
X84158Y90445D01*
X85392Y90033D01*
X85822Y89035D01*
X84632Y87332D01*
X82169Y86234D01*
X79129Y85841D01*
X76209Y86252D01*
X75596Y86491D01*
X74149Y87488D01*
X73526Y89035D01*
X74197Y90528D01*
X75971Y92331D01*
X76174Y92505D01*
X76209Y92532D01*
Y92505D01*
X76584Y92405D01*
G37*
G36*
X83719Y92892D02*X82626Y92855D01*
X80862Y92809D01*
X78772Y92791D01*
X76713Y92837D01*
X75065Y93029D01*
X74167Y93405D01*
X74344Y93945D01*
X78141Y95153D01*
X81711Y96902D01*
X81674Y97104D01*
X79898Y97634D01*
X78040Y97955D01*
X76273Y98467D01*
X74783Y99557D01*
X74808Y100024D01*
X75257Y100033D01*
X76713Y98989D01*
X78519Y98495D01*
X80402Y98174D01*
X82151Y97616D01*
X82361Y97378D01*
X82370Y97122D01*
X82389Y96838D01*
X82224Y96463D01*
X79065Y94723D01*
X75596Y93643D01*
X79690Y93551D01*
X83792Y93569D01*
X84119Y93194D01*
X83719Y92892D01*
G37*
G36*
X81610Y94231D02*X80846Y94629D01*
X80457Y95274D01*
X80496Y96987D01*
X81254Y98946D01*
X82288Y100722D01*
X79944Y100530D01*
X78214Y100392D01*
X76493Y100311D01*
X74167Y100283D01*
X73554Y100713D01*
X73893Y100961D01*
X76035Y101281D01*
X78433Y102095D01*
X80383Y103405D01*
X81207Y105172D01*
X80622Y105694D01*
X79587Y105272D01*
X78479Y104503D01*
X77701Y103981D01*
X77262Y104192D01*
X77053Y105135D01*
X76932Y106517D01*
X76868Y107909D01*
X76850Y108879D01*
X77225Y109218D01*
X77536Y108806D01*
X77566Y107936D01*
X77646Y106764D01*
X77747Y105593D01*
X77802Y104732D01*
X78754Y105492D01*
X80319Y106398D01*
X80777Y106426D01*
X81207Y106224D01*
X81766Y105336D01*
X81748Y104439D01*
X81290Y103551D01*
X80521Y102727D01*
X77738Y101024D01*
X79212Y101088D01*
X80081Y101180D01*
X80942Y101298D01*
X82426Y101436D01*
X82766Y101473D01*
X83020Y101775D01*
X83213Y102013D01*
X84220Y103112D01*
X84686Y102672D01*
X83680Y101537D01*
X85959Y101775D01*
X88358Y102077D01*
X90702Y102434D01*
X92826Y102828D01*
X94318Y103148D01*
X96222Y103707D01*
X98108Y104476D01*
X99518Y105409D01*
X100175Y106277D01*
X100232Y106984D01*
X99246Y107992D01*
X97568Y108504D01*
X96158Y108642D01*
X94913Y108522D01*
X93641Y108230D01*
X89475Y106426D01*
X85794Y103716D01*
X84686Y102672D01*
X84220Y103112D01*
X85318Y104192D01*
X87049Y105720D01*
X89054Y107039D01*
X91205Y108111D01*
X93403Y108879D01*
X96717Y109337D01*
X98385Y109111D01*
X99894Y108403D01*
X100965Y106783D01*
X100351Y105309D01*
X98841Y104119D01*
X97211Y103341D01*
X96478Y103066D01*
X95371Y102718D01*
X94119Y102398D01*
X92926Y102151D01*
X89997Y101656D01*
X87928Y101335D01*
X85923Y101079D01*
X83139Y100786D01*
X82206Y99294D01*
X81336Y97481D01*
X81043Y95842D01*
X81274Y95233D01*
X81849Y94872D01*
X82013Y94432D01*
X81610Y94231D01*
G37*
G36*
X84330Y111546D02*X83954Y110493D01*
X82626Y109348D01*
X80301Y108726D01*
X77820Y108525D01*
X76007Y108626D01*
X75019Y108909D01*
X74066Y109404D01*
X73353Y110145D01*
X73078Y111170D01*
X73831Y113112D01*
X75650Y114741D01*
X77902Y115683D01*
X79944Y115620D01*
X80502Y115382D01*
X81070Y115117D01*
X81638Y114585D01*
X82022Y113752D01*
X82389Y115822D01*
X82801Y117900D01*
X83222Y118120D01*
X83478Y117734D01*
X82883Y114787D01*
X82462Y111820D01*
X82187Y111546D01*
X81814Y111748D01*
X81638Y112461D01*
X81455Y113276D01*
X81162Y114026D01*
X80695Y114539D01*
X78699Y114906D01*
X76374Y114365D01*
X74490Y113056D01*
X73792Y111207D01*
X74066Y110392D01*
X74662Y109824D01*
X75422Y109485D01*
X76248Y109266D01*
X77976Y109111D01*
X80026Y109266D01*
X81968Y109806D01*
X83341Y110832D01*
X83561Y111289D01*
X83680Y111820D01*
X84137Y112022D01*
X84330Y111546D01*
G37*
G36*
X105325Y74815D02*Y77735D01*
X105652D01*
X107108Y77287D01*
X107639Y76042D01*
X107053Y74641D01*
X105488Y74110D01*
X103903Y74650D01*
X103327Y76142D01*
X103409Y76838D01*
X103647Y77570D01*
X104316D01*
X104006Y76829D01*
X103903Y76151D01*
X104270Y75163D01*
X105304Y74815D01*
X105325D01*
X105854Y74842D01*
X106742Y75218D01*
X107062Y76014D01*
X106760Y76783D01*
X105854Y77058D01*
Y74842D01*
X105325Y74815D01*
G37*
G36*
X109133Y81991D02*Y81313D01*
X107016D01*
X106669Y81065D01*
X105488Y81313D01*
X104306Y81065D01*
X103903Y80315D01*
X104300Y79583D01*
X105488Y79335D01*
X106669Y79583D01*
X107062Y80315D01*
X106669Y81065D01*
X107016Y81313D01*
X107474Y80873D01*
X107639Y80223D01*
X107071Y79052D01*
X105496Y78620D01*
X103913Y79052D01*
X103327Y80223D01*
X103493Y80864D01*
X103950Y81313D01*
X103436D01*
Y81991D01*
X109133D01*
G37*
G36*
X108902Y89422D02*Y87802D01*
X103436D01*
Y89422D01*
X103821Y90878D01*
X104938Y91363D01*
X105911Y91052D01*
X106366Y90209D01*
X106852Y90182D01*
X106650Y89413D01*
Y88552D01*
X108298D01*
Y89413D01*
X108115Y90191D01*
X107511Y90420D01*
X106852Y90182D01*
X106366Y90209D01*
X105798Y90328D01*
X105011Y90622D01*
X104270Y90346D01*
X104041Y89422D01*
Y88552D01*
X106046D01*
Y89422D01*
X105798Y90328D01*
X106366Y90209D01*
X106723Y90933D01*
X107511Y91170D01*
X108536Y90713D01*
X108902Y89422D01*
G37*
G36*
X104755Y94849D02*X107539Y95929D01*
Y95215D01*
X104334Y94016D01*
X107539Y92807D01*
Y92093D01*
X103501Y93677D01*
X102615Y93246D01*
X102439Y92780D01*
Y92386D01*
X101883D01*
Y92926D01*
X102018Y93513D01*
X102448Y93933D01*
X103629Y94419D01*
X104755Y94849D01*
G37*
G36*
X68221Y90717D02*X68615Y90433D01*
X68743Y89967D01*
X68624Y89564D01*
X68294Y89253D01*
X68642D01*
Y88648D01*
X64541D01*
Y89253D01*
X66885D01*
X67956Y89363D01*
X68175Y89729D01*
X67974Y90113D01*
X66885Y90214D01*
X64541D01*
Y90828D01*
X66885D01*
X67956Y90937D01*
X68175Y91341D01*
X67965Y91688D01*
X66885Y91789D01*
X64541D01*
Y92402D01*
X66921D01*
X68359Y92201D01*
X68743Y91505D01*
X68615Y91038D01*
X68221Y90717D01*
G37*
G36*
X64541Y95962D02*Y96630D01*
X66885D01*
X67690Y96575D01*
X68139Y96382D01*
X68587Y95796D01*
X68743Y94926D01*
X68669Y94258D01*
X68450Y93544D01*
X67781D01*
X68074Y94231D01*
X68166Y94926D01*
X67946Y95705D01*
X67232Y95962D01*
X67131D01*
Y95055D01*
X66774Y93709D01*
X65731Y93242D01*
X64788Y93617D01*
X64431Y94616D01*
X64614Y95412D01*
X65144Y95962D01*
X65383Y95632D01*
X64998Y94762D01*
X65200Y94139D01*
X65776Y93920D01*
X66399Y94222D01*
X66600Y95101D01*
Y95962D01*
X66454D01*
X65383Y95632D01*
X65144Y95962D01*
X64541D01*
G37*
G36*
X69383Y100145D02*X70235D01*
Y99467D01*
X69383D01*
Y100145D01*
G37*
G36*
X68120Y98305D02*Y99467D01*
X64467D01*
X63781Y99303D01*
X63552Y98809D01*
Y97948D01*
X62984D01*
Y98882D01*
X63369Y99816D01*
X64467Y100145D01*
X68642D01*
Y98305D01*
X68120D01*
G37*
G36*
X66426Y102935D02*Y105856D01*
X66756D01*
X68212Y105407D01*
X68743Y104162D01*
X68156Y102761D01*
X66591Y102231D01*
X65007Y102770D01*
X64431Y104263D01*
X64513Y104959D01*
X64751Y105691D01*
X65419D01*
X65108Y104949D01*
X65007Y104272D01*
X65374Y103283D01*
X66408Y102935D01*
X66426D01*
X66957Y102963D01*
X67845Y103338D01*
X68166Y104135D01*
X67864Y104904D01*
X66957Y105178D01*
Y102963D01*
X66426Y102935D01*
G37*
G36*
X64541Y109461D02*Y110139D01*
X67085D01*
X68331Y109836D01*
X68743Y108893D01*
X68560Y108170D01*
X68028Y107684D01*
X68642D01*
Y107007D01*
X64541D01*
Y107684D01*
X66856D01*
X67818Y107941D01*
X68156Y108664D01*
X67891Y109268D01*
X67085Y109461D01*
X64541D01*
G37*
G36*
X66939Y112361D02*X70235D01*
Y111665D01*
X64541D01*
Y112361D01*
X66188D01*
X66656Y112864D01*
X64541Y114384D01*
Y115208D01*
X67095Y113341D01*
X68642Y114951D01*
Y114137D01*
X66939Y112361D01*
G37*
G36*
X68743Y117567D02*X68184Y116268D01*
X66591Y115819D01*
X64989Y116268D01*
X64431Y117567D01*
X64989Y118877D01*
X66591Y119325D01*
X68184Y118877D01*
X68743Y117567D01*
X68166D01*
X67772Y118355D01*
X66591Y118612D01*
X65410Y118355D01*
X65007Y117567D01*
X65410Y116798D01*
X66591Y116533D01*
X67772Y116798D01*
X68166Y117567D01*
X68743D01*
G37*
G36*
X65053Y121477D02*X64614Y121651D01*
X64440Y122072D01*
X64614Y122494D01*
X65053Y122667D01*
X65511Y122494D01*
X65676Y122072D01*
X65511Y121651D01*
X65053Y121477D01*
G37*
G36*
X64751Y128222D02*X65447D01*
X65117Y127709D01*
X65007Y127078D01*
X65419Y126107D01*
X66591Y125768D01*
X67763Y126107D01*
X68166Y127078D01*
X68065Y127692D01*
X67717Y128222D01*
X68422D01*
X68661Y127654D01*
X68743Y127078D01*
X68166Y125595D01*
X66591Y125055D01*
X65007Y125595D01*
X64431Y127078D01*
X64513Y127672D01*
X64751Y128222D01*
G37*
G36*
X68743Y131104D02*X68184Y129804D01*
X66591Y129355D01*
X64989Y129804D01*
X64431Y131104D01*
X64989Y132413D01*
X66591Y132862D01*
X68184Y132413D01*
X68743Y131104D01*
X68166D01*
X67772Y131892D01*
X66591Y132147D01*
X65410Y131892D01*
X65007Y131104D01*
X65410Y130335D01*
X66591Y130069D01*
X67772Y130335D01*
X68166Y131104D01*
X68743D01*
G37*
G36*
X65053Y135011D02*X64614Y135185D01*
X64440Y135606D01*
X64614Y136027D01*
X65053Y136201D01*
X65511Y136027D01*
X65676Y135606D01*
X65511Y135185D01*
X65053Y135011D01*
G37*
G36*
X68633Y139266D02*Y138588D01*
X66097D01*
X64852Y138900D01*
X64431Y139833D01*
X64614Y140556D01*
X65154Y141042D01*
X64541D01*
Y141719D01*
X68633D01*
Y141042D01*
X66316D01*
X65355Y140794D01*
X65016Y140062D01*
X65282Y139458D01*
X66097Y139266D01*
X68633D01*
G37*
G36*
X66939Y143944D02*X70235D01*
Y143248D01*
X64541D01*
Y143944D01*
X66188D01*
X66656Y144448D01*
X64541Y145967D01*
Y146791D01*
X67095Y144924D01*
X68642Y146535D01*
Y145720D01*
X66939Y143944D01*
G37*
G54D70*X108619Y62194D02*X108795D01*
X69722Y99806D02*X69896D01*
M02*
